<svg width="1294" height="561" fill="none" xmlns="http://www.w3.org/2000/svg"><path d="M1288.93 62.978c-55.39 6.14-112.4 37.073-138.09 86.528-14.69 28.294-30.12 70.956-51.63 102.64-18.47 27.188-51.99 44.015-79.84 61.445 29.88-1.572 62.89 6.814 87.69 25.934 26.64-32.819 64.09-49.327 102.05-54.844 16.82-2.44 32.45-11.616 46.13-21.686 11.92-8.764 17.21-23.784 20.98-38.08a371.66 371.66 0 0012.03-80.401c.45-11.744.34-23.529 1.44-35.23 1.18-12.623 3.78-25.118-.76-46.32v.014z" fill="url(#prefix__paint0_radial_80_3026)"/><path d="M1107.06 339.525c-43.03-32.875-101.02-30.564-144.788-15.417-15.19 5.262-45.668 14.807-59.979 21.998-19.175 9.63-49.015 25.755-49.015 25.755-21.345 13.346-48.193 30.209-61.737 45.47 38.265-13.218 93.506-21.515 132.083-9.19 6.326 2.014 12.736 4.396 19.388 4.07 8.892-.454 16.693-5.659 23.713-10.963 17.757-13.417 60.615-17.828 79.235-30.096 18.63-12.268 33.77-19.799 61.1-31.613v-.014z" fill="url(#prefix__paint1_radial_80_3026)"/><path d="M1256.47 13.842c-14.34-17.275-76.78-17.956-103.5-4.411-26.72 13.544-45.68 39.002-58.26 66.19-4.31 9.318-8.57 19.813-14.82 27.954-11.62 15.147-38.79 18.976-54.39 34.577 20.87-.95 55.49 2.255 76.37 1.305 7.94-.369 16.01-.751 23.5-3.432 13.2-4.723 22.83-15.856 32.59-25.926 32.45-33.542 81.75-57.344 126.81-69.527-8.75-7.872-8.71-5.905-19.92-19.393l-8.38-7.337z" fill="url(#prefix__paint2_radial_80_3026)"/><path d="M726.436 444.108c-28.351 7.772-58.858 10.906-89.379 16.267-8.58 1.504-17.218 3.021-25.387 6.056-16.196 6.014-29.613 17.559-42.647 28.89-21.047 18.282-43.172 38.251-50.15 65.241 6.751-7.971 16.679-12.424 26.38-16.296a478.532 478.532 0 0186.883-25.458c12.948-2.496 26.039-4.468 38.591-8.524 13.998-4.524 28.45-12.254 41.399-19.232 1.588-33.201 12.098-31.003 14.296-46.944h.014z" fill="url(#prefix__paint3_radial_80_3026)"/><path d="M527.307 356.522c-59.447 13.844-121.222 46.462-161.795 92.086-7.678 8.633-14.859 17.707-22.848 26.056-16.008 16.699-35.237 30.275-56.311 39.788 11.651.114 22.876-3.947 33.931-7.653C401.657 479.535 667.919 416.113 746 380.5c15.681-7.157 35.5-93-31-98-15.128-6.816-173.445 74.405-187.693 74.022z" fill="url(#prefix__paint4_radial_80_3026)"/><path d="M1244.26 285.921c-24.92-1.858-50.37-.113-74.08 7.744s-45.65 22.082-60.45 42.136c-7.85 10.666-13.56 22.707-19.75 34.408-11.93 22.522-25.82 43.966-39.69 65.367 52.65-12.324 151.79-24.025 192.63-59.297 30.21-26.082 57.53-53.384 48.59-78.572-11.26-3.205-21.35-6.117-32.62-9.322-6.82-1.943-11-2.096-14.63-2.45v-.014z" fill="url(#prefix__paint5_radial_80_3026)"/><path opacity=".29" d="M128.197 378.797c-19.756-5.191-59.057 4.496-75.92 16.962-16.863 12.467-30.72 29.302-42.973 47.158C4.723 449.582.17 456.972 0 465.325c33.854 12.254 55.681 30.237 91.138 26.408 35.456-3.829 90.854-5.332 119.176-29.145 4.34-3.659 65.765-39.839 65.34-45.853-78.6 0-101.264-25.798-147.485-37.924l.028-.014z" fill="url(#prefix__paint6_linear_80_3026)"/><path opacity=".53" d="M151.975 362.003c64.783-34.989 56.524-53.946 164.009-76.31C340.421 280.609 682.561 223.072 724 225.5c6.826 55.436-41 61.693-57 69-32.867 15.009-283.536 144.849-319.582 147.093-19.897 1.235-72.844 9.613-92.428 5.907-25.914-4.913-43.213-7.043-59.419-.937 4.527-19.085-6.24-34.211-16.571-44.563-13-12.5-33.906-17.877-52-23.5 8.657-5.325 22.832-15.333 24.989-16.497h-.014z" fill="url(#prefix__paint7_linear_80_3026)"/><defs><radialGradient id="prefix__paint0_radial_80_3026" cx="0" cy="0" r="1" gradientUnits="userSpaceOnUse" gradientTransform="rotate(43.499 335.675 1483.29) scale(165.88 339.845)"><stop stop-color="#FF1FF4"/><stop offset=".66" stop-color="#462567" stop-opacity=".06"/><stop offset=".915" stop-color="#3B265E" stop-opacity="0"/></radialGradient><radialGradient id="prefix__paint1_radial_80_3026" cx="0" cy="0" r="1" gradientUnits="userSpaceOnUse" gradientTransform="rotate(78.417 266.035 742.738) scale(86.1381 385.538)"><stop stop-color="#FF1FF4" stop-opacity=".6"/><stop offset=".574" stop-color="#51386B" stop-opacity="0"/></radialGradient><radialGradient id="prefix__paint2_radial_80_3026" cx="0" cy="0" r="1" gradientUnits="userSpaceOnUse" gradientTransform="rotate(62.78 541.503 924.582) scale(100.168 244.434)"><stop stop-color="#FF1FF4" stop-opacity=".55"/><stop offset=".898" stop-color="#562F70" stop-opacity="0"/></radialGradient><radialGradient id="prefix__paint3_radial_80_3026" cx="0" cy="0" r="1" gradientUnits="userSpaceOnUse" gradientTransform="matrix(37.49999 80.50004 -155.5114 72.44314 604.5 430.5)"><stop offset=".035" stop-color="#FF1FF4" stop-opacity=".6"/><stop offset="1" stop-color="#2B1E57" stop-opacity="0"/></radialGradient><radialGradient id="prefix__paint4_radial_80_3026" cx="0" cy="0" r="1" gradientUnits="userSpaceOnUse" gradientTransform="rotate(61.985 -1.557 550.876) scale(176.706 366.388)"><stop stop-color="#FF1FF4"/><stop offset=".879" stop-color="#2B1E57" stop-opacity="0"/></radialGradient><radialGradient id="prefix__paint5_radial_80_3026" cx="0" cy="0" r="1" gradientUnits="userSpaceOnUse" gradientTransform="rotate(65.329 343.72 1047.317) scale(120.545 210.335)"><stop stop-color="#FF1FF4" stop-opacity=".6"/><stop offset=".713" stop-color="#2B1E57" stop-opacity="0"/></radialGradient><linearGradient id="prefix__paint6_linear_80_3026" x1="125.091" y1="337.114" x2="142.677" y2="480.302" gradientUnits="userSpaceOnUse"><stop stop-color="#FF1FF4"/><stop offset=".14" stop-color="#DE20DB" stop-opacity=".83"/><stop offset=".46" stop-color="#9922A6" stop-opacity=".48"/><stop offset=".72" stop-color="#66247F" stop-opacity=".22"/><stop offset=".9" stop-color="#462567" stop-opacity=".06"/><stop offset="1" stop-color="#3B265E" stop-opacity="0"/></linearGradient><linearGradient id="prefix__paint7_linear_80_3026" x1="302.5" y1="214" x2="373.014" y2="417.995" gradientUnits="userSpaceOnUse"><stop stop-color="#FF1FF4"/><stop offset=".805" stop-color="#3B265E" stop-opacity="0"/></linearGradient></defs></svg>
