<svg width="1292" height="560" fill="none" xmlns="http://www.w3.org/2000/svg"><path d="M1287.93 61.978c-55.39 6.14-112.4 37.073-138.09 86.528-14.69 28.294-30.12 70.956-51.63 102.64-18.47 27.188-51.99 44.015-79.84 61.445 29.88-1.572 62.89 6.814 87.69 25.934 26.64-32.819 64.09-49.327 102.05-54.844 16.82-2.44 32.45-11.616 46.13-21.686 11.92-8.764 17.21-23.784 20.98-38.08a371.66 371.66 0 0012.03-80.401c.45-11.744.34-23.529 1.44-35.23 1.18-12.623 3.78-25.118-.76-46.32v.014z" fill="url(#prefix__paint0_radial_47_522)"/><path d="M1106.06 338.525c-43.03-32.875-101.02-30.564-144.788-15.417-15.19 5.262-45.668 14.807-59.979 21.998-19.175 9.63-49.015 25.755-49.015 25.755-21.345 13.346-48.193 30.209-61.737 45.47 38.265-13.218 93.506-21.515 132.083-9.19 6.326 2.014 12.736 4.396 19.388 4.07 8.892-.454 16.693-5.659 23.713-10.963 17.757-13.417 60.615-17.828 79.235-30.096 18.63-12.268 33.77-19.799 61.1-31.613v-.014z" fill="url(#prefix__paint1_radial_47_522)"/><path d="M1259.47 13.842c-14.34-17.275-76.78-17.956-103.5-4.411-26.72 13.544-45.68 39.002-58.26 66.19-4.31 9.318-8.57 19.813-14.82 27.954-11.62 15.147-38.79 18.977-54.39 34.577 20.87-.95 55.49 2.255 76.37 1.305 7.94-.369 16.01-.751 23.5-3.432 13.2-4.723 22.83-15.856 32.59-25.926 32.45-33.542 81.75-57.344 126.81-69.527-8.75-7.872-8.71-5.905-19.92-19.393l-8.38-7.337z" fill="url(#prefix__paint2_radial_47_522)"/><path d="M726.436 443.108c-28.351 7.772-58.858 10.906-89.379 16.267-8.581 1.504-17.218 3.021-25.387 6.056-16.197 6.014-29.613 17.559-42.647 28.89-21.047 18.282-43.172 38.251-50.15 65.241 6.751-7.971 16.679-12.424 26.38-16.296a478.545 478.545 0 0186.882-25.458c12.949-2.496 26.04-4.468 38.591-8.524 13.999-4.524 28.451-12.254 41.4-19.232 1.588-33.201 12.097-31.003 14.296-46.944h.014z" fill="url(#prefix__paint3_radial_47_522)"/><path d="M526.999 355.303c-59.411 13.828-121.148 46.406-161.696 91.974-7.673 8.624-14.85 17.686-22.834 26.026-15.998 16.678-35.216 30.237-56.277 39.739 11.644.114 22.862-3.942 33.911-7.644 81.323-27.231 168.319-37.456 246.352-73.026 15.672-7.149 33.613-8.836 34.294-44.066-.411 1.035-12.084 10.935-30.124 3.29-4.028-1.702-11.843-5.857-11.843-5.857s-12.707-5.56-16.522-7.276c-15.119-6.807-11.517-9.729-15.261-23.174v.014z" fill="url(#prefix__paint4_radial_47_522)"/><path d="M568.673 337.225c37.172-12.424 89.695-36.47 125.265-52.936 5.389 2.865 7.189 7.093 12.579 9.958 3.744 1.986 9.331 7.235 12.579 9.958 9.999 8.397 10.02 19.896 8.247 32.831-1.773 12.934-8.127 24.777-15.161 35.783a274.13 274.13 0 01-14.552 20.621c-28.479-6.283-58.191-12.566-86.514-5.588-4.765 1.177-11.616 6.723-11.616 6.723s2.738-12.282 4.525-23.643c.383-2.397.02-13.079-.76-15.363-.809-2.411-3.384-6.655-5.242-8.385-8.211-7.659-15.199-8.911-26.73-9.435l-2.62-.524z" fill="url(#prefix__paint5_linear_47_522)"/><path d="M1243.26 283.921c-24.92-1.858-50.37-.113-74.08 7.744s-45.65 22.082-60.45 42.136c-7.85 10.666-13.56 22.707-19.75 34.408-11.93 22.522-25.82 43.966-39.69 65.367 52.65-12.324 151.79-24.025 192.63-59.297 30.21-26.082 57.53-53.384 48.59-78.572-11.26-3.205-21.35-6.117-32.62-9.322-6.82-1.943-11-2.096-14.63-2.45v-.014z" fill="url(#prefix__paint6_radial_47_522)"/><path opacity=".29" d="M128.197 377.797c-19.756-5.191-59.057 4.496-75.92 16.962-16.863 12.467-30.72 29.302-42.973 47.158C4.723 448.582.17 455.972 0 464.325c33.854 12.254 55.681 30.237 91.138 26.408 35.456-3.829 90.854-5.332 119.177-29.145 4.339-3.659 65.764-39.839 65.339-45.853-78.6 0-101.264-25.798-147.485-37.924l.028-.014z" fill="url(#prefix__paint7_linear_47_522)"/><path opacity=".53" d="M151.896 360.778c64.743-34.946 56.489-53.88 163.908-76.218 24.423-5.077 69.226-1.773 91.72-7.971 16.551 8.808 18.097 13.502 33.471 22.877 16.693 10.183 17.458 4.312 23.67-6.907 8.978 34.563 37.967 62.46-20.763 89.266-32.847 14.991-60.645 56.205-96.669 58.446-19.884 1.234-72.799 9.602-92.371 5.9-25.898-4.907-43.187-7.034-59.383-.936 4.524-19.061-5.191-36.563-15.516-46.902-13.388-13.388-29.386-16.352-47.469-21.969 8.651-5.318 17.274-14.423 19.43-15.586h-.028z" fill="url(#prefix__paint8_radial_47_522)"/><path d="M469.248 268.533c12.665-4.964 32.422-6.311 45.314-10.24-4.085 8.921-8.255 19.601-6.595 29.259.836 4.865 3.092 8.269 4.935 12.85 6 14.934 8.935 32.989 10.41 49.001.142 1.503 1.333 5.928 1.333 5.928s-9.332 3.574-13.955 4.922c-11.715-.979-14.623-10.481-20.381-20.296-4.439-7.545-8.609-6.226-13.034-13.771-1.276-2.184-7.36-17.232-8.013-19.672-.553-2.07-5.233-13.289-4.524-15.317 2.822-7.985 4.524-17.062 4.524-22.678l-.014.014z" fill="url(#prefix__paint9_linear_47_522)"/><path d="M670.644 237.143c-10.268-3.092-18.508-5.049-28.181-.411-3.432 1.645-10.169 5.162-13.53 6.949-7.191 3.829-13.686 3.134-21.728 4.439-16.58 2.681-36.123 9.262-46.533 22.437-10.41 13.176-13.133 32.01-7.389 47.796.638 1.744 1.404 3.474 2.595 4.907 3.078 3.645 8.495 4.524 13.147 3.446 4.638-1.078 8.723-3.758 12.75-6.297 33.16-20.933 70.19-35.697 108.654-43.314-9.361-13.218-13.389-28.095-19.785-39.952z" fill="url(#prefix__paint10_linear_47_522)"/><defs><radialGradient id="prefix__paint0_radial_47_522" cx="0" cy="0" r="1" gradientUnits="userSpaceOnUse" gradientTransform="rotate(43.499 336.429 1481.538) scale(165.88 339.845)"><stop stop-color="#FF1FF4"/><stop offset=".66" stop-color="#462567" stop-opacity=".06"/><stop offset=".915" stop-color="#3B265E" stop-opacity="0"/></radialGradient><radialGradient id="prefix__paint1_radial_47_522" cx="0" cy="0" r="1" gradientUnits="userSpaceOnUse" gradientTransform="rotate(78.417 266.148 741.625) scale(86.1381 385.538)"><stop stop-color="#FF1FF4" stop-opacity=".6"/><stop offset=".574" stop-color="#51386B" stop-opacity="0"/></radialGradient><radialGradient id="prefix__paint2_radial_47_522" cx="0" cy="0" r="1" gradientUnits="userSpaceOnUse" gradientTransform="rotate(62.78 543.003 927.04) scale(100.168 244.434)"><stop stop-color="#FF1FF4" stop-opacity=".55"/><stop offset=".898" stop-color="#562F70" stop-opacity="0"/></radialGradient><radialGradient id="prefix__paint3_radial_47_522" cx="0" cy="0" r="1" gradientUnits="userSpaceOnUse" gradientTransform="matrix(15.19952 78.0943 -257.11734 50.04282 613.748 443.622)"><stop offset=".035" stop-color="#FF1FF4" stop-opacity=".6"/><stop offset="1" stop-color="#2B1E57" stop-opacity="0"/></radialGradient><radialGradient id="prefix__paint4_radial_47_522" cx="0" cy="0" r="1" gradientUnits="userSpaceOnUse" gradientTransform="rotate(79.532 -2.11 437.745) scale(114.41 355.103)"><stop stop-color="#FF1FF4" stop-opacity=".6"/><stop offset=".765" stop-color="#2B1E57" stop-opacity="0"/></radialGradient><radialGradient id="prefix__paint6_radial_47_522" cx="0" cy="0" r="1" gradientUnits="userSpaceOnUse" gradientTransform="rotate(65.329 344.78 1045.537) scale(120.545 210.335)"><stop stop-color="#FF1FF4" stop-opacity=".6"/><stop offset=".713" stop-color="#2B1E57" stop-opacity="0"/></radialGradient><radialGradient id="prefix__paint8_radial_47_522" cx="0" cy="0" r="1" gradientUnits="userSpaceOnUse" gradientTransform="matrix(27.77864 135.74792 -542.51359 111.01672 306.087 248.124)"><stop stop-color="#FF1FF4" stop-opacity=".59"/><stop offset="1" stop-color="#3B265E" stop-opacity="0"/></radialGradient><linearGradient id="prefix__paint5_linear_47_522" x1="626.859" y1="262.591" x2="665.577" y2="404.176" gradientUnits="userSpaceOnUse"><stop stop-color="#FF1FF4"/><stop offset=".2" stop-color="#CD1ECF" stop-opacity=".76"/><stop offset=".49" stop-color="#881E9C" stop-opacity=".44"/><stop offset=".73" stop-color="#561E76" stop-opacity=".2"/><stop offset=".91" stop-color="#361E5F" stop-opacity=".06"/><stop offset="1" stop-color="#2B1E57" stop-opacity="0"/></linearGradient><linearGradient id="prefix__paint7_linear_47_522" x1="125.091" y1="336.114" x2="142.677" y2="479.302" gradientUnits="userSpaceOnUse"><stop stop-color="#FF1FF4"/><stop offset=".14" stop-color="#DE20DB" stop-opacity=".83"/><stop offset=".46" stop-color="#9922A6" stop-opacity=".48"/><stop offset=".72" stop-color="#66247F" stop-opacity=".22"/><stop offset=".9" stop-color="#462567" stop-opacity=".06"/><stop offset="1" stop-color="#3B265E" stop-opacity="0"/></linearGradient><linearGradient id="prefix__paint9_linear_47_522" x1="483.743" y1="245.274" x2="495.755" y2="306.699" gradientUnits="userSpaceOnUse"><stop stop-color="#FF1FF4"/><stop offset=".14" stop-color="#DE20DB" stop-opacity=".83"/><stop offset=".46" stop-color="#9922A6" stop-opacity=".48"/><stop offset=".72" stop-color="#66247F" stop-opacity=".22"/><stop offset=".9" stop-color="#462567" stop-opacity=".06"/><stop offset="1" stop-color="#3B265E" stop-opacity="0"/></linearGradient><linearGradient id="prefix__paint10_linear_47_522" x1="586.541" y1="222.251" x2="619.842" y2="293.561" gradientUnits="userSpaceOnUse"><stop stop-color="#FF1FF4"/><stop offset=".14" stop-color="#DE20DB" stop-opacity=".83"/><stop offset=".46" stop-color="#9922A6" stop-opacity=".48"/><stop offset=".72" stop-color="#66247F" stop-opacity=".22"/><stop offset=".9" stop-color="#462567" stop-opacity=".06"/><stop offset="1" stop-color="#3B265E" stop-opacity="0"/></linearGradient></defs></svg>
