<svg width="128" height="128" viewBox="0 0 128 128" fill="none" xmlns="http://www.w3.org/2000/svg">
<g clip-path="url(#clip0_807_13)">
<mask id="mask0_807_13" style="mask-type:luminance" maskUnits="userSpaceOnUse" x="-14" y="0" width="429" height="131">
<path d="M415 0H-14V130.946H415V0Z" fill="white"/>
</mask>
<g mask="url(#mask0_807_13)">
<mask id="mask1_807_13" style="mask-type:luminance" maskUnits="userSpaceOnUse" x="-5" y="9" width="429" height="129">
<path d="M423.236 9.89707H-4.10291V137.15H423.236V9.89707Z" fill="white"/>
</mask>
<g mask="url(#mask1_807_13)">
<path d="M49.1945 19.6533C45.0003 19.2087 40.7608 19.7876 36.8394 21.3406C32.918 22.8935 29.4316 25.3741 26.679 28.5698C21.4259 34.7863 19.1725 46.855 13.9004 49.8812C11.2757 51.3886 9.32563 52.9939 8.65872 55.9599C7.71431 60.1586 9.78737 62.7075 12.278 64.5106C12.4333 65.5506 13.1665 67.3039 13.8433 67.0546C14.7096 66.7352 16.6514 69.7789 17.9338 69.1862C26.8469 65.0607 25.9333 59.9534 31.4734 55.4544C34.1125 53.3113 37.1977 52.2432 41.7561 52.6992C43.6506 52.8896 45.7187 53.5858 45.9707 55.4114C46.2606 57.4207 45.9232 59.4704 45.0046 61.2808C41.9704 66.8981 40.1702 69.0157 37.3332 75.2562C35.1768 80.0015 29.8343 82.9371 24.6874 83.768C23.3913 83.9774 19.8253 83.9154 20.2071 85.1715C26.9203 107.255 72.3155 120.568 82.465 106.408C91.4218 93.9118 77.1358 98.6491 80.0924 98.5508L95.5089 98.04C97.4469 97.976 99.6825 97.7564 100.772 96.1523C102.321 93.8707 100.242 90.7615 97.8146 89.4528C95.3875 88.1441 92.4473 87.5876 90.589 85.5503C88.7828 83.5709 88.4573 80.6261 88.8315 77.9726C89.2057 75.319 90.1839 72.7846 90.6495 70.1455C91.7039 64.1654 90.0713 58.0025 87.578 52.4678C80.2096 36.106 65.2391 21.5101 49.1956 19.6552" fill="#DBFCFF"/>
<path d="M19.4381 48.059C17.0736 48.2535 14.787 48.9964 12.7598 50.2288C10.7269 51.48 9.22048 53.43 8.52311 55.7129C7.89274 57.9896 8.34153 60.6002 9.90908 62.3672C10.7492 63.3146 11.8972 64.042 12.3963 65.2046C12.6106 65.7036 12.7039 66.2795 13.0857 66.6667C13.3063 66.8603 13.5725 66.9946 13.8593 67.0571C14.146 67.1196 14.444 67.1081 14.7251 67.0237C15.2851 66.8489 15.8105 66.5784 16.2782 66.2244" stroke="black" stroke-miterlimit="10"/>
<path d="M15.365 67.7504C15.4031 68.4912 16.9752 69.273 17.7136 69.3492C18.1026 69.3469 18.4831 69.2355 18.8118 69.0275C21.0147 67.6461 22.4734 66.5647 24.1254 64.5571C26.1341 62.1155 27.6549 59.2926 29.7671 56.9401C31.8794 54.5877 34.8321 52.6749 37.4693 52.8945C38.7078 52.707 39.9639 52.6637 41.2123 52.7655C42.4548 52.9154 44.392 52.8656 45.2473 53.7773C46.3185 54.9173 45.95 57.1369 45.6915 58.6797C45.4331 60.2225 44.789 62.2457 43.8967 63.5304" stroke="black" stroke-miterlimit="10"/>
<path d="M28.1866 49.9102C29.9913 48.6567 32.3548 48.5398 34.5349 48.8135C36.7149 49.0872 38.8572 49.7 41.054 49.7434C44.0642 49.8029 46.9963 48.7835 49.3203 46.8695C51.6444 44.9554 53.207 42.2731 53.7257 39.3074C53.9827 38.09 53.9245 36.8272 53.5566 35.6386C53.3673 35.0474 53.043 34.5084 52.6094 34.0641C52.1758 33.6199 51.6448 33.2826 51.0584 33.0791" stroke="black" stroke-miterlimit="10"/>
<path d="M44.2817 49.5325C46.2333 51.0635 47.0388 53.7335 46.8168 56.2039C46.5949 58.6744 45.4819 60.9793 44.1758 63.0881C42.8698 65.1969 41.3517 67.1767 40.185 69.3659C38.3343 72.9436 37.4545 76.9443 37.6335 80.9684C37.8125 84.9925 39.044 88.8993 41.2052 92.2986" stroke="black" stroke-miterlimit="10"/>
<path d="M42.9083 19.6343C41.2844 17.769 39.5966 15.854 37.3651 14.7866C33.8346 13.0984 29.4886 13.894 26.1929 16.002C26.8865 15.5276 27.7078 15.2747 28.5481 15.2766C29.3885 15.2785 30.2086 15.5352 30.9001 16.0127C32.1357 16.9012 32.76 18.3857 33.57 19.672C34.38 20.9582 35.6636 22.2048 37.1782 22.0701" stroke="white" stroke-miterlimit="10"/>
<path d="M41.2904 20.7028C40.913 20.7564 40.5286 20.7319 40.161 20.6307C39.7935 20.5294 39.4508 20.3536 39.1541 20.1143C38.5645 19.6335 38.0115 19.1097 37.4994 18.5471C35.295 16.407 32.3496 15.2003 29.2772 15.1787" stroke="white" stroke-miterlimit="10"/>
<path d="M74.6641 12.5834C74.511 12.557 74.3561 12.5427 74.2008 12.5404C74.3561 12.548 74.5099 12.5655 74.6641 12.5834Z" fill="#FF38B9"/>
<path d="M123.388 45.7169C124.004 49.5927 123.357 53.5443 120.975 56.6634C118.593 59.7825 115.555 61.661 111.649 61.256C107.743 60.851 104.214 58.7818 103.305 54.9626C106.632 55.6257 110.449 54.1827 112.052 51.6467C113.618 49.169 114.025 45.3175 110.483 41.4562C111.169 42.3873 111.786 42.9483 112.115 44.0564C112.443 45.1645 111.73 46.0739 110.942 46.9213C109.78 48.1675 108.108 48.147 106.837 47.3708C105.383 46.4824 104.02 44.4085 102.72 43.3043C101.571 42.3326 100.206 41.649 98.7398 41.3101C97.2733 40.9713 95.7472 40.9871 94.288 41.3561C94.7614 41.0862 95.1703 40.7166 95.4864 40.2728C95.8026 39.829 96.0183 39.3218 96.1186 38.7862C96.4953 37.1827 96.7431 35.5516 96.8597 33.9085C96.9302 31.5024 97.0592 29.3547 98.5883 27.4944C99.3565 26.5875 100.332 25.8789 101.432 25.4283C102.531 24.9778 103.724 24.7986 104.907 24.906C106.069 25.0044 107.169 25.4723 108.046 26.2411C108.923 27.0099 109.53 28.0393 109.78 29.1785C110.329 31.5222 109.129 34.5309 106.788 35.0939C110.434 35.4814 114.242 32.8758 116.152 29.7456C117.112 28.1688 117.692 26.3903 117.845 24.5508C117.999 22.7112 117.722 20.8612 117.037 19.147C115.54 15.6592 112.794 12.8568 109.337 11.2903C103.477 8.78936 95.9207 10.5514 91.3581 14.9979C88.7773 17.5148 87.0746 20.8459 84.3715 23.2315C81.6685 25.617 77.4935 26.8527 74.8285 24.2341C77.9955 25.2155 80.6145 21.6007 80.6145 18.7146C80.6145 15.5551 77.7953 12.9492 74.6633 12.5837C76.7611 12.9381 78.1653 15.5296 77.9369 17.7104C77.683 20.1569 75.3747 21.1165 73.0512 21.4759C70.7277 21.8352 68.58 20.6643 66.542 19.4938C64.5039 18.3233 62.5694 17.2993 60.5303 16.1292C57.5273 14.4052 53.4192 11.8658 49.4181 11.5708C45.417 11.2758 41.8282 12.7832 39.9314 15.7287C40.9637 15.999 41.4293 17.6941 42.1727 18.4603C42.7677 19.0736 42.8114 19.5829 43.175 20.5539C46.6911 18.1486 52.1615 19.5475 55.7686 21.8139C59.3757 24.0803 61.7563 27.0997 61.3726 30.4689C61.0974 32.8842 59.8024 34.2591 58.0362 34.9793C59.3932 36.3363 63.5873 35.8468 65.9805 34.7197C66.9321 34.272 69.1818 32.6013 68.1921 29.9135C76.6552 36.8415 83.761 43.1113 88.2443 53.0864C90.7445 58.6474 91.9028 64.7036 90.3928 70.4953C89.5439 73.7507 88.5789 76.9665 89.0057 80.3022C89.4305 83.6264 92.1975 86.2351 95.2461 87.6249C102.669 91.0093 112.437 86.3615 116.635 79.3669C109.391 83.6915 102.516 77.9855 102.516 69.6221C106.271 75.772 116.436 71.1957 119.551 68.2898C122.27 65.7516 123.774 63.9503 124.857 60.3927C126.278 55.4949 125.752 50.2374 123.388 45.7184" fill="#FF38B9"/>
<path d="M16.6638 47.1116C16.3288 46.3556 14.8774 46.0286 14.0552 46.115C13.233 46.2014 12.4705 46.1676 11.6951 46.4515C10.9183 46.7322 10.2365 47.2265 9.72825 47.8775C8.44201 49.4922 9.26804 49.5143 9.36092 50.2847C7.62056 49.6654 7.62474 47.2669 8.1215 45.9236C8.61826 44.5802 10.3244 43.782 11.7545 43.6895C10.6917 44.1619 9.49815 44.2516 8.37676 43.9432C7.25538 43.6347 6.2755 42.9473 5.60384 41.9978C4.1897 39.8875 4.23918 36.4623 5.71803 34.3961C6.27411 33.5282 7.14297 32.9077 8.14434 32.6634C9.14737 32.4829 10.2353 32.8297 10.5459 33.8004C9.85236 34.1382 9.30895 34.7215 9.02099 35.4372C8.84663 35.8493 8.7566 36.2922 8.75621 36.7396C8.75581 37.1871 8.84507 37.6301 9.01871 38.0424C9.75414 39.5 11.0857 40.5388 12.6913 40.2415C14.2969 39.9442 15.8484 38.8422 15.9699 35.9648C16.0612 33.7783 14.5592 31.8606 14.2048 29.7011C13.9406 28.0875 14.4332 26.0087 15.7365 25.0225C17.0399 24.0362 21.2359 25.011 22.3261 25.5112C26.4585 22.3027 21.5591 22.7359 32.6476 18.6594C34.7214 17.8981 37.496 15.79 39.6962 15.9925C41.8964 16.195 43.4647 18.5285 43.2569 20.7279C31.0698 22.442 26.6298 26.5253 22.7159 34.5697C20.6139 38.8902 19.6261 43.8859 16.6638 47.1116Z" fill="#FF38B9"/>
<path d="M21.7372 50.8782C19.4827 52.5096 17.4401 54.4155 15.6566 56.5519C16.2204 55.9565 17.2139 56.03 17.9436 56.4019C18.6733 56.7738 19.2614 57.3779 19.9714 57.7882C20.6813 58.1986 21.6352 58.3809 22.2873 57.8838C21.7125 57.7663 21.1779 57.5022 20.7353 57.1172C20.2927 56.7321 19.9572 56.2392 19.7612 55.6862C19.3836 54.5797 19.6429 53.2794 21.7372 50.8782Z" fill="white"/>
<path d="M21.7372 50.8782C19.4827 52.5096 17.4401 54.4155 15.6566 56.5519C16.2204 55.9565 17.2139 56.03 17.9436 56.4019C18.6733 56.7738 19.2614 57.3779 19.9714 57.7882C20.6813 58.1986 21.6352 58.3809 22.2873 57.8838C21.7125 57.7663 21.1779 57.5022 20.7353 57.1172C20.2927 56.7321 19.9572 56.2392 19.7612 55.6862C19.3836 54.5797 19.6429 53.2794 21.7372 50.8782Z" stroke="black" stroke-miterlimit="10"/>
<path d="M32.0244 23.7811C26.752 26.4054 23.8023 32.0574 21.3661 37.4204C18.9299 42.7835 18.7464 46.4096 13.8431 49.6723" stroke="black" stroke-miterlimit="10"/>
<path d="M42.6113 21.6468C43.0939 21.5646 35.5592 17.8273 33.214 16.8616C30.8688 15.8958 29.5346 15.2883 26.7935 15.8464C27.3644 16.0816 30.7405 16.4063 31.8672 18.1832C32.5288 19.2262 33.2262 21.021 33.8623 22.0796C34.3758 22.9334 34.6616 23.2791 35.6152 23.5607C36.5687 23.8424 40.5843 21.9917 42.6113 21.6468Z" fill="#FF38B9"/>
<path d="M38.6604 73.2136C35.5009 79.9543 27.9921 84.3923 20.5643 83.9066" stroke="black" stroke-miterlimit="10"/>
<path d="M43.5286 21.3168C42.0844 18.0652 39.8956 14.8818 36.6311 13.6679C34.4835 12.8685 32.0891 13.0207 29.8912 13.6602C27.6933 14.2997 25.6522 15.396 23.6287 16.4862C27.9586 14.9533 33.1417 16.857 35.9395 20.5905C36.9593 21.9517 37.9916 23.4347 43.5286 21.3168Z" fill="#DBFCFF"/>
<path d="M38.4621 34.1068C36.6953 34.292 34.9538 34.6686 33.2684 35.2302C31.6061 35.8521 30.0408 36.8822 30.3442 39.2948C31.9098 39.5608 33.5181 39.2248 34.8462 38.3542C36.1557 37.4871 37.1146 36.1083 38.4621 34.1068Z" fill="white"/>
<path d="M38.4621 34.1068C36.6953 34.292 34.9538 34.6686 33.2684 35.2302C31.6061 35.8521 30.0408 36.8822 30.3442 39.2948C31.9098 39.5608 33.5181 39.2248 34.8462 38.3542C36.1557 37.4886 37.115 36.1079 38.4621 34.1068Z" stroke="black" stroke-miterlimit="10"/>
<path d="M16.6637 47.1116C15.2576 45.9433 13.9352 45.9723 12.1431 46.3347C11.165 46.5083 10.296 47.0632 9.72703 47.8775C9.16404 48.7092 8.67299 49.5524 9.3597 50.2847C8.02397 50.3685 7.53255 48.2585 7.82146 46.8052C7.97706 46.0781 8.33558 45.4101 8.85545 44.8786C9.37531 44.3471 10.0352 43.9738 10.7586 43.8022C8.00532 44.5368 6.14924 43.1722 5.19608 41.3168C4.72535 40.3824 4.47406 39.3529 4.46132 38.3067C4.44859 37.2605 4.67476 36.2252 5.12261 35.2796C5.59353 34.2014 6.46301 33.3469 7.5493 32.8948C8.64368 32.5005 10.0148 32.7742 10.6947 33.7182C8.81612 34.6698 8.23981 37.492 9.59456 39.1037C10.9493 40.7154 13.8282 40.6339 15.089 38.9476C16.0467 37.6671 16.02 35.8925 15.6276 34.3417C15.2351 32.7909 14.526 31.328 14.2359 29.7574C13.9458 28.1869 14.1685 26.3795 15.355 25.308C15.602 25.0693 15.8986 24.8879 16.2236 24.7769C16.5486 24.6658 16.8941 24.6278 17.2355 24.6654C17.9119 24.7747 21.9141 24.8496 21.924 25.5348C22.9137 25.4161 22.6355 25.6627 24.3557 26.8877C22.5746 26.9436 18.4098 27.2718 17.3645 28.7148C16.5324 29.8629 16.6413 31.4453 17.0368 32.8061C17.4323 34.167 18.0878 35.465 18.2499 36.8734C18.3688 37.9022 18.2187 38.9443 17.8145 39.8978C17.4103 40.8513 16.7657 41.6836 15.9436 42.3136C15.1216 42.9435 14.1503 43.3495 13.1244 43.4918C12.0986 43.6342 11.0534 43.508 10.0909 43.1257" stroke="black" stroke-miterlimit="10"/>
<path d="M26.114 20.7458C28.173 20.5963 30.1608 19.9285 31.8924 18.8044" stroke="black" stroke-miterlimit="10"/>
<path d="M40.0468 15.8464C35.769 11.8555 28.291 12.9701 23.4897 16.5635C25.5122 15.5274 27.9864 15.6069 30.1128 16.409C32.2391 17.211 34.0636 18.6674 35.6517 20.2943C36.2275 20.9626 36.8937 21.5473 37.6311 22.0313C38.397 22.4675 39.3822 22.6323 40.1541 22.2037" stroke="black" stroke-miterlimit="10"/>
<path d="M35.4093 23.5626C34.5901 23.1214 33.9433 22.4174 33.573 21.5638C33.1569 20.7401 32.8684 19.8539 32.4036 19.0568C31.8222 18.0856 31.0006 17.2804 30.018 16.7185C29.0353 16.1567 27.9246 15.8571 26.7927 15.8486" stroke="black" stroke-miterlimit="10"/>
<path d="M39.8058 15.602C41.7688 12.6979 45.5065 11.3641 49.0074 11.5419C52.5083 11.7197 55.8132 13.1966 58.8546 14.94C61.896 16.6834 64.7765 18.7207 67.958 20.1931C69.4833 20.898 71.1098 21.4763 72.7901 21.482C74.4703 21.4877 76.2209 20.8421 77.2201 19.4911C77.6544 18.8892 77.9261 18.1854 78.009 17.4478C78.092 16.7102 77.9834 15.9637 77.6937 15.2803C77.3882 14.6038 76.9134 14.0174 76.3151 13.5779C75.7169 13.1384 75.0154 12.8606 74.2784 12.7714C77.4581 12.5845 80.5075 15.3641 80.6141 18.5475C80.7207 21.7309 77.865 24.7084 75.1821 24.4096C77.3793 26.6878 81.3487 25.9535 83.8051 23.9562C86.2615 21.9589 87.7639 19.0488 89.8145 16.6374C92.8377 13.0805 97.1917 10.6001 101.839 10.1574C106.487 9.71474 111.363 11.417 114.485 14.8875C117.608 18.3579 118.77 23.5752 117.115 27.9402C115.461 32.3052 110.92 35.4966 106.257 35.2705C108.909 34.6066 110.512 31.408 109.683 28.8035C108.855 26.1991 105.94 24.5299 103.228 24.8729C100.517 25.2158 98.1955 27.3669 97.3801 29.9759C96.733 32.0387 96.9423 34.2587 96.7353 36.409C96.5282 38.5594 95.725 40.8886 93.465 41.4836C95.1162 40.9682 96.8736 40.8949 98.562 41.2708C100.25 41.6467 101.811 42.4587 103.087 43.6259C104.838 45.2662 106.323 47.7263 108.721 47.7751C109.527 47.7608 110.304 47.4678 110.918 46.946C111.533 46.4242 111.948 45.7057 112.093 44.9125C112.197 44.1126 112.04 43.3004 111.645 42.5969C111.25 41.8935 110.638 41.3364 109.901 41.0085C112.96 43.1101 114.127 47.5589 112.49 50.8896C110.853 54.2203 106.621 56.0182 103.307 54.9626C104.398 58.5629 108.043 61.1243 111.802 61.2648C115.562 61.4052 119.24 59.2983 121.326 56.167C123.412 53.0357 123.966 49.0126 123.166 45.3362C124.624 47.7396 125.501 50.4504 125.726 53.2526C125.95 56.0547 125.517 58.8706 124.461 61.4757C123.405 64.0808 121.754 66.4031 119.641 68.2573C117.528 70.1115 115.011 71.4463 112.291 72.1554C108.82 73.0606 104.616 72.6746 102.38 69.8828C102.612 72.3914 103.316 74.9048 104.774 76.9596C106.232 79.0144 108.508 80.5644 111.016 80.7887C113.525 81.0129 116.2 79.7438 117.473 78.6798C115.037 81.9432 112.106 84.9207 108.506 86.824C104.905 88.7272 100.576 89.4699 96.693 88.2427C92.8099 87.0154 89.5367 83.6192 89.038 79.5785C88.66 76.5242 89.8035 73.517 90.3928 70.4961C91.9554 62.4855 89.5287 54.0688 85.1568 47.1767C80.785 40.2845 74.6001 34.7364 68.1929 29.9139C68.9774 31.2424 68.317 33.0501 67.1179 34.0216C65.9188 34.993 64.3357 35.3219 62.8115 35.5655C61.0084 35.8537 58.9604 36.0025 57.8082 35.0349C60.2345 34.5301 61.6654 31.7376 61.3586 29.2786C61.1849 28.0399 60.7633 26.849 60.1188 25.777C59.4744 24.705 58.6204 23.774 57.608 23.0396C48.1604 16.2072 43.2572 20.7252 43.2572 20.7252C43.2572 20.7252 42.8701 18.6663 39.8058 15.602Z" stroke="black" stroke-miterlimit="10"/>
<path d="M31.1014 22.2958C31.4657 23.8767 29.358 25.308 28.2107 26.4552C27.0288 27.6353 26.0687 27.8309 26.0687 27.8309C26.0687 27.8309 20.6543 24.8649 19.2755 24.0095C12.402 19.7443 4.44592 14.5483 -3.8208 10.5647C7.90342 13.9191 15.9353 16.9978 31.1014 22.2958Z" fill="#DB32A0"/>
<path d="M-3.70581 10.7947C-0.804446 12.264 2.37061 13.6812 5.27198 15.1501C5.78395 15.4671 6.36982 15.6449 6.97161 15.6659C7.57038 15.6332 8.18971 15.1627 8.15621 14.562" stroke="black" stroke-miterlimit="10"/>
<path d="M4.8147 14.9788C5.92469 15.476 6.90184 16.3762 7.84663 16.9552C8.79142 17.5342 9.81043 18.0721 10.9162 18.1375C12.022 18.203 13.2333 17.6758 13.6501 16.6488" stroke="black" stroke-miterlimit="10"/>
<path d="M8.00195 17.0823C9.28324 17.4915 10.3788 18.321 11.5162 19.0393C12.6536 19.7576 13.9269 20.3933 15.2706 20.3335C16.6143 20.2738 17.9991 19.2978 18.0802 17.9552" stroke="black" stroke-miterlimit="10"/>
<path d="M13.0472 19.9868C14.1892 20.965 15.3616 21.962 16.7697 22.4869C18.1777 23.0118 19.8937 22.9768 21.0445 22.0099C21.8416 21.3407 22.2626 20.3351 22.6291 19.361" stroke="black" stroke-miterlimit="10"/>
<path d="M16.365 22.3506C17.3459 22.6278 18.1701 23.2764 19.0163 23.8443C19.8625 24.4123 20.8198 24.9269 21.8377 24.8744C22.344 24.8214 22.8338 24.6638 23.2759 24.4114C23.7181 24.1591 24.1029 23.8175 24.406 23.4085C25.0956 22.6034 25.6704 21.7067 26.114 20.7439" stroke="black" stroke-miterlimit="10"/>
<path d="M20.3973 24.9673C22.3006 25.241 23.5511 27.4415 25.4707 27.5264C26.291 27.513 27.0847 27.2339 27.733 26.7312C29.2096 25.701 30.2931 24.2005 30.8064 22.4747L30.6439 22.4633" stroke="black" stroke-miterlimit="10"/>
<path d="M-4.0542 10.7022C-0.463466 11.6568 3.22319 12.7067 6.81355 13.6614C7.15724 13.698 7.48488 13.8259 7.76252 14.0318C8.04649 14.2918 8.29278 14.6637 8.07162 14.9788" stroke="black" stroke-miterlimit="10"/>
<path d="M7.68066 14.0462C9.22385 14.4825 10.767 15.1094 12.3102 15.5456C12.7155 15.6365 13.0955 15.8162 13.4229 16.0717C13.7742 16.3873 13.6151 16.8509 13.3513 17.1558" stroke="black" stroke-miterlimit="10"/>
<path d="M13.4229 16.1813L16.9531 17.2693C17.2909 17.3412 17.603 17.5034 17.856 17.7386C17.9765 17.8609 18.0444 18.0255 18.0454 18.1972C18.0464 18.3689 17.9804 18.5342 17.8613 18.6579" stroke="black" stroke-miterlimit="10"/>
<path d="M17.9817 17.9948L22.1069 19.0538C22.2683 19.077 22.4174 19.1537 22.5302 19.2715C22.6276 19.4009 22.5907 19.6346 22.4319 19.6662" stroke="black" stroke-miterlimit="10"/>
<path d="M22.5907 19.321L25.4285 20.1204C25.6813 20.1599 25.9103 20.2924 26.0707 20.4919C26.202 20.7089 26.0596 21.0766 25.8084 21.0412" stroke="black" stroke-miterlimit="10"/>
<path d="M31.8923 24.1785C27.1155 28.9478 23.5891 35.6767 22.1407 42.2692C21.8335 43.667 21.5849 45.1432 20.7117 46.2772C19.5065 47.8424 17.4137 48.1866 15.4875 48.6255C17.9732 46.3514 19.2035 43.1821 20.4616 40.0557C21.6636 36.9395 23.1371 33.9348 24.865 31.0764C26.645 28.2162 29.4493 25.1359 31.8912 24.1785" fill="#DB32A0"/>
<path d="M17.2634 48.9494C14.6331 50.1325 12.568 52.2948 11.5071 54.9767C10.4717 57.6318 10.1481 60.8853 11.2821 63.5C9.93733 62.4875 8.98966 61.036 8.60372 59.3976C8.21778 57.7591 8.41796 56.0372 9.16947 54.531C10.6811 51.2657 14.7012 48.7655 17.2634 48.9494Z" fill="#DB32A0"/>
<path d="M89.0202 77.1633C86.935 84.4753 81.6355 91.9937 74.5731 94.9951C67.5108 97.9966 58.8901 97.3689 52.5731 93.0378C46.2561 88.7067 42.6201 80.6992 43.9341 73.2132C40.6403 82.4784 43.0635 93.4855 49.9557 100.56C46.6196 97.5063 40.8907 97.6856 37.5436 100.727C34.1965 103.769 33.4557 109.134 35.5756 113.11C35.1816 108.667 39.0423 104.691 43.3943 103.51C47.7464 102.328 52.3888 103.319 56.688 104.678C60.9871 106.036 65.2379 107.77 69.7388 108.098C74.2397 108.427 78.4326 106.646 81.7325 103.345C77.8993 106.448 75.5305 108.06 75.8495 111.838C76.1685 115.616 78.4642 118.926 80.8719 121.878C78.2255 118.912 80.0725 114.007 83.1939 111.533C86.3152 109.058 90.3544 108.017 93.7144 105.87C99.508 102.167 102.838 95.0229 101.921 88.2659" fill="#FF38B9"/>
<path d="M89.0202 77.1633C86.935 84.4753 81.6355 91.9937 74.5731 94.9951C67.5108 97.9966 58.8901 97.3689 52.5731 93.0378C46.2561 88.7067 42.6201 80.6992 43.9341 73.2132C40.6403 82.4784 43.0635 93.4855 49.9557 100.56C46.6196 97.5063 40.8907 97.6856 37.5436 100.727C34.1965 103.769 33.4557 109.134 35.5756 113.11C35.1816 108.667 39.0423 104.691 43.3943 103.51C47.7464 102.328 52.3888 103.319 56.688 104.678C60.9871 106.036 65.2379 107.77 69.7388 108.098C74.2397 108.427 78.4326 106.646 81.7325 103.345C77.8993 106.448 75.5305 108.06 75.8495 111.838C76.1685 115.616 78.4642 118.926 80.8719 121.878C78.2255 118.912 80.0725 114.007 83.1939 111.533C86.3152 109.058 90.3544 108.017 93.7144 105.87C99.508 102.167 102.838 95.0229 101.921 88.2659" stroke="black" stroke-miterlimit="10"/>
<path d="M42.5912 18.8528C45.8721 16.9925 49.7383 16.4514 53.4039 17.3396C57.0695 18.2277 60.2593 20.4785 62.3248 23.6342C63.6895 25.7191 64.5246 28.2816 64.0035 30.7182C63.4824 33.1548 61.3366 35.3211 58.8452 35.3124C61.6868 33.2778 62.5414 29.1198 61.211 25.8877C59.8806 22.6555 56.717 20.399 53.3143 19.6C49.9116 18.801 46.3102 19.3176 42.5912 18.8528Z" fill="#DB32A0"/>
<path d="M22.3105 26.6433C20.5089 26.5348 18.4038 26.5542 17.2908 27.9756C16.5101 28.9718 16.4914 30.3779 16.7842 31.6093C17.0769 32.8408 17.5694 34.8548 17.8386 36.0916C18.3433 38.4136 17.5976 40.031 15.9825 41.7733C15.1705 42.6461 14.1388 43.2846 12.9954 43.6221C11.852 43.9595 10.639 43.9835 9.48316 43.6914C8.36482 43.3755 7.37125 42.7221 6.63817 41.8204C5.9051 40.9187 5.46825 39.8127 5.3873 38.6534C5.22323 36.283 6.82199 33.867 9.10593 33.2146C7.22701 35.1974 7.235 38.7409 9.27151 40.5612C11.308 42.3815 15.0251 41.8501 16.2965 39.4322C17.2101 37.693 16.8256 35.5697 16.2375 33.695C15.6494 31.8202 14.8695 29.9196 15.064 27.9649C15.2585 26.0103 16.8786 24.0149 22.3105 26.6433Z" fill="#DB32A0"/>
<path d="M76.9447 26.5097C78.9386 28.1084 81.9229 27.9509 84.1741 26.7434C86.4253 25.536 88.0789 23.4698 89.5319 21.3674C90.9848 19.265 92.327 17.0481 94.2048 15.315C97.247 12.5095 101.684 11.2267 105.713 12.1738C109.742 13.1208 113.2 16.3473 114.235 20.3545C115.27 24.3616 113.727 28.9615 110.371 31.3832C111.505 29.8531 112.092 27.9868 112.038 26.0834C111.984 24.18 111.292 22.3498 110.074 20.8862C108.782 19.4877 107.058 18.5636 105.178 18.2621C103.298 17.9605 101.371 18.2989 99.7068 19.2232C96.8306 20.9171 95.2794 24.131 93.1085 26.6665C90.9974 29.1316 88.0686 31.0578 84.8319 31.2991C81.5952 31.5404 78.1221 29.7852 76.9447 26.5108" fill="#DB32A0"/>
<path d="M93.3033 43.1147C94.9454 41.8821 97.3002 41.9529 99.1574 42.8281C101.015 43.7032 102.46 45.2563 103.733 46.8676C104.567 47.9224 105.358 49.0293 106.386 49.8949C107.415 50.7606 108.739 51.3742 110.076 51.231C111.413 51.0879 112.496 47.1219 112.571 45.7793C113.468 49.4126 111.855 52.3597 109.429 53.6589C107.852 54.5047 105.016 55.274 103.339 54.6486C101.594 53.9977 99.8646 53.4271 99.0436 51.7556C98.2225 50.0841 97.6881 48.2749 96.7467 46.6685C95.8053 45.0621 94.3261 43.6191 93.3021 43.1132" fill="#DB32A0"/>
<path d="M101.292 61.1715C103.656 63.4315 106.3 65.4958 109.381 66.594C112.462 67.6922 116.048 67.7184 118.867 66.061C121.366 64.5932 123.017 61.9698 123.896 59.2092C124.774 56.4487 124.969 53.523 125.156 50.6315C125.699 53.3778 125.604 56.2119 124.879 58.9157C124.154 61.6196 122.819 64.1212 120.976 66.2282C117.268 70.399 112.467 72.8942 106.546 71.8238C105.059 71.5547 102.854 69.7797 101.902 68.6054C100.991 67.482 100.902 67.8269 100.854 66.3819C100.778 64.0599 100.698 61.7379 101.291 61.1715" fill="#DB32A0"/>
<path d="M67.2703 28.8233C75.2207 29.7114 82.4204 34.6934 86.8383 41.3629C91.2562 48.0324 93.043 56.2291 92.7564 64.2236C92.625 67.8863 92.0883 71.635 93.0959 75.1587C93.7596 77.3744 94.9968 79.3754 96.6823 80.9593C98.3679 82.5432 100.442 83.6537 102.695 84.1784C107.197 85.1681 112.189 83.3973 115.539 80.0471C113.212 83.4593 109.227 86.4357 105.824 87.6351C103.195 88.5617 101.909 88.798 99.1213 88.7566C97.7298 88.7281 96.3597 88.4083 95.0994 87.8176C93.8392 87.2269 92.7168 86.3785 91.8047 85.3272C89.9673 83.1955 89.4355 80.2085 89.5863 77.3997C89.737 74.5908 90.4899 71.8527 90.914 69.072C92.1253 60.9521 90.5306 52.6618 86.3933 45.5707C82.2681 38.5582 75.6797 33.0296 67.2703 28.8233Z" fill="#DB32A0"/>
<path d="M83.8288 52.405C85.6637 60.0669 84.9615 68.1174 81.8277 75.3459C78.694 82.5744 73.298 88.59 66.4514 92.4881C68.4453 94.5075 71.8826 93.4375 74.288 91.9312C83.565 86.1209 89.4967 75.3205 89.4229 64.374C89.3883 59.2119 87.6163 53.4434 83.8272 52.4054" fill="#CCEDF0"/>
<path d="M50.5815 33.8274C51.7692 35.2979 52.0505 37.347 51.7117 39.2065C51.3729 41.066 48.1004 45.9156 47.1335 47.541C47.4598 47.7694 50.553 44.6263 50.7307 44.3C51.5465 42.8018 52.7364 40.3568 52.9473 38.664C53.1582 36.9713 52.811 35.1494 50.5796 33.8274" fill="#CCEDF0"/>
<path d="M17.0201 66.6823C17.9691 67.1771 19.1697 66.916 20.0574 66.3165C20.9451 65.7169 21.5903 64.8319 22.2393 63.9789C24.706 60.741 27.6317 56.8834 30.6682 54.1728C32.8299 52.2428 36.246 50.7088 39.0426 52.405C34.7214 52.0799 33.3259 52.646 30.3043 55.7517C27.2826 58.8575 24.3124 64.1875 21.1335 67.1334C20.435 67.7805 19.6109 68.4226 18.657 68.4101C17.703 68.3975 16.77 67.3488 17.0182 66.6834" fill="#CCEDF0"/>
<path d="M37.3444 76.2204C36.7311 79.9985 37.0182 83.868 38.1823 87.5142C39.3465 91.1604 41.3548 94.4804 44.044 97.2041C42.2883 96.8714 40.4754 97.0188 38.7966 97.6309C37.1177 98.2431 35.6353 99.2971 34.5059 100.682C34.912 92.632 35.4156 85.1289 37.3429 76.2204" fill="#CCEDF0"/>
<path d="M47.6345 58.4822C45.8199 63.0382 42.3521 66.7702 40.4047 71.2722C39.1669 74.1917 38.5913 77.3491 38.7191 80.5175C38.8469 83.686 39.675 86.7868 41.1439 89.597C38.9742 84.6032 39.8527 78.7864 41.708 73.6669C43.5634 68.5475 46.3383 63.7893 47.6345 58.4833" fill="#CCEDF0"/>
<path d="M90.0334 79.3688C91.3239 82.5812 92.6253 85.8331 93.1031 89.2621C93.5808 92.691 93.1583 96.3693 91.2257 99.2414C89.5774 101.69 87.0118 103.333 84.8086 105.298C82.6053 107.262 80.6213 109.909 80.82 112.854C81.147 110.556 83.032 108.765 85.0834 107.677C87.1347 106.59 89.4229 106.019 91.5112 105.008C97.937 101.897 101.88 94.3339 100.752 87.285" fill="#DB32A0"/>
<path d="M83.5836 89.94C79.8963 94.2764 74.8401 97.2253 69.2503 98.2997C63.6604 99.3742 57.8713 98.5098 52.8391 95.8493C49.9058 94.2985 47.2054 92.0534 45.8423 89.0287C46.1495 91.0637 47.304 92.8791 48.6591 94.4276C50.8996 96.9426 53.6991 98.8966 56.8323 100.133C59.9655 101.369 63.3451 101.852 66.6992 101.544C73.3805 100.872 79.632 96.8097 83.5848 89.94" fill="#DB32A0"/>
<path d="M75.8541 62.5171C75.8541 61.2712 74.317 60.0908 71.9607 59.3577C72.5047 56.9196 72.2629 54.9801 71.1994 54.3593C70.9421 54.2125 70.6497 54.1383 70.3536 54.1446V54.9995C70.5033 54.9949 70.6516 55.0291 70.7841 55.0989C71.2976 55.3981 71.5203 56.5363 71.3467 58.0006C71.3052 58.3611 71.2371 58.7403 71.1541 59.1274C70.365 58.9342 69.5638 58.7943 68.756 58.7087C68.2755 58.0356 67.7507 57.3953 67.185 56.7921C68.416 55.6307 69.5717 54.9946 70.3574 54.9946V54.1396C69.3186 54.1396 67.9592 54.8911 66.5847 56.1952C65.2101 54.901 63.8504 54.156 62.812 54.156V55.011C63.5939 55.011 64.7533 55.6432 65.9844 56.797C65.4211 57.3983 64.8997 58.0373 64.4237 58.7098C63.6143 58.794 62.8118 58.9349 62.0221 59.1316C61.9353 58.7483 61.8699 58.3763 61.8257 58.0197C61.6483 56.5557 61.8672 55.4171 62.3769 55.1145C62.5099 55.0422 62.6601 55.0077 62.8112 55.0148V54.1598C62.5127 54.1536 62.2179 54.2278 61.9578 54.3745C60.8965 54.9957 60.659 56.9314 61.2064 59.3611C58.8574 60.0969 57.3279 61.2735 57.3279 62.5156C57.3279 63.7577 58.865 64.9419 61.2216 65.6751C60.6777 68.1113 60.9194 70.0526 61.9829 70.6735C62.2415 70.8205 62.5352 70.8946 62.8326 70.8878C63.871 70.8878 65.2307 70.1367 66.6049 68.8322C67.9798 70.1265 69.3391 70.8714 70.3776 70.8714C70.6761 70.8778 70.9709 70.8036 71.231 70.6567C72.2923 70.0359 72.5302 68.1002 71.9824 65.6701C74.3238 64.9381 75.8533 63.7573 75.8533 62.5156M70.9364 59.9591C70.7967 60.454 70.6231 60.9633 70.4267 61.473C70.2717 61.1662 70.1096 60.8598 69.9318 60.5529C69.754 60.2461 69.5728 59.9473 69.3878 59.6561C69.9242 59.7364 70.4415 59.8362 70.936 59.9606M69.2067 64.0424C68.912 64.5601 68.6098 65.0508 68.2965 65.5068C67.7339 65.5567 67.1637 65.5829 66.5896 65.5829C66.0156 65.5829 65.4477 65.5563 64.8904 65.5102C64.5767 65.0535 64.2707 64.5674 63.9768 64.0538C63.6898 63.5518 63.429 63.0417 63.1911 62.5282C63.4252 62.0147 63.6898 61.5004 63.973 60.9987C64.2676 60.4814 64.5695 59.9907 64.8832 59.5347C65.4458 59.4848 66.016 59.4586 66.59 59.4586C67.164 59.4586 67.732 59.4856 68.2893 59.5316C68.6026 59.9884 68.9086 60.4745 69.2028 60.988C69.4899 61.4901 69.7502 61.9998 69.9881 62.5137C69.7502 63.0272 69.4899 63.5411 69.2067 64.0424ZM70.4248 63.5449C70.623 64.0443 70.7967 64.5528 70.9459 65.0702C70.451 65.1928 69.9303 65.2963 69.3901 65.377C69.5751 65.0816 69.7601 64.779 69.9341 64.4684C70.108 64.1578 70.2698 63.8513 70.4248 63.5449ZM66.5957 67.6347C66.2249 67.244 65.8745 66.8345 65.5459 66.4078C65.8858 66.4234 66.2311 66.4348 66.5843 66.4348C66.9376 66.4348 67.2904 66.4272 67.6342 66.4078C67.3102 66.835 66.9635 67.2446 66.5957 67.6347ZM63.7861 65.377C63.2498 65.2963 62.7324 65.1966 62.2376 65.0725C62.3773 64.5776 62.5513 64.0683 62.7477 63.5586C62.9022 63.865 63.0648 64.1718 63.2425 64.4783C63.4203 64.7847 63.6015 65.0839 63.7865 65.3755M66.5771 57.3988C66.9478 57.7894 67.2982 58.1988 67.6269 58.6253C67.287 58.6101 66.9395 58.5987 66.5885 58.5987C66.2375 58.5987 65.8824 58.6063 65.5386 58.6253C65.8625 58.1981 66.2091 57.7887 66.5771 57.3988ZM63.7827 59.6565C63.5977 59.9515 63.4127 60.2545 63.2387 60.5647C63.0648 60.875 62.9026 61.1784 62.7481 61.4848C62.5496 60.9854 62.3759 60.4769 62.2269 59.9595C62.7218 59.8404 63.2425 59.7368 63.7827 59.655M60.3651 64.4539C59.0283 63.8749 58.1634 63.1163 58.1634 62.5126C58.1634 61.9088 59.0283 61.1479 60.3651 60.5712C60.6898 60.4292 61.0446 60.3029 61.4112 60.1841C61.6419 60.9803 61.9258 61.7601 62.2608 62.5183C61.9299 63.2726 61.6501 64.0484 61.4234 64.8403C61.0496 64.7215 60.6948 64.5913 60.3663 64.4493M62.3978 69.9266C61.8843 69.6278 61.6613 68.4893 61.8352 67.0253C61.8767 66.6648 61.9445 66.2853 62.0278 65.8981C62.8169 66.0916 63.6181 66.2315 64.426 66.3168C64.9065 66.9898 65.4313 67.63 65.997 68.2331C64.7659 69.3948 63.6102 70.0309 62.8249 70.0309C62.6763 70.0325 62.5296 69.997 62.3982 69.9274M71.3558 67.0066C71.5332 68.471 71.3143 69.6091 70.8043 69.9122C70.6713 69.9844 70.5211 70.0188 70.3699 70.0119C69.5885 70.0119 68.4286 69.3792 67.1979 68.2255C67.7613 67.6244 68.2828 66.9855 68.7586 66.313C69.5681 66.2286 70.3707 66.0877 71.1606 65.8913C71.2453 66.2594 71.3109 66.6317 71.357 67.0066M72.8107 64.4501C72.486 64.5921 72.1309 64.7185 71.7647 64.8372C71.5336 64.0412 71.2498 63.2614 70.915 62.503C71.2461 61.7488 71.5259 60.973 71.7525 60.181C72.1263 60.2998 72.4814 60.43 72.8138 60.572C74.1506 61.1506 75.0155 61.9096 75.0155 62.5133C75.0155 63.1171 74.1468 63.878 72.8099 64.4547" fill="#61DAFB"/>
<path d="M66.5851 64.2689C66.9324 64.2739 67.2734 64.1755 67.5646 63.9861C67.8559 63.7968 68.0842 63.5251 68.2206 63.2056C68.357 62.8861 68.3953 62.5333 68.3306 62.192C68.2659 61.8506 68.1011 61.5363 67.8573 61.2889C67.6134 61.0415 67.3015 60.8722 66.9611 60.8026C66.6208 60.733 66.2675 60.7661 65.946 60.8979C65.6246 61.0297 65.3496 61.2541 65.1561 61.5425C64.9626 61.831 64.8592 62.1705 64.8592 62.5179C64.8559 62.9789 65.0359 63.4224 65.3596 63.7508C65.6832 64.0791 66.124 64.2655 66.5851 64.2689Z" fill="#61DAFB"/>
</g>
</g>
</g>
<defs>
<clipPath id="clip0_807_13">
<rect width="128" height="128" fill="white"/>
</clipPath>
</defs>
</svg>
