<svg width="1867" height="1070" fill="none" xmlns="http://www.w3.org/2000/svg"><path d="M728.964 286.666c.907 0 .907-1.517 0-1.517s-.907 1.517 0 1.517zM230.014 165.828c.906 0 .906-1.517 0-1.517-.907 0-.907 1.517 0 1.517zM532.135 267.865c.907 0 .907-1.518 0-1.518s-.907 1.518 0 1.518zM435.613 337.685c.907 0 .907-1.518 0-1.518s-.907 1.518 0 1.518zM82.141 68.237c.907 0 .907-1.517 0-1.517s-.907 1.517 0 1.517zM127.455 378.081c.907 0 .907-1.518 0-1.518s-.907 1.518 0 1.518zM675.871 73.215c.906 0 .906-1.517 0-1.517-.907 0-.907 1.517 0 1.517zM68.198 578.421c.907 0 .907-1.518 0-1.518s-.907 1.518 0 1.518zM123.968 720.277c.907 0 .907-1.518 0-1.518s-.907 1.518 0 1.518zM771.146 724.01c.907 0 .907-1.517 0-1.517-.906 0-.906 1.517 0 1.517zM771.146 740.186c.907 0 .907-1.517 0-1.517-.906 0-.906 1.517 0 1.517zM617.775 719.033c.907 0 .907-1.518 0-1.518-.906 0-.906 1.518 0 1.518zM572.462 914.381c.907 0 .907-1.518 0-1.518s-.907 1.518 0 1.518zM79.817 834.757c.907 0 .907-1.517 0-1.517-.906 0-.906 1.517 0 1.517zM1300.97 70.726c.91 0 .91-1.517 0-1.517-.9 0-.9 1.517 0 1.517zM1288.19 146.632c.91 0 .91-1.518 0-1.518s-.91 1.518 0 1.518zM910.575 216.315c.907 0 .907-1.517 0-1.517s-.907 1.517 0 1.517zM1448.53 271.067c.91 0 .91-1.518 0-1.518-.9 0-.9 1.518 0 1.518zM1180.14 205.116c.9 0 .9-1.517 0-1.517-.91 0-.91 1.517 0 1.517zM1539.93 106.479c.9 0 .9-1.518 0-1.518-.91 0-.91 1.518 0 1.518zM1789.34 112.2c.91 0 .91-1.518 0-1.518s-.91 1.518 0 1.518zM1865.95 163.719c.91 0 .91-1.518 0-1.518-.9 0-.9 1.518 0 1.518zM1646.82 56.871c.91 0 .91-1.517 0-1.517s-.91 1.517 0 1.517zM412.219 797.154c.907 0 .907-1.518 0-1.518s-.907 1.518 0 1.518zM456.754 993.67c.907 0 .907-1.518 0-1.518s-.907 1.518 0 1.518zM522.67 1070c.907 0 .907-1.52 0-1.52-.906 0-.906 1.52 0 1.52zM625.995 1012.76c.906 0 .906-1.52 0-1.52-.907 0-.907 1.52 0 1.52zM857.595 877.293c.907 0 .907-1.518 0-1.518s-.907 1.518 0 1.518zM237.623 863.939c.907 0 .907-1.518 0-1.518s-.907 1.518 0 1.518zM624.223 541.5c.907 0 .907-1.517 0-1.517s-.907 1.517 0 1.517zM633.122 551.03c.906 0 .906-1.517 0-1.517-.907 0-.907 1.517 0 1.517zM.68 175.161c.907 0 .907-1.518 0-1.518s-.907 1.518 0 1.518zM524.456 43.517c.906 0 .906-1.517 0-1.517-.907 0-.907 1.517 0 1.517zM1108.79 79.77c.91 0 .91-1.517 0-1.517-.9 0-.9 1.518 0 1.518zM1272.24 299.398c.9 0 .9-1.517 0-1.517-.91 0-.91 1.517 0 1.517zM350.851 404.895c.907 0 .907-1.518 0-1.518s-.907 1.518 0 1.518zM315.937 250.004c.907 0 .907-1.518 0-1.518-.906 0-.906 1.518 0 1.518zM429.393 310.082c.906 0 .906-1.518 0-1.518-.907 0-.907 1.518 0 1.518zM423.158 275.361c.907 0 .907-1.517 0-1.517s-.907 1.517 0 1.517zM1525.33 79.088c.91 0 .91-1.518 0-1.518-.9 0-.9 1.518 0 1.518zM1485.43 100.454c.91 0 .91-1.517 0-1.517s-.91 1.517 0 1.517zM1485.43 133.824c.91 0 .91-1.518 0-1.518s-.91 1.518 0 1.518zM1489.17 167.209c.91 0 .91-1.518 0-1.518-.9 0-.9 1.518 0 1.518z" fill="#fff"/><g filter="url(#prefix__filter0_d_44_505)"><path d="M1229 236c0-1.105-.9-2-2-2s-2 .895-2 2 .9 2 2 2 2-.895 2-2z" fill="#fff"/></g><g filter="url(#prefix__filter1_d_44_505)"><path d="M842.708 659.925c0-1.242-1.172-2.248-2.619-2.248-1.446 0-2.618 1.006-2.618 2.248 0 1.241 1.172 2.247 2.618 2.247 1.447 0 2.619-1.006 2.619-2.247z" fill="#fff"/></g><g filter="url(#prefix__filter2_d_44_505)"><path d="M911.54 234.357c0-.621-.586-1.125-1.31-1.124-.723 0-1.31.503-1.31 1.124 0 .621.587 1.124 1.31 1.124.724 0 1.31-.503 1.31-1.124z" fill="#fff"/></g><g filter="url(#prefix__filter3_d_44_505)"><path d="M427.301 307.475c0-.621-.586-1.125-1.31-1.125-.723 0-1.31.504-1.31 1.125s.587 1.124 1.31 1.124c.724 0 1.31-.503 1.31-1.124z" fill="#fff"/></g><g filter="url(#prefix__filter4_d_44_505)"><path d="M802.871 197.501c0-.621-.586-1.124-1.31-1.124-.723 0-1.31.503-1.31 1.124 0 .621.587 1.124 1.31 1.124.724 0 1.31-.503 1.31-1.124z" fill="#fff"/></g><g filter="url(#prefix__filter5_d_44_505)"><path d="M258.958 213.243c0-.621-.587-1.124-1.31-1.124-.724 0-1.31.503-1.31 1.124 0 .621.586 1.125 1.31 1.125.723 0 1.31-.504 1.31-1.125z" fill="#fff"/></g><g filter="url(#prefix__filter6_d_44_505)"><path d="M395.661 342.823c0-.621-.587-1.125-1.31-1.125-.724 0-1.31.504-1.31 1.125s.586 1.124 1.31 1.124c.723 0 1.31-.503 1.31-1.124z" fill="#fff"/></g><g filter="url(#prefix__filter7_d_44_505)"><path d="M203.969 389.667c0-.621-.587-1.124-1.31-1.124-.724 0-1.31.503-1.31 1.124 0 .621.586 1.125 1.31 1.125.723 0 1.31-.504 1.31-1.125z" fill="#fff"/></g><g filter="url(#prefix__filter8_d_44_505)"><path d="M397.032 761.14c0-.621-.586-1.125-1.31-1.125-.723 0-1.31.504-1.31 1.125s.587 1.124 1.31 1.124c.724 0 1.31-.503 1.31-1.124z" fill="#fff"/></g><g filter="url(#prefix__filter9_d_44_505)"><path d="M274.847 751.734c0-.366-.69-.662-1.541-.662s-1.541.296-1.541.662c0 .365.69.661 1.541.661s1.541-.296 1.541-.661z" fill="#fff"/></g><g filter="url(#prefix__filter10_d_44_505)"><path d="M922.575 147.489c0-.311-.293-.563-.655-.563-.362 0-.655.252-.655.563 0 .31.293.562.655.562.362 0 .655-.252.655-.562z" fill="#fff"/></g><g filter="url(#prefix__filter11_d_44_505)"><path d="M622.692 684.802c0-.311-.293-.563-.655-.563-.362 0-.655.252-.655.563 0 .31.293.562.655.562.362 0 .655-.252.655-.562z" fill="#fff"/></g><g filter="url(#prefix__filter12_d_44_505)"><path d="M336.556 801.071c0-.31-.293-.562-.655-.562-.361 0-.655.252-.655.562 0 .311.294.562.655.562.362 0 .655-.251.655-.562z" fill="#fff"/></g><g filter="url(#prefix__filter13_d_44_505)"><path d="M156.348 714.557c-.043 1.241 1.094 2.277 2.54 2.315 1.446.037 2.654-.939 2.697-2.181.043-1.241-1.094-2.277-2.54-2.315-1.446-.037-2.654.939-2.697 2.181z" fill="#fff"/></g><g filter="url(#prefix__filter14_d_44_505)"><path d="M105.273 695.863c-.043 1.242 1.094 2.278 2.54 2.315 1.446.038 2.653-.939 2.697-2.18.043-1.241-1.094-2.278-2.54-2.315-1.446-.037-2.654.939-2.697 2.18z" fill="#fff"/></g><g filter="url(#prefix__filter15_d_44_505)"><path d="M967.929 333.941c0-.931-.879-1.686-1.964-1.686-1.084 0-1.963.755-1.963 1.686 0 .93.879 1.685 1.963 1.685 1.085 0 1.964-.755 1.964-1.685z" fill="#fff"/></g><g filter="url(#prefix__filter16_d_44_505)"><path d="M291.69 698.23c0-.931-.879-1.686-1.964-1.686-1.084 0-1.963.755-1.963 1.686 0 .93.879 1.685 1.963 1.685 1.085 0 1.964-.755 1.964-1.685z" fill="#fff"/></g><g filter="url(#prefix__filter17_d_44_505)"><path d="M1255.5 512.386c0-.31-.29-.562-.65-.562-.37 0-.66.252-.66.562 0 .311.29.563.66.563.36 0 .65-.252.65-.563z" fill="#fff"/></g><g filter="url(#prefix__filter18_d_44_505)"><path d="M424.604 571.944c0-.31-.293-.562-.655-.562-.362 0-.655.252-.655.562 0 .311.293.562.655.562.362 0 .655-.251.655-.562z" fill="#fff"/></g><g filter="url(#prefix__filter19_d_44_505)"><path d="M486.498 1044.39c0-.31-.293-.56-.655-.56-.362 0-.655.25-.655.56 0 .31.293.57.655.57.362 0 .655-.26.655-.57z" fill="#fff"/></g><g filter="url(#prefix__filter20_d_44_505)"><path d="M136.455 496.912c-.032.931.82 1.708 1.905 1.736 1.084.028 1.989-.704 2.022-1.635.033-.931-.82-1.708-1.905-1.736-1.084-.028-1.989.704-2.022 1.635z" fill="#fff"/></g><g filter="url(#prefix__filter21_d_44_505)"><path d="M632.515 223.282c-.033.931.82 1.708 1.904 1.736 1.085.028 1.99-.704 2.023-1.635.032-.931-.82-1.708-1.905-1.736-1.084-.028-1.99.704-2.022 1.635z" fill="#fff"/></g><g filter="url(#prefix__filter22_d_44_505)"><path d="M283.607 230.307c-.033.93.82 1.708 1.905 1.736 1.084.028 1.989-.704 2.022-1.635.032-.931-.82-1.708-1.905-1.736-1.084-.028-1.99.704-2.022 1.635z" fill="#fff"/></g><g filter="url(#prefix__filter23_d_44_505)"><path d="M418.938 310.21c-.033.931.82 1.708 1.905 1.736 1.084.028 1.989-.704 2.022-1.635.032-.931-.82-1.708-1.905-1.736-1.084-.028-1.989.704-2.022 1.635z" fill="#fff"/></g><g filter="url(#prefix__filter24_d_44_505)"><path d="M186.698 247.16c-.033.931.82 1.708 1.905 1.736 1.084.028 1.989-.704 2.022-1.635.032-.931-.82-1.708-1.905-1.736-1.084-.028-1.989.704-2.022 1.635z" fill="#fff"/></g><g filter="url(#prefix__filter25_d_44_505)"><path d="M184.679 19.685c-.033.931.82 1.708 1.904 1.736 1.085.028 1.99-.704 2.023-1.634.032-.931-.821-1.709-1.905-1.736-1.084-.028-1.99.704-2.022 1.634z" fill="#fff"/></g><g filter="url(#prefix__filter26_d_44_505)"><path d="M1158.62 183.125c0-.621-.59-1.125-1.31-1.125-.72 0-1.31.504-1.31 1.125s.59 1.124 1.31 1.124c.72 0 1.31-.503 1.31-1.124z" fill="#fff"/></g><g filter="url(#prefix__filter27_d_44_505)"><path d="M1293.47 93.176c0-1.754-1.45-3.176-3.23-3.176-1.79 0-3.24 1.422-3.24 3.176 0 1.754 1.45 3.175 3.24 3.175 1.78 0 3.23-1.421 3.23-3.175z" fill="#fff"/></g><g filter="url(#prefix__filter28_d_44_505)"><path d="M1280.37 961.224c0-.931-.88-1.685-1.96-1.685-1.09 0-1.96.754-1.96 1.685s.87 1.686 1.96 1.686c1.08 0 1.96-.755 1.96-1.686z" fill="#fff"/></g><g filter="url(#prefix__filter29_d_44_505)"><path d="M58.62 794.411c0-.621-.587-1.125-1.31-1.125-.724 0-1.31.504-1.31 1.125s.587 1.124 1.31 1.124c.723 0 1.31-.503 1.31-1.124z" fill="#fff"/></g><g filter="url(#prefix__filter30_d_44_505)"><path d="M113.023 840.369c0-.365-.345-.662-.77-.662-.426 0-.771.297-.771.662 0 .365.345.661.771.661.425 0 .77-.296.77-.661z" fill="#fff"/></g><g filter="url(#prefix__filter31_d_44_505)"><path d="M396.983 583.799c0-.931-.879-1.686-1.963-1.686-1.085 0-1.964.755-1.964 1.686 0 .93.879 1.685 1.964 1.685 1.084 0 1.963-.755 1.963-1.685z" fill="#fff"/></g><g filter="url(#prefix__filter32_d_44_505)"><path d="M650.122 817.345c0-.931-.879-1.685-1.964-1.685-1.084 0-1.963.754-1.963 1.685s.879 1.685 1.963 1.685c1.085 0 1.964-.754 1.964-1.685z" fill="#fff"/></g><g filter="url(#prefix__filter33_d_44_505)"><path d="M977.561 969.083c0-.931-.879-1.686-1.964-1.686-1.084 0-1.963.755-1.963 1.686 0 .93.879 1.685 1.963 1.685 1.085 0 1.964-.755 1.964-1.685z" fill="#fff"/></g><g filter="url(#prefix__filter34_d_44_505)"><path d="M983.097 947.729c0-.31-.293-.562-.655-.562-.362 0-.655.252-.655.562 0 .311.293.563.655.563.362 0 .655-.252.655-.563z" fill="#fff"/></g><g filter="url(#prefix__filter35_d_44_505)"><path d="M1275.14 948.854c0-.311-.3-.562-.66-.562-.36 0-.65.251-.65.562 0 .31.29.562.65.562.36 0 .66-.252.66-.562z" fill="#fff"/></g><g filter="url(#prefix__filter36_d_44_505)"><path d="M1310.49 966.845c0-.31-.29-.562-.66-.562-.36 0-.65.252-.65.562 0 .311.29.563.65.563.37 0 .66-.252.66-.563z" fill="#fff"/></g><g filter="url(#prefix__filter37_d_44_505)"><path d="M995.472 974.703c0-.31-.293-.562-.655-.562-.361 0-.655.252-.655.562 0 .311.294.563.655.563.362 0 .655-.252.655-.563z" fill="#fff"/></g><g filter="url(#prefix__filter38_d_44_505)"><path d="M908.812 1045.52c0-.31-.293-.56-.655-.56-.362 0-.655.25-.655.56 0 .31.293.56.655.56.362 0 .655-.25.655-.56z" fill="#fff"/></g><g filter="url(#prefix__filter39_d_44_505)"><path d="M841.401 808.004c0-.311-.293-.563-.655-.563-.362 0-.655.252-.655.563 0 .31.293.562.655.562.362 0 .655-.252.655-.562z" fill="#fff"/></g><g filter="url(#prefix__filter40_d_44_505)"><path d="M713.483 484.592c0-.31-.293-.562-.655-.562-.362 0-.655.252-.655.562 0 .311.293.562.655.562.362 0 .655-.251.655-.562z" fill="#fff"/></g><g filter="url(#prefix__filter41_d_44_505)"><path d="M525.012 761.371c0-.31-.293-.562-.655-.562-.362 0-.655.252-.655.562 0 .311.293.563.655.563.362 0 .655-.252.655-.563z" fill="#fff"/></g><g filter="url(#prefix__filter42_d_44_505)"><path d="M973.465 762.628c0-.31-.294-.562-.655-.562-.362 0-.655.252-.655.562 0 .311.293.562.655.562.361 0 .655-.251.655-.562z" fill="#fff"/></g><g filter="url(#prefix__filter43_d_44_505)"><path d="M392.964 962.347c0-.31-.294-.562-.655-.562-.362 0-.655.252-.655.562 0 .311.293.563.655.563.361 0 .655-.252.655-.563z" fill="#fff"/></g><defs><filter id="prefix__filter0_d_44_505" x="1207" y="216" width="40" height="40" filterUnits="userSpaceOnUse" color-interpolation-filters="sRGB"><feFlood flood-opacity="0" result="BackgroundImageFix"/><feColorMatrix in="SourceAlpha" values="0 0 0 0 0 0 0 0 0 0 0 0 0 0 0 0 0 0 127 0" result="hardAlpha"/><feOffset/><feGaussianBlur stdDeviation="9"/><feColorMatrix values="0 0 0 0 1 0 0 0 0 1 0 0 0 0 1 0 0 0 1 0"/><feBlend in2="BackgroundImageFix" result="effect1_dropShadow_44_505"/><feBlend in="SourceGraphic" in2="effect1_dropShadow_44_505" result="shape"/></filter><filter id="prefix__filter1_d_44_505" x="819.471" y="639.677" width="41.237" height="40.495" filterUnits="userSpaceOnUse" color-interpolation-filters="sRGB"><feFlood flood-opacity="0" result="BackgroundImageFix"/><feColorMatrix in="SourceAlpha" values="0 0 0 0 0 0 0 0 0 0 0 0 0 0 0 0 0 0 127 0" result="hardAlpha"/><feOffset/><feGaussianBlur stdDeviation="9"/><feColorMatrix values="0 0 0 0 1 0 0 0 0 1 0 0 0 0 1 0 0 0 1 0"/><feBlend in2="BackgroundImageFix" result="effect1_dropShadow_44_505"/><feBlend in="SourceGraphic" in2="effect1_dropShadow_44_505" result="shape"/></filter><filter id="prefix__filter2_d_44_505" x="890.92" y="215.232" width="38.62" height="38.249" filterUnits="userSpaceOnUse" color-interpolation-filters="sRGB"><feFlood flood-opacity="0" result="BackgroundImageFix"/><feColorMatrix in="SourceAlpha" values="0 0 0 0 0 0 0 0 0 0 0 0 0 0 0 0 0 0 127 0" result="hardAlpha"/><feOffset/><feGaussianBlur stdDeviation="9"/><feColorMatrix values="0 0 0 0 1 0 0 0 0 1 0 0 0 0 1 0 0 0 1 0"/><feBlend in2="BackgroundImageFix" result="effect1_dropShadow_44_505"/><feBlend in="SourceGraphic" in2="effect1_dropShadow_44_505" result="shape"/></filter><filter id="prefix__filter3_d_44_505" x="406.681" y="288.35" width="38.62" height="38.249" filterUnits="userSpaceOnUse" color-interpolation-filters="sRGB"><feFlood flood-opacity="0" result="BackgroundImageFix"/><feColorMatrix in="SourceAlpha" values="0 0 0 0 0 0 0 0 0 0 0 0 0 0 0 0 0 0 127 0" result="hardAlpha"/><feOffset/><feGaussianBlur stdDeviation="9"/><feColorMatrix values="0 0 0 0 1 0 0 0 0 1 0 0 0 0 1 0 0 0 1 0"/><feBlend in2="BackgroundImageFix" result="effect1_dropShadow_44_505"/><feBlend in="SourceGraphic" in2="effect1_dropShadow_44_505" result="shape"/></filter><filter id="prefix__filter4_d_44_505" x="782.251" y="178.376" width="38.62" height="38.249" filterUnits="userSpaceOnUse" color-interpolation-filters="sRGB"><feFlood flood-opacity="0" result="BackgroundImageFix"/><feColorMatrix in="SourceAlpha" values="0 0 0 0 0 0 0 0 0 0 0 0 0 0 0 0 0 0 127 0" result="hardAlpha"/><feOffset/><feGaussianBlur stdDeviation="9"/><feColorMatrix values="0 0 0 0 1 0 0 0 0 1 0 0 0 0 1 0 0 0 1 0"/><feBlend in2="BackgroundImageFix" result="effect1_dropShadow_44_505"/><feBlend in="SourceGraphic" in2="effect1_dropShadow_44_505" result="shape"/></filter><filter id="prefix__filter5_d_44_505" x="238.338" y="194.119" width="38.62" height="38.249" filterUnits="userSpaceOnUse" color-interpolation-filters="sRGB"><feFlood flood-opacity="0" result="BackgroundImageFix"/><feColorMatrix in="SourceAlpha" values="0 0 0 0 0 0 0 0 0 0 0 0 0 0 0 0 0 0 127 0" result="hardAlpha"/><feOffset/><feGaussianBlur stdDeviation="9"/><feColorMatrix values="0 0 0 0 1 0 0 0 0 1 0 0 0 0 1 0 0 0 1 0"/><feBlend in2="BackgroundImageFix" result="effect1_dropShadow_44_505"/><feBlend in="SourceGraphic" in2="effect1_dropShadow_44_505" result="shape"/></filter><filter id="prefix__filter6_d_44_505" x="375.041" y="323.698" width="38.62" height="38.249" filterUnits="userSpaceOnUse" color-interpolation-filters="sRGB"><feFlood flood-opacity="0" result="BackgroundImageFix"/><feColorMatrix in="SourceAlpha" values="0 0 0 0 0 0 0 0 0 0 0 0 0 0 0 0 0 0 127 0" result="hardAlpha"/><feOffset/><feGaussianBlur stdDeviation="9"/><feColorMatrix values="0 0 0 0 1 0 0 0 0 1 0 0 0 0 1 0 0 0 1 0"/><feBlend in2="BackgroundImageFix" result="effect1_dropShadow_44_505"/><feBlend in="SourceGraphic" in2="effect1_dropShadow_44_505" result="shape"/></filter><filter id="prefix__filter7_d_44_505" x="183.349" y="370.542" width="38.62" height="38.249" filterUnits="userSpaceOnUse" color-interpolation-filters="sRGB"><feFlood flood-opacity="0" result="BackgroundImageFix"/><feColorMatrix in="SourceAlpha" values="0 0 0 0 0 0 0 0 0 0 0 0 0 0 0 0 0 0 127 0" result="hardAlpha"/><feOffset/><feGaussianBlur stdDeviation="9"/><feColorMatrix values="0 0 0 0 1 0 0 0 0 1 0 0 0 0 1 0 0 0 1 0"/><feBlend in2="BackgroundImageFix" result="effect1_dropShadow_44_505"/><feBlend in="SourceGraphic" in2="effect1_dropShadow_44_505" result="shape"/></filter><filter id="prefix__filter8_d_44_505" x="376.412" y="742.015" width="38.62" height="38.249" filterUnits="userSpaceOnUse" color-interpolation-filters="sRGB"><feFlood flood-opacity="0" result="BackgroundImageFix"/><feColorMatrix in="SourceAlpha" values="0 0 0 0 0 0 0 0 0 0 0 0 0 0 0 0 0 0 127 0" result="hardAlpha"/><feOffset/><feGaussianBlur stdDeviation="9"/><feColorMatrix values="0 0 0 0 1 0 0 0 0 1 0 0 0 0 1 0 0 0 1 0"/><feBlend in2="BackgroundImageFix" result="effect1_dropShadow_44_505"/><feBlend in="SourceGraphic" in2="effect1_dropShadow_44_505" result="shape"/></filter><filter id="prefix__filter9_d_44_505" x="253.765" y="733.072" width="39.082" height="37.323" filterUnits="userSpaceOnUse" color-interpolation-filters="sRGB"><feFlood flood-opacity="0" result="BackgroundImageFix"/><feColorMatrix in="SourceAlpha" values="0 0 0 0 0 0 0 0 0 0 0 0 0 0 0 0 0 0 127 0" result="hardAlpha"/><feOffset/><feGaussianBlur stdDeviation="9"/><feColorMatrix values="0 0 0 0 1 0 0 0 0 1 0 0 0 0 1 0 0 0 1 0"/><feBlend in2="BackgroundImageFix" result="effect1_dropShadow_44_505"/><feBlend in="SourceGraphic" in2="effect1_dropShadow_44_505" result="shape"/></filter><filter id="prefix__filter10_d_44_505" x="903.265" y="128.926" width="37.31" height="37.124" filterUnits="userSpaceOnUse" color-interpolation-filters="sRGB"><feFlood flood-opacity="0" result="BackgroundImageFix"/><feColorMatrix in="SourceAlpha" values="0 0 0 0 0 0 0 0 0 0 0 0 0 0 0 0 0 0 127 0" result="hardAlpha"/><feOffset/><feGaussianBlur stdDeviation="9"/><feColorMatrix values="0 0 0 0 1 0 0 0 0 1 0 0 0 0 1 0 0 0 1 0"/><feBlend in2="BackgroundImageFix" result="effect1_dropShadow_44_505"/><feBlend in="SourceGraphic" in2="effect1_dropShadow_44_505" result="shape"/></filter><filter id="prefix__filter11_d_44_505" x="603.382" y="666.239" width="37.31" height="37.124" filterUnits="userSpaceOnUse" color-interpolation-filters="sRGB"><feFlood flood-opacity="0" result="BackgroundImageFix"/><feColorMatrix in="SourceAlpha" values="0 0 0 0 0 0 0 0 0 0 0 0 0 0 0 0 0 0 127 0" result="hardAlpha"/><feOffset/><feGaussianBlur stdDeviation="9"/><feColorMatrix values="0 0 0 0 1 0 0 0 0 1 0 0 0 0 1 0 0 0 1 0"/><feBlend in2="BackgroundImageFix" result="effect1_dropShadow_44_505"/><feBlend in="SourceGraphic" in2="effect1_dropShadow_44_505" result="shape"/></filter><filter id="prefix__filter12_d_44_505" x="317.246" y="782.509" width="37.31" height="37.124" filterUnits="userSpaceOnUse" color-interpolation-filters="sRGB"><feFlood flood-opacity="0" result="BackgroundImageFix"/><feColorMatrix in="SourceAlpha" values="0 0 0 0 0 0 0 0 0 0 0 0 0 0 0 0 0 0 127 0" result="hardAlpha"/><feOffset/><feGaussianBlur stdDeviation="9"/><feColorMatrix values="0 0 0 0 1 0 0 0 0 1 0 0 0 0 1 0 0 0 1 0"/><feBlend in2="BackgroundImageFix" result="effect1_dropShadow_44_505"/><feBlend in="SourceGraphic" in2="effect1_dropShadow_44_505" result="shape"/></filter><filter id="prefix__filter13_d_44_505" x="138.347" y="694.375" width="41.239" height="40.497" filterUnits="userSpaceOnUse" color-interpolation-filters="sRGB"><feFlood flood-opacity="0" result="BackgroundImageFix"/><feColorMatrix in="SourceAlpha" values="0 0 0 0 0 0 0 0 0 0 0 0 0 0 0 0 0 0 127 0" result="hardAlpha"/><feOffset/><feGaussianBlur stdDeviation="9"/><feColorMatrix values="0 0 0 0 1 0 0 0 0 1 0 0 0 0 1 0 0 0 1 0"/><feBlend in2="BackgroundImageFix" result="effect1_dropShadow_44_505"/><feBlend in="SourceGraphic" in2="effect1_dropShadow_44_505" result="shape"/></filter><filter id="prefix__filter14_d_44_505" x="87.272" y="675.682" width="41.239" height="40.497" filterUnits="userSpaceOnUse" color-interpolation-filters="sRGB"><feFlood flood-opacity="0" result="BackgroundImageFix"/><feColorMatrix in="SourceAlpha" values="0 0 0 0 0 0 0 0 0 0 0 0 0 0 0 0 0 0 127 0" result="hardAlpha"/><feOffset/><feGaussianBlur stdDeviation="9"/><feColorMatrix values="0 0 0 0 1 0 0 0 0 1 0 0 0 0 1 0 0 0 1 0"/><feBlend in2="BackgroundImageFix" result="effect1_dropShadow_44_505"/><feBlend in="SourceGraphic" in2="effect1_dropShadow_44_505" result="shape"/></filter><filter id="prefix__filter15_d_44_505" x="946.002" y="314.255" width="39.927" height="39.371" filterUnits="userSpaceOnUse" color-interpolation-filters="sRGB"><feFlood flood-opacity="0" result="BackgroundImageFix"/><feColorMatrix in="SourceAlpha" values="0 0 0 0 0 0 0 0 0 0 0 0 0 0 0 0 0 0 127 0" result="hardAlpha"/><feOffset/><feGaussianBlur stdDeviation="9"/><feColorMatrix values="0 0 0 0 1 0 0 0 0 1 0 0 0 0 1 0 0 0 1 0"/><feBlend in2="BackgroundImageFix" result="effect1_dropShadow_44_505"/><feBlend in="SourceGraphic" in2="effect1_dropShadow_44_505" result="shape"/></filter><filter id="prefix__filter16_d_44_505" x="269.763" y="678.544" width="39.927" height="39.371" filterUnits="userSpaceOnUse" color-interpolation-filters="sRGB"><feFlood flood-opacity="0" result="BackgroundImageFix"/><feColorMatrix in="SourceAlpha" values="0 0 0 0 0 0 0 0 0 0 0 0 0 0 0 0 0 0 127 0" result="hardAlpha"/><feOffset/><feGaussianBlur stdDeviation="9"/><feColorMatrix values="0 0 0 0 1 0 0 0 0 1 0 0 0 0 1 0 0 0 1 0"/><feBlend in2="BackgroundImageFix" result="effect1_dropShadow_44_505"/><feBlend in="SourceGraphic" in2="effect1_dropShadow_44_505" result="shape"/></filter><filter id="prefix__filter17_d_44_505" x="1236.19" y="493.824" width="37.31" height="37.124" filterUnits="userSpaceOnUse" color-interpolation-filters="sRGB"><feFlood flood-opacity="0" result="BackgroundImageFix"/><feColorMatrix in="SourceAlpha" values="0 0 0 0 0 0 0 0 0 0 0 0 0 0 0 0 0 0 127 0" result="hardAlpha"/><feOffset/><feGaussianBlur stdDeviation="9"/><feColorMatrix values="0 0 0 0 1 0 0 0 0 1 0 0 0 0 1 0 0 0 1 0"/><feBlend in2="BackgroundImageFix" result="effect1_dropShadow_44_505"/><feBlend in="SourceGraphic" in2="effect1_dropShadow_44_505" result="shape"/></filter><filter id="prefix__filter18_d_44_505" x="405.294" y="553.382" width="37.31" height="37.124" filterUnits="userSpaceOnUse" color-interpolation-filters="sRGB"><feFlood flood-opacity="0" result="BackgroundImageFix"/><feColorMatrix in="SourceAlpha" values="0 0 0 0 0 0 0 0 0 0 0 0 0 0 0 0 0 0 127 0" result="hardAlpha"/><feOffset/><feGaussianBlur stdDeviation="9"/><feColorMatrix values="0 0 0 0 1 0 0 0 0 1 0 0 0 0 1 0 0 0 1 0"/><feBlend in2="BackgroundImageFix" result="effect1_dropShadow_44_505"/><feBlend in="SourceGraphic" in2="effect1_dropShadow_44_505" result="shape"/></filter><filter id="prefix__filter19_d_44_505" x="467.188" y="1025.83" width="37.31" height="37.124" filterUnits="userSpaceOnUse" color-interpolation-filters="sRGB"><feFlood flood-opacity="0" result="BackgroundImageFix"/><feColorMatrix in="SourceAlpha" values="0 0 0 0 0 0 0 0 0 0 0 0 0 0 0 0 0 0 127 0" result="hardAlpha"/><feOffset/><feGaussianBlur stdDeviation="9"/><feColorMatrix values="0 0 0 0 1 0 0 0 0 1 0 0 0 0 1 0 0 0 1 0"/><feBlend in2="BackgroundImageFix" result="effect1_dropShadow_44_505"/><feBlend in="SourceGraphic" in2="effect1_dropShadow_44_505" result="shape"/></filter><filter id="prefix__filter20_d_44_505" x="118.454" y="477.276" width="39.929" height="39.372" filterUnits="userSpaceOnUse" color-interpolation-filters="sRGB"><feFlood flood-opacity="0" result="BackgroundImageFix"/><feColorMatrix in="SourceAlpha" values="0 0 0 0 0 0 0 0 0 0 0 0 0 0 0 0 0 0 127 0" result="hardAlpha"/><feOffset/><feGaussianBlur stdDeviation="9"/><feColorMatrix values="0 0 0 0 1 0 0 0 0 1 0 0 0 0 1 0 0 0 1 0"/><feBlend in2="BackgroundImageFix" result="effect1_dropShadow_44_505"/><feBlend in="SourceGraphic" in2="effect1_dropShadow_44_505" result="shape"/></filter><filter id="prefix__filter21_d_44_505" x="614.514" y="203.646" width="39.929" height="39.372" filterUnits="userSpaceOnUse" color-interpolation-filters="sRGB"><feFlood flood-opacity="0" result="BackgroundImageFix"/><feColorMatrix in="SourceAlpha" values="0 0 0 0 0 0 0 0 0 0 0 0 0 0 0 0 0 0 127 0" result="hardAlpha"/><feOffset/><feGaussianBlur stdDeviation="9"/><feColorMatrix values="0 0 0 0 1 0 0 0 0 1 0 0 0 0 1 0 0 0 1 0"/><feBlend in2="BackgroundImageFix" result="effect1_dropShadow_44_505"/><feBlend in="SourceGraphic" in2="effect1_dropShadow_44_505" result="shape"/></filter><filter id="prefix__filter22_d_44_505" x="265.606" y="210.671" width="39.929" height="39.372" filterUnits="userSpaceOnUse" color-interpolation-filters="sRGB"><feFlood flood-opacity="0" result="BackgroundImageFix"/><feColorMatrix in="SourceAlpha" values="0 0 0 0 0 0 0 0 0 0 0 0 0 0 0 0 0 0 127 0" result="hardAlpha"/><feOffset/><feGaussianBlur stdDeviation="9"/><feColorMatrix values="0 0 0 0 1 0 0 0 0 1 0 0 0 0 1 0 0 0 1 0"/><feBlend in2="BackgroundImageFix" result="effect1_dropShadow_44_505"/><feBlend in="SourceGraphic" in2="effect1_dropShadow_44_505" result="shape"/></filter><filter id="prefix__filter23_d_44_505" x="400.937" y="290.574" width="39.929" height="39.372" filterUnits="userSpaceOnUse" color-interpolation-filters="sRGB"><feFlood flood-opacity="0" result="BackgroundImageFix"/><feColorMatrix in="SourceAlpha" values="0 0 0 0 0 0 0 0 0 0 0 0 0 0 0 0 0 0 127 0" result="hardAlpha"/><feOffset/><feGaussianBlur stdDeviation="9"/><feColorMatrix values="0 0 0 0 1 0 0 0 0 1 0 0 0 0 1 0 0 0 1 0"/><feBlend in2="BackgroundImageFix" result="effect1_dropShadow_44_505"/><feBlend in="SourceGraphic" in2="effect1_dropShadow_44_505" result="shape"/></filter><filter id="prefix__filter24_d_44_505" x="168.697" y="227.524" width="39.929" height="39.372" filterUnits="userSpaceOnUse" color-interpolation-filters="sRGB"><feFlood flood-opacity="0" result="BackgroundImageFix"/><feColorMatrix in="SourceAlpha" values="0 0 0 0 0 0 0 0 0 0 0 0 0 0 0 0 0 0 127 0" result="hardAlpha"/><feOffset/><feGaussianBlur stdDeviation="9"/><feColorMatrix values="0 0 0 0 1 0 0 0 0 1 0 0 0 0 1 0 0 0 1 0"/><feBlend in2="BackgroundImageFix" result="effect1_dropShadow_44_505"/><feBlend in="SourceGraphic" in2="effect1_dropShadow_44_505" result="shape"/></filter><filter id="prefix__filter25_d_44_505" x="166.678" y=".05" width="39.929" height="39.372" filterUnits="userSpaceOnUse" color-interpolation-filters="sRGB"><feFlood flood-opacity="0" result="BackgroundImageFix"/><feColorMatrix in="SourceAlpha" values="0 0 0 0 0 0 0 0 0 0 0 0 0 0 0 0 0 0 127 0" result="hardAlpha"/><feOffset/><feGaussianBlur stdDeviation="9"/><feColorMatrix values="0 0 0 0 1 0 0 0 0 1 0 0 0 0 1 0 0 0 1 0"/><feBlend in2="BackgroundImageFix" result="effect1_dropShadow_44_505"/><feBlend in="SourceGraphic" in2="effect1_dropShadow_44_505" result="shape"/></filter><filter id="prefix__filter26_d_44_505" x="1138" y="164" width="38.62" height="38.249" filterUnits="userSpaceOnUse" color-interpolation-filters="sRGB"><feFlood flood-opacity="0" result="BackgroundImageFix"/><feColorMatrix in="SourceAlpha" values="0 0 0 0 0 0 0 0 0 0 0 0 0 0 0 0 0 0 127 0" result="hardAlpha"/><feOffset/><feGaussianBlur stdDeviation="9"/><feColorMatrix values="0 0 0 0 1 0 0 0 0 1 0 0 0 0 1 0 0 0 1 0"/><feBlend in2="BackgroundImageFix" result="effect1_dropShadow_44_505"/><feBlend in="SourceGraphic" in2="effect1_dropShadow_44_505" result="shape"/></filter><filter id="prefix__filter27_d_44_505" x="1269" y="72" width="42.472" height="42.351" filterUnits="userSpaceOnUse" color-interpolation-filters="sRGB"><feFlood flood-opacity="0" result="BackgroundImageFix"/><feColorMatrix in="SourceAlpha" values="0 0 0 0 0 0 0 0 0 0 0 0 0 0 0 0 0 0 127 0" result="hardAlpha"/><feOffset/><feGaussianBlur stdDeviation="9"/><feColorMatrix values="0 0 0 0 1 0 0 0 0 1 0 0 0 0 1 0 0 0 1 0"/><feBlend in2="BackgroundImageFix" result="effect1_dropShadow_44_505"/><feBlend in="SourceGraphic" in2="effect1_dropShadow_44_505" result="shape"/></filter><filter id="prefix__filter28_d_44_505" x="1258.45" y="941.539" width="39.927" height="39.371" filterUnits="userSpaceOnUse" color-interpolation-filters="sRGB"><feFlood flood-opacity="0" result="BackgroundImageFix"/><feColorMatrix in="SourceAlpha" values="0 0 0 0 0 0 0 0 0 0 0 0 0 0 0 0 0 0 127 0" result="hardAlpha"/><feOffset/><feGaussianBlur stdDeviation="9"/><feColorMatrix values="0 0 0 0 1 0 0 0 0 1 0 0 0 0 1 0 0 0 1 0"/><feBlend in2="BackgroundImageFix" result="effect1_dropShadow_44_505"/><feBlend in="SourceGraphic" in2="effect1_dropShadow_44_505" result="shape"/></filter><filter id="prefix__filter29_d_44_505" x="38" y="775.286" width="38.62" height="38.249" filterUnits="userSpaceOnUse" color-interpolation-filters="sRGB"><feFlood flood-opacity="0" result="BackgroundImageFix"/><feColorMatrix in="SourceAlpha" values="0 0 0 0 0 0 0 0 0 0 0 0 0 0 0 0 0 0 127 0" result="hardAlpha"/><feOffset/><feGaussianBlur stdDeviation="9"/><feColorMatrix values="0 0 0 0 1 0 0 0 0 1 0 0 0 0 1 0 0 0 1 0"/><feBlend in2="BackgroundImageFix" result="effect1_dropShadow_44_505"/><feBlend in="SourceGraphic" in2="effect1_dropShadow_44_505" result="shape"/></filter><filter id="prefix__filter30_d_44_505" x="93.482" y="821.708" width="37.541" height="37.323" filterUnits="userSpaceOnUse" color-interpolation-filters="sRGB"><feFlood flood-opacity="0" result="BackgroundImageFix"/><feColorMatrix in="SourceAlpha" values="0 0 0 0 0 0 0 0 0 0 0 0 0 0 0 0 0 0 127 0" result="hardAlpha"/><feOffset/><feGaussianBlur stdDeviation="9"/><feColorMatrix values="0 0 0 0 1 0 0 0 0 1 0 0 0 0 1 0 0 0 1 0"/><feBlend in2="BackgroundImageFix" result="effect1_dropShadow_44_505"/><feBlend in="SourceGraphic" in2="effect1_dropShadow_44_505" result="shape"/></filter><filter id="prefix__filter31_d_44_505" x="375.056" y="564.113" width="39.927" height="39.371" filterUnits="userSpaceOnUse" color-interpolation-filters="sRGB"><feFlood flood-opacity="0" result="BackgroundImageFix"/><feColorMatrix in="SourceAlpha" values="0 0 0 0 0 0 0 0 0 0 0 0 0 0 0 0 0 0 127 0" result="hardAlpha"/><feOffset/><feGaussianBlur stdDeviation="9"/><feColorMatrix values="0 0 0 0 1 0 0 0 0 1 0 0 0 0 1 0 0 0 1 0"/><feBlend in2="BackgroundImageFix" result="effect1_dropShadow_44_505"/><feBlend in="SourceGraphic" in2="effect1_dropShadow_44_505" result="shape"/></filter><filter id="prefix__filter32_d_44_505" x="628.195" y="797.66" width="39.927" height="39.371" filterUnits="userSpaceOnUse" color-interpolation-filters="sRGB"><feFlood flood-opacity="0" result="BackgroundImageFix"/><feColorMatrix in="SourceAlpha" values="0 0 0 0 0 0 0 0 0 0 0 0 0 0 0 0 0 0 127 0" result="hardAlpha"/><feOffset/><feGaussianBlur stdDeviation="9"/><feColorMatrix values="0 0 0 0 1 0 0 0 0 1 0 0 0 0 1 0 0 0 1 0"/><feBlend in2="BackgroundImageFix" result="effect1_dropShadow_44_505"/><feBlend in="SourceGraphic" in2="effect1_dropShadow_44_505" result="shape"/></filter><filter id="prefix__filter33_d_44_505" x="955.634" y="949.397" width="39.927" height="39.371" filterUnits="userSpaceOnUse" color-interpolation-filters="sRGB"><feFlood flood-opacity="0" result="BackgroundImageFix"/><feColorMatrix in="SourceAlpha" values="0 0 0 0 0 0 0 0 0 0 0 0 0 0 0 0 0 0 127 0" result="hardAlpha"/><feOffset/><feGaussianBlur stdDeviation="9"/><feColorMatrix values="0 0 0 0 1 0 0 0 0 1 0 0 0 0 1 0 0 0 1 0"/><feBlend in2="BackgroundImageFix" result="effect1_dropShadow_44_505"/><feBlend in="SourceGraphic" in2="effect1_dropShadow_44_505" result="shape"/></filter><filter id="prefix__filter34_d_44_505" x="963.787" y="929.167" width="37.31" height="37.124" filterUnits="userSpaceOnUse" color-interpolation-filters="sRGB"><feFlood flood-opacity="0" result="BackgroundImageFix"/><feColorMatrix in="SourceAlpha" values="0 0 0 0 0 0 0 0 0 0 0 0 0 0 0 0 0 0 127 0" result="hardAlpha"/><feOffset/><feGaussianBlur stdDeviation="9"/><feColorMatrix values="0 0 0 0 1 0 0 0 0 1 0 0 0 0 1 0 0 0 1 0"/><feBlend in2="BackgroundImageFix" result="effect1_dropShadow_44_505"/><feBlend in="SourceGraphic" in2="effect1_dropShadow_44_505" result="shape"/></filter><filter id="prefix__filter35_d_44_505" x="1255.83" y="930.292" width="37.31" height="37.124" filterUnits="userSpaceOnUse" color-interpolation-filters="sRGB"><feFlood flood-opacity="0" result="BackgroundImageFix"/><feColorMatrix in="SourceAlpha" values="0 0 0 0 0 0 0 0 0 0 0 0 0 0 0 0 0 0 127 0" result="hardAlpha"/><feOffset/><feGaussianBlur stdDeviation="9"/><feColorMatrix values="0 0 0 0 1 0 0 0 0 1 0 0 0 0 1 0 0 0 1 0"/><feBlend in2="BackgroundImageFix" result="effect1_dropShadow_44_505"/><feBlend in="SourceGraphic" in2="effect1_dropShadow_44_505" result="shape"/></filter><filter id="prefix__filter36_d_44_505" x="1291.18" y="948.283" width="37.31" height="37.124" filterUnits="userSpaceOnUse" color-interpolation-filters="sRGB"><feFlood flood-opacity="0" result="BackgroundImageFix"/><feColorMatrix in="SourceAlpha" values="0 0 0 0 0 0 0 0 0 0 0 0 0 0 0 0 0 0 127 0" result="hardAlpha"/><feOffset/><feGaussianBlur stdDeviation="9"/><feColorMatrix values="0 0 0 0 1 0 0 0 0 1 0 0 0 0 1 0 0 0 1 0"/><feBlend in2="BackgroundImageFix" result="effect1_dropShadow_44_505"/><feBlend in="SourceGraphic" in2="effect1_dropShadow_44_505" result="shape"/></filter><filter id="prefix__filter37_d_44_505" x="976.162" y="956.141" width="37.31" height="37.124" filterUnits="userSpaceOnUse" color-interpolation-filters="sRGB"><feFlood flood-opacity="0" result="BackgroundImageFix"/><feColorMatrix in="SourceAlpha" values="0 0 0 0 0 0 0 0 0 0 0 0 0 0 0 0 0 0 127 0" result="hardAlpha"/><feOffset/><feGaussianBlur stdDeviation="9"/><feColorMatrix values="0 0 0 0 1 0 0 0 0 1 0 0 0 0 1 0 0 0 1 0"/><feBlend in2="BackgroundImageFix" result="effect1_dropShadow_44_505"/><feBlend in="SourceGraphic" in2="effect1_dropShadow_44_505" result="shape"/></filter><filter id="prefix__filter38_d_44_505" x="889.502" y="1026.96" width="37.31" height="37.124" filterUnits="userSpaceOnUse" color-interpolation-filters="sRGB"><feFlood flood-opacity="0" result="BackgroundImageFix"/><feColorMatrix in="SourceAlpha" values="0 0 0 0 0 0 0 0 0 0 0 0 0 0 0 0 0 0 127 0" result="hardAlpha"/><feOffset/><feGaussianBlur stdDeviation="9"/><feColorMatrix values="0 0 0 0 1 0 0 0 0 1 0 0 0 0 1 0 0 0 1 0"/><feBlend in2="BackgroundImageFix" result="effect1_dropShadow_44_505"/><feBlend in="SourceGraphic" in2="effect1_dropShadow_44_505" result="shape"/></filter><filter id="prefix__filter39_d_44_505" x="822.091" y="789.441" width="37.31" height="37.124" filterUnits="userSpaceOnUse" color-interpolation-filters="sRGB"><feFlood flood-opacity="0" result="BackgroundImageFix"/><feColorMatrix in="SourceAlpha" values="0 0 0 0 0 0 0 0 0 0 0 0 0 0 0 0 0 0 127 0" result="hardAlpha"/><feOffset/><feGaussianBlur stdDeviation="9"/><feColorMatrix values="0 0 0 0 1 0 0 0 0 1 0 0 0 0 1 0 0 0 1 0"/><feBlend in2="BackgroundImageFix" result="effect1_dropShadow_44_505"/><feBlend in="SourceGraphic" in2="effect1_dropShadow_44_505" result="shape"/></filter><filter id="prefix__filter40_d_44_505" x="694.173" y="466.03" width="37.31" height="37.124" filterUnits="userSpaceOnUse" color-interpolation-filters="sRGB"><feFlood flood-opacity="0" result="BackgroundImageFix"/><feColorMatrix in="SourceAlpha" values="0 0 0 0 0 0 0 0 0 0 0 0 0 0 0 0 0 0 127 0" result="hardAlpha"/><feOffset/><feGaussianBlur stdDeviation="9"/><feColorMatrix values="0 0 0 0 1 0 0 0 0 1 0 0 0 0 1 0 0 0 1 0"/><feBlend in2="BackgroundImageFix" result="effect1_dropShadow_44_505"/><feBlend in="SourceGraphic" in2="effect1_dropShadow_44_505" result="shape"/></filter><filter id="prefix__filter41_d_44_505" x="505.702" y="742.809" width="37.31" height="37.124" filterUnits="userSpaceOnUse" color-interpolation-filters="sRGB"><feFlood flood-opacity="0" result="BackgroundImageFix"/><feColorMatrix in="SourceAlpha" values="0 0 0 0 0 0 0 0 0 0 0 0 0 0 0 0 0 0 127 0" result="hardAlpha"/><feOffset/><feGaussianBlur stdDeviation="9"/><feColorMatrix values="0 0 0 0 1 0 0 0 0 1 0 0 0 0 1 0 0 0 1 0"/><feBlend in2="BackgroundImageFix" result="effect1_dropShadow_44_505"/><feBlend in="SourceGraphic" in2="effect1_dropShadow_44_505" result="shape"/></filter><filter id="prefix__filter42_d_44_505" x="954.155" y="744.066" width="37.31" height="37.124" filterUnits="userSpaceOnUse" color-interpolation-filters="sRGB"><feFlood flood-opacity="0" result="BackgroundImageFix"/><feColorMatrix in="SourceAlpha" values="0 0 0 0 0 0 0 0 0 0 0 0 0 0 0 0 0 0 127 0" result="hardAlpha"/><feOffset/><feGaussianBlur stdDeviation="9"/><feColorMatrix values="0 0 0 0 1 0 0 0 0 1 0 0 0 0 1 0 0 0 1 0"/><feBlend in2="BackgroundImageFix" result="effect1_dropShadow_44_505"/><feBlend in="SourceGraphic" in2="effect1_dropShadow_44_505" result="shape"/></filter><filter id="prefix__filter43_d_44_505" x="373.654" y="943.785" width="37.31" height="37.124" filterUnits="userSpaceOnUse" color-interpolation-filters="sRGB"><feFlood flood-opacity="0" result="BackgroundImageFix"/><feColorMatrix in="SourceAlpha" values="0 0 0 0 0 0 0 0 0 0 0 0 0 0 0 0 0 0 127 0" result="hardAlpha"/><feOffset/><feGaussianBlur stdDeviation="9"/><feColorMatrix values="0 0 0 0 1 0 0 0 0 1 0 0 0 0 1 0 0 0 1 0"/><feBlend in2="BackgroundImageFix" result="effect1_dropShadow_44_505"/><feBlend in="SourceGraphic" in2="effect1_dropShadow_44_505" result="shape"/></filter></defs></svg>
