<svg xmlns="http://www.w3.org/2000/svg" xmlns:xlink="http://www.w3.org/1999/xlink" width="1127" height="344" viewBox="0 0 1127 344">
  <defs>
    <clipPath id="clip-path">
      <rect id="Rectangle_6" data-name="Rectangle 6" width="1127" height="344" transform="translate(225 -835)" fill="#fff" stroke="#707070" stroke-width="1"/>
    </clipPath>
    <clipPath id="clip-path-2">
      <rect id="Rectangle_3" data-name="Rectangle 3" width="1122.635" height="334.298" fill="none"/>
    </clipPath>
  </defs>
  <g id="Mask_Group_1" data-name="Mask Group 1" transform="translate(-225 835)" clip-path="url(#clip-path)">
    <g id="Group_5" data-name="Group 5" transform="translate(251 -809)">
      <path id="Path_56" data-name="Path 56" d="M21.488-33.8q2.856-.2,2.856,2.312a2.418,2.418,0,0,1-.612,1.734,3.252,3.252,0,0,1-2.108.782l-2.04.2q-4.556.408-6.766,3.23a10.438,10.438,0,0,0-2.21,6.63V-2.38A2.62,2.62,0,0,1,9.86-.34,2.818,2.818,0,0,1,7.888.34,2.86,2.86,0,0,1,5.882-.374,2.579,2.579,0,0,1,5.1-2.38v-28.7a2.524,2.524,0,0,1,.816-2.006A2.892,2.892,0,0,1,7.888-33.8a2.558,2.558,0,0,1,1.836.714,2.552,2.552,0,0,1,.748,1.938v3.808a10.325,10.325,0,0,1,4.046-4.556,13.692,13.692,0,0,1,6.018-1.836ZM53.448-7.684a1.675,1.675,0,0,1,1.292.612,2.266,2.266,0,0,1,.544,1.564q0,1.7-2.38,3.128A20.584,20.584,0,0,1,47.736-.238a20.848,20.848,0,0,1-5.3.714q-7.684,0-12.138-4.556T25.84-16.66a19.746,19.746,0,0,1,1.972-9.01,14.713,14.713,0,0,1,5.542-6.086,15.3,15.3,0,0,1,8.126-2.176,13.15,13.15,0,0,1,10.268,4.216q3.808,4.216,3.808,11.424a2.929,2.929,0,0,1-.544,1.972,2.258,2.258,0,0,1-1.768.612h-21.9q.612,11.7,11.084,11.7a12.992,12.992,0,0,0,4.556-.714,29.622,29.622,0,0,0,4.08-1.938A6.468,6.468,0,0,1,53.448-7.684Zm-11.9-21.964a9.227,9.227,0,0,0-6.97,2.72,12.429,12.429,0,0,0-3.094,7.684H50.728q-.136-5.032-2.516-7.718A8.438,8.438,0,0,0,41.548-29.648ZM77.18-33.932q12.444,0,12.444,13.056v18.5A2.737,2.737,0,0,1,88.91-.408,2.553,2.553,0,0,1,86.972.34,2.666,2.666,0,0,1,85-.408a2.666,2.666,0,0,1-.748-1.972V-5.644a9.728,9.728,0,0,1-3.944,4.522,11.625,11.625,0,0,1-6.12,1.6A13.39,13.39,0,0,1,68.306-.816a10.51,10.51,0,0,1-4.25-3.6,8.907,8.907,0,0,1-1.564-5.1,8.281,8.281,0,0,1,1.9-5.814q1.9-2.074,6.256-2.992a61.812,61.812,0,0,1,12.1-.918h1.5v-2.244q0-4.08-1.666-5.984t-5.406-1.9A19.974,19.974,0,0,0,67.8-26.86,6.206,6.206,0,0,1,65.212-25.7a1.744,1.744,0,0,1-1.36-.612,2.266,2.266,0,0,1-.544-1.564,2.569,2.569,0,0,1,.578-1.666,6.772,6.772,0,0,1,1.87-1.462,21.879,21.879,0,0,1,5.406-2.142A23.974,23.974,0,0,1,77.18-33.932ZM74.936-3.876a8.835,8.835,0,0,0,6.7-2.754,9.892,9.892,0,0,0,2.618-7.106v-1.972H83.028a60.865,60.865,0,0,0-9.112.51,8.857,8.857,0,0,0-4.454,1.7A4.463,4.463,0,0,0,68.136-10,5.631,5.631,0,0,0,70.074-5.61,7.02,7.02,0,0,0,74.936-3.876ZM113.356.476a15.809,15.809,0,0,1-8.194-2.108,14.089,14.089,0,0,1-5.508-5.984,19.82,19.82,0,0,1-1.938-8.976,19.677,19.677,0,0,1,2.006-9.044,14.819,14.819,0,0,1,5.61-6.12,15.733,15.733,0,0,1,8.3-2.176,18.959,18.959,0,0,1,5.134.714,14.155,14.155,0,0,1,4.454,2.074,6.036,6.036,0,0,1,1.734,1.6,3.107,3.107,0,0,1,.51,1.734,2.361,2.361,0,0,1-.51,1.564,1.645,1.645,0,0,1-1.326.612,2.293,2.293,0,0,1-1.02-.272,6.55,6.55,0,0,1-.918-.544,4.665,4.665,0,0,0-.51-.34,21.835,21.835,0,0,0-3.366-1.836,9.986,9.986,0,0,0-3.91-.68,9.415,9.415,0,0,0-7.718,3.366q-2.754,3.366-2.754,9.35t2.754,9.248A9.546,9.546,0,0,0,113.9-4.08a10.506,10.506,0,0,0,3.978-.68A18.333,18.333,0,0,0,121.244-6.6a16.023,16.023,0,0,1,1.428-.816,2.7,2.7,0,0,1,1.156-.34,1.577,1.577,0,0,1,1.258.612,2.361,2.361,0,0,1,.51,1.564,2.817,2.817,0,0,1-.476,1.6,6.646,6.646,0,0,1-1.768,1.6,16.182,16.182,0,0,1-4.59,2.074A19.251,19.251,0,0,1,113.356.476ZM147.7-4.012q2.38.2,2.38,2.176a1.957,1.957,0,0,1-.85,1.734,3.981,3.981,0,0,1-2.55.442L144.84.2Q139.4-.2,136.816-3.06T134.232-11.7V-28.764h-4.556a2.608,2.608,0,0,1-1.8-.578,1.953,1.953,0,0,1-.646-1.53,2.142,2.142,0,0,1,.646-1.632,2.516,2.516,0,0,1,1.8-.612h4.556V-40.8a2.641,2.641,0,0,1,.748-2.006,2.832,2.832,0,0,1,2.04-.714,2.737,2.737,0,0,1,1.972.714,2.641,2.641,0,0,1,.748,2.006v7.684h7.548a2.418,2.418,0,0,1,1.734.612,2.142,2.142,0,0,1,.646,1.632,1.953,1.953,0,0,1-.646,1.53,2.5,2.5,0,0,1-1.734.578H139.74v17.34q0,3.74,1.53,5.406a6.557,6.557,0,0,0,4.59,1.87Zm7.752-11.832a2.618,2.618,0,0,1-1.87-.612,2.142,2.142,0,0,1-.646-1.632,2.255,2.255,0,0,1,.646-1.666,2.532,2.532,0,0,1,1.87-.646h14.96a2.632,2.632,0,0,1,1.938.646,2.255,2.255,0,0,1,.646,1.666,2.142,2.142,0,0,1-.646,1.632,2.724,2.724,0,0,1-1.938.612Zm43.724-18.088q11.9,0,11.9,13.124V-2.38a2.712,2.712,0,0,1-.714,2.006,2.712,2.712,0,0,1-2.006.714,2.832,2.832,0,0,1-2.04-.714,2.641,2.641,0,0,1-.748-2.006V-20.468q0-4.624-1.8-6.732t-5.746-2.108a9.7,9.7,0,0,0-7.276,2.788,10.345,10.345,0,0,0-2.72,7.548V-2.38a2.712,2.712,0,0,1-.714,2.006A2.712,2.712,0,0,1,185.3.34a2.832,2.832,0,0,1-2.04-.714,2.641,2.641,0,0,1-.748-2.006v-28.7a2.666,2.666,0,0,1,.748-1.972,2.756,2.756,0,0,1,2.04-.748,2.552,2.552,0,0,1,1.938.748,2.646,2.646,0,0,1,.714,1.9v3.468a11.151,11.151,0,0,1,4.556-4.658A13.668,13.668,0,0,1,199.172-33.932Zm35.5,0q12.444,0,12.444,13.056v18.5A2.737,2.737,0,0,1,246.4-.408,2.553,2.553,0,0,1,244.46.34a2.666,2.666,0,0,1-1.972-.748,2.666,2.666,0,0,1-.748-1.972V-5.644A9.728,9.728,0,0,1,237.8-1.122a11.625,11.625,0,0,1-6.12,1.6,13.39,13.39,0,0,1-5.882-1.292,10.511,10.511,0,0,1-4.25-3.6,8.907,8.907,0,0,1-1.564-5.1,8.281,8.281,0,0,1,1.9-5.814q1.9-2.074,6.256-2.992a61.812,61.812,0,0,1,12.1-.918h1.5v-2.244q0-4.08-1.666-5.984t-5.406-1.9a19.974,19.974,0,0,0-9.384,2.516A6.206,6.206,0,0,1,222.7-25.7a1.744,1.744,0,0,1-1.36-.612,2.266,2.266,0,0,1-.544-1.564,2.569,2.569,0,0,1,.578-1.666,6.772,6.772,0,0,1,1.87-1.462,21.879,21.879,0,0,1,5.406-2.142A23.974,23.974,0,0,1,234.668-33.932ZM232.424-3.876a8.835,8.835,0,0,0,6.7-2.754,9.892,9.892,0,0,0,2.618-7.106v-1.972h-1.224a60.865,60.865,0,0,0-9.112.51,8.857,8.857,0,0,0-4.454,1.7,4.463,4.463,0,0,0-1.326,3.5,5.631,5.631,0,0,0,1.938,4.386A7.02,7.02,0,0,0,232.424-3.876Zm40.052-.136q2.38.2,2.38,2.176a1.957,1.957,0,0,1-.85,1.734,3.981,3.981,0,0,1-2.55.442L269.62.2Q264.18-.2,261.6-3.06T259.012-11.7V-28.764h-4.556a2.608,2.608,0,0,1-1.8-.578,1.953,1.953,0,0,1-.646-1.53,2.142,2.142,0,0,1,.646-1.632,2.516,2.516,0,0,1,1.8-.612h4.556V-40.8a2.641,2.641,0,0,1,.748-2.006,2.832,2.832,0,0,1,2.04-.714,2.737,2.737,0,0,1,1.972.714,2.641,2.641,0,0,1,.748,2.006v7.684h7.548a2.418,2.418,0,0,1,1.734.612,2.142,2.142,0,0,1,.646,1.632,1.953,1.953,0,0,1-.646,1.53,2.5,2.5,0,0,1-1.734.578H264.52v17.34q0,3.74,1.53,5.406a6.556,6.556,0,0,0,4.59,1.87ZM283.084.34a2.86,2.86,0,0,1-2.006-.714A2.579,2.579,0,0,1,280.3-2.38v-28.7a2.579,2.579,0,0,1,.782-2.006,2.86,2.86,0,0,1,2.006-.714,2.737,2.737,0,0,1,1.972.714,2.641,2.641,0,0,1,.748,2.006v28.7a2.62,2.62,0,0,1-.748,2.04A2.818,2.818,0,0,1,283.084.34Zm0-41.276a3.731,3.731,0,0,1-2.652-.952,3.28,3.28,0,0,1-1.02-2.516,3.2,3.2,0,0,1,1.02-2.448,3.731,3.731,0,0,1,2.652-.952,3.731,3.731,0,0,1,2.652.952,3.2,3.2,0,0,1,1.02,2.448,3.28,3.28,0,0,1-1.02,2.516A3.731,3.731,0,0,1,283.084-40.936ZM319.94-32.1a2.484,2.484,0,0,1,2.38-1.632,2.793,2.793,0,0,1,1.836.68,2.124,2.124,0,0,1,.816,1.7,2.154,2.154,0,0,1-.272,1.088L311.44-1.7a3.179,3.179,0,0,1-1.224,1.394,3.274,3.274,0,0,1-1.768.51,3.162,3.162,0,0,1-1.7-.51A3.649,3.649,0,0,1,305.456-1.7L292.264-30.26a2.023,2.023,0,0,1-.272-1.02,2.224,2.224,0,0,1,.918-1.768,3.108,3.108,0,0,1,2.006-.748,2.454,2.454,0,0,1,1.326.408,2.6,2.6,0,0,1,.986,1.156l11.356,25.5Zm35.9,24.412a1.675,1.675,0,0,1,1.292.612,2.266,2.266,0,0,1,.544,1.564q0,1.7-2.38,3.128a20.584,20.584,0,0,1-5.168,2.142,20.848,20.848,0,0,1-5.3.714q-7.684,0-12.138-4.556t-4.454-12.58a19.746,19.746,0,0,1,1.972-9.01,14.713,14.713,0,0,1,5.542-6.086,15.3,15.3,0,0,1,8.126-2.176,13.15,13.15,0,0,1,10.268,4.216q3.808,4.216,3.808,11.424a2.929,2.929,0,0,1-.544,1.972,2.258,2.258,0,0,1-1.768.612h-21.9q.612,11.7,11.084,11.7a12.992,12.992,0,0,0,4.556-.714,29.622,29.622,0,0,0,4.08-1.938A6.468,6.468,0,0,1,355.844-7.684Zm-11.9-21.964a9.227,9.227,0,0,0-6.97,2.72,12.429,12.429,0,0,0-3.094,7.684h19.244q-.136-5.032-2.516-7.718A8.438,8.438,0,0,0,343.944-29.648Zm25.364,13.8a2.618,2.618,0,0,1-1.87-.612,2.142,2.142,0,0,1-.646-1.632,2.255,2.255,0,0,1,.646-1.666,2.532,2.532,0,0,1,1.87-.646h14.96a2.632,2.632,0,0,1,1.938.646,2.255,2.255,0,0,1,.646,1.666,2.142,2.142,0,0,1-.646,1.632,2.724,2.724,0,0,1-1.938.612ZM421.532-33.8a2.641,2.641,0,0,1,2.006.748,2.737,2.737,0,0,1,.714,1.972V-2.312a2.646,2.646,0,0,1-.714,1.9,2.641,2.641,0,0,1-2.006.748,2.619,2.619,0,0,1-1.938-.714,2.529,2.529,0,0,1-.714-1.87v-3.4a10.779,10.779,0,0,1-4.386,4.556A12.893,12.893,0,0,1,408.136.476q-5.916,0-8.908-3.3t-2.992-9.758v-18.5a2.666,2.666,0,0,1,.748-1.972,2.757,2.757,0,0,1,2.04-.748,2.641,2.641,0,0,1,2.006.748,2.737,2.737,0,0,1,.714,1.972v18.36q0,4.42,1.768,6.494t5.576,2.074a9.162,9.162,0,0,0,7-2.822,10.431,10.431,0,0,0,2.652-7.446v-16.66a2.666,2.666,0,0,1,.748-1.972A2.757,2.757,0,0,1,421.532-33.8Zm29.648-.136q11.9,0,11.9,13.124V-2.38a2.712,2.712,0,0,1-.714,2.006A2.712,2.712,0,0,1,460.36.34a2.833,2.833,0,0,1-2.04-.714,2.641,2.641,0,0,1-.748-2.006V-20.468q0-4.624-1.8-6.732t-5.746-2.108a9.7,9.7,0,0,0-7.276,2.788,10.345,10.345,0,0,0-2.72,7.548V-2.38a2.712,2.712,0,0,1-.714,2.006,2.712,2.712,0,0,1-2.006.714,2.833,2.833,0,0,1-2.04-.714,2.641,2.641,0,0,1-.748-2.006v-28.7a2.666,2.666,0,0,1,.748-1.972,2.757,2.757,0,0,1,2.04-.748,2.552,2.552,0,0,1,1.938.748,2.646,2.646,0,0,1,.714,1.9v3.468a11.15,11.15,0,0,1,4.556-4.658A13.668,13.668,0,0,1,451.18-33.932ZM475.932.34a2.86,2.86,0,0,1-2.006-.714,2.579,2.579,0,0,1-.782-2.006v-28.7a2.579,2.579,0,0,1,.782-2.006,2.86,2.86,0,0,1,2.006-.714,2.737,2.737,0,0,1,1.972.714,2.641,2.641,0,0,1,.748,2.006v28.7A2.62,2.62,0,0,1,477.9-.34,2.818,2.818,0,0,1,475.932.34Zm0-41.276a3.731,3.731,0,0,1-2.652-.952,3.28,3.28,0,0,1-1.02-2.516,3.2,3.2,0,0,1,1.02-2.448,3.731,3.731,0,0,1,2.652-.952,3.731,3.731,0,0,1,2.652.952A3.2,3.2,0,0,1,479.6-44.4a3.28,3.28,0,0,1-1.02,2.516A3.731,3.731,0,0,1,475.932-40.936ZM500.072.476a23.133,23.133,0,0,1-5.95-.748,18.136,18.136,0,0,1-5-2.108,6.69,6.69,0,0,1-1.734-1.53,2.905,2.905,0,0,1-.51-1.734,2.128,2.128,0,0,1,.51-1.462,1.685,1.685,0,0,1,1.326-.578,5.072,5.072,0,0,1,2.38,1.02,22.639,22.639,0,0,0,4.046,1.938,15.055,15.055,0,0,0,5,.714A10.66,10.66,0,0,0,505.852-5.3a4.164,4.164,0,0,0,2.04-3.74,3.7,3.7,0,0,0-.748-2.414,6.187,6.187,0,0,0-2.584-1.632,36.7,36.7,0,0,0-5.372-1.462q-5.984-1.292-8.568-3.468a7.328,7.328,0,0,1-2.584-5.916,8.558,8.558,0,0,1,1.632-5.168,10.983,10.983,0,0,1,4.522-3.536,15.918,15.918,0,0,1,6.562-1.292,18.478,18.478,0,0,1,5.134.714,15.265,15.265,0,0,1,4.386,2.006q2.312,1.632,2.312,3.4a2.172,2.172,0,0,1-.544,1.5,1.675,1.675,0,0,1-1.292.612A5.083,5.083,0,0,1,508.3-26.86a21.525,21.525,0,0,0-3.6-1.9,11.406,11.406,0,0,0-4.216-.68,8.456,8.456,0,0,0-5.134,1.428,4.5,4.5,0,0,0-1.938,3.808,3.823,3.823,0,0,0,.714,2.414,5.9,5.9,0,0,0,2.38,1.632,27.775,27.775,0,0,0,4.794,1.394,34.251,34.251,0,0,1,7.174,2.244,8.339,8.339,0,0,1,3.638,2.992A8.438,8.438,0,0,1,513.2-9.044a8.138,8.138,0,0,1-3.6,6.9Q505.988.476,500.072.476ZM536.18-4.012q2.38.2,2.38,2.176A1.957,1.957,0,0,1,537.71-.1a3.981,3.981,0,0,1-2.55.442L533.324.2Q527.884-.2,525.3-3.06T522.716-11.7V-28.764H518.16a2.608,2.608,0,0,1-1.8-.578,1.953,1.953,0,0,1-.646-1.53,2.142,2.142,0,0,1,.646-1.632,2.516,2.516,0,0,1,1.8-.612h4.556V-40.8a2.641,2.641,0,0,1,.748-2.006,2.832,2.832,0,0,1,2.04-.714,2.737,2.737,0,0,1,1.972.714,2.641,2.641,0,0,1,.748,2.006v7.684h7.548a2.418,2.418,0,0,1,1.734.612,2.142,2.142,0,0,1,.646,1.632,1.953,1.953,0,0,1-.646,1.53,2.5,2.5,0,0,1-1.734.578h-7.548v17.34q0,3.74,1.53,5.406a6.557,6.557,0,0,0,4.59,1.87Zm32.5-28.084a2.484,2.484,0,0,1,2.38-1.632,2.793,2.793,0,0,1,1.836.68,2.124,2.124,0,0,1,.816,1.7,2.154,2.154,0,0,1-.272,1.088L554.336,10.948a2.6,2.6,0,0,1-.986,1.156,2.454,2.454,0,0,1-1.326.408,2.748,2.748,0,0,1-1.8-.646,2.062,2.062,0,0,1-.782-1.666,2.414,2.414,0,0,1,.272-1.088l4.76-10.268-13.464-29.1a2.023,2.023,0,0,1-.272-1.02,2.224,2.224,0,0,1,.918-1.768,3.108,3.108,0,0,1,2.006-.748,2.454,2.454,0,0,1,1.326.408,2.6,2.6,0,0,1,.986,1.156l11.356,25.5ZM584.324.34a2.86,2.86,0,0,1-2.006-.714,2.579,2.579,0,0,1-.782-2.006V-45.56a2.579,2.579,0,0,1,.782-2.006,2.86,2.86,0,0,1,2.006-.714,2.767,2.767,0,0,1,1.938.714,2.579,2.579,0,0,1,.782,2.006V-2.38a2.579,2.579,0,0,1-.782,2.006A2.767,2.767,0,0,1,584.324.34Zm38.624-8.024a1.675,1.675,0,0,1,1.292.612,2.266,2.266,0,0,1,.544,1.564q0,1.7-2.38,3.128a20.585,20.585,0,0,1-5.168,2.142,20.847,20.847,0,0,1-5.3.714q-7.684,0-12.138-4.556T595.34-16.66a19.746,19.746,0,0,1,1.972-9.01,14.713,14.713,0,0,1,5.542-6.086,15.3,15.3,0,0,1,8.126-2.176,13.15,13.15,0,0,1,10.268,4.216q3.808,4.216,3.808,11.424a2.929,2.929,0,0,1-.544,1.972,2.258,2.258,0,0,1-1.768.612h-21.9q.612,11.7,11.084,11.7a12.992,12.992,0,0,0,4.556-.714,29.622,29.622,0,0,0,4.08-1.938A6.467,6.467,0,0,1,622.948-7.684Zm-11.9-21.964a9.227,9.227,0,0,0-6.97,2.72,12.428,12.428,0,0,0-3.094,7.684h19.244q-.136-5.032-2.516-7.718A8.438,8.438,0,0,0,611.048-29.648ZM644.3.476a23.134,23.134,0,0,1-5.95-.748,18.134,18.134,0,0,1-5-2.108,6.691,6.691,0,0,1-1.734-1.53,2.9,2.9,0,0,1-.51-1.734,2.128,2.128,0,0,1,.51-1.462,1.685,1.685,0,0,1,1.326-.578,5.072,5.072,0,0,1,2.38,1.02,22.637,22.637,0,0,0,4.046,1.938,15.054,15.054,0,0,0,5,.714A10.66,10.66,0,0,0,650.08-5.3a4.164,4.164,0,0,0,2.04-3.74,3.7,3.7,0,0,0-.748-2.414,6.187,6.187,0,0,0-2.584-1.632,36.7,36.7,0,0,0-5.372-1.462q-5.984-1.292-8.568-3.468a7.328,7.328,0,0,1-2.584-5.916A8.558,8.558,0,0,1,633.9-29.1a10.982,10.982,0,0,1,4.522-3.536,15.918,15.918,0,0,1,6.562-1.292,18.477,18.477,0,0,1,5.134.714,15.266,15.266,0,0,1,4.386,2.006q2.312,1.632,2.312,3.4a2.172,2.172,0,0,1-.544,1.5,1.674,1.674,0,0,1-1.292.612,5.083,5.083,0,0,1-2.448-1.156,21.524,21.524,0,0,0-3.6-1.9,11.406,11.406,0,0,0-4.216-.68,8.456,8.456,0,0,0-5.134,1.428,4.5,4.5,0,0,0-1.938,3.808,3.823,3.823,0,0,0,.714,2.414,5.9,5.9,0,0,0,2.38,1.632,27.775,27.775,0,0,0,4.794,1.394,34.253,34.253,0,0,1,7.174,2.244,8.339,8.339,0,0,1,3.638,2.992,8.438,8.438,0,0,1,1.088,4.488,8.138,8.138,0,0,1-3.6,6.9Q650.216.476,644.3.476Z" transform="translate(394.634 131.964)" fill="#fff"/>
      <path id="Path_55" data-name="Path 55" d="M5.08,0A1.628,1.628,0,0,1,3.94-.42a1.419,1.419,0,0,1-.46-1.1v-25.2a1.691,1.691,0,0,1,.44-1.22,1.582,1.582,0,0,1,1.2-.46,1.582,1.582,0,0,1,1.2.46,1.691,1.691,0,0,1,.44,1.22V-2.8H19.68a1.615,1.615,0,0,1,1.12.36,1.327,1.327,0,0,1,.4,1.04,1.327,1.327,0,0,1-.4,1.04A1.615,1.615,0,0,1,19.68,0ZM39.6-4.52a.985.985,0,0,1,.76.36,1.333,1.333,0,0,1,.32.92q0,1-1.4,1.84A12.108,12.108,0,0,1,36.24-.14a12.263,12.263,0,0,1-3.12.42A9.526,9.526,0,0,1,25.98-2.4a10.133,10.133,0,0,1-2.62-7.4,11.615,11.615,0,0,1,1.16-5.3,8.655,8.655,0,0,1,3.26-3.58,9,9,0,0,1,4.78-1.28,7.735,7.735,0,0,1,6.04,2.48,9.651,9.651,0,0,1,2.24,6.72,1.723,1.723,0,0,1-.32,1.16,1.328,1.328,0,0,1-1.04.36H26.6q.36,6.88,6.52,6.88a7.642,7.642,0,0,0,2.68-.42,17.425,17.425,0,0,0,2.4-1.14A3.8,3.8,0,0,1,39.6-4.52Zm-7-12.92a5.428,5.428,0,0,0-4.1,1.6,7.311,7.311,0,0,0-1.82,4.52H38a6.929,6.929,0,0,0-1.48-4.54A4.964,4.964,0,0,0,32.6-17.44Zm26.6-1.44a1.461,1.461,0,0,1,1.4-.96,1.643,1.643,0,0,1,1.08.4,1.249,1.249,0,0,1,.48,1,1.267,1.267,0,0,1-.16.64L54.2-1a1.87,1.87,0,0,1-.72.82,1.926,1.926,0,0,1-1.04.3,1.86,1.86,0,0,1-1-.3A2.147,2.147,0,0,1,50.68-1L42.92-17.8a1.19,1.19,0,0,1-.16-.6,1.308,1.308,0,0,1,.54-1.04,1.828,1.828,0,0,1,1.18-.44,1.443,1.443,0,0,1,.78.24,1.53,1.53,0,0,1,.58.68l6.68,15ZM80.36-4.52a.985.985,0,0,1,.76.36,1.333,1.333,0,0,1,.32.92q0,1-1.4,1.84A12.108,12.108,0,0,1,77-.14a12.263,12.263,0,0,1-3.12.42A9.526,9.526,0,0,1,66.74-2.4a10.133,10.133,0,0,1-2.62-7.4,11.615,11.615,0,0,1,1.16-5.3,8.655,8.655,0,0,1,3.26-3.58,9,9,0,0,1,4.78-1.28,7.735,7.735,0,0,1,6.04,2.48,9.651,9.651,0,0,1,2.24,6.72,1.723,1.723,0,0,1-.32,1.16,1.328,1.328,0,0,1-1.04.36H67.36q.36,6.88,6.52,6.88a7.642,7.642,0,0,0,2.68-.42,17.425,17.425,0,0,0,2.4-1.14A3.8,3.8,0,0,1,80.36-4.52Zm-7-12.92a5.428,5.428,0,0,0-4.1,1.6,7.311,7.311,0,0,0-1.82,4.52H78.76a6.929,6.929,0,0,0-1.48-4.54A4.964,4.964,0,0,0,73.36-17.44ZM88,.2a1.682,1.682,0,0,1-1.18-.42,1.517,1.517,0,0,1-.46-1.18V-26.8a1.517,1.517,0,0,1,.46-1.18A1.682,1.682,0,0,1,88-28.4a1.628,1.628,0,0,1,1.14.42,1.517,1.517,0,0,1,.46,1.18V-1.4a1.517,1.517,0,0,1-.46,1.18A1.628,1.628,0,0,1,88,.2Zm32.76-20.08a1.554,1.554,0,0,1,1.18.44,1.61,1.61,0,0,1,.42,1.16V-1.36a1.556,1.556,0,0,1-.42,1.12,1.554,1.554,0,0,1-1.18.44,1.54,1.54,0,0,1-1.14-.42,1.488,1.488,0,0,1-.42-1.1v-2a6.34,6.34,0,0,1-2.58,2.68,7.584,7.584,0,0,1-3.74.92,6.721,6.721,0,0,1-5.24-1.94,8.284,8.284,0,0,1-1.76-5.74V-18.28a1.568,1.568,0,0,1,.44-1.16,1.622,1.622,0,0,1,1.2-.44,1.554,1.554,0,0,1,1.18.44,1.61,1.61,0,0,1,.42,1.16v10.8a5.812,5.812,0,0,0,1.04,3.82,4.081,4.081,0,0,0,3.28,1.22,5.389,5.389,0,0,0,4.12-1.66,6.136,6.136,0,0,0,1.56-4.38v-9.8a1.568,1.568,0,0,1,.44-1.16A1.622,1.622,0,0,1,120.76-19.88Zm17.44-.08a8.08,8.08,0,0,1,4.52,1.28,8.449,8.449,0,0,1,3.04,3.58,12.438,12.438,0,0,1,1.08,5.34,12.171,12.171,0,0,1-1.08,5.3,8.271,8.271,0,0,1-3.02,3.5A8.246,8.246,0,0,1,138.2.28a7.705,7.705,0,0,1-3.98-1,6.428,6.428,0,0,1-2.58-2.84v9.4a1.54,1.54,0,0,1-.42,1.14,1.6,1.6,0,0,1-1.18.42,1.622,1.622,0,0,1-1.2-.44,1.517,1.517,0,0,1-.44-1.12V-18.28a1.568,1.568,0,0,1,.44-1.16,1.622,1.622,0,0,1,1.2-.44,1.554,1.554,0,0,1,1.18.44,1.61,1.61,0,0,1,.42,1.16v2.16a6.428,6.428,0,0,1,2.58-2.84A7.705,7.705,0,0,1,138.2-19.96ZM137.56-2.4a5.348,5.348,0,0,0,4.4-1.92,8.42,8.42,0,0,0,1.56-5.44,8.678,8.678,0,0,0-1.56-5.5,5.279,5.279,0,0,0-4.4-1.98,5.291,5.291,0,0,0-4.38,1.92,8.569,8.569,0,0,0-1.54,5.48,8.656,8.656,0,0,0,1.54,5.5A5.268,5.268,0,0,0,137.56-2.4Zm38.48-16.48a1.461,1.461,0,0,1,1.4-.96,1.643,1.643,0,0,1,1.08.4,1.249,1.249,0,0,1,.48,1,1.267,1.267,0,0,1-.16.64L167.6,6.44a1.53,1.53,0,0,1-.58.68,1.443,1.443,0,0,1-.78.24,1.616,1.616,0,0,1-1.06-.38,1.213,1.213,0,0,1-.46-.98,1.42,1.42,0,0,1,.16-.64l2.8-6.04L159.76-17.8a1.19,1.19,0,0,1-.16-.6,1.308,1.308,0,0,1,.54-1.04,1.828,1.828,0,0,1,1.18-.44,1.443,1.443,0,0,1,.78.24,1.53,1.53,0,0,1,.58.68l6.68,15ZM190.2.28a9.378,9.378,0,0,1-4.86-1.24A8.263,8.263,0,0,1,182.1-4.5a11.88,11.88,0,0,1-1.14-5.34,11.88,11.88,0,0,1,1.14-5.34,8.263,8.263,0,0,1,3.24-3.54,9.378,9.378,0,0,1,4.86-1.24,9.486,9.486,0,0,1,4.88,1.24,8.226,8.226,0,0,1,3.26,3.54,11.88,11.88,0,0,1,1.14,5.34,11.88,11.88,0,0,1-1.14,5.34,8.226,8.226,0,0,1-3.26,3.54A9.486,9.486,0,0,1,190.2.28Zm0-2.68a5.361,5.361,0,0,0,4.42-1.9,8.626,8.626,0,0,0,1.54-5.54,8.576,8.576,0,0,0-1.56-5.5,5.325,5.325,0,0,0-4.4-1.94,5.325,5.325,0,0,0-4.4,1.94,8.576,8.576,0,0,0-1.56,5.5,8.64,8.64,0,0,0,1.54,5.52A5.336,5.336,0,0,0,190.2-2.4Zm28.92-17.48a1.554,1.554,0,0,1,1.18.44,1.61,1.61,0,0,1,.42,1.16V-1.36a1.556,1.556,0,0,1-.42,1.12,1.554,1.554,0,0,1-1.18.44,1.54,1.54,0,0,1-1.14-.42,1.488,1.488,0,0,1-.42-1.1v-2a6.34,6.34,0,0,1-2.58,2.68,7.584,7.584,0,0,1-3.74.92A6.721,6.721,0,0,1,206-1.66a8.285,8.285,0,0,1-1.76-5.74V-18.28a1.568,1.568,0,0,1,.44-1.16,1.621,1.621,0,0,1,1.2-.44,1.554,1.554,0,0,1,1.18.44,1.61,1.61,0,0,1,.42,1.16v10.8a5.812,5.812,0,0,0,1.04,3.82,4.081,4.081,0,0,0,3.28,1.22,5.389,5.389,0,0,0,4.12-1.66,6.136,6.136,0,0,0,1.56-4.38v-9.8a1.568,1.568,0,0,1,.44-1.16A1.621,1.621,0,0,1,219.12-19.88Zm17.28,0q1.68-.12,1.68,1.36a1.422,1.422,0,0,1-.36,1.02,1.913,1.913,0,0,1-1.24.46l-1.2.12a5.394,5.394,0,0,0-3.98,1.9,6.14,6.14,0,0,0-1.3,3.9V-1.4a1.541,1.541,0,0,1-.44,1.2,1.658,1.658,0,0,1-1.16.4,1.682,1.682,0,0,1-1.18-.42,1.517,1.517,0,0,1-.46-1.18V-18.28a1.485,1.485,0,0,1,.48-1.18,1.7,1.7,0,0,1,1.16-.42,1.5,1.5,0,0,1,1.08.42,1.5,1.5,0,0,1,.44,1.14v2.24a6.073,6.073,0,0,1,2.38-2.68,8.054,8.054,0,0,1,3.54-1.08ZM273.2-2.04a1.688,1.688,0,0,1,.28.92,1.213,1.213,0,0,1-.46.98,1.616,1.616,0,0,1-1.06.38,1.63,1.63,0,0,1-1.44-.8l-5.36-8.48A6.429,6.429,0,0,0,263-11.3a6.3,6.3,0,0,0-3.04-.62h-5.04V-1.48a1.691,1.691,0,0,1-.44,1.22,1.531,1.531,0,0,1-1.16.46,1.582,1.582,0,0,1-1.2-.46,1.691,1.691,0,0,1-.44-1.22V-26.6a1.531,1.531,0,0,1,.46-1.16,1.691,1.691,0,0,1,1.22-.44h9.92q4.6,0,7.02,2.04a7.406,7.406,0,0,1,2.42,6,7.512,7.512,0,0,1-1.94,5.4,8.84,8.84,0,0,1-5.54,2.48,4.9,4.9,0,0,1,1.8,1.04,9.352,9.352,0,0,1,1.6,2ZM263-14.64A7.487,7.487,0,0,0,267.9-16a5.076,5.076,0,0,0,1.62-4.12,4.935,4.935,0,0,0-1.6-4.04A7.636,7.636,0,0,0,263-25.48h-8.08v10.84ZM293.72-4.52a.985.985,0,0,1,.76.36,1.333,1.333,0,0,1,.32.92q0,1-1.4,1.84a12.108,12.108,0,0,1-3.04,1.26,12.263,12.263,0,0,1-3.12.42A9.526,9.526,0,0,1,280.1-2.4a10.133,10.133,0,0,1-2.62-7.4,11.615,11.615,0,0,1,1.16-5.3,8.655,8.655,0,0,1,3.26-3.58,9,9,0,0,1,4.78-1.28,7.735,7.735,0,0,1,6.04,2.48,9.651,9.651,0,0,1,2.24,6.72,1.723,1.723,0,0,1-.32,1.16,1.328,1.328,0,0,1-1.04.36H280.72q.36,6.88,6.52,6.88a7.642,7.642,0,0,0,2.68-.42,17.424,17.424,0,0,0,2.4-1.14A3.8,3.8,0,0,1,293.72-4.52Zm-7-12.92a5.427,5.427,0,0,0-4.1,1.6,7.311,7.311,0,0,0-1.82,4.52h11.32a6.929,6.929,0,0,0-1.48-4.54A4.964,4.964,0,0,0,286.72-17.44Zm20.96-2.52q7.32,0,7.32,7.68V-1.4a1.61,1.61,0,0,1-.42,1.16,1.5,1.5,0,0,1-1.14.44,1.568,1.568,0,0,1-1.16-.44,1.568,1.568,0,0,1-.44-1.16V-3.32a5.723,5.723,0,0,1-2.32,2.66,6.838,6.838,0,0,1-3.6.94,7.877,7.877,0,0,1-3.46-.76,6.183,6.183,0,0,1-2.5-2.12,5.24,5.24,0,0,1-.92-3,4.871,4.871,0,0,1,1.12-3.42,6.8,6.8,0,0,1,3.68-1.76,36.36,36.36,0,0,1,7.12-.54h.88v-1.32a5.26,5.26,0,0,0-.98-3.52,4.024,4.024,0,0,0-3.18-1.12,11.75,11.75,0,0,0-5.52,1.48,3.651,3.651,0,0,1-1.52.68,1.026,1.026,0,0,1-.8-.36,1.333,1.333,0,0,1-.32-.92,1.511,1.511,0,0,1,.34-.98,3.983,3.983,0,0,1,1.1-.86,12.87,12.87,0,0,1,3.18-1.26A14.1,14.1,0,0,1,307.68-19.96ZM306.36-2.28A5.2,5.2,0,0,0,310.3-3.9a5.819,5.819,0,0,0,1.54-4.18V-9.24h-.72a35.8,35.8,0,0,0-5.36.3,5.21,5.21,0,0,0-2.62,1,2.625,2.625,0,0,0-.78,2.06A3.312,3.312,0,0,0,303.5-3.3,4.13,4.13,0,0,0,306.36-2.28ZM328.96.28a9.3,9.3,0,0,1-4.82-1.24,8.288,8.288,0,0,1-3.24-3.52,11.659,11.659,0,0,1-1.14-5.28,11.575,11.575,0,0,1,1.18-5.32,8.717,8.717,0,0,1,3.3-3.6,9.255,9.255,0,0,1,4.88-1.28,11.152,11.152,0,0,1,3.02.42,8.327,8.327,0,0,1,2.62,1.22,3.551,3.551,0,0,1,1.02.94,1.828,1.828,0,0,1,.3,1.02,1.389,1.389,0,0,1-.3.92.968.968,0,0,1-.78.36,1.349,1.349,0,0,1-.6-.16,3.852,3.852,0,0,1-.54-.32,2.746,2.746,0,0,0-.3-.2,12.843,12.843,0,0,0-1.98-1.08,5.874,5.874,0,0,0-2.3-.4,5.538,5.538,0,0,0-4.54,1.98,8.451,8.451,0,0,0-1.62,5.5,8.2,8.2,0,0,0,1.62,5.44,5.615,5.615,0,0,0,4.54,1.92,6.18,6.18,0,0,0,2.34-.4,10.784,10.784,0,0,0,1.98-1.08,9.426,9.426,0,0,1,.84-.48,1.587,1.587,0,0,1,.68-.2.927.927,0,0,1,.74.36,1.389,1.389,0,0,1,.3.92,1.657,1.657,0,0,1-.28.94,3.91,3.91,0,0,1-1.04.94,9.519,9.519,0,0,1-2.7,1.22A11.324,11.324,0,0,1,328.96.28Zm20.16-2.64q1.4.12,1.4,1.28a1.151,1.151,0,0,1-.5,1.02,2.342,2.342,0,0,1-1.5.26L347.44.12a6.786,6.786,0,0,1-4.72-1.92,7.368,7.368,0,0,1-1.52-5.08V-16.92h-2.68a1.534,1.534,0,0,1-1.06-.34,1.149,1.149,0,0,1-.38-.9,1.26,1.26,0,0,1,.38-.96,1.48,1.48,0,0,1,1.06-.36h2.68V-24a1.554,1.554,0,0,1,.44-1.18,1.666,1.666,0,0,1,1.2-.42,1.61,1.61,0,0,1,1.16.42,1.554,1.554,0,0,1,.44,1.18v4.52h4.44a1.422,1.422,0,0,1,1.02.36,1.26,1.26,0,0,1,.38.96,1.149,1.149,0,0,1-.38.9,1.473,1.473,0,0,1-1.02.34h-4.44v10.2a4.623,4.623,0,0,0,.9,3.18,3.857,3.857,0,0,0,2.7,1.1ZM385.6-28.4a1.405,1.405,0,0,1,1.12.46,1.793,1.793,0,0,1,.4,1.22V-1.48a1.739,1.739,0,0,1-.42,1.22,1.517,1.517,0,0,1-1.18.46,1.668,1.668,0,0,1-1.32-.68l-16.6-22.2v21.2a1.739,1.739,0,0,1-.42,1.22,1.467,1.467,0,0,1-1.14.46,1.405,1.405,0,0,1-1.12-.46,1.793,1.793,0,0,1-.4-1.22V-26.72a1.739,1.739,0,0,1,.42-1.22,1.517,1.517,0,0,1,1.18-.46,1.7,1.7,0,0,1,1.36.68l16.56,22.2v-21.2a1.739,1.739,0,0,1,.42-1.22A1.467,1.467,0,0,1,385.6-28.4Zm15.96,8.44q7.32,0,7.32,7.68V-1.4a1.61,1.61,0,0,1-.42,1.16,1.5,1.5,0,0,1-1.14.44,1.568,1.568,0,0,1-1.16-.44,1.568,1.568,0,0,1-.44-1.16V-3.32A5.723,5.723,0,0,1,403.4-.66a6.838,6.838,0,0,1-3.6.94,7.877,7.877,0,0,1-3.46-.76,6.183,6.183,0,0,1-2.5-2.12,5.24,5.24,0,0,1-.92-3,4.871,4.871,0,0,1,1.12-3.42,6.8,6.8,0,0,1,3.68-1.76,36.36,36.36,0,0,1,7.12-.54h.88v-1.32a5.26,5.26,0,0,0-.98-3.52,4.024,4.024,0,0,0-3.18-1.12,11.75,11.75,0,0,0-5.52,1.48,3.651,3.651,0,0,1-1.52.68,1.026,1.026,0,0,1-.8-.36,1.333,1.333,0,0,1-.32-.92,1.511,1.511,0,0,1,.34-.98,3.983,3.983,0,0,1,1.1-.86,12.87,12.87,0,0,1,3.18-1.26A14.1,14.1,0,0,1,401.56-19.96ZM400.24-2.28a5.2,5.2,0,0,0,3.94-1.62,5.819,5.819,0,0,0,1.54-4.18V-9.24H405a35.8,35.8,0,0,0-5.36.3,5.21,5.21,0,0,0-2.62,1,2.625,2.625,0,0,0-.78,2.06,3.312,3.312,0,0,0,1.14,2.58A4.13,4.13,0,0,0,400.24-2.28Zm23.56-.08q1.4.12,1.4,1.28a1.151,1.151,0,0,1-.5,1.02,2.342,2.342,0,0,1-1.5.26L422.12.12A6.786,6.786,0,0,1,417.4-1.8a7.368,7.368,0,0,1-1.52-5.08V-16.92H413.2a1.534,1.534,0,0,1-1.06-.34,1.149,1.149,0,0,1-.38-.9,1.26,1.26,0,0,1,.38-.96,1.48,1.48,0,0,1,1.06-.36h2.68V-24a1.554,1.554,0,0,1,.44-1.18,1.666,1.666,0,0,1,1.2-.42,1.61,1.61,0,0,1,1.16.42,1.554,1.554,0,0,1,.44,1.18v4.52h4.44a1.422,1.422,0,0,1,1.02.36,1.26,1.26,0,0,1,.38.96,1.149,1.149,0,0,1-.38.9,1.473,1.473,0,0,1-1.02.34h-4.44v10.2a4.623,4.623,0,0,0,.9,3.18,3.857,3.857,0,0,0,2.7,1.1ZM430.04.2a1.682,1.682,0,0,1-1.18-.42,1.517,1.517,0,0,1-.46-1.18V-18.28a1.517,1.517,0,0,1,.46-1.18,1.682,1.682,0,0,1,1.18-.42,1.61,1.61,0,0,1,1.16.42,1.554,1.554,0,0,1,.44,1.18V-1.4a1.541,1.541,0,0,1-.44,1.2A1.658,1.658,0,0,1,430.04.2Zm0-24.28a2.195,2.195,0,0,1-1.56-.56,1.929,1.929,0,0,1-.6-1.48,1.881,1.881,0,0,1,.6-1.44,2.195,2.195,0,0,1,1.56-.56,2.195,2.195,0,0,1,1.56.56,1.881,1.881,0,0,1,.6,1.44,1.929,1.929,0,0,1-.6,1.48A2.195,2.195,0,0,1,430.04-24.08Zm21.68,5.2a1.461,1.461,0,0,1,1.4-.96,1.643,1.643,0,0,1,1.08.4,1.249,1.249,0,0,1,.48,1,1.267,1.267,0,0,1-.16.64L446.72-1a1.87,1.87,0,0,1-.72.82,1.926,1.926,0,0,1-1.04.3,1.86,1.86,0,0,1-1-.3A2.147,2.147,0,0,1,443.2-1l-7.76-16.8a1.19,1.19,0,0,1-.16-.6,1.308,1.308,0,0,1,.54-1.04,1.828,1.828,0,0,1,1.18-.44,1.443,1.443,0,0,1,.78.24,1.53,1.53,0,0,1,.58.68l6.68,15ZM472.88-4.52a.985.985,0,0,1,.76.36,1.333,1.333,0,0,1,.32.92q0,1-1.4,1.84a12.108,12.108,0,0,1-3.04,1.26,12.263,12.263,0,0,1-3.12.42,9.526,9.526,0,0,1-7.14-2.68,10.133,10.133,0,0,1-2.62-7.4,11.615,11.615,0,0,1,1.16-5.3,8.655,8.655,0,0,1,3.26-3.58,9,9,0,0,1,4.78-1.28,7.735,7.735,0,0,1,6.04,2.48,9.651,9.651,0,0,1,2.24,6.72,1.723,1.723,0,0,1-.32,1.16,1.328,1.328,0,0,1-1.04.36H459.88q.36,6.88,6.52,6.88a7.642,7.642,0,0,0,2.68-.42,17.424,17.424,0,0,0,2.4-1.14A3.8,3.8,0,0,1,472.88-4.52Zm-7-12.92a5.427,5.427,0,0,0-4.1,1.6,7.311,7.311,0,0,0-1.82,4.52h11.32a6.929,6.929,0,0,0-1.48-4.54A4.964,4.964,0,0,0,465.88-17.44ZM498.68.32a18.275,18.275,0,0,1-5.74-.9A11.735,11.735,0,0,1,488.56-3a1.835,1.835,0,0,1-.6-1.4,1.572,1.572,0,0,1,.32-.98.936.936,0,0,1,.76-.42,1.934,1.934,0,0,1,1.12.44,13.482,13.482,0,0,0,8.48,2.88,8.976,8.976,0,0,0,5.28-1.32,4.351,4.351,0,0,0,1.84-3.76,3.018,3.018,0,0,0-.88-2.26,6.351,6.351,0,0,0-2.32-1.38,34.832,34.832,0,0,0-3.88-1.08,37.817,37.817,0,0,1-5.38-1.6,8.376,8.376,0,0,1-3.4-2.4,6.162,6.162,0,0,1-1.3-4.08,7.253,7.253,0,0,1,1.3-4.26,8.415,8.415,0,0,1,3.64-2.88,13.246,13.246,0,0,1,5.34-1.02,15.479,15.479,0,0,1,5.22.86,10.985,10.985,0,0,1,4.06,2.46,1.949,1.949,0,0,1,.64,1.4,1.572,1.572,0,0,1-.32.98.936.936,0,0,1-.76.42,2.437,2.437,0,0,1-1.16-.44,13.6,13.6,0,0,0-3.64-2.24,11.366,11.366,0,0,0-4.04-.64,8.45,8.45,0,0,0-5.16,1.38,4.548,4.548,0,0,0-1.84,3.86,3.547,3.547,0,0,0,1.62,3.18,16.341,16.341,0,0,0,4.98,1.86q3.64.88,5.72,1.62a8.564,8.564,0,0,1,3.46,2.22,5.574,5.574,0,0,1,1.38,3.96,6.92,6.92,0,0,1-1.3,4.16,8.447,8.447,0,0,1-3.66,2.8A13.733,13.733,0,0,1,498.68.32Zm24-2.68q1.4.12,1.4,1.28a1.151,1.151,0,0,1-.5,1.02,2.342,2.342,0,0,1-1.5.26L521,.12a6.786,6.786,0,0,1-4.72-1.92,7.368,7.368,0,0,1-1.52-5.08V-16.92h-2.68a1.534,1.534,0,0,1-1.06-.34,1.149,1.149,0,0,1-.38-.9,1.26,1.26,0,0,1,.38-.96,1.48,1.48,0,0,1,1.06-.36h2.68V-24a1.554,1.554,0,0,1,.44-1.18,1.666,1.666,0,0,1,1.2-.42,1.61,1.61,0,0,1,1.16.42A1.554,1.554,0,0,1,518-24v4.52h4.44a1.422,1.422,0,0,1,1.02.36,1.26,1.26,0,0,1,.38.96,1.149,1.149,0,0,1-.38.9,1.473,1.473,0,0,1-1.02.34H518v10.2a4.624,4.624,0,0,0,.9,3.18,3.857,3.857,0,0,0,2.7,1.1Zm19.08-16.52a1.461,1.461,0,0,1,1.4-.96,1.643,1.643,0,0,1,1.08.4,1.249,1.249,0,0,1,.48,1,1.267,1.267,0,0,1-.16.64L533.32,6.44a1.53,1.53,0,0,1-.58.68,1.444,1.444,0,0,1-.78.24,1.616,1.616,0,0,1-1.06-.38,1.213,1.213,0,0,1-.46-.98,1.42,1.42,0,0,1,.16-.64l2.8-6.04L525.48-17.8a1.19,1.19,0,0,1-.16-.6,1.308,1.308,0,0,1,.54-1.04,1.828,1.828,0,0,1,1.18-.44,1.443,1.443,0,0,1,.78.24,1.53,1.53,0,0,1,.58.68l6.68,15ZM550.92.2a1.682,1.682,0,0,1-1.18-.42,1.517,1.517,0,0,1-.46-1.18V-26.8a1.517,1.517,0,0,1,.46-1.18,1.682,1.682,0,0,1,1.18-.42,1.628,1.628,0,0,1,1.14.42,1.517,1.517,0,0,1,.46,1.18V-1.4a1.517,1.517,0,0,1-.46,1.18A1.628,1.628,0,0,1,550.92.2Zm22.72-4.72a.985.985,0,0,1,.76.36,1.333,1.333,0,0,1,.32.92q0,1-1.4,1.84a12.108,12.108,0,0,1-3.04,1.26,12.263,12.263,0,0,1-3.12.42,9.526,9.526,0,0,1-7.14-2.68,10.133,10.133,0,0,1-2.62-7.4,11.615,11.615,0,0,1,1.16-5.3,8.655,8.655,0,0,1,3.26-3.58,9,9,0,0,1,4.78-1.28,7.735,7.735,0,0,1,6.04,2.48,9.651,9.651,0,0,1,2.24,6.72,1.723,1.723,0,0,1-.32,1.16,1.328,1.328,0,0,1-1.04.36H560.64q.36,6.88,6.52,6.88a7.643,7.643,0,0,0,2.68-.42,17.426,17.426,0,0,0,2.4-1.14A3.8,3.8,0,0,1,573.64-4.52Zm-7-12.92a5.428,5.428,0,0,0-4.1,1.6,7.311,7.311,0,0,0-1.82,4.52h11.32a6.928,6.928,0,0,0-1.48-4.54A4.964,4.964,0,0,0,566.64-17.44ZM589.12.32a18.275,18.275,0,0,1-5.74-.9A11.735,11.735,0,0,1,579-3a1.836,1.836,0,0,1-.6-1.4,1.572,1.572,0,0,1,.32-.98.936.936,0,0,1,.76-.42,1.934,1.934,0,0,1,1.12.44,13.482,13.482,0,0,0,8.48,2.88,8.976,8.976,0,0,0,5.28-1.32,4.351,4.351,0,0,0,1.84-3.76,3.018,3.018,0,0,0-.88-2.26A6.35,6.35,0,0,0,593-11.2a34.836,34.836,0,0,0-3.88-1.08,37.819,37.819,0,0,1-5.38-1.6,8.376,8.376,0,0,1-3.4-2.4,6.163,6.163,0,0,1-1.3-4.08,7.253,7.253,0,0,1,1.3-4.26,8.415,8.415,0,0,1,3.64-2.88,13.245,13.245,0,0,1,5.34-1.02,15.479,15.479,0,0,1,5.22.86,10.985,10.985,0,0,1,4.06,2.46,1.949,1.949,0,0,1,.64,1.4,1.572,1.572,0,0,1-.32.98.936.936,0,0,1-.76.42,2.437,2.437,0,0,1-1.16-.44,13.6,13.6,0,0,0-3.64-2.24,11.365,11.365,0,0,0-4.04-.64,8.45,8.45,0,0,0-5.16,1.38,4.548,4.548,0,0,0-1.84,3.86,3.547,3.547,0,0,0,1.62,3.18,16.341,16.341,0,0,0,4.98,1.86q3.64.88,5.72,1.62a8.564,8.564,0,0,1,3.46,2.22,5.574,5.574,0,0,1,1.38,3.96,6.92,6.92,0,0,1-1.3,4.16,8.447,8.447,0,0,1-3.66,2.8A13.733,13.733,0,0,1,589.12.32Zm25.04-20.28a6.667,6.667,0,0,1,5.2,1.94q1.76,1.94,1.76,5.78V-1.4a1.554,1.554,0,0,1-.44,1.18,1.61,1.61,0,0,1-1.16.42,1.666,1.666,0,0,1-1.2-.42,1.554,1.554,0,0,1-.44-1.18V-12.16A5.817,5.817,0,0,0,616.82-16a4.215,4.215,0,0,0-3.38-1.24,5.706,5.706,0,0,0-4.28,1.64,6.085,6.085,0,0,0-1.6,4.44V-1.4a1.6,1.6,0,0,1-.42,1.18,1.6,1.6,0,0,1-1.18.42,1.666,1.666,0,0,1-1.2-.42,1.554,1.554,0,0,1-.44-1.18V-26.84a1.483,1.483,0,0,1,.46-1.12,1.637,1.637,0,0,1,1.18-.44,1.6,1.6,0,0,1,1.18.42,1.541,1.541,0,0,1,.42,1.14v10.48a6.49,6.49,0,0,1,2.68-2.68A8.181,8.181,0,0,1,614.16-19.96ZM642.12-4.52a.985.985,0,0,1,.76.36,1.333,1.333,0,0,1,.32.92q0,1-1.4,1.84a12.108,12.108,0,0,1-3.04,1.26,12.263,12.263,0,0,1-3.12.42A9.526,9.526,0,0,1,628.5-2.4a10.133,10.133,0,0,1-2.62-7.4,11.615,11.615,0,0,1,1.16-5.3,8.655,8.655,0,0,1,3.26-3.58,9,9,0,0,1,4.78-1.28,7.735,7.735,0,0,1,6.04,2.48,9.651,9.651,0,0,1,2.24,6.72,1.723,1.723,0,0,1-.32,1.16,1.328,1.328,0,0,1-1.04.36H629.12q.36,6.88,6.52,6.88a7.643,7.643,0,0,0,2.68-.42,17.426,17.426,0,0,0,2.4-1.14A3.8,3.8,0,0,1,642.12-4.52Zm-7-12.92a5.428,5.428,0,0,0-4.1,1.6,7.311,7.311,0,0,0-1.82,4.52h11.32a6.928,6.928,0,0,0-1.48-4.54A4.964,4.964,0,0,0,635.12-17.44ZM663.2-4.52a.985.985,0,0,1,.76.36,1.333,1.333,0,0,1,.32.92q0,1-1.4,1.84a12.108,12.108,0,0,1-3.04,1.26,12.263,12.263,0,0,1-3.12.42,9.526,9.526,0,0,1-7.14-2.68,10.133,10.133,0,0,1-2.62-7.4,11.615,11.615,0,0,1,1.16-5.3,8.655,8.655,0,0,1,3.26-3.58,9,9,0,0,1,4.78-1.28,7.735,7.735,0,0,1,6.04,2.48,9.651,9.651,0,0,1,2.24,6.72,1.723,1.723,0,0,1-.32,1.16,1.328,1.328,0,0,1-1.04.36H650.2q.36,6.88,6.52,6.88a7.643,7.643,0,0,0,2.68-.42,17.426,17.426,0,0,0,2.4-1.14A3.8,3.8,0,0,1,663.2-4.52Zm-7-12.92a5.428,5.428,0,0,0-4.1,1.6,7.311,7.311,0,0,0-1.82,4.52H661.6a6.928,6.928,0,0,0-1.48-4.54A4.964,4.964,0,0,0,656.2-17.44ZM678-2.36q1.4.12,1.4,1.28a1.151,1.151,0,0,1-.5,1.02,2.342,2.342,0,0,1-1.5.26L676.32.12A6.786,6.786,0,0,1,671.6-1.8a7.368,7.368,0,0,1-1.52-5.08V-16.92H667.4a1.534,1.534,0,0,1-1.06-.34,1.149,1.149,0,0,1-.38-.9,1.26,1.26,0,0,1,.38-.96,1.48,1.48,0,0,1,1.06-.36h2.68V-24a1.554,1.554,0,0,1,.44-1.18,1.666,1.666,0,0,1,1.2-.42,1.61,1.61,0,0,1,1.16.42,1.554,1.554,0,0,1,.44,1.18v4.52h4.44a1.422,1.422,0,0,1,1.02.36,1.26,1.26,0,0,1,.38.96,1.149,1.149,0,0,1-.38.9,1.473,1.473,0,0,1-1.02.34h-4.44v10.2a4.624,4.624,0,0,0,.9,3.18,3.857,3.857,0,0,0,2.7,1.1Z" transform="translate(394.634 188.696)" fill="#db32a0"/>
      <g id="Group_4" data-name="Group 4">
        <g id="Group_3" data-name="Group 3" clip-path="url(#clip-path-2)">
          <path id="Path_1" data-name="Path 1" d="M140.014,25.63A68.531,68.531,0,0,0,80.865,49.054c-13.8,16.331-19.72,48.036-33.57,55.986C40.4,109,35.277,113.217,33.525,121.009c-2.481,11.03,2.965,17.726,9.508,22.463.408,2.732,2.334,7.338,4.112,6.683,2.276-.839,7.377,7.157,10.746,5.6C81.306,144.917,78.906,131.5,93.46,119.681c6.933-5.63,15.038-8.436,27.013-7.238,4.977.5,10.41,2.329,11.072,7.125a25.9,25.9,0,0,1-2.538,15.419c-7.971,14.757-12.7,20.32-20.153,36.714-5.665,12.466-19.7,20.178-33.221,22.361-3.405.55-12.773.387-11.77,3.687,17.636,58.014,136.891,92.989,163.554,55.789,23.53-32.828-14-20.383-6.233-20.641l40.5-1.342c5.091-.168,10.964-.745,13.825-4.959,4.071-5.994-1.392-14.162-7.768-17.6s-14.1-4.9-18.982-10.252c-4.745-5.2-5.6-12.936-4.617-19.907s3.553-13.629,4.776-20.562c2.77-15.71-1.519-31.9-8.069-46.44-19.357-42.983-58.685-81.327-100.832-86.2" fill="#dbfcff"/>
          <path id="Path_2" data-name="Path 2" d="M61.843,100.253a40.1,40.1,0,0,0-17.544,5.7,25.751,25.751,0,0,0-11.13,14.407c-1.656,5.981-.477,12.839,3.641,17.481,2.207,2.489,5.223,4.4,6.534,7.454.563,1.311.808,2.824,1.811,3.841a4.548,4.548,0,0,0,4.307.938,13.357,13.357,0,0,0,4.08-2.1" fill="none" stroke="#000" stroke-miterlimit="10" stroke-width="1"/>
          <path id="Path_3" data-name="Path 3" d="M51.143,151.983c.1,1.946,4.23,4,6.17,4.2a5.455,5.455,0,0,0,2.885-.845c5.787-3.629,9.619-6.47,13.959-11.744,5.277-6.414,9.272-13.83,14.821-20.01s13.306-11.205,20.234-10.628a42.575,42.575,0,0,1,9.833-.339c3.264.394,8.353.263,10.6,2.658,2.814,2.995,1.846,8.826,1.167,12.879s-2.371,9.368-4.715,12.743" fill="none" stroke="#000" stroke-miterlimit="10" stroke-width="1"/>
          <path id="Path_4" data-name="Path 4" d="M84.826,105.116c4.741-3.293,10.95-3.6,16.677-2.881s11.355,2.329,17.126,2.443a33.13,33.13,0,0,0,33.289-27.416,19.188,19.188,0,0,0-.444-9.638,10.511,10.511,0,0,0-6.563-6.724" fill="none" stroke="#000" stroke-miterlimit="10" stroke-width="1"/>
          <path id="Path_5" data-name="Path 5" d="M127.108,104.124c5.127,4.022,7.243,11.036,6.66,17.526s-3.507,12.545-6.938,18.085-7.419,10.741-10.484,16.492a60.488,60.488,0,0,0,2.68,60.245" fill="none" stroke="#000" stroke-miterlimit="10" stroke-width="1"/>
          <path id="Path_6" data-name="Path 6" d="M123.5,25.58c-4.266-4.9-8.7-9.931-14.562-12.735C99.663,8.41,88.246,10.5,79.588,16.038a10.917,10.917,0,0,1,12.366.028C95.2,18.4,96.84,22.3,98.968,25.679s5.5,6.654,9.479,6.3" fill="none" stroke="#fff" stroke-miterlimit="10" stroke-width="1"/>
          <path id="Path_7" data-name="Path 7" d="M119.25,28.387a7.3,7.3,0,0,1-5.612-1.546,40.4,40.4,0,0,1-4.347-4.117,31.326,31.326,0,0,0-21.6-8.849" fill="none" stroke="#fff" stroke-miterlimit="10" stroke-width="1"/>
          <path id="Path_8" data-name="Path 8" d="M206.924,7.057a7.866,7.866,0,0,0-1.217-.113c.408.02.812.066,1.217.113" fill="#ff38b9"/>
          <path id="Path_9" data-name="Path 9" d="M334.925,94.1c1.616,10.182-.083,20.563-6.341,28.757s-14.239,13.129-24.5,12.065-19.532-6.5-21.92-16.533c8.741,1.742,18.768-2.049,22.98-8.711,4.114-6.509,5.184-16.627-4.121-26.771,1.8,2.446,3.422,3.92,4.285,6.831s-1.011,5.3-3.081,7.526c-3.052,3.274-7.445,3.22-10.783,1.181-3.821-2.334-7.4-7.782-10.815-10.683a24.869,24.869,0,0,0-22.152-5.118,9.861,9.861,0,0,0,4.809-6.751,81.157,81.157,0,0,0,1.947-12.814c.185-6.321.524-11.963,4.541-16.85a19.452,19.452,0,0,1,16.6-6.8,14.342,14.342,0,0,1,12.8,11.224c1.442,6.157-1.71,14.061-7.859,15.54,9.579,1.018,19.581-5.827,24.6-14.05A31.25,31.25,0,0,0,318.24,24.3a39.961,39.961,0,0,0-20.229-20.64C282.616-2.91,262.766,1.719,250.78,13.4c-6.78,6.612-11.253,15.363-18.354,21.63s-18.069,9.513-25.07,2.634c8.32,2.578,15.2-6.918,15.2-14.5,0-8.3-7.406-15.146-15.634-16.106,5.511.931,9.2,7.739,8.6,13.468-.667,6.427-6.731,8.948-12.835,9.892s-11.746-2.132-17.1-5.207-10.436-5.765-15.793-8.839c-7.889-4.529-18.681-11.2-29.192-11.975S120.663,7.582,115.68,15.32c2.712.71,3.935,5.163,5.888,7.176,1.563,1.611,1.678,2.949,2.633,5.5,9.237-6.319,23.608-2.644,33.084,3.31s15.73,13.886,14.722,22.737c-.723,6.345-4.125,9.957-8.765,11.849,3.565,3.565,14.583,2.279,20.87-.682,2.5-1.176,8.41-5.565,5.81-12.626,22.233,18.2,40.9,34.671,52.678,60.876,6.568,14.609,9.611,30.519,5.644,45.734-2.23,8.552-4.765,17-3.644,25.763,1.116,8.733,8.385,15.586,16.394,19.237,19.5,8.891,45.162-3.319,56.189-21.694-19.029,11.361-37.092-3.629-37.092-25.6,9.865,16.156,36.569,4.134,44.753-3.5,7.143-6.668,11.093-11.4,13.938-20.746a51.944,51.944,0,0,0-3.857-38.55" fill="#ff38b9"/>
          <path id="Path_10" data-name="Path 10" d="M54.555,97.764c-.88-1.986-4.693-2.845-6.853-2.618s-4.163.138-6.2.884a11.523,11.523,0,0,0-5.167,3.746c-3.379,4.242-1.209,4.3-.965,6.324-4.572-1.627-4.561-7.928-3.256-11.457s5.787-5.626,9.544-5.869A13.216,13.216,0,0,1,25.5,84.33c-3.715-5.544-3.585-14.542.3-19.97a10.537,10.537,0,0,1,6.374-4.552c2.635-.474,5.493.437,6.309,2.987a8.179,8.179,0,0,0-4.006,4.3,8.8,8.8,0,0,0-.006,6.844c1.932,3.829,5.43,6.558,9.648,5.777s8.294-3.676,8.613-11.235c.24-5.744-3.706-10.782-4.637-16.455-.694-4.239.6-9.7,4.024-12.291s14.447-.03,17.311,1.284c10.856-8.429-2.015-7.291,27.115-18,5.448-2,12.737-7.538,18.517-7.006s9.9,6.662,9.354,12.44C92.4,32.956,80.736,43.683,70.454,64.816c-5.522,11.35-8.118,24.474-15.9,32.948" fill="#ff38b9"/>
          <path id="Path_11" data-name="Path 11" d="M67.883,107.659a88.048,88.048,0,0,0-15.974,14.905C53.39,121,56,121.193,57.917,122.17s3.462,2.564,5.327,3.642,4.371,1.557,6.084.251a8.94,8.94,0,0,1-6.636-5.773c-.992-2.907-.311-6.323,5.191-12.631" fill="#fff"/>
          <path id="Path_12" data-name="Path 12" d="M67.883,107.659a88.048,88.048,0,0,0-15.974,14.905C53.39,121,56,121.193,57.917,122.17s3.462,2.564,5.327,3.642,4.371,1.557,6.084.251a8.94,8.94,0,0,1-6.636-5.773C61.7,117.383,62.381,113.967,67.883,107.659Z" fill="none" stroke="#000" stroke-miterlimit="10" stroke-width="1"/>
          <path id="Path_13" data-name="Path 13" d="M94.908,36.474c-13.851,6.894-21.6,21.742-28,35.831S60.026,95.92,47.145,104.491" fill="none" stroke="#000" stroke-miterlimit="10" stroke-width="1"/>
          <path id="Path_14" data-name="Path 14" d="M122.72,30.867c1.268-.216-18.526-10.034-24.687-12.571s-9.666-4.133-16.867-2.667c1.5.618,10.369,1.471,13.329,6.139,1.738,2.74,3.57,7.455,5.241,10.236,1.349,2.243,2.1,3.151,4.605,3.891s13.054-4.122,18.379-5.028" fill="#ff38b9"/>
          <path id="Path_15" data-name="Path 15" d="M112.341,166.335c-8.3,17.708-28.026,29.367-47.539,28.091" fill="none" stroke="#000" stroke-miterlimit="10" stroke-width="1"/>
          <path id="Path_16" data-name="Path 16" d="M125.13,30c-3.794-8.542-9.544-16.905-18.12-20.094-5.642-2.1-11.932-1.7-17.706-.02s-11.136,4.56-16.452,7.424c11.375-4.027,24.991.974,32.341,10.782,2.679,3.576,5.391,7.472,19.937,1.908" fill="#dbfcff"/>
          <path id="Path_17" data-name="Path 17" d="M111.82,63.6a64.4,64.4,0,0,0-13.644,2.951c-4.367,1.634-8.479,4.34-7.682,10.678a16.524,16.524,0,0,0,11.827-2.471c3.44-2.278,5.96-5.9,9.5-11.158" fill="#fff"/>
          <path id="Path_18" data-name="Path 18" d="M111.82,63.6a64.4,64.4,0,0,0-13.644,2.951c-4.367,1.634-8.479,4.34-7.682,10.678a16.524,16.524,0,0,0,11.827-2.471C105.761,72.484,108.281,68.857,111.82,63.6Z" fill="none" stroke="#000" stroke-miterlimit="10" stroke-width="1"/>
          <path id="Path_19" data-name="Path 19" d="M54.555,97.764c-3.694-3.069-7.168-2.993-11.876-2.041a9.842,9.842,0,0,0-6.347,4.053c-1.479,2.185-2.769,4.4-.965,6.324-3.509.22-4.8-5.323-4.041-9.141a10.33,10.33,0,0,1,7.716-7.889C31.809,91,26.933,87.415,24.429,82.541a18.065,18.065,0,0,1-.193-15.86,11.979,11.979,0,0,1,6.375-6.265c2.875-1.036,6.477-.317,8.263,2.163-4.935,2.5-6.449,9.914-2.89,14.148s11.122,4.02,14.434-.41c2.516-3.364,2.446-8.026,1.415-12.1S48.939,56.3,48.177,52.174,48,43.3,51.117,40.485a6.14,6.14,0,0,1,4.94-1.688c1.777.287,12.291.484,12.317,2.284,2.6-.312,1.869.336,6.388,3.554-4.679.147-15.62,1.009-18.366,4.8-2.186,3.016-1.9,7.173-.861,10.748s2.761,6.985,3.187,10.685A15.731,15.731,0,0,1,37.288,87.293" fill="none" stroke="#000" stroke-miterlimit="10" stroke-width="1"/>
          <path id="Path_20" data-name="Path 20" d="M79.381,28.5a32.158,32.158,0,0,0,15.18-5.1" fill="none" stroke="#000" stroke-miterlimit="10" stroke-width="1"/>
          <path id="Path_21" data-name="Path 21" d="M115.983,15.629C104.745,5.145,85.1,8.073,72.487,17.513,77.8,14.791,84.3,15,89.886,17.107s10.379,5.933,14.551,10.207a24.89,24.89,0,0,0,5.2,4.563c2.012,1.146,4.6,1.579,6.628.453" fill="none" stroke="#000" stroke-miterlimit="10" stroke-width="1"/>
          <path id="Path_22" data-name="Path 22" d="M103.8,35.9a10.885,10.885,0,0,1-4.824-5.251c-1.093-2.164-1.851-4.492-3.072-6.586a17.331,17.331,0,0,0-14.74-8.428" fill="none" stroke="#000" stroke-miterlimit="10" stroke-width="1"/>
          <path id="Path_23" data-name="Path 23" d="M115.35,14.987c5.157-7.629,14.976-11.133,24.173-10.666s17.879,4.347,25.869,8.927,15.557,9.932,23.915,13.8c4.007,1.852,8.28,3.371,12.694,3.386s9.013-1.681,11.638-5.23a11.342,11.342,0,0,0,1.244-11.062,11.34,11.34,0,0,0-8.972-6.591c8.353-.491,16.364,6.811,16.644,15.174s-7.222,16.185-14.27,15.4c5.772,5.985,16.2,4.056,22.653-1.191s10.4-12.892,15.787-19.227c7.942-9.344,19.38-15.86,31.59-17.023s25.018,3.309,33.221,12.426,11.256,22.823,6.909,34.29-16.276,19.851-28.524,19.257c6.966-1.744,11.177-10.147,9-16.989s-9.834-11.227-16.957-10.326S268.742,45.894,266.6,52.748c-1.7,5.419-1.15,11.251-1.694,16.9s-2.654,11.768-8.591,13.331a25.987,25.987,0,0,1,25.278,5.628c4.6,4.309,8.5,10.772,14.8,10.9a9.17,9.17,0,0,0,8.858-7.52,9.837,9.837,0,0,0-5.757-10.256c8.036,5.521,11.1,17.208,6.8,25.958s-15.417,13.473-24.123,10.7c2.865,9.458,12.44,16.187,22.317,16.556s19.54-5.166,25.019-13.392,6.935-18.795,4.834-28.453a47.4,47.4,0,0,1-28.569,70.455c-9.12,2.378-20.163,1.364-26.036-5.97.608,6.59,2.457,13.193,6.287,18.591s9.81,9.47,16.4,10.059,13.618-2.745,16.963-5.54c-6.4,8.573-14.1,16.395-23.559,21.395s-20.831,6.951-31.032,3.727-18.8-12.146-20.11-22.761c-.993-8.024,2.011-15.924,3.559-23.86,4.105-21.044-2.27-43.155-13.755-61.261s-27.733-32.681-44.565-45.35c2.061,3.49.326,8.239-2.824,10.791s-7.309,3.416-11.313,4.056c-4.737.757-10.117,1.148-13.144-1.394,6.374-1.326,10.133-8.662,9.327-15.122a24.439,24.439,0,0,0-9.853-16.39c-24.819-17.949-37.7-6.08-37.7-6.08S123.4,23.037,115.35,14.987Z" fill="none" stroke="#000" stroke-miterlimit="10" stroke-width="1"/>
          <path id="Path_24" data-name="Path 24" d="M92.483,32.572c.957,4.153-4.58,7.913-7.594,10.927-3.105,3.1-5.627,3.614-5.627,3.614S65.038,39.321,61.416,37.074C43.359,25.869,22.458,12.219.741,1.754c30.8,8.812,51.9,16.9,91.742,30.818" fill="#db32a0"/>
          <path id="Path_25" data-name="Path 25" d="M1.043,2.358C8.665,6.218,17.006,9.941,24.628,13.8a9.085,9.085,0,0,0,4.465,1.355c1.573-.086,3.2-1.322,3.112-2.9" fill="none" stroke="#000" stroke-miterlimit="10" stroke-width="1"/>
          <path id="Path_26" data-name="Path 26" d="M23.427,13.35c2.916,1.306,5.483,3.671,7.965,5.192s5.159,2.934,8.064,3.106,6.087-1.213,7.182-3.911" fill="none" stroke="#000" stroke-miterlimit="10" stroke-width="1"/>
          <path id="Path_27" data-name="Path 27" d="M31.8,18.876c3.366,1.075,6.244,3.254,9.232,5.141s6.333,3.557,9.863,3.4,7.168-2.721,7.381-6.248" fill="none" stroke="#000" stroke-miterlimit="10" stroke-width="1"/>
          <path id="Path_28" data-name="Path 28" d="M45.054,26.506c3,2.57,6.08,5.189,9.779,6.568s8.207,1.287,11.23-1.253c2.094-1.758,3.2-4.4,4.163-6.959" fill="none" stroke="#000" stroke-miterlimit="10" stroke-width="1"/>
          <path id="Path_29" data-name="Path 29" d="M53.77,32.716c2.577.728,4.742,2.432,6.965,3.924s4.738,2.844,7.412,2.706a9.646,9.646,0,0,0,6.747-3.851,30.163,30.163,0,0,0,4.487-7" fill="none" stroke="#000" stroke-miterlimit="10" stroke-width="1"/>
          <path id="Path_30" data-name="Path 30" d="M64.363,39.59c5,.719,8.285,6.5,13.328,6.723a9.965,9.965,0,0,0,5.943-2.089,20.9,20.9,0,0,0,8.074-11.182l-.427-.03" fill="none" stroke="#000" stroke-miterlimit="10" stroke-width="1"/>
          <path id="Path_31" data-name="Path 31" d="M.128,2.115c9.433,2.508,19.118,5.266,28.55,7.774a5.092,5.092,0,0,1,2.493.973c.746.683,1.393,1.66.812,2.488" fill="none" stroke="#000" stroke-miterlimit="10" stroke-width="1"/>
          <path id="Path_32" data-name="Path 32" d="M30.956,10.9c4.054,1.146,8.108,2.793,12.162,3.939a7.373,7.373,0,0,1,2.923,1.382c.923.829.505,2.047-.188,2.848" fill="none" stroke="#000" stroke-miterlimit="10" stroke-width="1"/>
          <path id="Path_33" data-name="Path 33" d="M46.041,16.509l9.274,2.858A5.019,5.019,0,0,1,57.687,20.6a1.731,1.731,0,0,1,.014,2.415" fill="none" stroke="#000" stroke-miterlimit="10" stroke-width="1"/>
          <path id="Path_34" data-name="Path 34" d="M58.017,21.273l10.837,2.782a1.917,1.917,0,0,1,1.112.572c.256.34.159.954-.258,1.037" fill="none" stroke="#000" stroke-miterlimit="10" stroke-width="1"/>
          <path id="Path_35" data-name="Path 35" d="M70.125,24.757l7.455,2.1a2.7,2.7,0,0,1,1.687.976c.345.57-.029,1.536-.689,1.443" fill="none" stroke="#000" stroke-miterlimit="10" stroke-width="1"/>
          <path id="Path_36" data-name="Path 36" d="M94.561,37.518C82.012,50.047,72.748,67.724,68.943,85.043c-.807,3.672-1.46,7.55-3.754,10.529-3.166,4.112-8.664,5.016-13.724,6.169,6.53-5.974,9.762-14.3,13.067-22.513A149.833,149.833,0,0,1,76.1,55.639c4.676-7.514,12.043-15.606,18.458-18.121" fill="#db32a0"/>
          <path id="Path_37" data-name="Path 37" d="M56.13,102.592a29.1,29.1,0,0,0-15.122,15.834c-2.72,6.975-3.57,15.522-.591,22.391a18.92,18.92,0,0,1-5.55-23.562c3.971-8.578,14.532-15.146,21.263-14.663" fill="#db32a0"/>
          <path id="Path_38" data-name="Path 38" d="M244.638,176.711c-5.478,19.209-19.4,38.96-37.953,46.845s-41.2,6.236-57.795-5.142S122.743,186,126.195,166.334c-8.653,24.34-2.287,53.256,15.819,71.841-8.764-8.022-23.814-7.551-32.607.44s-10.739,22.085-5.17,32.529c-1.035-11.672,9.107-22.116,20.54-25.22s23.629-.5,34.923,3.069,22.461,8.123,34.285,8.986,22.839-3.817,31.508-12.487c-10.07,8.151-16.293,12.385-15.455,22.311s6.869,18.621,13.194,26.375c-6.952-7.792-2.1-20.676,6.1-27.177s18.811-9.236,27.638-14.877c15.22-9.726,23.969-28.495,21.56-46.246" fill="#ff38b9"/>
          <path id="Path_39" data-name="Path 39" d="M244.638,176.711c-5.478,19.209-19.4,38.96-37.953,46.845s-41.2,6.236-57.795-5.142S122.743,186,126.195,166.334c-8.653,24.34-2.287,53.256,15.819,71.841-8.764-8.022-23.814-7.551-32.607.44s-10.739,22.085-5.17,32.529c-1.035-11.672,9.107-22.116,20.54-25.22s23.629-.5,34.923,3.069,22.461,8.123,34.285,8.986,22.839-3.817,31.508-12.487c-10.07,8.151-16.293,12.385-15.455,22.311s6.869,18.621,13.194,26.375c-6.952-7.792-2.1-20.676,6.1-27.177s18.811-9.236,27.638-14.877c15.22-9.726,23.969-28.495,21.56-46.246" fill="none" stroke="#000" stroke-miterlimit="10" stroke-width="1"/>
          <path id="Path_40" data-name="Path 40" d="M122.667,23.527a38.98,38.98,0,0,1,51.841,12.561c3.585,5.477,5.779,12.209,4.41,18.61s-7.006,12.092-13.551,12.069c7.465-5.345,9.71-16.268,6.215-24.759S159.776,27.589,150.837,25.49s-18.4-.742-28.17-1.963" fill="#db32a0"/>
          <path id="Path_41" data-name="Path 41" d="M69.389,43.993c-4.733-.285-10.263-.234-13.187,3.5-2.051,2.617-2.1,6.311-1.331,9.546s2.063,8.526,2.77,11.775c1.326,6.1-.633,10.349-4.876,14.926a17.473,17.473,0,0,1-17.074,5.039,14.826,14.826,0,0,1-10.76-13.235C24.5,69.317,28.7,62.97,34.7,61.256c-4.936,5.209-4.915,14.518.435,19.3S50.25,83.942,53.59,77.59c2.4-4.569,1.39-10.147-.155-15.072S49.841,52.6,50.352,47.465s4.767-10.377,19.037-3.472" fill="#db32a0"/>
          <path id="Path_42" data-name="Path 42" d="M212.915,43.642c5.238,4.2,13.078,3.786,18.992.614s10.258-8.6,14.075-14.123,7.343-11.347,12.276-15.9c7.992-7.37,19.648-10.74,30.232-8.252s19.67,10.964,22.389,21.491-1.335,22.611-10.151,28.973a22.33,22.33,0,0,0-.78-27.576A22.326,22.326,0,0,0,272.712,24.5c-7.556,4.45-11.631,12.893-17.334,19.554-5.546,6.476-13.24,11.536-21.743,12.17s-17.627-3.977-20.72-12.579" fill="#db32a0"/>
          <path id="Path_43" data-name="Path 43" d="M255.89,87.264c4.314-3.238,10.5-3.052,15.379-.753s8.677,6.379,12.021,10.612c2.189,2.771,4.267,5.679,6.969,7.953s6.181,3.886,9.693,3.51,6.359-10.795,6.554-14.322c2.357,9.545-1.881,17.287-8.253,20.7-4.144,2.222-11.592,4.243-16,2.6-4.583-1.71-9.126-3.209-11.283-7.6s-3.561-9.144-6.034-13.364-6.359-8.011-9.049-9.34" fill="#db32a0"/>
          <path id="Path_44" data-name="Path 44" d="M276.877,134.7c6.211,5.937,13.157,11.36,21.25,14.245s17.513,2.954,24.921-1.4c6.564-3.856,10.9-10.748,13.209-18s2.82-14.938,3.312-22.534a48.083,48.083,0,0,1-10.982,40.973c-9.742,10.957-22.353,17.512-37.907,14.7-3.908-.707-9.7-5.37-12.2-8.455-2.393-2.951-2.627-2.045-2.754-5.841-.2-6.1-.41-12.2,1.149-13.688" fill="#db32a0"/>
          <path id="Path_45" data-name="Path 45" d="M187.5,49.72c20.886,2.333,39.8,15.421,51.406,32.942s16.3,39.054,15.547,60.056c-.345,9.622-1.755,19.47.892,28.727a34.491,34.491,0,0,0,25.216,23.695c11.827,2.6,24.941-2.052,33.742-10.853-6.112,8.964-16.582,16.783-25.52,19.934-6.907,2.434-10.286,3.055-17.609,2.946a26.153,26.153,0,0,1-19.221-9.009c-4.827-5.6-6.224-13.447-5.828-20.826s2.374-14.572,3.488-21.877a94.767,94.767,0,0,0-11.876-61.739C226.9,75.294,209.592,60.77,187.5,49.72" fill="#db32a0"/>
          <path id="Path_46" data-name="Path 46" d="M231,111.67a95.56,95.56,0,0,1-45.651,105.3c5.238,5.305,14.268,2.494,20.587-1.463,24.371-15.264,39.954-43.637,39.76-72.394-.091-13.561-4.746-28.715-14.7-31.442" fill="#ccedf0"/>
          <path id="Path_47" data-name="Path 47" d="M143.658,62.866c3.12,3.863,3.859,9.246,2.969,14.131S137.14,94.622,134.6,98.892c.857.6,8.983-7.657,9.45-8.514,2.143-3.936,5.269-10.359,5.823-14.806s-.358-9.233-6.22-12.706" fill="#ccedf0"/>
          <path id="Path_48" data-name="Path 48" d="M55.491,149.177c2.493,1.3,5.647.614,7.979-.961s4.027-3.9,5.732-6.141c6.48-8.506,14.166-18.64,22.143-25.761,5.679-5.07,14.653-9.1,22-4.644-11.352-.854-15.018.633-22.956,8.792s-15.741,22.161-24.092,29.9c-1.835,1.7-4,3.387-6.506,3.354s-4.957-2.788-4.305-4.536" fill="#ccedf0"/>
          <path id="Path_49" data-name="Path 49" d="M108.884,174.234a63.889,63.889,0,0,0,17.6,55.125,26.071,26.071,0,0,0-25.057,9.136c1.067-21.147,2.39-40.858,7.453-64.261" fill="#ccedf0"/>
          <path id="Path_50" data-name="Path 50" d="M135.916,127.635c-4.767,11.969-13.877,21.773-18.993,33.6a56.4,56.4,0,0,0,1.942,48.14c-5.7-13.119-3.392-28.4,1.482-41.849s12.164-25.949,15.569-39.888" fill="#ccedf0"/>
          <path id="Path_51" data-name="Path 51" d="M247.3,182.505c3.39,8.439,6.809,16.982,8.064,25.99s.145,18.671-4.932,26.216c-4.33,6.433-11.07,10.75-16.858,15.91s-11,12.115-10.478,19.852c.859-6.038,5.811-10.744,11.2-13.6s11.4-4.357,16.886-7.014c16.881-8.171,27.24-28.04,24.276-46.558" fill="#db32a0"/>
          <path id="Path_52" data-name="Path 52" d="M230.356,210.276A65.707,65.707,0,0,1,149.589,225.8c-7.706-4.074-14.8-9.972-18.381-17.918.807,5.346,3.84,10.115,7.4,14.183A56.544,56.544,0,0,0,186,240.76c17.552-1.765,33.975-12.437,44.359-30.484" fill="#db32a0"/>
          <path id="Path_53" data-name="Path 53" d="M210.05,138.235c0-3.273-4.038-6.374-10.228-8.3,1.429-6.405.794-11.5-2-13.131a4.3,4.3,0,0,0-2.222-.564v2.246a2.274,2.274,0,0,1,1.131.261c1.349.786,1.934,3.776,1.478,7.623-.109.947-.288,1.943-.506,2.96a47.57,47.57,0,0,0-6.3-1.1,48.865,48.865,0,0,0-4.127-5.035c3.234-3.051,6.27-4.722,8.334-4.722v-2.246c-2.729,0-6.3,1.974-9.911,5.4-3.611-3.4-7.183-5.357-9.911-5.357v2.246c2.054,0,5.1,1.661,8.334,4.692a47.438,47.438,0,0,0-4.1,5.025,45.648,45.648,0,0,0-6.309,1.108c-.228-1.007-.4-1.984-.516-2.921-.466-3.846.109-6.837,1.448-7.632a2.176,2.176,0,0,1,1.141-.262v-2.246a4.379,4.379,0,0,0-2.242.564c-2.788,1.632-3.412,6.717-1.974,13.1-6.171,1.933-10.189,5.024-10.189,8.287s4.038,6.374,10.229,8.3c-1.429,6.4-.794,11.5,2,13.131a4.314,4.314,0,0,0,2.232.563c2.728,0,6.3-1.973,9.91-5.4,3.612,3.4,7.183,5.357,9.911,5.357a4.369,4.369,0,0,0,2.242-.564c2.788-1.631,3.413-6.716,1.974-13.1,6.151-1.923,10.169-5.025,10.169-8.287m-12.917-6.716c-.367,1.3-.823,2.638-1.339,3.977-.407-.806-.833-1.611-1.3-2.417s-.943-1.591-1.429-2.356c1.409.211,2.768.473,4.067.8m-4.543,10.723c-.774,1.36-1.568,2.649-2.391,3.847-1.478.131-2.976.2-4.484.2s-3-.07-4.464-.191c-.824-1.2-1.628-2.477-2.4-3.826-.754-1.319-1.439-2.659-2.064-4.008.615-1.349,1.31-2.7,2.054-4.018.774-1.359,1.567-2.648,2.391-3.846,1.478-.131,2.976-.2,4.484-.2s3,.071,4.464.192c.823,1.2,1.627,2.477,2.4,3.826.754,1.319,1.438,2.658,2.063,4.008-.625,1.349-1.309,2.7-2.053,4.017m3.2-1.308q.781,1.968,1.369,4.007c-1.3.322-2.668.594-4.087.806.486-.776.972-1.571,1.429-2.387s.882-1.621,1.289-2.426m-10.059,10.744a41.209,41.209,0,0,1-2.758-3.223c.893.041,1.8.071,2.728.071s1.855-.02,2.758-.071a39.425,39.425,0,0,1-2.728,3.223m-7.381-5.931c-1.409-.212-2.768-.474-4.068-.8.367-1.3.824-2.638,1.34-3.977.406.805.833,1.611,1.3,2.416s.943,1.591,1.429,2.357m7.331-20.955a41.4,41.4,0,0,1,2.758,3.222c-.893-.04-1.806-.07-2.728-.07s-1.855.02-2.758.07a39.18,39.18,0,0,1,2.728-3.222m-7.341,5.931c-.486.775-.972,1.571-1.429,2.386s-.883,1.612-1.289,2.417q-.782-1.968-1.369-4.007c1.3-.313,2.668-.585,4.087-.8m-8.978,12.607c-3.512-1.521-5.784-3.514-5.784-5.1s2.272-3.585,5.784-5.1c.853-.373,1.785-.705,2.748-1.017a48.754,48.754,0,0,0,2.232,6.132,48.233,48.233,0,0,0-2.2,6.1c-.982-.312-1.914-.654-2.777-1.027m5.337,14.389c-1.349-.785-1.935-3.776-1.478-7.622.109-.947.287-1.944.506-2.961a47.356,47.356,0,0,0,6.3,1.1,48.848,48.848,0,0,0,4.127,5.034c-3.234,3.052-6.27,4.723-8.333,4.723a2.34,2.34,0,0,1-1.121-.272m23.532-7.673c.466,3.847-.109,6.837-1.449,7.633a2.181,2.181,0,0,1-1.141.262c-2.053,0-5.1-1.662-8.333-4.693a47.292,47.292,0,0,0,4.1-5.024,45.839,45.839,0,0,0,6.31-1.108,28.6,28.6,0,0,1,.516,2.93m3.819-6.716c-.853.373-1.786.705-2.748,1.017a49.008,49.008,0,0,0-2.232-6.132,48.068,48.068,0,0,0,2.2-6.1c.982.312,1.915.654,2.788,1.027,3.512,1.52,5.784,3.514,5.784,5.1s-2.282,3.585-5.794,5.1" fill="#61dafb"/>
          <path id="Path_54" data-name="Path 54" d="M185.7,142.837a4.6,4.6,0,1,0-4.534-4.6,4.568,4.568,0,0,0,4.534,4.6" fill="#61dafb"/>
        </g>
      </g>
    </g>
  </g>
</svg>
