<svg width="64" height="64" fill="none" xmlns="http://www.w3.org/2000/svg"><path fill-rule="evenodd" clip-rule="evenodd" d="M0 26.36h24.77v3H3v31.03h31.07V38.33h3v25.06H0V26.36z" fill="#fff"/><path fill-rule="evenodd" clip-rule="evenodd" d="M37.234 13.87l.012 3L3 17.004V60.41h44.113l.067-34.133 3 .006-.073 37.127H0V14.016l37.234-.146z" fill="#fff"/><path fill-rule="evenodd" clip-rule="evenodd" d="M0 .53h50v3H3V60.4h56.93V12.87h3V63.4H0V.53z" fill="#fff"/><path fill-rule="evenodd" clip-rule="evenodd" d="M37.21 25.28h1.02v11.43a2.446 2.446 0 01-2.45 2.45 2.446 2.446 0 01-2.45-2.45v-6.52h-7.05a2.446 2.446 0 01-2.45-2.45 2.446 2.446 0 012.45-2.45h.207l.01.01 10.713-.02zm0 1l-11.105.02a1.446 1.446 0 00-1.275 1.44c0 .804.646 1.45 1.45 1.45h8.05v7.52c0 .804.646 1.45 1.45 1.45.804 0 1.45-.646 1.45-1.45V26.28h-.02zM50.12 12.92h1.02v11.43a2.446 2.446 0 01-2.45 2.45 2.446 2.446 0 01-2.45-2.45v-6.52h-7.05a2.446 2.446 0 01-2.45-2.45 2.446 2.446 0 012.45-2.45h.207l.01.01 10.713-.02zm0 1l-11.105.02a1.446 1.446 0 00-1.275 1.44c0 .804.646 1.45 1.45 1.45h8.05v7.52c0 .804.646 1.45 1.45 1.45.804 0 1.45-.646 1.45-1.45V13.92h-.02zM49 2.45A2.446 2.446 0 0151.45 0H63.4v11.42a2.446 2.446 0 01-2.45 2.45 2.446 2.446 0 01-2.45-2.45V4.9h-7.05A2.446 2.446 0 0149 2.45zM51.45 1C50.646 1 50 1.646 50 2.45c0 .804.646 1.45 1.45 1.45h8.05v7.52c0 .804.646 1.45 1.45 1.45.804 0 1.45-.646 1.45-1.45V1H51.45z" fill="#fff"/></svg>
