<svg width="78" height="78" fill="none" xmlns="http://www.w3.org/2000/svg"><g clip-path="url(#prefix__clip0_155_460)" stroke="#fff" stroke-miterlimit="10" stroke-linecap="round"><path d="M36.123 27.581L43 27.5c2.135 0 6.81 3.5 7 8V49c0 4.5-5 6.945-8 6.945h-5.877a8.592 8.592 0 01-8.59-8.59V36.171a8.592 8.592 0 018.59-8.59z" stroke-width="2.6"/><path d="M30.94 27.581c-.131-1.825-.033-2.69 1.026-4.434.783-1.287 6.162-5.95 12.226-.994 1.646 1.353 2.494 3.668 1.744 5.428M38.715 27.728v18.094M32.504 22.006l-2.184-1.89M44.355 21.925l1.989-1.712M28 31c-2.38-1.59-3.965-2.469-6.5-3.682-.569-.272-1.276-.523-1.759-.063-.672.628-.586 1.716-.741 2.866M27.532 38.96a90.722 90.722 0 00-6.65-.278c-.604 0-1.142.473-1.19 1.109a6.13 6.13 0 00.016 1.222M27.532 49.36c-2.461.423-4.336.44-6.765 1.042-.407.098-.847.229-1.06.587-.178.294-.162.652-.146.995.049.929.228 1.369.277 2.298M50.19 30.776a56.698 56.698 0 016.554-3.015c.505-.196 1.14-.375 1.565-.05.586.457.521 1.24.668 2.07M50.517 39.236c2.086-.179 4.156-.26 6.243-.277.57 0 1.06.473 1.108 1.109a6.13 6.13 0 01-.016 1.222M50.19 48.952c2.462.424 4.94.847 7.369 1.45.407.098.847.229 1.06.587.178.294.162.652.146.995-.049.929-.228 1.369-.277 2.298" stroke-width="2.6"/><path d="M39.008 76.386c20.643 0 37.378-16.734 37.378-37.378 0-20.643-16.734-37.378-37.378-37.378C18.365 1.63 1.63 18.365 1.63 39.008s16.735 37.378 37.378 37.378z" stroke-width="3"/></g><defs><clipPath id="prefix__clip0_155_460"><path fill="#fff" d="M0 0h78v78H0z"/></clipPath></defs></svg>
