<svg width="70" height="79" fill="none" xmlns="http://www.w3.org/2000/svg"><g clip-path="url(#prefix__clip0_155_230)" fill="#fff"><path d="M9.81 38.502c0-10.627 7.217-16.66 15.09-16.66 4.134 0 7.491 1.856 9.703 4.192l-4.333 5.074c-1.54-1.361-3.082-2.042-5.187-2.042-3.647 0-6.82 3.419-6.82 9.158 0 5.739 2.685 9.266 6.728 9.266 2.41 0 4.333-.975 5.676-2.444L35 50.01c-2.792 3.218-6.347 4.687-10.283 4.687-7.98 0-14.907-5.367-14.907-16.18v-.016zM41.072 39.693h-4.089v-2.861h4.09v-4.3h2.913v4.3h4.09v2.861h-4.09v4.3h-2.914v-4.3zM53.782 39.693h-4.09v-2.861h4.09v-4.3h2.914v4.3h4.089v2.861h-4.09v4.3h-2.913v-4.3z"/><path d="M64.599 17.48L39.013 2.506a7.927 7.927 0 00-8.026 0L5.401 17.48a8.187 8.187 0 00-4.013 7.038v29.948c0 2.893 1.541 5.6 4.013 7.039l25.586 14.974A7.902 7.902 0 0035 77.56a7.902 7.902 0 004.013-1.082l25.586-14.974a8.187 8.187 0 004.013-7.039V24.518c0-2.892-1.541-5.6-4.013-7.038zm3.723 36.986c0 2.8-1.48 5.399-3.876 6.791L38.86 76.231a7.685 7.685 0 01-7.735 0L5.554 61.273c-2.38-1.393-3.876-4.007-3.876-6.791V24.518c0-2.8 1.48-5.398 3.876-6.79l25.57-14.975A7.685 7.685 0 0135 1.702c1.343 0 2.67.355 3.875 1.051l25.587 14.974c2.38 1.393 3.875 4.007 3.875 6.791v29.948h-.015z" stroke="#fff" stroke-width="3" stroke-miterlimit="10"/></g><defs><clipPath id="prefix__clip0_155_230"><path fill="#fff" d="M0 0h70v79H0z"/></clipPath></defs></svg>
