<svg width="91" height="74" fill="none" xmlns="http://www.w3.org/2000/svg"><path d="M87.302 61.813l-.594 3.808-.556-3.846-2.414-.497 2.414-.536.537-3.96.632 3.998 2.108.536-2.127.497zM77.338 67.954L76.398 74l-.88-6.103-3.814-.784 3.794-.861.862-6.275.997 6.332 3.353.842-3.372.803zM7.3 10.312l-1.207 7.825-1.15-7.883L0 9.221l4.925-1.11L6.036 0 7.32 8.188l4.33 1.09-4.35 1.034z" fill="#fff"/><path fill-rule="evenodd" clip-rule="evenodd" d="M29.567 10.415a.853.853 0 00-.857.853v11.23a1.5 1.5 0 11-3 0v-11.23a3.853 3.853 0 013.857-3.853h57.007a3.853 3.853 0 013.856 3.853v36.694a3.853 3.853 0 01-3.856 3.853H56.68a1.5 1.5 0 010-3h29.893a.853.853 0 00.856-.853V11.268c0-.47-.38-.853-.856-.853H29.567z" fill="#fff"/><path fill-rule="evenodd" clip-rule="evenodd" d="M14.103 26.103a1.32 1.32 0 00-1.317 1.312v7.155a1.5 1.5 0 01-3 0v-7.155a4.32 4.32 0 014.317-4.312h37.902a4.32 4.32 0 014.317 4.312v31.74a4.32 4.32 0 01-4.317 4.311H21.404a1.5 1.5 0 110-3h30.601a1.32 1.32 0 001.317-1.312V27.415a1.32 1.32 0 00-1.317-1.312H14.103z" fill="#fff"/><path fill-rule="evenodd" clip-rule="evenodd" d="M5.365 37.6a.97.97 0 00-.972.969v26.267a.97.97 0 00.972.968h11.842a.97.97 0 00.972-.968V38.57a.97.97 0 00-.972-.968H5.365zm-3.972.969A3.97 3.97 0 015.365 34.6h11.842a3.97 3.97 0 013.972 3.968v26.267a3.97 3.97 0 01-3.972 3.968H5.365a3.97 3.97 0 01-3.972-3.968V38.57z" fill="#fff"/></svg>
