<svg width="102" height="81" fill="none" xmlns="http://www.w3.org/2000/svg"><path d="M99.613 55.12h-4.83c.06-.16.1-.34.1-.53v-11.6c1.51.37 3.06.61 4.66.7.82.04 1.54-.59 1.58-1.41.05-.83-.59-1.54-1.41-1.58-8.83-.5-16.11-5.84-21.63-15.87l-.43-.78h-10.05l-.36.97c-2.88 7.69-7.04 12.49-11.99 13.99-.65-1.13-.41-2.78-.3-3.32.13-.66.32-1.31.53-2.01.35-1.19.71-2.41.79-3.75.14-2.38-.94-5.32-3.64-6.15l-1.86-.57-.08 1.94c-.05 1.08-.83 1.8-1.29 2.13-1 .72-2.34.98-3.41.67-2.08-.61-3.76-2.86-4.09-5.49-.36-2.84.65-5.74 1.58-7.95l1.17-2.79-2.93.76c-2.55.66-4.91 1.98-6.82 3.77-3.83-6.14-10.15-13.27-10.44-13.6L22.103 0l-.26 3.54c0 .05-.43 5.26-4.14 9.82-2.86 3.51-4.6 6.74-5.25 9.77a29.792 29.792 0 00-5.1-5L3.263 15l1.77 4.84c.67 1.84.25 4.18-1.3 7.16-.28.53-.57 1.06-.86 1.59-1.17 2.12-2.38 4.31-2.77 6.85-.46 2.96.63 6.39 3.18 8 .23.27.56.46.94.5h.05c.22.09.45.16.7.22l.04-.15c.43.03.85.06 1.26.06.96 0 1.87-.09 2.75-.25l-.03 11.31h-5.19c-.83 0-1.5.67-1.5 1.5s.67 1.5 1.5 1.5h20.86v19.16h-3.01c-.83 0-1.5.67-1.5 1.5s.67 1.5 1.5 1.5h16.2c.83 0 1.5-.67 1.5-1.5s-.67-1.5-1.5-1.5h-3.02V58.13h32.3v19.16h-3.01c-.83 0-1.5.67-1.5 1.5s.67 1.5 1.5 1.5h16.18c.83 0 1.5-.67 1.5-1.5s-.67-1.5-1.5-1.5h-3.01V58.13h22.33c.83 0 1.5-.67 1.5-1.5s-.67-1.5-1.5-1.5l-.01-.01zm-7.73-13.06v12.53c0 .19.04.36.1.53h-6.94v-.04l-.05-9.85c-.01-2.39-.03-4.78-.04-7.16a25.89 25.89 0 006.93 4v-.01zm-17.59-15v50.21h-4.16V27.05h4.16v.01zm-31.94 19.51l-.02-6.89c2.25 1.38 4.75 2.34 7.39 2.69l.08 12.75h-7.42c0-2.85-.02-5.7-.03-8.56v.01zm10.37-4.06c1.86-.11 4.03-.59 6.28-1.8 0 4.62-.01 12.99-.01 14.41h-6.19l-.08-12.62v.01zM5.043 41c-1.55-.86-2.27-3.17-1.98-5.1.31-2.01 1.34-3.88 2.44-5.85.3-.55.61-1.1.9-1.65 1.03-1.99 1.65-3.8 1.86-5.46 1.58 1.6 2.96 3.41 4.08 5.36.42.67 1.25.94 1.97.64.72-.3 1.12-1.07.96-1.76-.58-3.37.97-7.27 4.75-11.91 2.37-2.92 3.58-6.02 4.19-8.27 2.52 3 6.77 8.31 9.1 12.49l1.08 1.95 1.4-1.74a12.64 12.64 0 013.76-3.14c-.56 1.92-.91 4.08-.63 6.29.48 3.84 2.99 7.05 6.23 7.99 1.96.57 4.25.14 6-1.11.74-.53 1.34-1.19 1.77-1.91.27.59.39 1.3.35 1.95-.06 1-.36 2.01-.67 3.08-.21.73-.44 1.48-.59 2.27-.33 1.64-.25 3.15.19 4.41-.49.01-.98 0-1.47-.04-7.76-.68-14.45-8.02-15.59-14.17l-.23-1.23h-.08v-.03h-4.15c-.74-.01-1.43-.03-2.08-.04-1.2-.03-2.29-.05-3.41-.05h-.89l-.43.79c-4.89 9.03-10.03 17.05-18.84 16.24h.01zm22.63-13.93h2.98c.38 0 .77.01 1.18.02v50.19h-4.16V27.05v.02zm-15.77 15.9c1.89-.78 3.59-1.91 5.12-3.28.03 2.14.07 4.37.1 6.6.05 3.03.09 6.05.14 8.85h-5.28l.03-11.59c0-.2-.04-.4-.11-.57v-.01zm8.36 12.17c-.05-2.81-.09-5.85-.14-8.89-.05-3.16-.1-6.32-.15-9.21 0-.14-.03-.26-.06-.39 1.84-2.24 3.4-4.73 4.75-7.1v25.6h-4.4v-.01zm14.56-22.84c1.22 1.92 2.78 3.72 4.6 5.28-.07.17-.1.35-.1.54l.03 8.47.03 8.54h-4.55V32.29l-.01.01zm27.16 22.84c0-1.69.01-12.97.01-16.45v-.03c1.77-1.5 3.52-3.56 5.14-6.33v22.81h-5.15zm15.31-25.78c1.45 2.24 3 4.23 4.65 5.95l.06 9.95.05 9.86v.02h-4.76V29.36z" fill="#fff"/></svg>
