<svg width="101" height="83" fill="none" xmlns="http://www.w3.org/2000/svg"><path d="M77.77 34.56l1.36-9.03 4.93-1.19-4.92-1.26-1.44-9.44-1.26 9.35-5.57 1.29 5.59 1.18 1.31 9.1zM39.81 61.72l-.75 5.61-3.34.78 3.36.71.77 5.45.81-5.42 2.97-.71-2.95-.74-.87-5.68zM96.22 60.45c-1.69 0-3.16.94-3.97 2.31l-8.49-5.01c.19-.52.31-1.07.31-1.65 0-1-.31-1.92-.83-2.68l5.84-5.8c.83.82 1.96 1.33 3.21 1.33 2.56 0 4.64-2.11 4.64-4.71s-2.08-4.71-4.64-4.71c-2.56 0-4.64 2.11-4.64 4.71 0 .8.22 1.55.57 2.21l-5.98 5.93c-.78-.62-1.75-1-2.82-1-2.56 0-4.64 2.11-4.64 4.71s2.08 4.71 4.64 4.71c1.48 0 2.78-.72 3.63-1.81l8.65 5.1c-.08.34-.13.69-.13 1.05 0 2.6 2.08 4.71 4.64 4.71 2.56 0 4.639-2.11 4.639-4.71s-2.08-4.71-4.64-4.71l.01.02zM92.3 40.97c1.77 0 3.21 1.47 3.21 3.28 0 1.81-1.44 3.28-3.21 3.28s-3.21-1.47-3.21-3.28c0-1.81 1.44-3.28 3.21-3.28zM79.44 59.38c-1.77 0-3.21-1.47-3.21-3.28 0-1.81 1.44-3.28 3.21-3.28s3.21 1.47 3.21 3.28c0 1.81-1.44 3.28-3.21 3.28zm16.78 9.05c-1.77 0-3.21-1.47-3.21-3.28 0-1.81 1.44-3.28 3.21-3.28s3.21 1.47 3.21 3.28c0 1.81-1.44 3.28-3.21 3.28zM52.9 50.19h-4.2v-4.31c0-.39-.32-.71-.71-.71-.39 0-.71.32-.71.71v4.31h-4.22c-.4 0-.71.32-.71.71 0 .39.32.71.71.71h4.22v4.31c0 .39.32.71.71.71.39 0 .71-.32.71-.71v-4.31h4.2c.4 0 .71-.32.71-.71 0-.39-.32-.71-.71-.71z" fill="#fff"/><path d="M63.1 2.57C50.51 15.38 47.88 18.4 42.11 25c-3.21 3.68-7.2 8.25-14.35 16.16a5.834 5.834 0 00-4.01-1.39c-1.62.05-3.11.74-4.22 1.94L1.62 61.14c-2.26 2.45-2.14 6.32.27 8.62l.71.68a5.944 5.944 0 004.13 1.67h.19c1.62-.05 3.11-.74 4.22-1.94l12.01-13.03c.64.18 1.32.29 2.02.29 4.17 0 7.56-3.44 7.56-7.68 0-2.54-1.23-4.79-3.1-6.18 0-.01.02-.01.03-.02.47-.52.92-1.02 1.36-1.51.06.04.13.08.2.1.79.21 1.62.32 2.44.32 2.45 0 4.91-.91 6.72-2.55 2.17-1.98 3.39-4.92 3.32-7.87 3.11.39 6.37-.97 8.23-3.53 1.71-2.33 2.13-5.52 1.17-8.31 2.8.46 5.85-.54 7.76-2.64.92-1.02 1.55-2.29 1.89-3.63l.55 63.86c0 .6-.22 1.15-.63 1.57-.39.39-.9.61-1.44.61-1.14 0-2.07-.96-2.07-2.14v-4.7c0-.83-.67-1.5-1.5-1.5s-1.5.67-1.5 1.5v4.7c0 2.83 2.28 5.14 5.07 5.14 1.34 0 2.61-.53 3.57-1.5.98-.99 1.52-2.31 1.5-3.71L65.62 0l-2.54 2.58.02-.01zM8.94 68.14c-.55.6-1.3.95-2.11.97-.79.02-1.57-.27-2.16-.83l-.71-.68c-1.23-1.18-1.3-3.17-.14-4.42l13.99-15.17c-.13.56-.21 1.15-.21 1.75 0 2.4 1.09 4.54 2.8 5.95L8.93 68.15l.01-.01zm16.23-13.71c-2.52 0-4.56-2.1-4.56-4.68 0-2.58 2.05-4.68 4.56-4.68s4.56 2.1 4.56 4.68c0 2.58-2.05 4.68-4.56 4.68zm25.48-26.87c-1.67 2.31-4.87 3.45-7.61 2.72l-1.15-.31.16 1.18c.38 2.79-.66 5.68-2.72 7.56-1.89 1.72-4.62 2.46-7.11 1.99 5.8-6.45 9.29-10.45 12.16-13.74 2.47-2.83 4.36-5 6.72-7.57.02.12.05.24.11.34 1.26 2.43 1.04 5.64-.55 7.81l-.01.02zm9.04-11.09c-1.79 1.96-4.8 2.74-7.33 1.89a.824.824 0 00-.26-.04c2.23-2.41 4.94-5.25 8.88-9.29.98 2.45.49 5.48-1.28 7.44h-.01zm2.49-8.67c.18-.18.34-.35.53-.54l.02 1.98c-.14-.5-.31-.98-.54-1.44h-.01z" fill="#fff"/></svg>
