<svg width="72" height="79" fill="none" xmlns="http://www.w3.org/2000/svg"><path d="M56.511 24.78c.45-3.84-.51-7.78-2.69-10.75-1.82-2.48-4.34-4.01-7.1-4.32l-2.13-.24.51 2.08c.24.99-.43 2.4-1.8 3.77-.29.29-.69.44-1.1.41a.981.981 0 01-.73-.36c-3.1-4.02-3.64-7.22-2.08-12.21l.99-3.16-3.03 1.34c-13.05 5.79-22.01 16.2-23.76 27.25-2.42-2.55-5.43-4.61-8.54-4.03l-4.01.75 3.54 2.03c3.23 1.85 4.62 5.18 3.46 8.27-.72 1.9-1.97 3.71-3.29 5.61-1.02 1.47-2.08 2.99-2.9 4.6-2.17 4.26-2.44 9.19-.77 13.87 2.15 6.02 7.29 11.2 14.1 14.2 1.19.52 6.58 2.72 12.77 2.72 1.17 0 2.38-.1 3.58-.28 3.48 1.48 7.3 2.3 11.32 2.3 15.92 0 28.87-12.84 28.87-28.63 0-10.89-6.16-20.38-15.21-25.22zm-40.12 46.36c-6.06-2.67-10.61-7.21-12.48-12.46-1.41-3.95-1.2-7.93.62-11.5.73-1.43 1.68-2.8 2.69-4.25 1.37-1.97 2.79-4.02 3.63-6.27.84-2.23.77-4.57-.08-6.67.91.88 1.85 1.97 2.8 3.26l2.68 3.65.03-4.52c.07-10.43 7.62-20.75 19.48-26.93-.71 4.36.32 7.86 3.33 11.77.7.9 1.73 1.45 2.9 1.52 1.27.09 2.51-.38 3.41-1.28 1.42-1.42 2.31-2.92 2.61-4.36 1.56.61 2.67 1.75 3.38 2.71 1.52 2.07 2.3 4.87 2.2 7.62a28.909 28.909 0 00-10.76-2.07c-15.92 0-28.87 12.84-28.87 28.63 0 9.76 4.95 18.39 12.49 23.56-5.14-.32-9.48-2.15-10.09-2.41h.03zm26.46 4.49c-14.26 0-25.87-11.5-25.87-25.63 0-14.13 11.6-25.63 25.87-25.63 14.27 0 25.87 11.5 25.87 25.63 0 14.13-11.6 25.63-25.87 25.63z" fill="#fff"/><path d="M51.761 31.98s0 .03-.01.04l.03-.04h-.02zM39.431 49.7c-.28 1.06-.1 2.31.72 3.06 1.12.98 2.97.61 4.05-.4 1.08-1.01 1.6-2.48 2.08-3.87 1.68-4.93 3.36-9.85 5.46-16.48-3.58 4.93-7.15 9.88-10.73 14.81-.65.89-1.3 1.82-1.58 2.88z" fill="#fff"/></svg>
