<svg width="74" height="74" fill="none" xmlns="http://www.w3.org/2000/svg"><g clip-path="url(#prefix__clip0_155_496)" stroke="#fff" stroke-width="3" stroke-miterlimit="10" stroke-linecap="round"><path d="M37 72.456c19.581 0 35.455-15.874 35.455-35.456C72.455 17.42 56.582 1.545 37 1.545 17.419 1.545 1.545 17.419 1.545 37c0 19.582 15.874 35.456 35.455 35.456z"/><path d="M36.513 53.141L22.361 38.99s-11.048 8.71-2.783 16.962c8.558 8.67 16.921-2.825 16.921-2.825l.014.014zM39.803 25.788l10.625 10.558a2.26 2.26 0 003.187 0c3.033-3.117 8.655-10.38 2.365-16.656-6.54-6.638-13.72-.724-16.712 2.407a2.234 2.234 0 00.042 3.145l.493.546zM23.191 39.817l12.565 12.565a2.115 2.115 0 002.991 0l.01-.01a2.115 2.115 0 000-2.99L26.192 36.815a2.115 2.115 0 00-2.99 0l-.01.01a2.115 2.115 0 000 2.991zM36.5 45.53l3.27-3.27M30.084 39.101l3.27-3.27M18.827 56.731l-4.69 4.704M61.073 14.57l-4.703 4.688"/></g><defs><clipPath id="prefix__clip0_155_496"><path fill="#fff" d="M0 0h74v74H0z"/></clipPath></defs></svg>
