<svg width="73" height="68" fill="none" xmlns="http://www.w3.org/2000/svg"><g clip-path="url(#prefix__clip0_176_10)" fill="#FFFDF5"><path d="M37.084 37.863a6.42 6.42 0 10-2.95-12.497 6.42 6.42 0 002.95 12.497z"/><path d="M64.08 40.19c3.8-2.17 6.26-5.45 6.26-8.62 0-4.85-5.58-9.07-14.31-11.66.36-1.42.67-2.82.89-4.16 1.17-7.38-.14-12.58-3.7-14.63-4.26-2.46-10.82.38-17.53 6.83-1.07-1.05-2.15-2.04-3.23-2.91C26.65.31 21.49-1.15 17.93.91c-3.56 2.05-4.87 7.25-3.7 14.63.21 1.33.52 2.72.88 4.13C5.92 22.24 0 26.57 0 31.57s5.95 9.34 15.17 11.91c-.33 1.34-.62 2.65-.82 3.91-1.17 7.38.14 12.58 3.7 14.63 1.05.61 2.24.91 3.55.91 3.11 0 6.88-1.71 10.97-5.02 1.04-.84 2.07-1.79 3.11-2.8 3.55 3.42 7.08 5.86 10.23 6.96l.06-.17c2.66 3.54 6.88 5.85 11.64 5.85 8.02 0 14.55-6.53 14.55-14.55 0-5.7-3.3-10.62-8.08-13.01zm3.26-8.62c0 2.29-2.51 5.5-7.32 7.19l.04.12c-.8-.14-1.62-.22-2.45-.22-.99 0-1.95.1-2.89.29-.8-2.4-1.78-4.87-2.91-7.36 1.37-2.98 2.51-5.93 3.4-8.77 7.07 2.02 12.13 5.08 12.13 8.75zm-19.19 10.6l-.03-.21c-.7.11-1.43.21-2.15.3.73-1.14 1.45-2.3 2.14-3.49.7-1.21 1.35-2.43 1.98-3.64a62.4 62.4 0 011.77 4.72c-1.36.59-2.6 1.38-3.71 2.33v-.01zm-12.49 8.67c-1.39-1.5-2.78-3.16-4.15-4.95 1.2.05 2.42.07 3.66.07 1.58 0 3.13-.06 4.67-.14-1.36 1.8-2.76 3.48-4.18 5.01v.01zm-.49-7.87c-1.97 0-3.96-.08-5.94-.23-1.24-1.8-2.44-3.69-3.58-5.67a90.829 90.829 0 01-2.91-5.48c.91-1.9 1.92-3.81 3.02-5.71 1.07-1.85 2.24-3.69 3.47-5.47 1.98-.15 3.97-.23 5.94-.23 2.31 0 4.65.11 6.97.32a91.1 91.1 0 013.25 5.18 88.58 88.58 0 013.12 5.92c-.91 1.89-1.91 3.79-3 5.67a87.517 87.517 0 01-3.4 5.42c-2.26.18-4.58.28-6.94.28zm-9.8-.62c-2.22-.28-4.4-.64-6.46-1.09.62-2 1.37-4.06 2.25-6.15.6 1.15 1.22 2.31 1.89 3.46.75 1.3 1.53 2.56 2.32 3.78zm-4.22-14.27a65.58 65.58 0 01-2.29-6.2c2.08-.45 4.26-.82 6.49-1.1-.74 1.16-1.47 2.35-2.18 3.58a89.78 89.78 0 00-2.02 3.71v.01zm14.56-15.81c1.41 1.54 2.8 3.22 4.16 5.03-1.54-.08-3.1-.13-4.7-.13-1.23 0-2.44.02-3.63.07 1.35-1.76 2.76-3.44 4.17-4.97zm10.31 8.65c2.17.3 4.29.68 6.29 1.14-.61 1.95-1.34 3.95-2.2 5.98-.67-1.3-1.37-2.6-2.11-3.88-.64-1.11-1.3-2.18-1.97-3.24h-.01zm5.7-17.22c2.37 1.37 3.19 5.59 2.24 11.57-.2 1.24-.49 2.54-.82 3.86-2.87-.69-6.01-1.21-9.36-1.54a72.87 72.87 0 00-5.99-7.48c4.29-4.21 8.53-6.96 11.71-6.96.81 0 1.56.18 2.21.56l.01-.01zM17.2 15.07c-.95-5.98-.14-10.2 2.24-11.57 2.37-1.37 6.43.03 11.13 3.85 1 .81 2.01 1.74 3.01 2.72-2.03 2.17-4.06 4.66-6.01 7.42-3.4.3-6.61.79-9.55 1.45-.34-1.32-.63-2.63-.82-3.87zM3 31.57c0-3.81 5.45-6.96 12.94-8.98.91 2.92 2.08 5.94 3.5 9-1.4 3.05-2.56 6.06-3.45 8.96C8.48 38.53 3 35.38 3 31.56v.01zm27.68 24.01c-4.7 3.81-8.76 5.21-11.13 3.85-2.37-1.37-3.19-5.59-2.24-11.57.19-1.18.46-2.4.77-3.65 2.93.65 6.14 1.14 9.53 1.43 1.93 2.69 3.94 5.16 5.97 7.33-.97.94-1.94 1.83-2.9 2.61zm7.07-2.59c2.06-2.22 4.08-4.72 6.01-7.46.53-.05 1.07-.09 1.6-.16-1.45 2.26-2.3 4.94-2.3 7.82 0 1.58.26 3.11.73 4.54-1.94-1.16-3.97-2.76-6.04-4.75v.01zM57.6 65.35c-6.7 0-12.15-5.45-12.15-12.15S50.9 41.05 57.6 41.05c1.18 0 2.32.18 3.39.49l.02.04s.04-.02.06-.02c5.01 1.5 8.68 6.14 8.68 11.64 0 6.7-5.45 12.15-12.15 12.15z"/><path d="M63.85 46.95c-.47-.47-1.23-.47-1.7 0L57.6 51.5l-4.55-4.55a1.201 1.201 0 10-1.7 1.7l4.55 4.55-4.55 4.55a1.201 1.201 0 101.7 1.7l4.55-4.55 4.55 4.55a1.204 1.204 0 001.7 0c.47-.47.47-1.23 0-1.7L59.3 53.2l4.55-4.55c.47-.47.47-1.23 0-1.7z"/></g><defs><clipPath id="prefix__clip0_176_10"><path fill="#fff" d="M0 0h72.16v67.75H0z"/></clipPath></defs></svg>
