<svg width="80" height="75" fill="none" xmlns="http://www.w3.org/2000/svg"><path d="M59.769 39.61c-.9-.66-1.88-1.13-2.84-1.58-1.51-.72-2.82-1.34-3.34-2.48-.7-1.54.24-3.48 1.24-5.53.35-.73.72-1.48 1.01-2.23 3.35-8.46-2.62-18-10.3-21.59-4.42-2.07-14.59-4.47-24.62-.35-8.6 3.54-15.04 10.96-19.12 22.05-3.66 9.94-1.65 22.22 5.25 32.05 6.21 8.86 16.34 14.2 26.73 14.2.52 0 1.04-.01 1.57-.04 11.21-.58 21.85-7.79 26.49-17.94 2.48-5.42 2.89-12.91-2.06-16.56h-.01zm-.67 15.31c-4.18 9.16-13.79 15.67-23.91 16.19-9.76.52-19.84-4.55-25.68-12.89-6.25-8.89-8.17-20.39-4.9-29.28 3.78-10.27 9.65-17.11 17.45-20.32 3.59-1.48 7.23-2.01 10.55-2.01 5.08 0 9.41 1.25 11.65 2.3 6.45 3.02 11.52 10.88 8.79 17.77-.26.65-.58 1.32-.92 2.03-1.19 2.47-2.55 5.26-1.27 8.08.97 2.14 3 3.11 4.78 3.95.87.41 1.68.8 2.35 1.29 3.44 2.54 3.16 8.41 1.11 12.9v-.01z" fill="#fff"/><path d="M25.439 14.98a6.475 6.475 0 00-5.02.02 6.404 6.404 0 00-3.51 3.55c-1.36 3.33.25 7.16 3.6 8.54.81.33 1.65.5 2.49.5.84 0 1.72-.17 2.53-.51a6.404 6.404 0 003.51-3.55c1.36-3.33-.25-7.16-3.59-8.54l-.01-.01zm.82 7.4c-.35.87-1.03 1.55-1.9 1.91-.87.37-1.84.37-2.72 0-1.81-.75-2.69-2.82-1.96-4.63.35-.87 1.03-1.55 1.9-1.91.44-.18.9-.28 1.37-.28.47 0 .92.09 1.35.27 1.81.75 2.69 2.82 1.96 4.63v.01zM20.909 40.37c1.36-3.33-.25-7.16-3.59-8.54a6.475 6.475 0 00-5.02.02 6.404 6.404 0 00-3.51 3.55c-1.36 3.33.25 7.16 3.6 8.54.81.33 1.65.5 2.49.5.84 0 1.72-.17 2.53-.51a6.404 6.404 0 003.51-3.55l-.01-.01zm-4.67.78c-.88.37-1.84.37-2.72 0a3.57 3.57 0 01-1.96-4.63c.35-.87 1.03-1.55 1.9-1.91.44-.18.9-.28 1.37-.28.47 0 .92.09 1.35.27 1.81.75 2.69 2.82 1.96 4.63-.35.87-1.03 1.55-1.9 1.91v.01zM24.589 48.68a6.475 6.475 0 00-5.02.02 6.435 6.435 0 00-3.51 3.55c-1.36 3.33.25 7.16 3.59 8.54.81.33 1.65.5 2.49.5.84 0 1.71-.17 2.53-.51a6.404 6.404 0 003.51-3.55c1.36-3.33-.25-7.16-3.6-8.54l.01-.01zm.82 7.4c-.35.87-1.03 1.55-1.9 1.91-.88.36-1.84.37-2.72 0-1.81-.75-2.69-2.82-1.96-4.63.35-.87 1.03-1.55 1.9-1.91.44-.18.91-.28 1.37-.28.46 0 .92.09 1.35.27 1.81.75 2.69 2.82 1.96 4.63v.01zM42.869 50.75a6.475 6.475 0 00-5.02.02 6.404 6.404 0 00-3.51 3.55c-1.36 3.33.25 7.16 3.6 8.54.81.33 1.65.5 2.49.5.84 0 1.72-.17 2.53-.51a6.404 6.404 0 003.51-3.55c1.36-3.33-.25-7.16-3.59-8.54l-.01-.01zm.82 7.4c-.35.87-1.03 1.55-1.9 1.91-.88.37-1.84.37-2.72 0-1.81-.75-2.69-2.82-1.96-4.63.35-.87 1.03-1.55 1.9-1.91.44-.18.9-.28 1.37-.28.47 0 .92.09 1.35.27 1.81.75 2.69 2.82 1.96 4.63v.01zM79.799 61.98l-.15-.33c-.26-1.28-.76-4.28-.83-4.78v-.04c-2.13-16.89-4.1-26.83-7.81-39.37-.13-.5-.52-.88-1.02-1-.53-.13-1.09.04-1.41.42-1.03 1.1-2.88 1.56-4.37 1.1-.46-.15-.97-.05-1.34.26-.36.32-.53.82-.42 1.35 3.68 14.66 8.67 29.08 14.82 42.86.29 1.19.59 1.46 1.37 1.46l1.1-.04.16-1.07.02-.57-.11-.25h-.01zm-14.5-41.34c1.3.06 2.64-.33 3.75-.99 3.04 10.51 4.87 19.41 6.67 32.74a260.691 260.691 0 01-10.43-31.75h.01zM62.189 15.95c.8.62 1.77.96 2.72.96.35 0 .7-.04 1.04-.14 1.2-.34 2.15-1.22 2.63-2.41.55-1.38.4-2.98-.43-4.35L61.319 0l-.91 12.33c-.02 1.38.64 2.73 1.78 3.61v.01zm1.1-8.64l2.77 4.05c.38.63.46 1.42.2 2.07-.13.33-.41.76-.97.92-.5.13-1.08 0-1.56-.38-.52-.4-.82-1-.82-1.53l.38-5.14v.01z" fill="#fff"/></svg>
