<svg width="66" height="66" fill="none" xmlns="http://www.w3.org/2000/svg"><path d="M31.948 42.586h5.15v15.07h3.68v-15.07h5.17v-3.33h-14v3.33zM53.658 46.616c-2.45-.94-2.89-1.57-2.89-2.54 0-.82.64-1.79 2.45-1.79 1.52 0 2.53.53 2.81.7l.79.47 1.1-3.24-.53-.3c-1.02-.58-2.51-.91-4.1-.91-3.61 0-6.22 2.24-6.22 5.33 0 2.51 1.63 4.32 4.96 5.49 2.27.85 2.71 1.61 2.71 2.65 0 1.34-1.05 2.13-2.8 2.13-1.21 0-2.53-.37-3.5-.98l-.82-.51-1.03 3.27.46.31c1.07.73 3.02 1.23 4.73 1.23 2.06 0 3.77-.57 4.96-1.66 1.09-1 1.7-2.41 1.7-3.96 0-3.35-2.42-4.74-4.79-5.68l.01-.01z" fill="#fff"/><path d="M34.098 15.956l1.28-4.7c.9-3.95-.85-7.96-4.36-9.98-2.79-1.61-6.23-1.7-9.19-.25-2.96 1.44-4.99 4.2-5.44 7.38l-.21 1.5-1.58-.87c-2.84-1.55-6.29-1.57-9.24-.05-2.93 1.52-4.91 4.32-5.29 7.52-.44 3.65 1.27 7.12 4.39 8.98l13.02 6.28v26.76c0 3.65 2.97 6.62 6.62 6.62h35.01c3.65 0 6.62-2.97 6.62-6.62v-35.95c0-3.65-2.97-6.62-6.62-6.62h-25.01zm-27.78 7.14c-2.3-1.21-3.59-3.65-3.28-6.23.27-2.2 1.64-4.15 3.69-5.2 2.06-1.06 4.46-1.05 6.43.02l5.37 2.94.83-5.78c.31-2.19 1.72-4.1 3.79-5.11 2.07-1.01 4.45-.95 6.38.16 2.36 1.36 3.54 4.06 2.95 6.65l-6.04 22.23-19.98-9.61-.14-.07zm56.39 35.43c0 1.99-1.62 3.62-3.62 3.62h-35c-1.99 0-3.62-1.62-3.62-3.62v-25.31l7.9 3.81 4.91-18.07h25.81c1.99 0 3.62 1.62 3.62 3.62v35.95z" fill="#fff"/></svg>
