<svg width="67" height="66" fill="none" xmlns="http://www.w3.org/2000/svg"><path fill-rule="evenodd" clip-rule="evenodd" d="M2.256 5.027h26.916v26.796H2.256V5.027zm3 3v20.796h20.916V8.027H5.256zM7.864 36.882h15.688l7.864 13.543-7.865 13.531H7.865L0 50.426l7.864-13.544zm1.727 3L3.47 50.425l6.122 10.531h12.234l6.121-10.531-6.122-10.543H9.591zM50.1 39.603c-6.44 0-11.647 5.192-11.647 11.581 0 6.389 5.208 11.581 11.647 11.581 6.44 0 11.647-5.192 11.647-11.58 0-6.39-5.208-11.582-11.647-11.582zM35.453 51.184c0-8.06 6.565-14.58 14.647-14.58s14.647 6.52 14.647 14.58S58.182 65.765 50.1 65.765s-14.647-6.521-14.647-14.58zM49.744 0l5.253 10.595 11.778 1.703-8.527 8.265 2.008 11.647-10.512-5.495-10.512 5.495 2.008-11.647-8.527-8.265 11.778-1.703L49.744 0zm0 6.753l-3.265 6.585-7.294 1.055 5.28 5.119-1.246 7.228 6.525-3.41 6.525 3.41-1.247-7.228 5.281-5.119-7.294-1.055-3.265-6.585z" fill="#fff"/></svg>
