<svg xmlns="http://www.w3.org/2000/svg" id="Layer_2" data-name="Layer 2" viewBox="0 0 1320.42 708.26"><defs><radialGradient id="radial-gradient" cx="660.51" cy="354.38" r="526.35" fx="660.51" fy="354.38" gradientTransform="matrix(1 0 0 .64 0 126.69)" gradientUnits="userSpaceOnUse"><stop offset=".02" stop-color="#e7daef"/><stop offset="1" stop-color="#fff2e6"/></radialGradient><style>.cls-2{stroke-width:0;fill:#d0b0eb}</style></defs><g id="Layer_1-2" data-name="Layer 1"><path d="M1296.38 290.75c-22.84-24.42-62.28-31.05-91.76-15.44 10.65-29.64 3.49-65-17.83-88.07-21.32-23.07-55.83-32.78-85.93-24.19 3.87-20.45-5.77-42.81-23.24-53.92s-41.66-10.25-58.31 2.06c.36-19.15-11.49-37.98-28.84-45.81-17.35-7.84-44.07-2.93-58.02 10.08-22.8-37.03-77.49-44.01-106.78-11.94-17-47.27-76.72-73.47-122.65-53.82-45.93 19.65-68.68 81.14-46.72 126.29-92.73-51.55-222.22-19.9-281.19 68.73-46.63-48.89-139.03-38.3-173.56 19.9-23.03-18.27-58.74-17.85-81.34.96-22.61 18.8-29.76 54.05-16.3 80.29C56.12 291.13.3 338.79 4.44 388.96c-.5 37.68 20.82 74.87 53.49 93.31 32.67 18.43 75.34 17.34 107.04-2.74-1.06 36.24 18.92 72.34 50.09 90.54 31.18 18.2 72.25 17.73 103-1.18 9.68 43.41 26.87 87.7 61.68 115.13 34.81 27.43 90.98 31 120.35-2.25 22.45 21.39 61.28 22.15 84.54 1.65 23.26-20.51 27.61-59.34 9.47-84.53 64.45 28.67 148.27 1.3 183.7-59.98 1.91 33.92 24.22 65.86 55.29 79.16 31.08 13.31 69.43 7.34 93.52-12.04 30.69 34.97 78.96 57.35 124.05 46.46 45.08-10.88 79.87-61.91 64.32-105.86 30.71 7.89 65.04 9.9 92.47-6.07 27.43-15.96 43-54.81 25.5-81.38 35.93-6.83 65.67-38.74 70.24-75.22h3.04c17.22-28.73 12.99-68.79-9.85-93.21Z" style="stroke-width:0;fill:url(#radial-gradient)"/><path d="M1297.42 288.16c-11.6-12.06-26.55-20.61-42.11-24.07-16.33-3.64-33.58-1.6-46.88 5.41 9.46-30.52 2.57-63.38-18.78-85.08-23.33-23.71-55.54-33.91-83.77-27.02 2.18-20.19-7.12-39.89-24.37-50.5-16.2-9.95-41.15-13.63-59.08-2.89.03-5.76-1.01-11.53-3.12-16.81-6.77-16.9-23.04-27.22-44.65-28.33-17.15-.88-32.02 3.53-44.22 13.08-.73-4.91-2.82-9.93-5.77-13.86-4.8-6.4-14.29-12.23-21.56-15.16-28.42-11.45-57.88-5.78-75.89 13.89-7.33-19.88-29.04-40.58-54-50.5-27.52-10.94-60.12-7.54-85.06 8.87-23.05 15.16-39.46 42.95-43.89 74.33-1.71 12.09.5 27.35 5.31 39-35.28-18.51-77.66-25.47-121.29-19.62-47.53 6.37-91.54 26.8-127.28 59.1-8.85 7.99-20.07 19.2-26.57 29.79-25.33-22.6-64.07-32.73-100.37-25.86-33.26 6.29-61.47 24.83-73.25 47.8-7.09-6.08-21.77-11.72-38.53-12.18-22.18-.61-41.45 8.25-54.25 24.95-8.18 10.67-13.85 24.59-15.56 38.19-1.42 11.3.07 21.56 4.19 29.83-20.89-3.27-43.2 2.04-60.48 14.84C16.04 330.29 2.86 354.52.64 380.53l-.28-.02c-3.27 41.03 18.42 82.53 53.98 103.26 16.67 9.72 35.82 14.54 54.97 14.54s37.6-4.65 54.07-13.87c-1.08 9.89.36 20.14 2.98 28.61 9.58 30.98 34.32 57.48 64.57 69.16 28.09 10.85 61.26 9.04 88.2-4.49.65 34.71 15.48 69.15 40.46 93.28 24.49 23.66 58.56 37.24 92.61 37.24 2.97 0 5.95-.1 8.92-.31 10.24-.72 20.17-3.36 27.97-7.42 5.49-2.86 9.93-6.42 13.2-10.54 10.68 7.92 24.39 12.26 38.33 12.26 4.16 0 8.34-.39 12.47-1.18 22.28-4.27 42.15-20.31 50.6-40.87 7.38-17.94 5.71-38.5-4.21-57.07 31.19 12.57 66.45 14.22 98.71 4.29 32.88-10.12 61.02-31.94 76.19-58.43 7.2 30.49 29.45 57.65 58.28 69.91 30.27 12.86 67.33 9.09 94.74-9.07 2.99 9.38 11.01 18.3 23.65 26.21 23.72 14.83 49.92 22.77 74.68 22.77 2.91 0 5.8-.11 8.66-.33 31.16-2.4 59.18-18.04 74.96-41.83 13.55-20.42 16.84-47.17 9.58-69.85 25.38 15.96 60.22 17.23 85.89 1.49 29.36-18 44.35-56.78 35.38-89.94 40.88-10.3 63.37-32.18 68.7-66.8.32-2.07.23-4.02-.15-5.85 19.09-30.73 14.51-70.71-11.29-97.54Zm3.54 102.17c-4.96 32.16-26.79 52.18-66.74 61.21l-4.33.98 1.42 4.2c10.34 30.63-3.15 67.85-30.71 84.74-27.56 16.89-66.85 12.02-89.45-11.08l-25.27-25.84 19.01 30.74c13.86 22.42 12.94 54.05-2.25 76.94-14.43 21.75-40.19 36.06-68.91 38.27-25.54 1.97-53.41-5.58-78.48-21.25-9.9-6.19-21.61-16.14-21.22-28.41.38-11.96 12.51-21.19 24.35-25.03 12.38-4.01 24.26-3.74 33.46.76 10.28 5.04 16.69 16.23 14.9 26.03l7.87 1.44c2.45-13.42-5.64-27.99-19.25-34.65-11.06-5.42-25.07-5.84-39.44-1.18-13.45 4.36-29.34 15.45-29.88 32.38v.43c-25.47 18.56-61.28 22.85-90.3 10.52-30.12-12.8-52.43-43.29-55.52-75.87l-1.53-16.13-6.15 14.99c-12.06 29.4-41.47 54.4-76.75 65.25-34.73 10.68-73.12 7.19-105.35-9.58l-16.11-8.39 11.1 14.38c14.88 19.28 18.83 41.5 10.82 60.97-7.46 18.12-25.01 32.28-44.71 36.05-16.06 3.08-33.02-.79-45.15-10.12.48-1.12.9-2.27 1.24-3.44 5.31-19.42 1.83-41.04-9.29-57.83-6.39-9.64-14.65-16.82-23.88-20.76-10.64-4.54-22.67-4.51-32.19.1-9.95 4.82-17.16 14.6-18.82 25.53-1.13 7.43.48 14.69 4.42 19.9 4.76 6.31 12.98 9.28 19.97 7.22l-2.26-7.67c-3.8 1.12-8.57-.71-11.33-4.36-2.65-3.51-3.7-8.57-2.89-13.88 1.25-8.23 6.9-15.9 14.4-19.53 7.46-3.61 17.01-3.59 25.56.06 7.79 3.33 14.83 9.49 20.35 17.83 9.87 14.89 12.95 34.06 8.26 51.24-4.29 14.84-23.91 21.39-39.41 22.48-34.71 2.45-70.38-10.52-95.4-34.7-25.03-24.18-39.22-59.38-37.96-94.15l.26-7.31-6.3 3.72c-25.85 15.29-59.32 18.06-87.34 7.24-28.02-10.82-50.94-35.36-59.81-64.06-4.73-15.3-5.31-37.12 8.61-48.26l-5-6.25c-5.86 4.69-9.67 10.78-11.93 17.48-16.66 11.08-36.51 16.68-56.37 16.68-17.75 0-35.5-4.47-50.95-13.48-32.35-18.86-52.3-56.27-50.16-93.6l.25.02c1.47-24.16 13.93-47.72 32.5-61.48 18.48-13.69 43.31-17.87 64.8-10.92 6.49 2.1 14.66 6.22 16.74 13.92 1.86 6.87-1.99 14.25-6.63 18.53-5.49 5.06-12.77 7.73-19.81 10.32-5.25 1.93-10.69 3.92-15.94 3.59-4.24-.27-9.2-2.6-10.74-7.21-.7-2.1-.18-4.91 1.27-6.85.51-.68 1.58-1.81 2.95-1.75l.3-7.99c-3.69-.14-7.19 1.67-9.66 4.95-3.02 4.03-3.99 9.6-2.46 14.18 2.72 8.15 10.91 12.23 17.82 12.67 6.94.44 13.45-1.96 19.2-4.07 7.41-2.72 15.81-5.81 22.47-11.94 7.83-7.21 11.33-17.61 8.93-26.5-3.02-11.17-13.63-16.74-22-19.45-.06-.02-.13-.04-.19-.06-14.15-15.98-8.22-46.8 6.37-65.84 14.35-18.72 33.84-22.2 47.68-21.82 17.06.47 32.01 7.31 35.21 12.01a5.23 5.23 0 0 0 4.82 2.26c1.91-.19 3.56-1.4 4.31-3.17 9.49-22.31 36.63-40.7 69.14-46.85 34.68-6.56 71.67 3.39 95.12 25.39-4.92 12.22-2.02 21.25 4.25 31.56 5.62 9.24 15.97 14.63 25.9 14.63 4.39 0 8.7-1.05 12.48-3.29l-4.07-6.89c-9.36 5.53-22.22.02-27.47-8.61-6.53-10.74-7.19-17.21-2.69-26.62 3.98-8.33 13.68-19.7 27.3-32.02 34.54-31.2 77.06-50.95 122.98-57.1 48.26-6.47 94.86 3.29 131.21 27.48l.06-.09c6.59 5.33 15.26 8.12 25.2 8.12 4.91 0 10.13-.68 15.57-2.07 10.33-2.64 19.38-9.6 24.2-18.62 5.27-9.87 4.66-22.16-1.52-30.59l-6.45 4.73c4.33 5.9 4.71 14.98.91 22.08-3.73 6.97-11.05 12.58-19.12 14.64-6.71 1.71-29.41 5.95-39.66-11.38-6.11-10.33-9.35-27.74-7.55-40.5 4.11-29.14 19.2-54.84 40.36-68.76 22.8-15 52.58-18.11 77.71-8.12 25.51 10.14 48.01 33.14 51.22 52.36l1.62 9.71 5.61-8.08c14.97-21.58 43.67-28.57 71.4-17.39 6.23 2.51 14.46 7.62 18.15 12.54 2.24 2.99 3.81 6.85 4.3 10.59.37 2.79 2.2 5.16 4.79 6.21 2.58 1.04 5.43.62 7.62-1.12 10.71-8.55 23.93-12.48 39.27-11.7 18.36.94 32.08 9.43 37.64 23.31 7.15 17.87-.88 35.45-12.87 40.66-5.16 2.24-10.46 2.35-14.17.28-1.96-1.1-3.58-3.18-4.22-5.45-.35-1.23-.57-3.04.37-4.72l-6.98-3.91c-1.78 3.17-2.16 7.01-1.09 10.8 1.22 4.3 4.22 8.13 8.02 10.26 5.96 3.32 13.71 3.35 21.25.07 8.85-3.84 15.4-11.61 18.45-21.86.28-.93.51-1.87.72-2.82l.59.68c11.27-9.8 34.5-13.3 55.37-.47 16.18 9.95 24.08 29.4 19.66 48.41l-1.64 7.04 6.84-2.36c26.74-9.21 58.84-.1 81.78 23.21 21.89 22.24 26.87 57.63 12.5 88.26-9.26 9.33-13.79 21.81-11.6 33.5 2.99 15.96 19.14 29.09 36.78 29.9 17.57.81 31.89-9.36 38.85-15.5l-5.29-6c-6.05 5.34-18.41 14.19-33.19 13.51-14.09-.65-26.95-10.91-29.28-23.38-2.21-11.81 4.62-24.82 17.01-32.37 11.9-7.26 28.29-9.52 43.85-6.05 14.04 3.13 27.56 10.87 38.08 21.81 22.1 22.97 26.96 56.6 12.68 83.58-2.57-2.86-5.69-4.7-8-5.16l-1.56 7.85c1.49.34 7.09 4.5 6.19 10.35Z" class="cls-2"/><path d="M1077.02 255.35c18.8 1.86 35.81 17.95 38.72 36.62l7.9-1.23c-3.5-22.47-23.21-41.1-45.84-43.34-19.55-1.94-39.35 8.54-49.44 25.19-5.59-10.5-14.98-19.26-26.75-24.73-12.16-5.64-25.37-7.07-37.3-4.2 3.03-15.8-4.53-32.29-14.62-42.8-12.39-12.9-29.31-20.3-44.23-26.83-9.8-4.29-23.23-10.16-36.47-7.48-7.85 1.59-15.22 7.33-18.77 14.63-1.37 2.82-2.1 5.71-2.18 8.53-10.48-3.24-22.22-1.9-31.65 3.94-11.73 7.27-18.82 20.88-18.05 34.66l7.99-.45c-.6-10.73 5.14-21.75 14.28-27.41s21.56-5.9 30.9-.58l11.47 6.52-5.91-11.79c-1.88-3.74-.84-7.46.35-9.91 2.47-5.06 7.76-9.2 13.17-10.29 9.95-2.01 20.24 1.96 31.68 6.97 14.24 6.23 30.38 13.28 41.67 25.04 13.77 14.34 15.26 31.35 10.63 41.84l-4.07 9.23 9.29-3.93c11.66-4.93 25.68-4.36 38.47 1.58 12.79 5.93 22.28 16.27 26.04 28.35l3.51 11.26 4.07-11.07c6.52-17.73 26.35-30.17 45.15-28.3ZM694.56 256.12c-11.31-7.01-25.06-11.6-43.26-14.45-32.65-5.1-63.69-2.31-89.77 8.07-19.02 7.56-35.45 19.25-47.8 33.63-21.7-13.26-49.26-16.06-73.17-7.17-25.49 9.48-45.47 31.74-52.12 58.12l7.76 1.96c6.02-23.86 24.09-44 47.15-52.57 21.31-7.92 45.85-5.56 65.35 5.99-5.04 6.83-9.2 14.16-12.34 21.88l7.41 3.02c10.28-25.23 32.41-46.15 60.72-57.41 24.75-9.85 54.35-12.47 85.58-7.6 17.11 2.67 29.91 6.91 40.28 13.34 12.75 7.9 21.57 19.51 24.21 31.84l7.82-1.67c-3.09-14.45-13.23-27.92-27.82-36.96ZM1214.98 316.95c-6.01-4.56-9.1-12.91-7.52-20.29 1.59-7.38 7.84-13.71 15.2-15.4l-.89-3.9c-8.96 2.05-16.28 9.47-18.21 18.46-1.93 8.99 1.69 18.76 9.01 24.31 4.22 3.2 9.45 4.84 14.68 4.84 3.86 0 7.71-.89 11.16-2.71l-1.86-3.54c-6.68 3.52-15.55 2.78-21.56-1.78Z" class="cls-2"/><path d="M1216.72 292.87c-2.75 5.66-1.54 12.85 2.86 17.09 2.58 2.49 6.09 3.77 9.56 3.77 2.74 0 5.46-.8 7.69-2.43l-2.36-3.23c-3.47 2.54-8.91 2.1-12.12-.99-3.14-3.02-4.02-8.38-2.04-12.46 1.97-4.05 6.45-6.79 11.16-6.81l-.02-4c-6.2.03-12.13 3.67-14.74 9.06ZM1299.45 330.17c-3.7-17.94-17.1-33.88-34.14-40.61l-1.47 3.72c15.81 6.25 28.26 21.04 31.69 37.69 3.44 16.65-2.13 35.17-14.18 47.16l2.82 2.83c12.98-12.92 18.97-32.87 15.27-50.81Z" class="cls-2"/><path d="m1276.23 314.81-3.08 2.55c7.05 8.52 10.05 20.1 8.02 30.97-2.03 10.87-9.01 20.58-18.67 25.98l1.95 3.49c10.68-5.97 18.4-16.71 20.65-28.73 2.25-12.03-1.07-24.83-8.87-34.26ZM94.03 317.47c4.6 0 8.96 1.62 11.94 4.45 3.18 3.01 4.75 7.51 3.99 11.46-.79 4.13-4.19 7.52-8.08 8.06l.55 3.96c5.53-.77 10.34-5.51 11.45-11.27 1.03-5.34-.95-11.13-5.16-15.12-3.73-3.53-9.08-5.55-14.7-5.55h-.09l.02 4h.08Z" class="cls-2"/><path d="M100.46 332.34c-.56 1.62-2.38 2.75-3.89 2.42l-.88 3.9c.47.1.94.15 1.41.15 3.05 0 6.07-2.09 7.13-5.16 1.07-3.07.14-6.83-2.3-9.35-2.09-2.15-5.1-3.41-8.49-3.56l-.18 4c2.33.1 4.45.96 5.8 2.35 1.39 1.43 1.97 3.59 1.39 5.24ZM76.05 352.03c1.55 1.74 3.94 2.73 6.46 2.73.47 0 .94-.03 1.41-.1 2.38-.35 4.7-1.51 6.9-3.45l-2.64-3c-1.61 1.42-3.24 2.26-4.84 2.49-1.68.25-3.37-.27-4.31-1.33-.88-.99-1.03-2.65-.31-3.55l-3.12-2.5c-1.94 2.42-1.75 6.25.44 8.71ZM149.35 230.84c11.22-3.56 23.7-3.7 36.11-.39l1.03-3.86c-13.15-3.51-26.41-3.35-38.36.44-12.79 4.06-23.89 12.56-30.44 23.31-7.04 11.55-8.86 25.74-4.86 37.94l3.8-1.24c-3.64-11.11-1.96-24.05 4.48-34.62 6.06-9.94 16.35-17.81 28.24-21.58Z" class="cls-2"/><path d="M158.39 238.68c11.01-2.45 23.02.05 32.14 6.68l2.35-3.24c-10.03-7.3-23.26-10.04-35.37-7.35-12.11 2.7-22.92 10.79-28.91 21.66-5.99 10.87-7.07 24.33-2.89 36.01l3.77-1.35c-3.8-10.62-2.82-22.85 2.62-32.73 5.45-9.88 15.27-17.23 26.28-19.68Z" class="cls-2"/><path d="M194.82 253.52c-9.54-8.83-24.82-11.36-37.17-6.16-11.94 5.03-20.95 16.86-22.95 30.13-1.93 12.79 2.38 26.33 11.55 36.22l2.93-2.72c-8.22-8.87-12.26-21.48-10.53-32.9 1.8-11.92 9.87-22.54 20.55-27.04 10.95-4.62 24.48-2.39 32.9 5.41l2.72-2.93ZM75.11 318.8c-15.46 1.73-30.21 9.42-40.49 21.1-10.27 11.68-16.02 27.3-15.76 42.85l4-.07c-.24-14.57 5.14-29.2 14.76-40.14 9.62-10.94 23.45-18.15 37.93-19.77l-.45-3.98Z" class="cls-2"/><path d="m32.52 386.95 3.98-.36c-1.33-14.65 6.09-29.85 18.46-37.81l-2.17-3.36c-13.59 8.75-21.73 25.44-20.27 41.54ZM679.2 121.81c-6.6-5.11-10.46-14.36-10.32-24.76.13-9.94 3.64-20.04 6.46-28.16l-3.77-1.34-1.69 4.66.09.03c-2.49 7.45-4.96 16.05-5.08 24.75-.16 11.65 4.28 22.11 11.87 27.98 4.15 3.21 9.28 4.78 14.27 4.78 5.93 0 11.66-2.22 15.28-6.53l-3.06-2.57c-4.76 5.67-15.81 7.54-24.05 1.16Z" class="cls-2"/><path d="M684.13 109.89c1.89 1.8 4.35 2.53 6.85 2.53 2.35 0 4.74-.64 6.73-1.65l-1.8-3.57c-2.77 1.4-6.78 1.93-9.02-.21-1.6-1.53-2.07-4.14-2.29-6.25-.7-6.55.08-13.3 2.27-19.51l-3.77-1.33a48.938 48.938 0 0 0-2.48 21.27c.3 2.79.97 6.3 3.51 8.72ZM865.87 184.17c-2.25 1.65-3.85 4.42-4.17 7.21-.26 2.31.36 4.48 1.75 6.1l3.03-2.61c-.84-.98-.9-2.19-.81-3.04.19-1.69 1.2-3.44 2.56-4.44 2.88-2.12 6.93-2.22 10.13-2.08 11.05.49 21.73 4.02 30.89 10.22l2.24-3.31a63.81 63.81 0 0 0-32.95-10.9c-3.86-.17-8.79 0-12.68 2.85Z" class="cls-2"/><path d="M876.7 192.6c-1.55.48-3.47 1.26-4.64 3.02-.78 1.17-1.01 2.69-.63 4.05.33 1.18 1.09 2.1 2.14 2.59l1.74-3.58c-.08-.12-.11-.56.07-.84.47-.71 1.59-1.13 2.5-1.42 7.68-2.39 16.36-.78 22.67 4.2l2.48-3.14c-7.33-5.79-17.42-7.66-26.34-4.88ZM1056.32 275.76c-10.75 7-17.75 18.26-18.24 29.4l4 .18c.44-9.87 6.74-19.92 16.43-26.22 8.06-5.24 18.31-8.29 31.34-9.3l-.31-3.99c-13.72 1.07-24.58 4.32-33.21 9.94Z" class="cls-2"/><path d="M1064.01 289.04c-6.58 4.05-11.51 10.65-13.53 18.1l3.86 1.05c1.76-6.48 6.05-12.22 11.77-15.74 5.72-3.52 12.77-4.77 19.36-3.43l.8-3.92c-7.57-1.54-15.68-.11-22.25 3.94ZM199.68 530.7c-6.35-6.83-14.18-17.87-15.41-31.69-1.1-12.41 4.03-24.53 13.07-30.87l-2.3-3.27c-10.19 7.15-15.98 20.69-14.76 34.5 1.33 14.95 9.68 26.77 16.46 34.06 8.74 9.4 19.53 16.54 29.9 22.86l2.08-3.42c-10.12-6.17-20.64-13.13-29.05-22.17Z" class="cls-2"/><path d="M203.14 509.36c-3.92-11.33-1.54-24.64 6.05-33.91l-3.09-2.53c-8.46 10.32-11.1 25.14-6.74 37.75 4.36 12.61 15.6 22.62 28.63 25.51l.87-3.91c-11.7-2.59-21.79-11.59-25.71-22.92ZM462.8 617.36c9.32 1.07 17.45 8.86 18.91 18.13l3.95-.62c-1.73-10.98-11.36-20.22-22.41-21.48-11.04-1.26-22.51 5.56-26.68 15.87l3.71 1.5c3.51-8.7 13.2-14.46 22.51-13.39Z" class="cls-2"/><path d="M461.97 625.53c-4.32-.93-8.97.62-11.86 3.95l3.02 2.62c1.92-2.21 5.13-3.28 7.99-2.66 2.86.62 5.34 2.92 6.17 5.73l3.84-1.14c-1.25-4.23-4.85-7.57-9.16-8.5ZM1133.91 528.88c-15.85-9.28-27.33-25.16-37.46-39.16l-3.24 2.34c10.36 14.33 22.1 30.57 38.68 40.27 8.43 4.93 18.27 7.68 27.7 7.74h.33c10.28 0 19.33-3.15 26.19-9.12l-2.63-3.02c-9.91 8.63-29.64 12.6-49.56.94Z" class="cls-2"/><path d="M1115.2 489.49c7.34 9.38 15.66 20.01 26.82 26.62 6.74 3.99 14.07 6.01 20.98 6.01 6.04 0 11.75-1.54 16.47-4.64l-2.2-3.34c-8.85 5.82-21.89 5.24-33.22-1.47-10.51-6.23-18.24-16.1-25.71-25.65l-3.15 2.47ZM1163.52 500.53c4.55 0 9.08-.93 13.2-2.91l-1.73-3.6c-12.9 6.21-30.3.67-37.24-11.85l-3.5 1.94c5.7 10.28 17.58 16.43 29.27 16.43Z" class="cls-2"/></g></svg>
