<svg xmlns="http://www.w3.org/2000/svg" id="Layer_2" data-name="Layer 2" viewBox="0 0 1301.76 695.28"><defs><radialGradient id="radial-gradient" cx="521.22" cy="708.73" r="553.41" fx="521.22" fy="708.73" gradientUnits="userSpaceOnUse"><stop offset="0" stop-color="#cdb0ff"/><stop offset=".37" stop-color="#e2ccf4"/><stop offset=".76" stop-color="#f3e3eb"/><stop offset="1" stop-color="#faece8"/></radialGradient><style>.cls-2{stroke-width:0;fill:#d0b0eb}</style></defs><g id="Layer_1-2" data-name="Layer 1"><path d="M1077.39 151.3c-9.17-33.39-36.05-63.31-70.57-66.03-34.52-2.72-69.67 18.05-83.96 49.59-8.06-24.64-28.66-44.82-53.47-52.36-24.81-7.54-48.6-11.18-69.01 4.8 7.19-10.79.15-17.97-9.96-26.09s-26.38-7.07-35.36 2.28c-13.11-16.73-44.48-24.96-60.68-11.19 2.61-15.94-6.29-31.33-21-38-14.71-6.67-33-8-42 12-15.56-18.35-41.58-23.32-63.91-14.36s-43.53 28.34-42.09 52.36c-21.72-12.97-39.68-19.69-64.98-19.46s-51.99 15.36-58.14 39.89c-30.06-6.61-63.46 5.98-81.69 30.78-18.22 24.8-20.26 60.44-4.97 87.15-56.92-13.53-118.23 16.63-139.23 80.63-21.93-12.91-55.46-18.44-76.19-3.69s-31.59 42.18-26.58 67.13c-25.1-14.75-62.34.4-70.01 28.49s16.68 60.07 45.79 60.14C10 471.3 8.84 540.95 47 578.18c38.16 37.23 112.18 34.18 150.37-9.89-1.91 57.62 103 93 139.96 47.27 5.83 44.09 130.04 57.73 144.04-25.27 2 20 11.28 42.84 53.15 35.15-.48 14.75 3.96 21.51 11.85 33.85s16.27 21.9 30 27 27.42 3.97 39-5 22.5-18.41 12-30c28.41 31.41 44 41 116 32 42.03-5.25 76.49-51.9 78.61-96.4 17.8 27.55 55.09 40.7 86.23 30.42 31.14-10.29 53.26-43.07 51.15-75.79 6.24 29.41 27.83 56.95 57.24 63.17 29.41 6.23 57.4-16.37 58.76-46.4 7.66 11.85 34.07 24.07 55 25 20.93.93 72.93-23.62 86-40s-.56-36.84-16-51c19.71-3.72 35.74-2.52 53.31-12.2 17.57-9.67 32.51-26.34 34.85-46.26 2.33-19.92-12.48-41.92-35.25-48.14 19.07-5.93 37.03-20.21 43.39-39.13s-3.01-39.74-19.3-51.27c-12.24-8.66-34.85-15.05-47.36-4 7.22-16.88 7.8-27.89 3.44-46.73s-11.02-24.36-29.08-31.27c-18.06-6.9-51.42-6.03-60 13-2.07-19.11-8.92-43.8-20.96-58.79-12.03-14.99-36.72-20.69-46.04-16.21Z" style="stroke-width:0;fill:url(#radial-gradient)"/><path d="M941.79 134.45c4.24-12.56 14.64-23.09 27.15-27.49l-1.33-3.77c-13.64 4.79-24.99 16.28-29.61 29.98-4.62 13.7-2.55 29.72 5.4 41.8l3.34-2.2c-7.29-11.07-9.18-25.76-4.95-38.32Z" class="cls-2"/><path d="m976.62 116.33-1.71-3.62c-10.87 5.12-19.44 14.54-23.5 25.85-4.07 11.31-3.46 24.03 1.66 34.9l3.62-1.7c-4.67-9.92-5.22-21.52-1.51-31.84s11.53-18.91 21.44-23.58Z" class="cls-2"/><path d="M984.95 124.43c-8.46 2.42-15.75 9-19.04 17.16-3.29 8.16-2.6 17.96 1.81 25.57l3.46-2c-3.8-6.57-4.4-15.03-1.56-22.07 2.84-7.04 9.14-12.72 16.44-14.81l-1.1-3.84ZM668.43 142.1c-19.53-10.14-43.36-11.28-63.76-3.04l1.5 3.71c19.33-7.81 41.92-6.73 60.42 2.88s32.37 27.47 37.09 47.78l3.9-.91c-4.99-21.43-19.62-40.28-39.15-50.42Z" class="cls-2"/><path d="m628.06 143.66.09 4c.43 0 .85-.01 1.28-.01 26.79 0 52.24 19.12 59.55 44.93l3.85-1.09c-7.91-27.93-35.71-48.49-64.77-47.83Z" class="cls-2"/><path d="M660.13 163.75c-8.01-6.68-18.56-10.02-28.95-9.17l.32 3.99c9.35-.76 18.85 2.25 26.06 8.26 7.21 6.01 11.88 14.81 12.82 24.15l3.98-.4c-1.04-10.37-6.23-20.15-14.24-26.83ZM553.75 34.71c8.13-8.95 20.21-13.99 32.28-13.47l.17-4c-13.26-.57-26.49 4.96-35.41 14.77-8.92 9.82-13.15 23.53-11.31 36.67l3.96-.55c-1.67-11.98 2.18-24.47 10.31-33.42Z" class="cls-2"/><path d="M588.67 22.91c-10.54 1.03-20.73 6.06-27.97 13.79-7.24 7.73-11.58 18.23-11.91 28.82l4 .12c.3-9.62 4.25-19.18 10.83-26.21 6.58-7.03 15.85-11.6 25.43-12.54l-.39-3.98ZM743.2 75.87c-.35 3.42-2.78 6.43-5.76 7.16l.95 3.89c4.65-1.13 8.27-5.51 8.8-10.64.45-4.37-1.31-9.12-4.72-12.7-2.73-2.88-6.52-5.14-11.26-6.71l-1.26 3.8c4.11 1.36 7.34 3.26 9.62 5.66 2.61 2.75 3.97 6.32 3.64 9.54Z" class="cls-2"/><path d="m733.61 76.52 1.56 3.68a7.24 7.24 0 0 0 3.72-3.65c.73-1.62.81-3.52.24-5.21-1.05-3.08-3.99-4.83-5.93-5.98l-2.05 3.44c1.9 1.13 3.66 2.28 4.19 3.84.25.73.21 1.58-.1 2.28-.31.7-.92 1.3-1.63 1.6ZM865.99 294.74c-15.83-6.43-34.73-4.89-49.31 4.02l2.09 3.41c13.52-8.26 31.04-9.69 45.72-3.73 14.68 5.96 26.24 19.21 30.16 34.56l3.88-.99c-4.23-16.56-16.7-30.84-32.53-37.27Z" class="cls-2"/><path d="m831.55 304.31.98 3.88c15.65-3.97 33.39 4.31 40.39 18.86l3.61-1.73c-7.79-16.2-27.55-25.43-44.98-21.01ZM1001.17 350.67l-1.91-7.74-2.25.55c-27.84-15.99-63.7-16.63-92.05-1.46l1.89 3.53c27.84-14.9 63.23-13.88 90.16 2.58l4.15 2.54ZM999.87 551.68c-5.03-9.92-3.14-22.98 4.49-31.07l-2.91-2.74c-8.75 9.27-10.91 24.26-5.14 35.62 5.23 10.31 16.71 17.12 28.24 17.12 1.18 0 2.37-.07 3.54-.22l-.5-3.97c-11.04 1.38-22.69-4.82-27.72-14.74ZM732.67 561.35c13.02-5.59 28.37-5.17 41.06 1.15s22.29 18.29 25.69 32.05l3.88-.96c-3.68-14.88-14.07-27.85-27.79-34.67-13.73-6.83-30.33-7.29-44.42-1.24-5.97 2.56-13.93 7.4-17.97 15.88-3.89 8.16-2.47 18.13 3.37 23.69l2.76-2.9c-4.63-4.41-5.69-12.43-2.52-19.07 2.73-5.74 8.39-10.68 15.94-13.92Z" class="cls-2"/><path d="m785.62 590.57 3.58-1.79c-8.14-16.24-27.72-25.89-45.56-22.45-6.3 1.21-11.26 3.86-14.36 7.65-4.01 4.91-4.5 12.03-1.13 16.54l3.21-2.39c-2.63-3.52-1.44-8.62 1.02-11.62 3.16-3.86 8.28-5.53 12.02-6.25 16.14-3.11 33.86 5.62 41.22 20.32Z" class="cls-2"/><path d="M754.81 578.43c5.98 1.22 10.97 5.65 15.97 10.46l2.77-2.88c-5.45-5.24-10.92-10.07-17.95-11.5-4.43-.9-9.43.16-13.07 2.78-2.87 2.06-4.66 4.95-5.06 8.14l3.97.49c.32-2.64 2.04-4.38 3.42-5.38 2.72-1.96 6.62-2.78 9.94-2.11Z" class="cls-2"/><path d="M1298.3 355.05c7.59-19.43 2.38-43.09-12.66-57.54-12.51-12.01-31.1-16.96-48-13.48 1.69-3.6 2.76-7.16 3.45-10.19 5.92-26.18-8.55-55.45-32.94-66.65-20.6-9.46-46.36-5.14-63.51 9.42-1.48-19.12-6.14-33.86-14.38-45.78-6.03-8.72-14.67-15.8-24.34-19.93-8.31-3.55-16.73-4.72-24.72-3.46-1.93-29.97-23.56-57.57-53.5-67.16-29.94-9.59-65.16-1.53-89.75 20.52-6.87 6.16-12.52 13.1-16.8 20.45-8.41-18.62-28.32-36.17-46.73-44.48-21.84-9.87-47.11-10.3-67.59-1.46-1.79-7.03-7.18-14.75-14.36-19.74-10.94-7.59-23.94-7.93-36.21-1.14-2.14-2.16-4.41-4.08-6.55-5.77-9.8-7.74-22.11-11.54-34.67-10.7l-.83.06c-5.34.35-11.15.73-16.65 3.7-1.09-11.76-6.75-25.79-19.41-33.04-10.33-5.91-22.17-7.58-32.48-4.57-6.42 1.87-11.79 5.43-15.79 10.4C610.66-1.14 584.5-4.38 558.71 6c-18.98 7.64-30.98 24.11-36.55 50.26-10.48-9.39-23.73-15.35-38.68-17.35-18.57-2.49-35.23 1.41-45.95 5.12-21.72 7.52-37.79 20.59-42.15 33.74-27.75-4.5-45.91 4.54-67.2 21.44l-.4.36c-24.87 24.54-31.52 64.98-17.23 96.58-27.72-5.2-56.92-.53-81.64 13.31-25.96 14.54-45.86 38.57-55.44 66.65-22.76-14.83-54.53-14.67-76.8 1.19-20.65 14.71-31.22 41.54-27.41 66.38-16.22-7.37-36.48-5.67-50.72 5.4-17.84 13.86-23.77 40.48-13.5 60.6 7.3 14.32 22.08 23.92 37.81 26.01-10.09 8.95-18.25 20.81-23.66 34.67-18.63 47.67 4.19 107.5 49.84 130.65 13.92 7.06 29.45 10.39 45.12 10.39 29.07 0 58.57-11.5 78.95-31.99 10.04 26.78 32.62 48.81 59.89 57.62 9.17 2.96 18.79 4.4 28.42 4.4 20.02 0 40.08-6.22 56.35-17.86.88 3.03 2.12 5.96 3.74 8.7 9.1 15.37 28.35 24.54 52.81 25.16 22.56.57 43.87-5.32 59.97-16.58 11.93-8.35 20.99-19.61 26.19-32.09 3.31 7.23 8.45 13.62 14.97 18.22 11.11 7.83 25.75 10.14 38.77 6.43 1.76 16.35 8.54 31.02 19.41 41.8 13.06 12.95 31.52 19.2 48.17 16.31 13.71-2.38 27.33-11.89 31.6-25.04 18.54 18.21 45.36 28.81 73.2 28.8 2.47 0 4.95-.08 7.43-.25 30.7-2.09 61.21-16.46 85.9-40.47 12.64-12.29 20.87-24.42 25.14-37.07 2.24-6.64 3.28-13.44 3.18-20.02 14.94 17.22 37.91 27.35 60.73 27.35 7.85 0 15.67-1.2 23.15-3.71 24.53-8.26 43.48-30.12 50.11-55.01 4.44 11.2 11.21 21.09 19.84 28.69 16.26 14.32 39.3 19.76 58.7 13.86 19.2-5.84 33.9-22.88 36.65-41.71 6.46 7.8 15.04 13.91 24.03 17.28 8.13 3.04 17.04 4.56 26.87 4.56 11.44 0 24.1-2.06 38.19-6.2 17.98-5.27 30.42-11.37 40.34-19.77 13.14-11.12 20.74-26.57 20.34-41.34-.26-9.44-4.09-18.38-10.06-25.04 16.16-.68 31.16-4.98 43.51-12.65 20.36-12.63 32.97-34.83 32.13-56.56-.67-17.38-10.77-33.54-24.76-42.17 13.56-5.42 24.97-16.34 30.3-30Zm-48.51 23.72-.49 9.96c17.7 2.1 32.71 19.53 33.46 38.86.71 18.19-10.05 36.91-27.41 47.67-15.46 9.59-35.82 13.22-57.33 10.21l-1.53 9.88c11.07 1.89 20.35 13.72 20.69 26.37.32 11.76-5.96 24.26-16.8 33.43-8.81 7.46-20.13 12.95-36.7 17.81-24.03 7.05-43.24 7.66-58.74 1.86-16.51-6.17-32-24.36-28.25-42.97l-9.8-1.98c-2.3 11.39.66 22.4 6.6 31.68l-3.62-.09c-.44 17.48-13.66 34.1-31.44 39.5-16.81 5.11-36.86.32-51.09-12.21-12.61-11.1-20.78-27.78-22.7-46.14a74.72 74.72 0 0 0-.28-3.33l-7.97.69c.07 1.11.16 2.21.28 3.3 1.75 30.14-18.44 60.55-47.12 70.21s-65.56-3.22-81.67-30.07l-1.48.89c-1.2-4.38-2.97-8.51-5.33-12.23-6.62-10.44-17.9-18.53-34.47-24.73-16.06-6-30.27-8.17-43.45-6.63-16.28 1.91-30.8 10.18-38.83 22.13-9.29 13.81-9.22 32.65.16 44.79 5.14 6.65 13.5 11.13 22.38 11.97 8.24.78 15.88-1.54 21.52-6.52l-5.96-6.74c-3.76 3.32-8.98 4.85-14.71 4.31-6.44-.61-12.46-3.79-16.1-8.51-7.08-9.17-7-23.58.18-34.27 6.58-9.79 18.7-16.6 32.41-18.21 11.72-1.38 24.56.62 39.24 6.12 14.67 5.48 24.49 12.39 30.02 21.12 6.45 10.17 7.59 24.25 3.05 37.68-3.81 11.27-11.29 22.23-22.89 33.5-23.16 22.52-51.66 36-80.24 37.94-31.15 2.12-61.67-10.36-79.7-32.57l-8.9-10.97.92 14.09c.86 13.21-12.55 23.8-25.47 26.05-13.83 2.4-29.26-2.9-40.29-13.83-10.57-10.48-16.67-25.33-17.17-41.81l-.21-6.74-6.14 2.77c-11.47 5.18-25.52 3.84-35.8-3.41-9.81-6.92-15.7-18.87-15.34-30.85.05-.64.08-1.28.11-1.92l-8.98-.55c-.05.64-.09 1.29-.11 1.93-1.31 17.13-11.6 34.33-27.19 45.23-14.54 10.17-33.94 15.48-54.59 14.96-30.25-.77-41.75-14.77-45.3-20.75-7.63-12.88-4.2-31.66 7.49-41.01 2.39-1.92 7.15-5.03 12.15-4.36 3.26.44 6.76 3.33 6.57 6.54l8.98.52c.45-7.68-5.99-14.85-14.35-15.98-6.16-.83-12.9 1.39-18.97 6.25-10.07 8.06-15.36 21.08-14.94 33.84-22.1 17.8-53.39 23.7-80.41 14.97-26.22-8.46-47.66-30.44-55.78-56.74 1.53-1.92 3-3.89 4.38-5.94l.45-.66.22-.77c5.81-20.33.53-43.72-13.45-59.58-13.98-15.86-36.52-24.03-57.42-20.82-12.76 1.96-23.38 7.8-29.89 16.42-7.89 10.45-8.69 25.14-1.91 34.92 3.88 5.61 10.5 9.38 17.7 10.08 6.51.64 12.69-1.37 16.97-5.52l-6.96-7.19c-2.97 2.87-6.94 2.96-9.04 2.75-4.25-.42-8.26-2.65-10.46-5.83-4.39-6.34-3.69-16.1 1.67-23.2 4.93-6.53 13.26-11 23.43-12.56 17.61-2.71 36.61 4.18 48.4 17.54 11.61 13.17 16.1 32.5 11.55 49.46-25.86 37.47-81.55 51.79-122.06 31.24-41.26-20.92-61.89-75.01-45.05-118.09 6.98-17.85 19.52-32.44 34.4-40.02l-3.66-9.26c-16.95 4.93-37.27-3.86-45.29-19.58-8.02-15.72-3.21-37.33 10.73-48.16 13.94-10.83 36.06-10.16 49.32 1.5L89.1 371.7l-7.13-18.82c-9-23.75-.19-52.78 20.5-67.51 20.69-14.73 51-13.57 70.5 2.71l5.97 4.98 2.06-7.49c7.82-28.45 27.06-53.03 52.8-67.45 25.74-14.42 56.76-17.98 85.1-9.79l12.85 3.72-7.26-11.23c-18.55-28.69-14.08-69.93 10.14-94.01 21.03-16.66 36.69-24.07 63.61-18.4l5.57 1.17.45-5.67c.84-10.62 16.22-23.45 36.58-30.49 36.64-12.69 64.62-1.06 78.58 14.06a6.625 6.625 0 0 0 6.82 1.87 6.604 6.604 0 0 0 4.65-5.28c4.38-26.42 14.42-41.95 31.6-48.86 24.07-9.69 48.35-5.8 64.94 10.39l4.8 4.69 3.12-5.94c2.78-5.3 7.34-9.01 13.17-10.71 7.6-2.22 16.84-.85 24.71 3.65 12.48 7.14 15.85 24.02 14.2 33.17-.46 2.51.85 5 3.18 6.05 2.34 1.05 5.08.38 6.67-1.64 4.79-6.1 10.18-6.45 17.63-6.94l.85-.06c10.09-.68 19.95 2.37 27.8 8.57 5.07 4.01 11.04 9.45 12.18 16.02.5 2.89-.63 6.46-2.75 8.69-.96 1-2.51 2.15-4.45 1.91l-1.21 9.93c4.74.58 9.33-1.18 12.91-4.95 2.26-2.38 3.9-5.38 4.81-8.57l.82 2.08c2.77-1.1 6.14-.71 8.59.98l2.28-3.29c-3.25-2.25-7.44-2.88-11.21-1.78.12-.66.21-1.33.27-2l.3.64c4.81-2.28 10.91-1.37 14.84 2.21l2.69-2.96c-4.73-4.31-11.88-5.63-17.87-3.44-.04-.39-.09-.78-.16-1.17-.06-.32-.13-.63-.2-.94 2.81-1.42 6.07-2.05 9.19-1.71 3.66.39 7.26 2.11 9.86 4.71l2.83-2.83a20.55 20.55 0 0 0-12.26-5.86c-3.69-.39-7.43.26-10.79 1.82-.49-1.24-1.06-2.43-1.7-3.57 10.58-5.3 18.93-2.36 24.3 1.37 7.62 5.29 11.44 13.82 10.62 17.14a5.54 5.54 0 0 0 2.01 5.73 5.56 5.56 0 0 0 6.08.44c18.7-10.37 43.54-10.83 64.83-1.22 24.91 11.25 42.28 33.86 44.65 48.96-2.83 8.47-3.88 17.16-2.95 25.6 2.68 24.3 23.55 44.44 46.53 44.88 8.11.16 15.29-2.17 20.18-6.55 6.49-5.8 8.36-15.32 4.36-22.13l-8.62 5.07c1.58 2.7.51 7.01-2.4 9.61-4.06 3.63-10.09 4.07-13.33 4-17.82-.34-34.66-16.82-36.78-35.98-1.93-17.52 6.55-36.62 22.68-51.1 21.65-19.43 53.81-26.84 80.02-18.44 27.93 8.95 47.55 35.78 46.66 63.81l-.23 7.2 6.82-2.3c16.68-5.63 35.18 5.08 44.12 18.01 8.7 12.58 12.87 29.17 13.12 52.19l.16 14.86 8.85-11.94c13.28-17.9 39.55-24.64 59.81-15.34 20.26 9.3 32.28 33.61 27.36 55.35-1.21 5.37-3.93 12.81-9.96 17.71-5.16 4.2-12.11 5.45-17.28 3.11-5.09-2.3-8.06-8.8-6.12-13.38l-9.2-3.91c-4.06 9.54 1.18 21.88 11.2 26.4 3.07 1.39 6.42 2.06 9.83 2.06 6.21 0 12.61-2.25 17.88-6.53 1.1-.9 2.11-1.85 3.06-2.83l.91 2.08c15.5-6.79 34.85-3.35 47.06 8.38 12.21 11.72 16.43 30.92 10.27 46.69s-22.28 27.02-39.2 27.36Z" class="cls-2"/><path d="m863.66 158.91 2.99-7.42c-16.08-6.47-34.7-7.13-52.42-1.87-16.65 4.95-31.11 14.71-41.04 27.65-15.38-5.26-33.29-1.45-45.43 9.24-7.04-29.47-28.78-54.81-57.15-65.85-30.87-12.01-67.39-6.25-93.06 14.67l5.05 6.2c23.47-19.14 56.88-24.4 85.1-13.42 28.22 10.98 49.28 37.45 53.64 67.42l1.37 9.38 5.77-7.52c9.95-12.98 29.52-18.08 44.54-11.61l2.99 1.29 1.87-2.67c18.37-26.25 56.05-37.45 85.78-25.49ZM986.49 313.56c-25.31-8.96-53.99-6.85-77.76 5.51-6.21-19.17-21.81-35.22-40.93-41.68-20.78-7.02-45.12-2.51-62 11.49l5.11 6.16c14.8-12.27 36.13-16.22 54.34-10.07 18.21 6.15 32.77 22.23 37.09 40.96l1.23 5.33 4.71-2.79c22.57-13.37 50.81-16.13 75.55-7.37 24.73 8.76 44.95 28.67 54.08 53.26l7.5-2.78c-9.95-26.79-31.97-48.48-58.91-58.02ZM985.35 560.4c-6.65-14.13-5.42-31.7 3.13-44.77l-3.35-2.19c-9.29 14.2-10.63 33.3-3.4 48.66s22.8 26.5 39.66 28.39l.45-3.98c-15.52-1.74-29.84-11.99-36.49-26.12ZM1242.44 399.44c11.57 1.41 21.98 11.11 24.75 23.08 2.65 11.45-1.41 24.53-10.35 33.31-8.37 8.23-20.97 12.79-33.67 12.23l-.18 4c.77.03 1.53.05 2.3.05 13.01 0 25.71-4.93 34.35-13.42 9.91-9.74 14.4-24.29 11.44-37.07-3.14-13.55-14.98-24.54-28.17-26.15l-.48 3.97Z" class="cls-2"/><path d="M1237.01 457.47c12.38-1.54 22.89-12.94 23.42-25.41.53-12.47-8.98-24.71-21.19-27.3l-.83 3.91c10.38 2.2 18.47 12.61 18.02 23.22-.45 10.6-9.38 20.3-19.91 21.61l.49 3.97Z" class="cls-2"/><path d="m1241.82 438.7 1.71 3.62c4.91-2.32 7.99-7.93 7.32-13.32-.67-5.4-5.03-10.07-10.36-11.13l-.77 3.92c3.63.72 6.71 4.02 7.17 7.69.46 3.67-1.72 7.63-5.07 9.21ZM491.4 417.33c-8.5-27.72-23.82-48.14-45.59-60.76-17.15-9.94-55.26-24.06-117.84-6.92-23.18 6.35-63.66 37.67-67.89 62.81l8.88 1.49c3.53-20.98 40.88-50.01 61.4-55.63 59.42-16.27 95.02-3.21 110.95 6.03 21.28 12.34 35.83 33.1 43.23 61.72l1.8 6.97 5.48-4.67c13.13-11.2 31.21-16.79 48.36-14.95l.96-8.95c-17.29-1.85-35.4 2.91-49.71 12.86ZM89.43 308.27c-8.94 18.42-5.82 42.09 7.58 57.57l3.02-2.62c-12.39-14.3-15.27-36.18-7.01-53.2 8.26-17.02 27.23-28.29 46.14-27.41l.19-4c-20.45-.96-40.98 11.24-49.92 29.66Z" class="cls-2"/><path d="M97.56 316.83c-5.41 15.7-.02 34.74 12.83 45.27l2.54-3.09c-11.6-9.51-16.47-26.7-11.59-40.87 4.89-14.18 19.31-24.72 34.31-25.06l-.09-4c-16.61.38-32.59 12.05-38 27.75ZM170.89 536.4c3.92 13.09.16 28.46-9.35 38.27l2.87 2.79c10.65-10.98 14.7-27.54 10.31-42.2-4.39-14.66-16.87-26.27-31.81-29.58l-.87 3.9c13.33 2.96 24.93 13.74 28.84 26.83ZM185.11 558.56l3.92.8c4.06-19.91-3.91-41.75-19.83-54.37l-2.48 3.14c14.77 11.7 22.17 31.97 18.4 50.43ZM437.9 618.97c-10.83 6.71-24.26 11.02-41.06 13.18-5.87.76-12.75 1.35-19.29.04-6.75-1.36-12.26-4.64-15.53-9.25l-3.26 2.31c3.86 5.45 10.25 9.3 18 10.86 3.09.62 6.21.85 9.26.85 3.97 0 7.83-.4 11.33-.85 17.37-2.24 31.33-6.74 42.65-13.75 13.99-8.66 23.88-21.61 27.15-35.51l-3.89-.92c-3.03 12.88-12.27 24.92-25.37 33.03Z" class="cls-2"/><path d="M422.03 619.36c14.85-6.06 27.24-17.16 34.88-31.27l-3.52-1.9c-7.09 13.1-19.07 23.84-32.87 29.47-13.8 5.62-29.87 6.32-44.1 1.92l-1.18 3.82c6.68 2.07 13.61 3.1 20.54 3.1 8.95 0 17.88-1.72 26.26-5.13Z" class="cls-2"/><path d="m438.96 595-2.76-2.9c-11.12 10.6-27.44 15.68-42.61 13.26l-.63 3.95c2.7.43 5.43.64 8.16.64 13.87 0 27.81-5.4 37.84-14.96Z" class="cls-2"/></g></svg>
