<svg xmlns="http://www.w3.org/2000/svg" width="208" height="47" fill="none"><g clip-path="url(#a)"><path fill="#fff" d="M50.836 15.102a15.81 15.81 0 0 0-11.87 5.344l-.007-.007-5.588 5.587-6.44-6.441a15.878 15.878 0 1 0-.328 23.107l-4.94-4.94v-.007l4.946 4.947 17.3-17.3.022.015a8.87 8.87 0 0 1 13.007-.87l4.947-4.947a15.784 15.784 0 0 0-11.049-4.488ZM21.663 37.737v-.022a8.874 8.874 0 1 1 .32-13.173l4.947-4.947-4.947 4.94 6.442 6.441-6.762 6.761Z"/><path fill="#fff" d="M61.907 19.573 42.337 0l-.005 9.773 14.62 14.744A8.872 8.872 0 1 1 44.41 37.058L26.938 19.599l.015-.015a15.855 15.855 0 0 0-20.82-1.111l5.013 5.017a8.866 8.866 0 0 1 10.826 1.029l-.015.015 17.5 17.5a15.878 15.878 0 1 0 22.448-22.457l.002-.004Z"/><path fill="#fff" d="m6.141 18.473 3.783 5.932c.381-.346.796-.652 1.237-.915l-5.02-5.017Z"/><path fill="#000" d="m32.176 37.134 1.2-1.2-4.947-4.956 3.747 6.156Z"/><path fill="#fff" d="m56.89 24.495.05.049c0-.009-.016-.025-.05-.049Z"/><path fill="#000" d="M47.796 15.362s4.308 5.458 5.215 6.983a8.9 8.9 0 0 1 3.88 2.142l-9.095-9.125Z"/><path fill="#fff" d="M75.748 41.336a3.494 3.494 0 0 1-1.911-.467.648.648 0 0 1-.348-.587.515.515 0 0 1 .12-.353.375.375 0 0 1 .293-.136c.181.018.356.078.511.174.206.099.419.182.637.25.239.064.486.093.733.087a1.4 1.4 0 0 0 .712-.152.47.47 0 0 0 .253-.424.408.408 0 0 0-.1-.293.947.947 0 0 0-.369-.2 7.782 7.782 0 0 0-.809-.212 3.11 3.11 0 0 1-1.387-.554 1.234 1.234 0 0 1-.419-.989 1.427 1.427 0 0 1 .283-.864c.2-.267.468-.474.777-.6a2.832 2.832 0 0 1 1.124-.212c.297-.002.593.036.88.112.27.07.526.182.761.331a.657.657 0 0 1 .349.581.558.558 0 0 1-.12.364.364.364 0 0 1-.293.147.588.588 0 0 1-.233-.049 3.132 3.132 0 0 1-.288-.147 4.554 4.554 0 0 0-.543-.245 1.702 1.702 0 0 0-.565-.081 1.094 1.094 0 0 0-.637.163.515.515 0 0 0-.234.446.452.452 0 0 0 .239.412c.293.137.604.233.924.283.392.072.775.19 1.141.348.24.102.447.272.592.489.128.228.19.488.18.749a1.394 1.394 0 0 1-.611 1.185 2.726 2.726 0 0 1-1.637.446l-.005-.002Zm5.771 0a2.923 2.923 0 0 1-1.429-.337 2.331 2.331 0 0 1-.951-.967 3.066 3.066 0 0 1-.337-1.467 3.036 3.036 0 0 1 .337-1.462 2.34 2.34 0 0 1 .951-.962 3.2 3.2 0 0 1 2.858 0 2.3 2.3 0 0 1 .945.962c.23.453.343.955.331 1.462a3.108 3.108 0 0 1-.331 1.467 2.3 2.3 0 0 1-.945.967c-.44.232-.932.348-1.429.337Zm-.011-1.054a1.218 1.218 0 0 0 1.012-.435 2.528 2.528 0 0 0 0-2.559 1.201 1.201 0 0 0-1-.44 1.216 1.216 0 0 0-1.005.44 2.512 2.512 0 0 0-.005 2.559 1.206 1.206 0 0 0 1 .435h-.002Zm6.488-5.684a.989.989 0 0 0-.728.3 1.186 1.186 0 0 0-.228.782v.25h.922c.406 0 .609.17.609.511 0 .34-.203.511-.609.511h-.924v3.706a.599.599 0 0 1-.19.478.717.717 0 0 1-.483.163.738.738 0 0 1-.487-.163.588.588 0 0 1-.2-.478v-3.701h-.543c-.406 0-.609-.17-.609-.511 0-.34.203-.511.609-.511h.543v-.075a2.27 2.27 0 0 1 .538-1.6 2.211 2.211 0 0 1 1.516-.658l.283-.022a.987.987 0 0 1 .614.093.437.437 0 0 1 .18.386c0 .311-.178.485-.533.522l-.28.017Zm3.673 5.706c.362.022.543.185.543.489a.442.442 0 0 1-.212.4 1.012 1.012 0 0 1-.6.112l-.293-.022a1.748 1.748 0 0 1-1.826-1.956v-2.372h-.543a.69.69 0 0 1-.45-.13.537.537 0 0 1 0-.761.69.69 0 0 1 .45-.13h.543v-1a.611.611 0 0 1 .185-.467.7.7 0 0 1 .5-.174.685.685 0 0 1 .489.174.61.61 0 0 1 .185.467v1h.924a.69.69 0 0 1 .45.13.537.537 0 0 1 0 .761.69.69 0 0 1-.45.13h-.924v2.467c0 .533.246.82.739.859l.29.023Zm8.521-4.076a.603.603 0 0 1 .223-.293.567.567 0 0 1 .32-.1c.166 0 .325.06.45.169a.531.531 0 0 1 .2.418.554.554 0 0 1-.054.25l-1.791 4.207a.652.652 0 0 1-.266.315.75.75 0 0 1-.4.109.73.73 0 0 1-.386-.109.652.652 0 0 1-.266-.315l-1.292-3.109-1.25 3.108a.652.652 0 0 1-.266.315.75.75 0 0 1-.4.109.76.76 0 0 1-.391-.109.645.645 0 0 1-.272-.315l-1.778-4.208a.69.69 0 0 1-.054-.239.541.541 0 0 1 .217-.429.735.735 0 0 1 .478-.18.589.589 0 0 1 .565.393l1.282 3.315 1.315-3.282a.653.653 0 0 1 1.217 0l1.326 3.293 1.273-3.313Zm4.347-.424a2.217 2.217 0 0 1 1.647.549c.392.463.586 1.063.538 1.668v2.649a.61.61 0 0 1-.174.464.663.663 0 0 1-.478.168.64.64 0 0 1-.462-.174.609.609 0 0 1-.179-.456v-.239a1.419 1.419 0 0 1-.581.661 1.742 1.742 0 0 1-.919.239 2.132 2.132 0 0 1-.967-.217 1.719 1.719 0 0 1-.685-.6 1.512 1.512 0 0 1-.25-.848 1.341 1.341 0 0 1 .3-.924 1.8 1.8 0 0 1 .974-.489 8.857 8.857 0 0 1 1.858-.152h.272v-.25a1.114 1.114 0 0 0-.228-.777.976.976 0 0 0-.739-.244c-.217 0-.433.032-.641.092-.217.062-.475.15-.772.266a1.087 1.087 0 0 1-.412.141.413.413 0 0 1-.32-.141.539.539 0 0 1-.125-.369.555.555 0 0 1 .093-.321.872.872 0 0 1 .31-.255c.286-.15.592-.26.908-.326a4.683 4.683 0 0 1 1.034-.118l-.002.003Zm-.337 4.554a1.16 1.16 0 0 0 .886-.364c.234-.256.357-.594.343-.94v-.228h-.2a7.498 7.498 0 0 0-1.13.065 1.1 1.1 0 0 0-.576.228.58.58 0 0 0-.174.446.742.742 0 0 0 .244.57c.164.149.379.23.6.224l.007-.001Zm6.868-4.532a.583.583 0 0 1 .446.12.526.526 0 0 1 .163.424.587.587 0 0 1-.141.435.867.867 0 0 1-.511.185l-.326.033a1.317 1.317 0 0 0-.94.435c-.205.263-.312.59-.3.924v2.282a.599.599 0 0 1-.2.483.723.723 0 0 1-.489.168.7.7 0 0 1-.483-.168.617.617 0 0 1-.19-.483v-4.207a.586.586 0 0 1 .19-.467.7.7 0 0 1 .473-.163c.167-.007.33.05.456.158a.573.573 0 0 1 .174.45v.435c.125-.303.339-.561.614-.739.272-.174.585-.275.907-.293l.157-.012Zm5.291 3.967a.365.365 0 0 1 .3.141c.08.11.12.244.112.38a.659.659 0 0 1-.4.565 3.621 3.621 0 0 1-.837.332c-.29.08-.59.122-.891.125a2.768 2.768 0 0 1-2.032-.74 2.705 2.705 0 0 1-.75-2.021c-.01-.5.102-.997.326-1.445.205-.408.524-.747.918-.978a2.6 2.6 0 0 1 1.342-.348c.438-.01.87.098 1.25.315.355.211.641.52.824.891.205.423.306.89.295 1.36 0 .311-.137.467-.412.467h-3.206c.007.405.157.795.425 1.1a1.429 1.429 0 0 0 1.043.353c.208.004.415-.026.614-.087.204-.069.404-.149.6-.239.147-.091.311-.15.482-.171h-.003Zm-1.88-3.032a1.165 1.165 0 0 0-.886.348 1.641 1.641 0 0 0-.4 1h2.456a1.552 1.552 0 0 0-.326-1.005 1.077 1.077 0 0 0-.846-.343h.002Zm9.5-.956c1.246 0 1.869.728 1.869 2.184v2.673a.629.629 0 0 1-.178.478.683.683 0 0 1-.494.174.7.7 0 0 1-.5-.174.625.625 0 0 1-.183-.478v-2.673a1.26 1.26 0 0 0-.234-.842.928.928 0 0 0-.734-.266 1.238 1.238 0 0 0-.94.369 1.378 1.378 0 0 0-.353.989v2.423a.62.62 0 0 1-.186.478.7.7 0 0 1-.5.174.676.676 0 0 1-.494-.174.63.63 0 0 1-.179-.478v-6.5a.59.59 0 0 1 .19-.456.7.7 0 0 1 .494-.174.712.712 0 0 1 .487.163.563.563 0 0 1 .185.446v2.529c.176-.279.427-.503.723-.647.321-.153.673-.23 1.029-.223l-.002.005Zm5.674 5.532a2.923 2.923 0 0 1-1.429-.337 2.329 2.329 0 0 1-.951-.967 3.075 3.075 0 0 1-.337-1.467 3.032 3.032 0 0 1 .337-1.462c.215-.407.546-.742.951-.962a3.198 3.198 0 0 1 2.859 0c.404.22.733.554.945.962.23.453.344.955.332 1.462a3.11 3.11 0 0 1-.332 1.467c-.211.41-.54.747-.945.967-.44.232-.932.348-1.429.337h-.001Zm-.011-1.054a1.218 1.218 0 0 0 1.012-.435 2.525 2.525 0 0 0 0-2.559 1.2 1.2 0 0 0-1-.44 1.217 1.217 0 0 0-1.005.44 2.514 2.514 0 0 0-.005 2.559 1.205 1.205 0 0 0 1 .435h-.002Zm8.031-4.456a.7.7 0 0 1 .5.174.616.616 0 0 1 .185.467v4.217a.59.59 0 0 1-.19.456.7.7 0 0 1-.495.174.655.655 0 0 1-.467-.163.58.58 0 0 1-.174-.446v-.272a1.73 1.73 0 0 1-.675.669c-.293.158-.623.24-.956.234-1.304 0-1.956-.733-1.956-2.2V36.47a.61.61 0 0 1 .185-.467.684.684 0 0 1 .489-.174.7.7 0 0 1 .5.174.616.616 0 0 1 .185.467v2.683a1.28 1.28 0 0 0 .228.837.876.876 0 0 0 .717.272 1.17 1.17 0 0 0 .908-.375c.238-.275.36-.63.343-.994V36.47a.61.61 0 0 1 .185-.467.684.684 0 0 1 .489-.174l-.001-.002Zm4.02 5.51a3.492 3.492 0 0 1-1.911-.467.652.652 0 0 1-.348-.587.516.516 0 0 1 .12-.353.376.376 0 0 1 .293-.136 1.2 1.2 0 0 1 .511.174c.206.098.419.182.637.25.239.064.486.093.733.087a1.4 1.4 0 0 0 .712-.152.476.476 0 0 0 .254-.424.413.413 0 0 0-.1-.293.946.946 0 0 0-.369-.2 7.822 7.822 0 0 0-.809-.212 3.11 3.11 0 0 1-1.387-.554 1.225 1.225 0 0 1-.418-.989 1.43 1.43 0 0 1 .283-.864c.2-.267.468-.474.777-.6a2.831 2.831 0 0 1 1.124-.212c.297-.002.593.036.88.112.269.07.526.182.761.331a.656.656 0 0 1 .347.581.558.558 0 0 1-.12.364.363.363 0 0 1-.293.147.59.59 0 0 1-.233-.049 3.144 3.144 0 0 1-.288-.147 4.532 4.532 0 0 0-.543-.245 1.699 1.699 0 0 0-.565-.081 1.094 1.094 0 0 0-.637.163.521.521 0 0 0-.171.684.452.452 0 0 0 .178.172c.293.137.604.233.923.283.392.073.775.19 1.141.348.241.101.448.271.593.489.128.228.19.488.179.749a1.397 1.397 0 0 1-.614 1.185 2.726 2.726 0 0 1-1.637.446h-.003Zm7.554-1.543a.365.365 0 0 1 .3.141c.08.11.12.244.112.38a.659.659 0 0 1-.4.565 3.621 3.621 0 0 1-.837.332c-.29.08-.59.122-.891.125a2.768 2.768 0 0 1-2.032-.74 2.719 2.719 0 0 1-.749-2.021c-.01-.5.102-.997.326-1.445.205-.408.524-.747.918-.978a2.6 2.6 0 0 1 1.342-.348c.438-.01.87.098 1.25.315.355.211.641.52.824.891.204.423.303.89.291 1.359 0 .311-.137.467-.412.467h-3.206c.006.405.157.795.424 1.1a1.429 1.429 0 0 0 1.043.353c.208.004.415-.026.614-.087.204-.069.404-.149.6-.239a1.2 1.2 0 0 1 .478-.174l.005.004Zm-1.88-3.032a1.165 1.165 0 0 0-.886.348 1.641 1.641 0 0 0-.4 1h2.456a1.552 1.552 0 0 0-.326-1.005 1.07 1.07 0 0 0-.848-.343h.004Zm12.856 3.63a.512.512 0 0 1 .011.777.557.557 0 0 1-.4.168.571.571 0 0 1-.4-.162l-.9-.869a3.664 3.664 0 0 1-1.141.765 3.47 3.47 0 0 1-2.657 0 2.146 2.146 0 0 1-.924-.739 1.884 1.884 0 0 1-.331-1.1c-.005-.445.136-.88.4-1.237a3.875 3.875 0 0 1 1.233-1.023 3.352 3.352 0 0 1-.614-.824c-.132-.26-.2-.546-.2-.837a1.628 1.628 0 0 1 .581-1.315c.43-.34.968-.514 1.516-.489.502-.027.996.134 1.387.45a1.523 1.523 0 0 1 .516 1.212c.004.378-.116.747-.343 1.049a3.743 3.743 0 0 1-1.07.908l1.521 1.489a4.69 4.69 0 0 0 .391-1.521.619.619 0 0 1 .207-.418.59.59 0 0 1 .609-.105.531.531 0 0 1 .182.126.532.532 0 0 1 .13.45 5.303 5.303 0 0 1-.7 2.262l.996.983Zm-3.825-5.945a.886.886 0 0 0-.637.233.826.826 0 0 0-.245.625c0 .182.051.36.147.516.144.218.312.419.5.6.292-.152.558-.35.787-.587a.908.908 0 0 0 .234-.609.768.768 0 0 0-.212-.565.764.764 0 0 0-.569-.217l-.005.004Zm-.25 5.836c.296 0 .589-.063.859-.185.284-.13.542-.31.761-.533l-1.924-1.869a2.481 2.481 0 0 0-.8.679 1.369 1.369 0 0 0-.245.8 1 1 0 0 0 .364.81 1.5 1.5 0 0 0 .983.3l.002-.002Zm10.259-4.477a2.217 2.217 0 0 1 1.647.549c.392.463.586 1.063.538 1.668v2.647a.61.61 0 0 1-.174.464.663.663 0 0 1-.478.168.64.64 0 0 1-.462-.174.609.609 0 0 1-.179-.456v-.239a1.419 1.419 0 0 1-.581.661 1.742 1.742 0 0 1-.919.239 2.132 2.132 0 0 1-.967-.217 1.72 1.72 0 0 1-.685-.6 1.515 1.515 0 0 1-.25-.844 1.34 1.34 0 0 1 .3-.924 1.8 1.8 0 0 1 .974-.489 8.857 8.857 0 0 1 1.855-.154h.272v-.25a1.114 1.114 0 0 0-.228-.777.976.976 0 0 0-.739-.244c-.217 0-.433.032-.641.092-.217.062-.475.15-.772.266a1.087 1.087 0 0 1-.412.141.413.413 0 0 1-.32-.141.539.539 0 0 1-.125-.369.554.554 0 0 1 .092-.321.872.872 0 0 1 .31-.255c.286-.15.592-.26.908-.326a4.675 4.675 0 0 1 1.034-.116l.002.001Zm-.337 4.554a1.16 1.16 0 0 0 .886-.364c.234-.256.357-.594.343-.94v-.228h-.2a7.498 7.498 0 0 0-1.13.065 1.1 1.1 0 0 0-.576.228.58.58 0 0 0-.174.446.742.742 0 0 0 .244.57.863.863 0 0 0 .6.223h.007Zm6.258.978c-.488.01-.97-.105-1.4-.337a2.299 2.299 0 0 1-.929-.956 3.331 3.331 0 0 1 .017-2.907 2.42 2.42 0 0 1 .963-.983 2.857 2.857 0 0 1 1.424-.348c.288.001.575.041.853.12.267.071.521.18.756.326a.678.678 0 0 1 .348.576.611.611 0 0 1-.112.386.359.359 0 0 1-.3.147.649.649 0 0 1-.25-.054 2.171 2.171 0 0 1-.262-.13 2.915 2.915 0 0 0-.456-.223 1.417 1.417 0 0 0-.5-.081 1.27 1.27 0 0 0-1.038.44 2.365 2.365 0 0 0 0 2.522 1.276 1.276 0 0 0 1.038.44c.165.001.328-.028.482-.086.162-.064.32-.139.473-.223.091-.056.185-.105.283-.147a.626.626 0 0 1 .244-.05.362.362 0 0 1 .293.152c.082.11.124.243.12.38a.608.608 0 0 1-.081.32.733.733 0 0 1-.266.245 2.85 2.85 0 0 1-.783.343 3.363 3.363 0 0 1-.913.124l-.004.004Zm5.251-5.532a2.217 2.217 0 0 1 1.647.549c.392.463.586 1.063.538 1.668v2.647a.61.61 0 0 1-.174.464.663.663 0 0 1-.478.168.64.64 0 0 1-.462-.174.609.609 0 0 1-.179-.456v-.239a1.419 1.419 0 0 1-.581.661 1.744 1.744 0 0 1-.918.239 2.132 2.132 0 0 1-.967-.217 1.719 1.719 0 0 1-.685-.6 1.515 1.515 0 0 1-.25-.844 1.341 1.341 0 0 1 .3-.924 1.8 1.8 0 0 1 .974-.489 8.857 8.857 0 0 1 1.858-.152h.272v-.25a1.114 1.114 0 0 0-.228-.777.976.976 0 0 0-.739-.244c-.217 0-.433.032-.641.092-.217.062-.475.15-.772.266a1.087 1.087 0 0 1-.412.141.413.413 0 0 1-.32-.141.535.535 0 0 1-.127-.371.555.555 0 0 1 .093-.321.872.872 0 0 1 .31-.255c.286-.15.592-.26.908-.326a4.685 4.685 0 0 1 1.031-.116l.002.001Zm-.337 4.554a1.16 1.16 0 0 0 .886-.364c.233-.256.356-.594.342-.94v-.228h-.2a7.505 7.505 0 0 0-1.13.065 1.1 1.1 0 0 0-.576.228.583.583 0 0 0-.173.446.742.742 0 0 0 .244.57.863.863 0 0 0 .6.223h.007Zm8.336-6.825a.724.724 0 0 1 .5.174.575.575 0 0 1 .2.456v6.5a.61.61 0 0 1-.185.467.775.775 0 0 1-.978 0 .616.616 0 0 1-.185-.467v-.272c-.156.296-.396.54-.69.7-.315.17-.669.256-1.027.25a2.2 2.2 0 0 1-1.222-.349 2.31 2.31 0 0 1-.837-.984 3.394 3.394 0 0 1-.3-1.462 3.288 3.288 0 0 1 .3-1.445 2.189 2.189 0 0 1 2.059-1.294c.355-.007.707.075 1.022.239.29.152.528.387.685.675v-2.582a.577.577 0 0 1 .179-.44.677.677 0 0 1 .483-.167l-.004.001Zm-2.016 6.747a1.208 1.208 0 0 0 1.005-.446c.258-.371.382-.82.353-1.271.03-.45-.095-.896-.353-1.266a1.196 1.196 0 0 0-.995-.44 1.238 1.238 0 0 0-1.012.435 1.913 1.913 0 0 0-.359 1.25c-.028.456.099.907.359 1.282a1.199 1.199 0 0 0 1 .457l.002-.001Zm8.314-.489a.365.365 0 0 1 .3.141c.08.11.12.244.112.38a.659.659 0 0 1-.4.565 3.621 3.621 0 0 1-.837.332c-.29.08-.59.122-.891.125a2.77 2.77 0 0 1-2.031-.739 2.719 2.719 0 0 1-.749-2.021c-.01-.5.102-.997.326-1.445.206-.408.525-.747.919-.978a2.599 2.599 0 0 1 1.337-.348c.438-.01.87.098 1.25.315.355.211.641.52.824.891.206.423.308.889.298 1.359 0 .311-.137.467-.412.467h-3.206c.006.405.157.795.424 1.1a1.429 1.429 0 0 0 1.043.353c.208.004.415-.026.614-.087.204-.069.404-.149.6-.239a1.2 1.2 0 0 1 .479-.174v.003Zm-1.88-3.032a1.165 1.165 0 0 0-.886.348 1.641 1.641 0 0 0-.4 1h2.456a1.552 1.552 0 0 0-.326-1.005 1.07 1.07 0 0 0-.848-.343h.004Zm9.759-.956a1.696 1.696 0 0 1 1.331.516c.35.482.514 1.075.462 1.668v2.673a.604.604 0 0 1-.19.483.718.718 0 0 1-.495.168.7.7 0 0 1-.483-.168.617.617 0 0 1-.19-.483v-2.673c.027-.3-.048-.6-.212-.853a.791.791 0 0 0-.646-.255 1.066 1.066 0 0 0-.848.364 1.47 1.47 0 0 0-.315.994v2.423a.604.604 0 0 1-.19.483.7.7 0 0 1-.483.168.723.723 0 0 1-.487-.168.599.599 0 0 1-.2-.483v-2.673c.027-.3-.048-.6-.212-.853a.791.791 0 0 0-.646-.255 1.048 1.048 0 0 0-.842.364c-.22.283-.33.636-.31.994v2.423a.599.599 0 0 1-.2.483.722.722 0 0 1-.491.168.7.7 0 0 1-.483-.168.617.617 0 0 1-.19-.483v-4.205a.566.566 0 0 1 .2-.467.739.739 0 0 1 .489-.163.676.676 0 0 1 .462.158.57.57 0 0 1 .18.45v.262c.156-.28.387-.51.668-.663.296-.156.627-.235.962-.228a1.559 1.559 0 0 1 1.6 1c.161-.305.406-.558.706-.728a2.06 2.06 0 0 1 1.054-.272l-.001-.001Zm6.879.412a.592.592 0 0 1 .554-.381c.166 0 .325.06.45.169a.531.531 0 0 1 .2.418.56.56 0 0 1-.065.25l-2.961 6.217a.607.607 0 0 1-.575.369.67.67 0 0 1-.44-.158.49.49 0 0 1-.19-.4.693.693 0 0 1 .065-.272l.739-1.554-2.022-4.205a.554.554 0 0 1 .158-.674.74.74 0 0 1 .483-.174.636.636 0 0 1 .337.093c.108.069.191.17.239.288l1.521 3.358 1.507-3.344ZM80.467 28.691a6.8 6.8 0 0 1-3.373-.813 5.544 5.544 0 0 1-2.243-2.308 8.03 8.03 0 0 1 .041-7.019 5.837 5.837 0 0 1 2.322-2.374 6.901 6.901 0 0 1 3.436-.839c.697.002 1.39.1 2.061.289a6.791 6.791 0 0 1 1.823.787 1.625 1.625 0 0 1 .84 1.39c.016.334-.082.664-.278.935a.87.87 0 0 1-.72.354 1.568 1.568 0 0 1-.6-.131 5.296 5.296 0 0 1-.63-.315c-.351-.21-.72-.39-1.1-.538a3.424 3.424 0 0 0-1.208-.2 3.067 3.067 0 0 0-2.505 1.062 4.682 4.682 0 0 0-.879 3.056 4.635 4.635 0 0 0 .88 3.03 3.069 3.069 0 0 0 2.504 1.061c.398.006.794-.062 1.167-.2a9.9 9.9 0 0 0 1.141-.538c.218-.135.446-.253.682-.354.183-.077.379-.117.577-.118a.872.872 0 0 1 .708.367c.199.264.3.588.29.918.005.271-.064.54-.2.774-.163.247-.384.45-.644.59a6.898 6.898 0 0 1-1.89.826 8.118 8.118 0 0 1-2.202.308Zm12.96 0a7.057 7.057 0 0 1-3.45-.813 5.628 5.628 0 0 1-2.3-2.335 7.401 7.401 0 0 1-.814-3.541 7.326 7.326 0 0 1 .813-3.528 5.647 5.647 0 0 1 2.3-2.323 7.72 7.72 0 0 1 6.9 0 5.564 5.564 0 0 1 2.282 2.323 7.422 7.422 0 0 1 .8 3.528 7.5 7.5 0 0 1-.8 3.541 5.545 5.545 0 0 1-2.282 2.335c-1.062.56-2.25.84-3.45.813Zm-.027-2.545a2.939 2.939 0 0 0 2.44-1.049 4.875 4.875 0 0 0 .84-3.1 4.884 4.884 0 0 0-.84-3.082 2.9 2.9 0 0 0-2.413-1.062 2.932 2.932 0 0 0-2.426 1.062 4.83 4.83 0 0 0-.853 3.082 4.875 4.875 0 0 0 .84 3.1 2.91 2.91 0 0 0 2.412 1.049Zm19.963-16.29c.441-.017.872.133 1.207.42a1.408 1.408 0 0 1 .472 1.1v15.693a1.47 1.47 0 0 1-.444 1.128 1.868 1.868 0 0 1-2.361 0 1.478 1.478 0 0 1-.447-1.128v-.66a4.104 4.104 0 0 1-1.668 1.679 5.028 5.028 0 0 1-2.479.6 5.316 5.316 0 0 1-2.951-.839 5.567 5.567 0 0 1-2.02-2.374 8.197 8.197 0 0 1-.721-3.528 7.948 7.948 0 0 1 .721-3.489 5.304 5.304 0 0 1 4.971-3.122 5.136 5.136 0 0 1 2.466.577c.7.367 1.275.933 1.653 1.626v-6.214a1.393 1.393 0 0 1 .433-1.062c.321-.283.74-.43 1.167-.407h.001Zm-4.853 16.29a2.916 2.916 0 0 0 2.427-1.077A4.837 4.837 0 0 0 111.79 22a4.78 4.78 0 0 0-.853-3.056 2.897 2.897 0 0 0-2.4-1.062 2.986 2.986 0 0 0-2.44 1.049 4.633 4.633 0 0 0-.866 3.017 4.9 4.9 0 0 0 .866 3.1 2.901 2.901 0 0 0 2.413 1.1v-.002Zm20.068-1.18a.88.88 0 0 1 .721.341c.195.265.293.59.275.918a1.595 1.595 0 0 1-.971 1.364 8.756 8.756 0 0 1-2.02.8 8.328 8.328 0 0 1-2.151.3 6.686 6.686 0 0 1-4.905-1.784 6.54 6.54 0 0 1-1.81-4.879 7.496 7.496 0 0 1 .787-3.489 5.721 5.721 0 0 1 2.217-2.361 6.277 6.277 0 0 1 3.24-.839 5.814 5.814 0 0 1 3.017.761 5.154 5.154 0 0 1 1.994 2.151 7.138 7.138 0 0 1 .708 3.279c0 .752-.333 1.128-1 1.128h-7.738a4.127 4.127 0 0 0 1.023 2.663 3.443 3.443 0 0 0 2.518.853 4.773 4.773 0 0 0 1.482-.21c.495-.166.981-.359 1.456-.577a2.9 2.9 0 0 1 1.154-.42l.003.001Zm-4.541-7.319a2.813 2.813 0 0 0-2.136.839 3.962 3.962 0 0 0-.957 2.413h5.928a3.737 3.737 0 0 0-.787-2.426 2.601 2.601 0 0 0-2.048-.826Zm23.56-2.308a4.088 4.088 0 0 1 3.213 1.246 5.947 5.947 0 0 1 1.111 4.027v6.457a1.477 1.477 0 0 1-.457 1.167c-.333.28-.759.426-1.194.407a1.7 1.7 0 0 1-1.167-.407 1.477 1.477 0 0 1-.459-1.167v-6.458a3.248 3.248 0 0 0-.512-2.061 1.912 1.912 0 0 0-1.561-.616 2.567 2.567 0 0 0-2.046.879 3.541 3.541 0 0 0-.761 2.4v5.856a1.478 1.478 0 0 1-.459 1.167 1.7 1.7 0 0 1-1.167.407c-.43.014-.85-.13-1.18-.407a1.46 1.46 0 0 1-.472-1.167v-6.458a3.248 3.248 0 0 0-.512-2.061 1.912 1.912 0 0 0-1.561-.616 2.534 2.534 0 0 0-2.033.879 3.587 3.587 0 0 0-.748 2.4v5.856a1.46 1.46 0 0 1-.472 1.167c-.33.276-.75.421-1.18.407a1.7 1.7 0 0 1-1.167-.407 1.477 1.477 0 0 1-.459-1.167V16.913a1.38 1.38 0 0 1 .472-1.128 1.781 1.781 0 0 1 1.18-.394c.406-.017.804.118 1.115.38a1.376 1.376 0 0 1 .433 1.089v.63a4.116 4.116 0 0 1 1.613-1.6 4.772 4.772 0 0 1 2.322-.551 3.761 3.761 0 0 1 3.856 2.413 4.341 4.341 0 0 1 1.705-1.758 4.969 4.969 0 0 1 2.545-.656l.002.001Zm13.221 0a5.34 5.34 0 0 1 3.972 1.325 5.548 5.548 0 0 1 1.3 4.027v6.4a1.47 1.47 0 0 1-.42 1.115 1.59 1.59 0 0 1-1.154.407 1.536 1.536 0 0 1-1.113-.42 1.461 1.461 0 0 1-.433-1.1v-.577a3.421 3.421 0 0 1-1.4 1.6 4.209 4.209 0 0 1-2.217.577 5.145 5.145 0 0 1-2.335-.525 4.158 4.158 0 0 1-1.653-1.443 3.652 3.652 0 0 1-.6-2.046 3.243 3.243 0 0 1 .721-2.23 4.335 4.335 0 0 1 2.348-1.18 21.384 21.384 0 0 1 4.486-.367h.656v-.6a2.683 2.683 0 0 0-.551-1.876 2.339 2.339 0 0 0-1.784-.59 5.657 5.657 0 0 0-1.548.223c-.525.15-1.145.364-1.862.643-.307.18-.647.296-1 .341a.984.984 0 0 1-.774-.341 1.299 1.299 0 0 1-.3-.892 1.346 1.346 0 0 1 .223-.774 2.12 2.12 0 0 1 .749-.616 8.56 8.56 0 0 1 2.19-.787c.82-.19 1.659-.286 2.5-.289l-.001-.005Zm-.815 10.991a2.8 2.8 0 0 0 2.138-.879 3.182 3.182 0 0 0 .824-2.269v-.551h-.472a18.096 18.096 0 0 0-2.728.157 2.649 2.649 0 0 0-1.39.551 1.401 1.401 0 0 0-.42 1.076 1.79 1.79 0 0 0 .592 1.377c.398.36.919.553 1.455.538h.001Zm14.06 2.361a8.435 8.435 0 0 1-4.617-1.128 1.562 1.562 0 0 1-.839-1.417c-.014-.31.09-.615.289-.853a.91.91 0 0 1 .708-.328c.438.045.859.188 1.233.42.497.237 1.01.437 1.536.6a6.25 6.25 0 0 0 1.771.21 3.367 3.367 0 0 0 1.718-.367 1.142 1.142 0 0 0 .616-1.023.985.985 0 0 0-.249-.708 2.287 2.287 0 0 0-.892-.487 18.806 18.806 0 0 0-1.954-.512 7.508 7.508 0 0 1-3.345-1.338 2.981 2.981 0 0 1-1.01-2.387 3.448 3.448 0 0 1 .682-2.085 4.422 4.422 0 0 1 1.874-1.443 6.836 6.836 0 0 1 2.715-.512 8.14 8.14 0 0 1 2.125.275c.65.17 1.269.44 1.836.8a1.58 1.58 0 0 1 .839 1.39c.011.318-.092.63-.289.879a.88.88 0 0 1-.708.354c-.194 0-.386-.04-.564-.118a7.598 7.598 0 0 1-.7-.354 10.99 10.99 0 0 0-1.312-.59 4.09 4.09 0 0 0-1.364-.2 2.642 2.642 0 0 0-1.536.393 1.239 1.239 0 0 0-.562 1.076 1.09 1.09 0 0 0 .577 1 8.259 8.259 0 0 0 2.23.682c.947.175 1.87.457 2.753.841a3.226 3.226 0 0 1 1.43 1.18c.309.552.459 1.178.433 1.81a3.36 3.36 0 0 1-1.482 2.859 6.57 6.57 0 0 1-3.946 1.075l.004.006Zm19.492-2.754a1.523 1.523 0 0 1 .525 1.132c0 .402-.156.787-.435 1.076a1.332 1.332 0 0 1-1.01.472 1.54 1.54 0 0 1-1.076-.472l-6.136-5.561v4.485a1.408 1.408 0 0 1-.472 1.154 1.78 1.78 0 0 1-1.18.394 1.73 1.73 0 0 1-1.169-.394 1.43 1.43 0 0 1-.46-1.154V11.404a1.439 1.439 0 0 1 .459-1.154 1.73 1.73 0 0 1 1.167-.393c.428-.015.847.125 1.18.393a1.414 1.414 0 0 1 .472 1.154v9.865l5.617-5.38a1.485 1.485 0 0 1 1.076-.472 1.486 1.486 0 0 1 1 2.6l-4.118 3.83 4.56 4.09Z"/></g><defs><clipPath id="a"><path fill="#fff" d="M0 0h207.842v46.863H0z"/></clipPath></defs></svg>