<svg xmlns="http://www.w3.org/2000/svg" width="256" height="58" fill="none"><path fill="#000" d="M76.567 24.532a8.035 8.035 0 0 0-.449-.448L52.058 0v12.024l6.832 6.903a19.396 19.396 0 0 0-10.974 6.23l-6.867 6.868-.744-.743-7.162-7.163h.011a19.435 19.435 0 0 0-15.74-5.404h-.072a8.3 8.3 0 0 0-.755.106c-.07 0-.13.024-.2.024-.166.023-.319.059-.484.094a19.44 19.44 0 0 0-10.396 5.593c-7.505 7.741-7.316 20.107.425 27.612 7.422 7.198 19.163 7.364 26.786.378l-6.077-6.077 6.089 6.077 8.307-8.307 7.493 7.493c7.505 7.752 19.86 7.953 27.612.448 7.752-7.505 7.953-19.86.448-27.612l-.023-.012Zm-49.938 21.89v-.024c-4.567 3.93-11.458 3.41-15.387-1.169-3.906-4.542-3.41-11.386 1.097-15.328.106-.082.2-.165.307-.26.118-.106.248-.2.378-.294.224-.166.448-.319.696-.46.26-.166.519-.32.779-.46 0 0 .023 0 .035-.013.26-.13.507-.247.779-.365a.42.42 0 0 0 .106-.048c.236-.094.484-.188.732-.271.07-.024.141-.035.2-.059.224-.07.437-.13.661-.189l.354-.07.531-.107c.625-.094 1.25-.13 1.888-.118h.07c.296 0 .603.024.898.06.035 0 .07 0 .106.011.283.035.566.083.85.142.035 0 .07.011.106.023.283.06.566.13.85.213a.22.22 0 0 1 .082.023c.295.095.59.189.873.307h.024a10.736 10.736 0 0 1 3.363 2.171l7.941 7.953-8.307 8.308-.012.023Zm43.86-.838c-4.13 4.39-11.032 4.59-15.422.46 0 0-.012 0-.023-.012-.154-.142-.295-.295-.437-.437l-7.481-7.48 6.867-6.869.024.024c3.788-4.685 10.655-5.428 15.34-1.64.224.177.448.377.66.578l.024-.024c4.378 4.13 4.579 11.034.449 15.423v-.023ZM93.146 50.846a4.292 4.292 0 0 1-2.349-.578.784.784 0 0 1-.424-.72c0-.153.047-.319.141-.437a.484.484 0 0 1 .366-.165c.224.024.437.095.626.213.247.118.519.224.778.306.295.083.602.118.897.107a1.72 1.72 0 0 0 .873-.19.577.577 0 0 0 .307-.518c0-.13-.035-.26-.13-.366a1.09 1.09 0 0 0-.46-.248c-.33-.106-.66-.189-.991-.26a3.8 3.8 0 0 1-1.711-.684 1.505 1.505 0 0 1-.52-1.215c0-.378.119-.756.343-1.062.248-.33.578-.579.956-.732a3.46 3.46 0 0 1 1.38-.26c.366 0 .732.048 1.086.142.33.083.649.224.932.413.26.142.425.413.425.72a.75.75 0 0 1-.142.448.442.442 0 0 1-.365.177.76.76 0 0 1-.284-.059l-.354-.177a5.832 5.832 0 0 0-.672-.307 1.988 1.988 0 0 0-.697-.094 1.375 1.375 0 0 0-.778.2.606.606 0 0 0-.284.543c0 .213.107.413.296.508.365.165.743.283 1.132.342a7.15 7.15 0 0 1 1.404.425c.295.13.555.33.732.602.153.283.236.601.224.92a1.7 1.7 0 0 1-.755 1.451c-.59.39-1.298.59-2.018.543l.036.012Zm7.103 0a3.64 3.64 0 0 1-1.758-.413 2.844 2.844 0 0 1-1.168-1.192 3.826 3.826 0 0 1-.413-1.805 3.78 3.78 0 0 1 .413-1.794c.26-.495.673-.908 1.168-1.18a3.923 3.923 0 0 1 3.516 0c.496.272.897.685 1.169 1.18a3.79 3.79 0 0 1 .413 1.794c.011.625-.13 1.25-.413 1.805-.26.508-.661.92-1.169 1.192a3.637 3.637 0 0 1-1.758.413Zm-.012-1.298c.472.035.944-.165 1.239-.531a3.13 3.13 0 0 0 0-3.15 1.483 1.483 0 0 0-1.227-.543 1.521 1.521 0 0 0-1.239.542 3.078 3.078 0 0 0 0 3.151c.295.366.755.566 1.227.531Zm7.977-6.986c-.342 0-.661.13-.897.378-.2.283-.306.614-.283.968v.306h1.133c.496 0 .743.213.743.626 0 .413-.247.625-.743.625h-1.133v4.555a.742.742 0 0 1-.236.59.836.836 0 0 1-.59.2.95.95 0 0 1-.602-.2.708.708 0 0 1-.236-.59v-4.555h-.672c-.496 0-.744-.212-.744-.625 0-.413.248-.626.744-.626h.672v-.094a2.783 2.783 0 0 1 .661-1.97 2.765 2.765 0 0 1 1.865-.815l.342-.023c.259-.048.519 0 .755.118a.528.528 0 0 1 .224.472c0 .377-.224.601-.661.637l-.354.023h.012Zm4.52 7.021c.448.024.672.225.672.602 0 .2-.094.39-.259.484a1.338 1.338 0 0 1-.744.142l-.366-.024c-1.498-.106-2.242-.909-2.242-2.407v-2.915h-.672a.855.855 0 0 1-.555-.165.656.656 0 0 1 0-.932.855.855 0 0 1 .555-.165h.672v-1.228c0-.212.071-.424.225-.578a.833.833 0 0 1 .613-.212c.224 0 .437.07.602.212a.748.748 0 0 1 .224.578v1.228h1.133a.855.855 0 0 1 .555.165.656.656 0 0 1 0 .932.855.855 0 0 1-.555.165h-1.133v3.033c0 .66.307 1.015.909 1.05l.366.024v.011Zm10.478-5.015a.748.748 0 0 1 .272-.365.657.657 0 0 1 .389-.118c.201 0 .401.07.555.212a.667.667 0 0 1 .247.52.69.69 0 0 1-.07.306l-2.207 5.168a.761.761 0 0 1-.33.39.88.88 0 0 1-.484.13.945.945 0 0 1-.472-.13.819.819 0 0 1-.331-.39l-1.593-3.823-1.534 3.823a.761.761 0 0 1-.33.39.88.88 0 0 1-.484.13c-.165 0-.33-.048-.484-.13a.761.761 0 0 1-.33-.39l-2.195-5.168a1.226 1.226 0 0 1-.071-.295c0-.212.107-.401.272-.531a.917.917 0 0 1 .59-.224c.141 0 .295.035.413.118.13.082.224.212.283.366l1.581 4.07 1.617-4.035a.811.811 0 0 1 1.038-.46.8.8 0 0 1 .46.46l1.629 4.047 1.569-4.082v.011Zm5.346-.519a2.758 2.758 0 0 1 2.029.673c.484.566.72 1.31.661 2.053v3.257a.757.757 0 0 1-.212.566.85.85 0 0 1-.59.213.826.826 0 0 1-.567-.213.785.785 0 0 1-.224-.566v-.295a1.725 1.725 0 0 1-.72.814c-.342.2-.731.307-1.133.295-.413 0-.814-.083-1.191-.271a2.093 2.093 0 0 1-.838-.732 1.905 1.905 0 0 1-.307-1.038 1.635 1.635 0 0 1 .366-1.133c.33-.319.743-.531 1.203-.602.756-.142 1.523-.2 2.29-.189h.33v-.307a1.337 1.337 0 0 0-.283-.955 1.168 1.168 0 0 0-.909-.295c-.271 0-.531.035-.79.118-.272.07-.579.188-.944.33a1.31 1.31 0 0 1-.508.177.486.486 0 0 1-.389-.177.647.647 0 0 1-.154-.46c0-.142.036-.283.118-.39a1.4 1.4 0 0 1 .378-.318 4.248 4.248 0 0 1 1.121-.401 5.78 5.78 0 0 1 1.274-.142l-.011-.012Zm-.413 5.605c.413.012.802-.153 1.085-.448.283-.319.437-.732.425-1.157v-.283h-.236c-.46 0-.932.024-1.392.083a1.29 1.29 0 0 0-.708.283.718.718 0 0 0-.213.543c0 .271.106.519.295.696.201.189.472.283.744.271v.012Zm8.448-5.57a.732.732 0 0 1 .543.142c.142.13.213.33.201.52a.726.726 0 0 1-.177.53 1.014 1.014 0 0 1-.626.225l-.401.035a1.66 1.66 0 0 0-1.156.531 1.783 1.783 0 0 0-.366 1.133v2.808a.727.727 0 0 1-.236.59.916.916 0 0 1-.602.213.907.907 0 0 1-.59-.213.742.742 0 0 1-.236-.59V44.84a.733.733 0 0 1 .236-.578.808.808 0 0 1 .578-.201.91.91 0 0 1 .567.189.689.689 0 0 1 .212.554v.531c.154-.377.413-.684.755-.908.331-.213.72-.342 1.121-.366h.189l-.012.024Zm6.514 4.886c.142 0 .283.059.366.177.094.13.153.295.141.472a.817.817 0 0 1-.495.696 4.809 4.809 0 0 1-1.027.413c-.354.094-.72.153-1.097.153a3.43 3.43 0 0 1-2.502-.908 3.347 3.347 0 0 1-.92-2.49 3.9 3.9 0 0 1 .401-1.782c.248-.495.649-.92 1.133-1.203a3.111 3.111 0 0 1 1.652-.425 2.886 2.886 0 0 1 1.534.39c.436.259.79.636 1.015 1.097a3.74 3.74 0 0 1 .365 1.675c0 .378-.165.578-.507.578h-3.941c0 .496.189.98.519 1.357.354.307.814.472 1.286.437.26 0 .508-.035.755-.106.248-.083.496-.177.744-.295.177-.106.377-.189.59-.213l-.012-.023Zm-2.313-3.729a1.421 1.421 0 0 0-1.085.425 1.976 1.976 0 0 0-.484 1.227h3.021a1.952 1.952 0 0 0-.402-1.239 1.38 1.38 0 0 0-1.038-.425l-.012.012Zm11.682-1.18c1.534 0 2.301.897 2.301 2.69v3.293a.79.79 0 0 1-.224.59.834.834 0 0 1-.614.212.833.833 0 0 1-.613-.212.77.77 0 0 1-.224-.59V46.75a1.564 1.564 0 0 0-.284-1.038 1.153 1.153 0 0 0-.896-.33 1.48 1.48 0 0 0-1.157.46c-.295.33-.46.767-.436 1.215v2.986a.817.817 0 0 1-.225.59.833.833 0 0 1-.613.212.853.853 0 0 1-.614-.212.774.774 0 0 1-.224-.59v-7.989c0-.212.083-.413.236-.566a.886.886 0 0 1 .614-.213c.212 0 .436.06.601.2a.69.69 0 0 1 .225.544v3.115c.212-.342.519-.614.885-.79a2.735 2.735 0 0 1 1.262-.272v-.012Zm6.974 6.809a3.64 3.64 0 0 1-1.758-.413 2.838 2.838 0 0 1-1.168-1.192 3.814 3.814 0 0 1-.413-1.806 3.767 3.767 0 0 1 .413-1.793 2.878 2.878 0 0 1 1.168-1.18 3.923 3.923 0 0 1 3.516 0c.496.271.897.684 1.168 1.18.284.554.425 1.168.413 1.793a3.814 3.814 0 0 1-.413 1.806 2.77 2.77 0 0 1-1.168 1.192 3.64 3.64 0 0 1-1.758.413Zm-.012-1.298c.472.035.944-.166 1.239-.531a3.13 3.13 0 0 0 0-3.151 1.483 1.483 0 0 0-1.227-.543 1.522 1.522 0 0 0-1.239.543 3.079 3.079 0 0 0 0 3.15c.295.366.755.567 1.227.532Zm9.877-5.476a.833.833 0 0 1 .613.213.749.749 0 0 1 .225.578v5.192a.796.796 0 0 1-.236.566.889.889 0 0 1-.614.213.864.864 0 0 1-.578-.2.722.722 0 0 1-.213-.544v-.33a2.208 2.208 0 0 1-.826.826c-.365.2-.767.295-1.18.283-1.604 0-2.407-.897-2.407-2.702v-3.292c0-.213.071-.425.224-.578a.86.86 0 0 1 .602-.213.835.835 0 0 1 .614.213.748.748 0 0 1 .224.578v3.304a1.58 1.58 0 0 0 .283 1.026c.224.236.555.366.885.33.425.013.826-.153 1.121-.46.295-.342.449-.778.425-1.227v-2.985c0-.212.071-.425.224-.578a.807.807 0 0 1 .602-.213h.012Zm4.944 6.774a4.291 4.291 0 0 1-2.348-.579.783.783 0 0 1-.425-.72c0-.153.047-.318.142-.436a.483.483 0 0 1 .365-.165c.225.023.437.094.626.212.248.118.519.224.779.307.295.083.601.118.896.106.307.012.602-.047.874-.189a.578.578 0 0 0 .306-.519c0-.13-.035-.26-.129-.366-.13-.118-.284-.2-.461-.247-.33-.107-.66-.19-.991-.26a3.806 3.806 0 0 1-1.711-.684 1.504 1.504 0 0 1-.519-1.216c0-.377.118-.755.342-1.062.248-.33.578-.578.956-.731a3.464 3.464 0 0 1 1.381-.26c.365 0 .731.047 1.085.142.331.082.649.224.932.413.26.141.425.413.425.72a.753.753 0 0 1-.141.448.444.444 0 0 1-.366.177.754.754 0 0 1-.283-.06l-.354-.176a5.885 5.885 0 0 0-.673-.307 1.986 1.986 0 0 0-.696-.094 1.374 1.374 0 0 0-.779.2.605.605 0 0 0-.283.543c0 .212.106.413.295.507.354.166.743.284 1.133.354.483.095.955.236 1.404.425.295.13.554.33.731.602.154.283.236.602.225.92a1.737 1.737 0 0 1-.756 1.464 3.28 3.28 0 0 1-2.017.542l.035-.011Zm9.287-1.9a.44.44 0 0 1 .365.177.72.72 0 0 1 .142.472.818.818 0 0 1-.496.696 4.78 4.78 0 0 1-1.026.413 4.25 4.25 0 0 1-1.098.153 3.427 3.427 0 0 1-2.501-.908 3.348 3.348 0 0 1-.921-2.49 3.902 3.902 0 0 1 .402-1.782c.247-.495.649-.92 1.132-1.203a3.114 3.114 0 0 1 1.652-.425 2.886 2.886 0 0 1 1.534.39 2.6 2.6 0 0 1 1.015 1.097c.248.519.378 1.097.366 1.675 0 .378-.165.578-.507.578h-3.942c0 .496.189.98.52 1.357.354.307.814.472 1.286.437.259 0 .507-.035.755-.106.248-.083.496-.177.743-.295a1.32 1.32 0 0 1 .59-.213l-.011-.023Zm-2.313-3.729a1.423 1.423 0 0 0-1.086.425 1.976 1.976 0 0 0-.484 1.227h3.021a1.95 1.95 0 0 0-.401-1.239 1.337 1.337 0 0 0-1.038-.425l-.012.012Zm15.812 4.46a.622.622 0 0 1 .082.885l-.07.071a.696.696 0 0 1-.992.012l-1.109-1.074c-.401.401-.885.72-1.404.944a4.243 4.243 0 0 1-3.269 0 2.592 2.592 0 0 1-1.132-.908 2.403 2.403 0 0 1-.413-1.346c0-.542.165-1.085.483-1.522.413-.519.933-.944 1.511-1.262a3.971 3.971 0 0 1-.755-1.015 2.223 2.223 0 0 1-.248-1.027 1.984 1.984 0 0 1 .72-1.616 2.807 2.807 0 0 1 1.864-.602 2.511 2.511 0 0 1 1.711.554c.425.378.661.92.637 1.487 0 .46-.141.92-.425 1.286a4.83 4.83 0 0 1-1.321 1.121l1.876 1.83c.26-.59.425-1.228.484-1.877a.764.764 0 0 1 .259-.519.721.721 0 0 1 .484-.177.661.661 0 0 1 .661.767 6.47 6.47 0 0 1-.861 2.785l1.227 1.203Zm-4.708-7.316a1.114 1.114 0 0 0-.779.284c-.201.2-.319.483-.307.767 0 .224.059.448.177.637.177.271.378.519.614.743a3.82 3.82 0 0 0 .967-.72c.189-.2.283-.472.283-.743a1 1 0 0 0-.259-.696.962.962 0 0 0-.696-.272Zm-.307 7.175c.366 0 .72-.083 1.05-.224.354-.154.661-.378.932-.661l-2.36-2.301c-.377.2-.72.495-.979.838a1.716 1.716 0 0 0-.307.979c-.012.39.153.755.448.991.343.26.779.39 1.204.366l.012.012Zm12.614-5.51a2.762 2.762 0 0 1 2.03.672c.483.566.719 1.31.66 2.053v3.257a.77.77 0 0 1-.212.566.848.848 0 0 1-.59.213.823.823 0 0 1-.566-.213.782.782 0 0 1-.225-.566v-.295a1.723 1.723 0 0 1-.719.814c-.343.2-.732.307-1.133.295-.413 0-.814-.083-1.192-.271a2.106 2.106 0 0 1-.838-.732 1.913 1.913 0 0 1-.307-1.038 1.644 1.644 0 0 1 .366-1.133 2.214 2.214 0 0 1 1.204-.602 10.6 10.6 0 0 1 2.277-.189h.331v-.307a1.333 1.333 0 0 0-.284-.955 1.166 1.166 0 0 0-.908-.295 2.57 2.57 0 0 0-.791.118c-.271.07-.578.188-.944.33a1.3 1.3 0 0 1-.507.177.488.488 0 0 1-.39-.177.642.642 0 0 1-.153-.46c0-.142.035-.283.118-.39.106-.13.236-.236.378-.318a4.236 4.236 0 0 1 1.121-.401 5.774 5.774 0 0 1 1.274-.142v-.012Zm-.413 5.604c.413.012.802-.153 1.086-.448.283-.319.436-.732.424-1.157v-.283h-.236c-.46 0-.932.024-1.392.083-.26.023-.507.118-.708.283a.717.717 0 0 0-.212.543c0 .271.106.519.295.696.2.189.472.283.743.271v.012Zm7.694 1.204a3.506 3.506 0 0 1-1.723-.413 2.903 2.903 0 0 1-1.145-1.18 4.087 4.087 0 0 1 .024-3.576 2.967 2.967 0 0 1 1.18-1.203 3.477 3.477 0 0 1 1.746-.425c.354 0 .708.047 1.05.142.331.082.638.224.933.4a.81.81 0 0 1 .424.709c0 .165-.035.342-.141.472a.413.413 0 0 1-.366.177.692.692 0 0 1-.307-.071c-.106-.047-.224-.094-.318-.165a3.122 3.122 0 0 0-.567-.272c-.2-.07-.401-.106-.613-.094a1.593 1.593 0 0 0-1.275.543 2.892 2.892 0 0 0 0 3.103c.319.366.791.567 1.275.543.2 0 .401-.035.59-.094.2-.083.389-.166.578-.272.106-.07.224-.13.342-.177a.82.82 0 0 1 .295-.059c.142 0 .283.071.366.189.106.13.153.295.141.472a.862.862 0 0 1-.094.39 1.04 1.04 0 0 1-.33.306c-.295.189-.626.33-.968.425a4.014 4.014 0 0 1-1.121.153l.024-.023Zm6.454-6.809a2.76 2.76 0 0 1 2.03.673c.484.566.72 1.31.661 2.053v3.257a.775.775 0 0 1-.213.566.846.846 0 0 1-.59.213.823.823 0 0 1-.566-.213.78.78 0 0 1-.224-.566v-.295a1.73 1.73 0 0 1-.72.814c-.342.2-.732.307-1.133.295-.413 0-.814-.083-1.192-.271a2.106 2.106 0 0 1-.838-.732 1.912 1.912 0 0 1-.306-1.038 1.639 1.639 0 0 1 .365-1.133 2.214 2.214 0 0 1 1.204-.602c.755-.142 1.522-.2 2.289-.189h.331v-.307a1.333 1.333 0 0 0-.284-.955 1.166 1.166 0 0 0-.908-.295 2.57 2.57 0 0 0-.791.118c-.271.07-.578.188-.944.33a1.3 1.3 0 0 1-.507.177.488.488 0 0 1-.39-.177.66.66 0 0 1-.153-.46c0-.142.035-.283.118-.39.106-.13.236-.236.378-.318a4.236 4.236 0 0 1 1.121-.401 6.593 6.593 0 0 1 1.274-.154h-.012Zm-.413 5.605c.413.012.803-.153 1.086-.448.283-.319.436-.732.425-1.157v-.283h-.236c-.461 0-.933.024-1.393.083a1.295 1.295 0 0 0-.708.283.721.721 0 0 0-.212.543c0 .271.106.519.295.696.2.189.472.283.743.271v.012Zm10.254-8.39c.225 0 .449.071.614.213a.68.68 0 0 1 .236.566v7.989a.812.812 0 0 1-.224.578.96.96 0 0 1-1.204 0 .748.748 0 0 1-.224-.578v-.33a1.97 1.97 0 0 1-.85.849 2.499 2.499 0 0 1-1.262.307 2.8 2.8 0 0 1-1.499-.425 2.78 2.78 0 0 1-1.026-1.215 4.1 4.1 0 0 1-.366-1.794 4.224 4.224 0 0 1 .366-1.782 2.708 2.708 0 0 1 2.537-1.593c.436 0 .873.095 1.25.295.354.189.649.472.838.826v-3.162c0-.2.071-.401.224-.543a.839.839 0 0 1 .59-.2Zm-2.478 8.296a1.52 1.52 0 0 0 1.239-.543c.319-.46.472-1.003.437-1.57a2.45 2.45 0 0 0-.437-1.557 1.483 1.483 0 0 0-1.227-.543 1.547 1.547 0 0 0-1.239.531 2.383 2.383 0 0 0-.436 1.534 2.516 2.516 0 0 0 .436 1.581c.295.378.755.59 1.227.567Zm10.231-.602c.142 0 .283.059.366.177.094.13.153.295.141.472a.817.817 0 0 1-.495.696 4.809 4.809 0 0 1-1.027.413c-.354.095-.72.154-1.097.154a3.43 3.43 0 0 1-2.502-.909 3.347 3.347 0 0 1-.92-2.49 3.9 3.9 0 0 1 .401-1.782c.248-.495.649-.92 1.133-1.203a3.111 3.111 0 0 1 1.652-.425 2.886 2.886 0 0 1 1.534.39c.437.259.79.637 1.015 1.097.247.519.377 1.097.366 1.675 0 .378-.166.579-.508.579h-3.941c0 .495.189.979.519 1.357.354.306.814.472 1.286.436.26 0 .508-.035.755-.106.248-.083.496-.177.744-.295.177-.118.377-.189.59-.212l-.012-.024Zm-2.313-3.729a1.421 1.421 0 0 0-1.085.425 1.976 1.976 0 0 0-.484 1.227h3.021a1.952 1.952 0 0 0-.402-1.239 1.337 1.337 0 0 0-1.038-.425l-.012.012Zm12.001-1.18a2.084 2.084 0 0 1 1.64.637c.437.59.637 1.322.567 2.054v3.292a.745.745 0 0 1-.236.59.95.95 0 0 1-.614.212.907.907 0 0 1-.59-.212.742.742 0 0 1-.236-.59V46.74a1.65 1.65 0 0 0-.26-1.05.961.961 0 0 0-.79-.32 1.326 1.326 0 0 0-1.039.45 1.822 1.822 0 0 0-.389 1.226v2.986a.742.742 0 0 1-.236.59.907.907 0 0 1-.59.212.916.916 0 0 1-.602-.212.705.705 0 0 1-.236-.59V46.74a1.65 1.65 0 0 0-.26-1.05.961.961 0 0 0-.79-.32 1.324 1.324 0 0 0-1.038.45 1.827 1.827 0 0 0-.378 1.226v2.986a.727.727 0 0 1-.236.59.939.939 0 0 1-.602.212.907.907 0 0 1-.59-.212.742.742 0 0 1-.236-.59v-5.169a.703.703 0 0 1 .236-.578.848.848 0 0 1 .602-.2c.212 0 .413.059.566.188a.699.699 0 0 1 .225.555v.319c.188-.343.472-.626.825-.815a2.56 2.56 0 0 1 1.18-.283 1.916 1.916 0 0 1 1.971 1.227c.201-.377.496-.684.873-.896.39-.225.838-.343 1.298-.33h-.035Zm8.461.508a.76.76 0 0 1 .283-.354.786.786 0 0 1 .389-.118c.201 0 .401.07.555.212a.668.668 0 0 1 .248.52.704.704 0 0 1-.083.306l-3.646 7.646a.762.762 0 0 1-.708.46.89.89 0 0 1-.543-.188.605.605 0 0 1-.236-.484c0-.118.035-.224.083-.33l.908-1.912-2.49-5.168a.69.69 0 0 1-.07-.307c0-.2.094-.401.259-.52a.907.907 0 0 1 .59-.212c.142 0 .295.036.413.118.13.083.236.213.295.354l1.876 4.13 1.853-4.118.024-.035ZM98.951 35.294a8.35 8.35 0 0 1-4.153-1.003 6.825 6.825 0 0 1-2.761-2.844 9.056 9.056 0 0 1-.968-4.295 8.979 8.979 0 0 1 1.015-4.343 7.15 7.15 0 0 1 2.855-2.914 8.387 8.387 0 0 1 4.225-1.027c.861 0 1.711.118 2.537.354.79.213 1.546.543 2.242.968a1.976 1.976 0 0 1 1.026 1.71c.024.414-.094.815-.342 1.146a1.068 1.068 0 0 1-.885.436c-.259 0-.507-.059-.743-.165a5.322 5.322 0 0 1-.779-.39 8.493 8.493 0 0 0-1.357-.66 4.519 4.519 0 0 0-1.487-.248 3.746 3.746 0 0 0-3.08 1.31 5.787 5.787 0 0 0-1.085 3.764 5.71 5.71 0 0 0 1.085 3.729 3.796 3.796 0 0 0 3.08 1.31c.484 0 .98-.071 1.44-.248.484-.19.956-.413 1.404-.661.271-.165.555-.307.838-.437.224-.094.46-.141.708-.141.342 0 .672.165.873.448.248.33.366.72.354 1.133 0 .33-.071.66-.248.956-.2.306-.472.554-.79.731a8.7 8.7 0 0 1-2.325 1.015 9.566 9.566 0 0 1-2.702.366h.023Zm15.942 0a8.609 8.609 0 0 1-4.248-1.003 6.952 6.952 0 0 1-2.82-2.867 9.16 9.16 0 0 1-1.003-4.355 8.975 8.975 0 0 1 1.003-4.342 6.855 6.855 0 0 1 2.82-2.856 9.497 9.497 0 0 1 8.484 0 6.827 6.827 0 0 1 2.809 2.856 9.08 9.08 0 0 1 .979 4.342 9.269 9.269 0 0 1-.979 4.355 6.788 6.788 0 0 1-2.809 2.867 8.704 8.704 0 0 1-4.248 1.003h.012Zm-.035-3.127a3.635 3.635 0 0 0 2.997-1.286c.684-.862 1.027-2.124 1.027-3.812 0-1.687-.343-2.914-1.027-3.787a3.594 3.594 0 0 0-2.974-1.31 3.632 3.632 0 0 0-2.985 1.31c-.696.873-1.05 2.135-1.05 3.787 0 1.652.342 2.95 1.026 3.812a3.59 3.59 0 0 0 2.974 1.286h.012Zm24.556-20.037a2.145 2.145 0 0 1 1.486.52c.39.342.602.838.579 1.357V33.3a1.859 1.859 0 0 1-.543 1.392 2.309 2.309 0 0 1-2.903 0 1.773 1.773 0 0 1-.543-1.392v-.803a5.089 5.089 0 0 1-2.053 2.065 6.215 6.215 0 0 1-3.044.744 6.6 6.6 0 0 1-3.635-1.027 7.023 7.023 0 0 1-2.49-2.915 10.03 10.03 0 0 1-.885-4.342 9.824 9.824 0 0 1 .885-4.295 6.51 6.51 0 0 1 6.113-3.835 6.3 6.3 0 0 1 3.032.708 4.819 4.819 0 0 1 2.03 2.006v-7.647a1.709 1.709 0 0 1 .531-1.31 1.993 1.993 0 0 1 1.44-.495v-.024Zm-5.971 20.037a3.607 3.607 0 0 0 2.985-1.322 5.97 5.97 0 0 0 1.05-3.776 5.936 5.936 0 0 0-1.05-3.764 3.564 3.564 0 0 0-2.95-1.31 3.684 3.684 0 0 0-2.997 1.287 5.627 5.627 0 0 0-1.062 3.705 6.08 6.08 0 0 0 1.062 3.811 3.571 3.571 0 0 0 2.974 1.357l-.012.012Zm24.685-1.452c.343 0 .673.142.885.425.236.33.366.72.343 1.133a1.943 1.943 0 0 1-1.192 1.676c-.779.425-1.617.755-2.49.98a9.986 9.986 0 0 1-2.643.365c-2.537 0-4.555-.732-6.03-2.195-1.487-1.463-2.23-3.457-2.23-6.006a9.349 9.349 0 0 1 .967-4.295 7.032 7.032 0 0 1 2.726-2.903 7.739 7.739 0 0 1 3.989-1.027 7.126 7.126 0 0 1 3.705.933 6.39 6.39 0 0 1 2.454 2.643 8.818 8.818 0 0 1 .873 4.035c0 .92-.413 1.393-1.227 1.393h-9.522a5.036 5.036 0 0 0 1.262 3.28 4.202 4.202 0 0 0 3.092 1.05c.613 0 1.227-.082 1.817-.26a16.62 16.62 0 0 0 1.794-.707c.436-.272.92-.449 1.416-.52h.011Zm-5.581-9.003a3.492 3.492 0 0 0-2.631 1.027 4.837 4.837 0 0 0-1.18 2.973h7.292a4.627 4.627 0 0 0-.968-2.985 3.172 3.172 0 0 0-2.513-1.015Zm28.969-2.844a5.023 5.023 0 0 1 3.953 1.534c.909 1.027 1.369 2.667 1.369 4.956V33.3a1.798 1.798 0 0 1-.566 1.44c-.413.341-.933.518-1.464.495a2.081 2.081 0 0 1-1.439-.496 1.82 1.82 0 0 1-.567-1.44v-7.94a4.004 4.004 0 0 0-.625-2.538 2.345 2.345 0 0 0-1.923-.755 3.15 3.15 0 0 0-2.514 1.086 4.372 4.372 0 0 0-.932 2.95V33.3a1.838 1.838 0 0 1-.566 1.44c-.402.341-.909.518-1.44.495a2.15 2.15 0 0 1-1.451-.496 1.79 1.79 0 0 1-.579-1.44v-7.94a4.004 4.004 0 0 0-.625-2.538 2.345 2.345 0 0 0-1.923-.755 3.089 3.089 0 0 0-2.502 1.086 4.426 4.426 0 0 0-.921 2.95V33.3a1.79 1.79 0 0 1-.578 1.44c-.401.341-.92.518-1.451.495a2.084 2.084 0 0 1-1.44-.496 1.82 1.82 0 0 1-.566-1.44V20.816a1.695 1.695 0 0 1 .578-1.392 2.16 2.16 0 0 1 1.451-.484c.496-.023.992.142 1.369.472.366.342.567.838.531 1.333v.78a5.132 5.132 0 0 1 1.983-1.971 5.852 5.852 0 0 1 2.855-.673c2.372 0 3.942.991 4.744 2.974a5.291 5.291 0 0 1 2.1-2.16 6.061 6.061 0 0 1 3.127-.802l.012-.024Zm16.261 0c2.194 0 3.823.543 4.885 1.629 1.062 1.085 1.593 2.737 1.593 4.956v7.87a1.85 1.85 0 0 1-.519 1.37c-.39.353-.897.53-1.416.495a1.847 1.847 0 0 1-1.369-.52 1.768 1.768 0 0 1-.531-1.356v-.709a4.243 4.243 0 0 1-1.723 1.971 5.146 5.146 0 0 1-2.726.708 6.338 6.338 0 0 1-2.867-.649 5.171 5.171 0 0 1-2.03-1.77 4.449 4.449 0 0 1-.743-2.513 3.963 3.963 0 0 1 .885-2.738 5.366 5.366 0 0 1 2.891-1.451 26.243 26.243 0 0 1 5.522-.449h.803v-.743a3.288 3.288 0 0 0-.673-2.301 2.885 2.885 0 0 0-2.195-.732c-.649 0-1.286.095-1.9.272-.649.189-1.404.448-2.289.79a3.23 3.23 0 0 1-1.227.425c-.366 0-.708-.141-.956-.425a1.556 1.556 0 0 1-.366-1.097 1.7 1.7 0 0 1 .272-.956c.248-.319.554-.578.92-.755.85-.449 1.758-.767 2.691-.968a13.543 13.543 0 0 1 3.079-.354h-.011Zm-1.003 13.523a3.423 3.423 0 0 0 2.631-1.085 3.86 3.86 0 0 0 1.015-2.797v-.673h-.578a22.725 22.725 0 0 0-3.352.19 3.342 3.342 0 0 0-1.711.672 1.727 1.727 0 0 0-.519 1.321 2.179 2.179 0 0 0 .732 1.7 2.51 2.51 0 0 0 1.793.66l-.011.012Zm17.287 2.903a10.307 10.307 0 0 1-5.676-1.392 1.907 1.907 0 0 1-1.027-1.747 1.552 1.552 0 0 1 .354-1.05c.213-.26.531-.401.873-.401a3.66 3.66 0 0 1 1.523.519c.613.295 1.239.543 1.888.743a7.956 7.956 0 0 0 2.183.26 4.216 4.216 0 0 0 2.112-.448c.472-.248.767-.732.755-1.263a1.237 1.237 0 0 0-.307-.873 2.86 2.86 0 0 0-1.097-.602 24.064 24.064 0 0 0-2.407-.625c-1.912-.39-3.281-.933-4.119-1.64a3.668 3.668 0 0 1-1.239-2.939c0-.92.284-1.829.838-2.56a5.394 5.394 0 0 1 2.301-1.77 8.319 8.319 0 0 1 3.34-.626 9.7 9.7 0 0 1 2.607.342 8.156 8.156 0 0 1 2.254.98 1.931 1.931 0 0 1 1.027 1.71c.012.39-.118.78-.354 1.086a1.096 1.096 0 0 1-.873.437c-.236 0-.472-.047-.697-.142a7.163 7.163 0 0 1-.849-.436 15.32 15.32 0 0 0-1.617-.732 5.062 5.062 0 0 0-1.675-.248 3.234 3.234 0 0 0-1.888.484c-.449.295-.708.79-.697 1.322-.011.507.26.99.708 1.227a10.22 10.22 0 0 0 2.738.838c1.168.212 2.301.566 3.387 1.038a3.99 3.99 0 0 1 1.758 1.451c.377.685.566 1.452.531 2.23a4.149 4.149 0 0 1-1.817 3.517 8.132 8.132 0 0 1-4.85 1.322l.012-.012Zm23.977-3.387a1.9 1.9 0 0 1 .649 1.393c0 .495-.189.967-.531 1.321a1.628 1.628 0 0 1-1.239.578 1.87 1.87 0 0 1-1.321-.578l-7.552-6.844V33.3a1.728 1.728 0 0 1-.579 1.416 2.16 2.16 0 0 1-1.451.483 2.133 2.133 0 0 1-1.44-.483 1.789 1.789 0 0 1-.566-1.416V14.03a1.736 1.736 0 0 1 .566-1.416c.402-.33.909-.507 1.44-.484a2.16 2.16 0 0 1 1.451.484c.402.354.614.885.579 1.416v12.13l6.903-6.62a1.823 1.823 0 0 1 1.321-.577 1.883 1.883 0 0 1 1.841 1.84 1.87 1.87 0 0 1-.614 1.357l-5.062 4.709 5.617 5.038h-.012Z"/></svg>
