<svg xmlns="http://www.w3.org/2000/svg" width="1947" height="816" fill="none"><path fill="url(#a)" d="M.556 218.366c61.496-11.888 103.428 13.219 149.405 55.751 45.977 42.532 70.094 107.54 62.98 169.763 63.477-42.095 150.086-46.474 217.487-10.984 9.146-47.541 74.768-64.316 117.859-42.247 43.091 22.069 67.99 67.639 90.328 110.588 31.2-24.498 75.561-31.061 112.524-16.674 36.963 14.388 65.195 49.228 71.608 88.367 37.186-69.113 141.468-89.759 202.193-40.043 21.99-37.95 63.96-63.534 107.78-65.709 43.81-2.174 88.11 19.133 113.76 54.715 26.35-42.197 80.87-64.652 129.3-53.262 48.44 11.4 87.22 55.802 91.98 105.315 52.81-52.561 157.08-32.138 186.15 36.466-25.76-42.075-17.79-101.748 18.11-135.593 35.91-33.845 77.97-39.818 136.45-10.12-44.98-35.198-38.45-87.29-15.96-127.15 22.49-39.86 72.43-62.081 117.1-52.113-19.6-2.967-30.63-29.913-18.73-45.764 11.9-15.85 50.8 2.165 50.8 2.165v574.164H.556V218.366Z"/><path fill="#D0B0EB" d="M1826.66 765.819a77.365 77.365 0 0 1 6.96-12.478 80.525 80.525 0 0 1 20.01-20.245 77.064 77.064 0 0 1 25.89-11.831 80.26 80.26 0 0 1 28.4-1.866c4.75.537 9.43 1.51 14 2.905l-1.17 3.825a73.828 73.828 0 0 0-13.29-2.756 76.325 76.325 0 0 0-26.98 1.772 73.11 73.11 0 0 0-24.55 11.222 76.338 76.338 0 0 0-19.01 19.234 74.25 74.25 0 0 0-6.61 11.834l-3.65-1.616Zm23.69-4.645a42.962 42.962 0 0 1 8.68-8.861 46.666 46.666 0 0 1 22.74-9.24c4.13-.498 8.31-.397 12.4.3l-.68 3.942c-3.71-.631-7.5-.721-11.25-.267a42.656 42.656 0 0 0-20.78 8.443 39.27 39.27 0 0 0-7.88 8.039l-3.23-2.356Zm-39.87-4.521a95.131 95.131 0 0 1 47.65-50.432 95.129 95.129 0 0 1 69.22-4.668l-1.21 3.815a90.707 90.707 0 0 0-27.3-4.165 90.89 90.89 0 0 0-84.65 56.949l-3.71-1.499Zm-16.2-9.315c-55.14-56.249-144.22-73.826-216.61-42.744a4.017 4.017 0 0 1-3.08.053 4.01 4.01 0 0 1-2.2-2.141 3.858 3.858 0 0 1-.32-1.533c-.01-.527.09-1.051.29-1.54.19-.489.48-.934.85-1.31s.81-.675 1.3-.88c73.56-31.583 163.67-14.9 221.32 40.373a107.927 107.927 0 0 1 63.82-56.348 107.984 107.984 0 0 1 84.82 7.433c.46.248.87.585 1.2.992.34.407.58.875.74 1.378.15.503.2 1.031.15 1.553a4.12 4.12 0 0 1-.46 1.493c-.25.463-.59.872-.99 1.205-.41.333-.88.582-1.38.733a4.034 4.034 0 0 1-3.05-.305 99.937 99.937 0 0 0-39.92-11.62 99.977 99.977 0 0 0-41.2 5.629 99.859 99.859 0 0 0-35.34 21.903 99.836 99.836 0 0 0-23.38 34.388l-2.3 5.635-4.26-4.347ZM306.508 696.995a45.585 45.585 0 0 0-22.543-9.46 41.643 41.643 0 0 0-12.27.266l-.686-3.941a45.62 45.62 0 0 1 13.448-.294 49.566 49.566 0 0 1 24.538 10.3 45.57 45.57 0 0 1 9.208 9.8l-3.293 2.271a41.59 41.59 0 0 0-8.402-8.942Zm8.149-11.168a57.112 57.112 0 0 0-26.826-12.277 57.113 57.113 0 0 0-29.374 2.745l-1.4-3.748a61.1 61.1 0 0 1 73.891 26.316l-3.452 2.02a56.721 56.721 0 0 0-12.84-15.056h.001Zm19.331.491c-9.626-14.5-25.906-24.975-44.663-28.748-18.757-3.773-37.826-.4-52.311 9.247l-4.339 2.891-1.669-4.94a130.407 130.407 0 0 0-75.991-79.176 130.458 130.458 0 0 0-109.467 7.909 3.998 3.998 0 0 1-5.465-1.521 3.995 3.995 0 0 1 .355-4.444 3.993 3.993 0 0 1 1.196-1.012 138.546 138.546 0 0 1 116.25-8.405 138.61 138.61 0 0 1 79.016 79.387c15.591-8.768 34.977-11.61 54-7.784 17.647 3.549 33.363 12.51 44.316 25.054 6.813-24.113 26.806-44.316 51.14-50.693 27.231-7.138 58.22 3.476 75.359 25.809a3.999 3.999 0 1 1-6.347 4.87c-15.234-19.851-42.779-29.285-66.983-22.94-24.204 6.345-43.574 28.079-47.101 52.846l-1.482 10.4-5.814-8.75ZM1641 597.978c-12.98-23.826-38.05-39.359-76.38-47.39-33.79-7.069-70.58 3.019-96.02 26.325l-6 5.5-.69-8.109c-3.9-46.021-39.1-88.142-83.7-100.153-44.39-11.956-98.28 8.2-125.34 46.886-.04.06-.09.118-.13.176 4.46 9.654 4.6 18.976.23 27.085-3.95 7.34-11.91 12.6-20.77 13.739-7.65.979-14.72-1.358-19.42-6.411a3.912 3.912 0 0 1-.82-1.329 3.876 3.876 0 0 1-.25-1.544 3.83 3.83 0 0 1 .36-1.522c.21-.479.53-.909.91-1.268.39-.358.84-.637 1.33-.82a4.04 4.04 0 0 1 1.55-.246c.52.02 1.04.144 1.52.364s.91.533 1.26.92c3.99 4.3 9.57 4.3 12.54 3.92 6.25-.8 12.04-4.568 14.75-9.6 6.21-11.53-2.06-24.257-7.54-30.817a78.259 78.259 0 0 0-29.88-22.549c-38.21-15.962-73.04-21.035-103.52-15.076-36.5 7.135-67.04 32.629-75.99 63.437l-1.76 6.085-4.74-4.213c-28.677-25.524-69.868-36.594-107.498-28.89-37.63 7.704-71.153 34.066-87.5 68.8l-5.833 12.391-1.753-13.583c-5.121-39.662-33.586-76.092-70.834-90.651-37.722-14.742-76.8-8.79-107.415 16.306a26.254 26.254 0 0 1-.64 3.9 21.516 21.516 0 0 1-13.115 14.556 17.128 17.128 0 0 1-6.026 1.146 14.157 14.157 0 0 1-8.25-2.605 4.003 4.003 0 0 1-.92-5.54 3.996 3.996 0 0 1 5.526-1 7.236 7.236 0 0 0 6.856.511 13.681 13.681 0 0 0 8.154-8.956c1.851-7.618-1.616-16.039-5.639-24-17.635-34.917-39.28-60.768-64.333-76.836-30.123-19.319-66.565-23.918-95.1-12-16.289 6.8-32.788 22.49-30.519 40.881l.95 7.7-6.825-3.694c-67.65-36.627-152.954-33.393-217.48 8.2a62.8 62.8 0 0 1-16.178 24.069 51.747 51.747 0 0 1-34.458 13.306 42.49 42.49 0 0 1-26.193-8.507c-8.71-6.77-13.707-16.932-13.041-26.521.8-11.47 10.094-21.115 20.726-21.5a4.002 4.002 0 0 1 .291 7.995c-6.44.235-12.533 6.8-13.036 14.061-.483 6.966 3.336 14.5 9.968 19.65 13.522 10.5 36.117 8.523 50.368-4.406 12.731-11.56 19.731-30.945 18.731-51.863-.955-19.913-8.229-38.918-15.948-56.488-21.552-49.013-45.44-82.906-75.191-106.663C83.619 221.821 38.707 210.277.495 222v-7.5s.505-.5.69-.5c40.7-12.487 85.39-.057 124.151 30.885 30.8 24.6 55.435 59.452 77.521 109.7 8.028 18.276 15.6 38.111 16.615 59.324a87.894 87.894 0 0 1-1.764 22.611c63.968-37.453 145.391-40.174 211.846-6.9 1.515-19.306 18.6-35.023 35.538-42.092 30.926-12.913 70.2-8.067 102.5 12.649 26.274 16.849 48.867 43.753 67.155 79.962a69.325 69.325 0 0 1 6.2 16.012c31.892-23.719 72.9-29.071 111.037-14.165 36.248 14.169 64.731 47.678 73.742 85.551 18.783-31.81 51.44-55.475 87.663-62.892 38.081-7.8 79.6 2.476 109.831 26.861 11.7-31.4 42.52-55.924 80.22-63.294 32.06-6.268 68.44-1.037 108.14 15.547a86.232 86.232 0 0 1 32.94 24.8 70.228 70.228 0 0 1 3.84 5.049c29.5-39.444 85.54-59.674 131.92-47.182 45.29 12.2 81.52 53.4 88.69 99.647 26.92-21.471 63.5-30.38 97.28-23.314 29 6.076 51.37 16.754 66.87 31.875-8.45-38.344 4.42-77.249 36.33-104.746 31.19-26.871 77.53-34.191 116.45-21.062a62.709 62.709 0 0 1-4.33-7.681c-7.08-14.9-9.57-41.9-7.46-57.774a119.058 119.058 0 0 1 37.31-71.765c20.43-18.835 47.52-29.84 75.27-31.274a28.29 28.29 0 0 1-7.59-19.65c.45-13.989 10.71-26.95 25.39-30.69 12.71-3.242 25.39-.992 37.2 8.008v8c-1.06.141-2.07.196-2.91-.447-9.88-7.533-21.96-10.452-32.32-7.809-11.12 2.834-19.03 12.857-19.36 23.19-.02 2.804.55 5.581 1.66 8.157a20.183 20.183 0 0 0 4.78 6.812c2.14 2.107 4.04 3.569 6.92 4.429 1.97.133 3.94.318 5.91.556l-.18 7.96a22.76 22.76 0 0 1-7.05-.585 111.084 111.084 0 0 0-77.47 25.028 111.124 111.124 0 0 0-39.62 71.134c-1.92 14.431.37 39.863 6.75 53.28a51.96 51.96 0 0 0 15.22 19.045 104.92 104.92 0 0 1 8.11 4.933 39.924 39.924 0 0 0 8.47 2.868c14.28 3.074 29.52-3.059 36.23-14.584a27.53 27.53 0 0 0 2.36-20.786c-1.79-6.466-5.63-11.6-10.8-14.45a3.942 3.942 0 0 1-1.93-2.391 3.924 3.924 0 0 1-.14-1.561c.06-.524.22-1.032.47-1.494.26-.461.6-.868 1.01-1.197a4 4 0 0 1 2.95-.846c.53.061 1.04.225 1.5.482 7.08 3.9 12.28 10.764 14.65 19.327a35.105 35.105 0 0 1 1.12 13.792 35.036 35.036 0 0 1-4.28 13.158c-6.97 11.971-21.14 19.33-35.79 19.33-3.04.002-6.07-.318-9.04-.954a46.76 46.76 0 0 1-4.6-1.245 4.03 4.03 0 0 1-1.83.107 3.959 3.959 0 0 1-1.67-.713c-.89-.647-1.78-1.277-2.68-1.891a52.755 52.755 0 0 1-8.44-5.138c-38.85-21.1-91.38-16.522-125.01 12.451-35.59 30.667-45.63 76.64-26.45 118.6a81.039 81.039 0 0 1 2.9 5.9l-7.2 3.478a130.27 130.27 0 0 1-2.93-5.948Zm10.15-48.7a98.534 98.534 0 0 1 25.82-61.775 98.524 98.524 0 0 1 59.35-31.003l.52 3.966a94.426 94.426 0 0 0-40.44 15.492 94.388 94.388 0 0 0-29.28 31.908 94.411 94.411 0 0 0-11.97 41.619 94.403 94.403 0 0 0 7.85 42.588l-3.65 1.628a98.422 98.422 0 0 1-8.2-44.428v.005Zm-241.78-15.658a63.796 63.796 0 0 0-9.95-10.773 59.37 59.37 0 0 0-12.13-8.133c-9.13-4.568-18.62-6.109-27.46-4.458l-.73-3.932c9.7-1.813 20.07-.148 29.98 4.812a63.261 63.261 0 0 1 12.95 8.68 67.88 67.88 0 0 1 10.57 11.447c12.08 16.564 17.25 36.965 21.5 56.443l-3.91.853c-4.16-19.066-9.2-39.009-20.82-54.944v.005Zm28.93 19.289a153.894 153.894 0 0 0-7.4-16.534 108.666 108.666 0 0 0-9.56-15.215 79.912 79.912 0 0 0-12.49-13.132 73.746 73.746 0 0 0-15.11-9.869 59.775 59.775 0 0 0-16.71-5.368 48.556 48.556 0 0 0-17.31.3l-.8-3.919a52.498 52.498 0 0 1 18.73-.329 63.79 63.79 0 0 1 17.83 5.72 77.948 77.948 0 0 1 15.94 10.4 84.721 84.721 0 0 1 13.11 13.787 112.703 112.703 0 0 1 9.91 15.769 159.041 159.041 0 0 1 7.59 16.959c4.57 11.918 8.05 24.425 11.13 35.459l-3.85 1.064c-3.05-10.947-6.51-23.356-11.01-35.1v.008Zm-25.53 33.724a55.292 55.292 0 0 0-11.32-35.534 55.307 55.307 0 0 0-31.31-20.254l.9-3.9a59.236 59.236 0 0 1 33.59 21.717 59.19 59.19 0 0 1 12.13 38.123l-3.99-.152Zm258.77-30.982c-.74-9.499.43-19.05 3.44-28.091 3-9.055 7.87-17.376 14.3-24.421a71.489 71.489 0 0 1 22.81-16.742 68.631 68.631 0 0 1 13.47-4.614l.89 3.9a64.816 64.816 0 0 0-12.68 4.346 67.435 67.435 0 0 0-21.53 15.8 63.783 63.783 0 0 0-13.47 22.995 67.72 67.72 0 0 0-3.24 26.513 64.18 64.18 0 0 0 2.43 13.177l-3.84 1.132a68.683 68.683 0 0 1-2.58-14v.005ZM155.617 463.969a18.711 18.711 0 0 1-5.415-2.672 19.24 19.24 0 0 1-4.316-4.2 15.114 15.114 0 0 1-3.077-11.422l3.949.634a11.169 11.169 0 0 0 2.336 8.4 15.334 15.334 0 0 0 7.681 5.434 20.98 20.98 0 0 0 9.643.43 34.924 34.924 0 0 0 9.666-3.292 49.632 49.632 0 0 0 25.682-31.996 49.638 49.638 0 0 0-7.173-40.396l3.289-2.279a53.442 53.442 0 0 1 7.855 43.69 53.447 53.447 0 0 1-27.862 34.558 38.86 38.86 0 0 1-10.783 3.658 28.348 28.348 0 0 1-4.761.418 23.125 23.125 0 0 1-6.714-.965Zm4.377-16.437a8.557 8.557 0 0 1-2.616-6.954l3.978.419a4.575 4.575 0 0 0 1.485 3.725 7.544 7.544 0 0 0 5.814 2.192 11.463 11.463 0 0 0 5.517-2.19 23.186 23.186 0 0 0 4.724-4.619 38.87 38.87 0 0 0 5.74-10.128 42.641 42.641 0 0 0 2.1-23.1 38.858 38.858 0 0 0-3.826-11l3.533-1.875a42.857 42.857 0 0 1 4.223 12.128 46.659 46.659 0 0 1-2.294 25.284 42.891 42.891 0 0 1-6.334 11.168 27.117 27.117 0 0 1-5.564 5.419 15.398 15.398 0 0 1-7.451 2.9c-.307.028-.617.042-.927.042a11.625 11.625 0 0 1-8.102-3.411Zm303.966-4.4a52.943 52.943 0 0 1 62.623-26.133 52.936 52.936 0 0 1 20.966 12.35l-2.783 2.874a48.72 48.72 0 0 0-41.831-13.078 48.732 48.732 0 0 0-35.418 25.815l-3.557-1.828Zm-11.867-13.1a28.674 28.674 0 0 1 5.073-10.179c4.029-5.191 9.815-9.442 17.689-12.992a75.503 75.503 0 0 1 22.95-6.2 83.077 83.077 0 0 1 46.283 8.464 75.453 75.453 0 0 1 19.268 13.92l-2.831 2.825a71.483 71.483 0 0 0-18.25-13.18 79.078 79.078 0 0 0-44.036-8.054 71.506 71.506 0 0 0-21.738 5.865c-7.265 3.276-12.556 7.136-16.175 11.8a24.645 24.645 0 0 0-4.365 8.743 18.919 18.919 0 0 0-.165 9.412l-3.876.985a22.91 22.91 0 0 1 .174-11.402l-.001-.007Z"/><path fill="#FFF4C9" d="m1839.18 13.184 3.07 9.938a2.237 2.237 0 0 0 2.13 1.576h10.67c5.68 0 8.12 7.205 3.6 10.651l-8.98 6.86a2.24 2.24 0 0 0-.78 2.44l3.28 10.632c1.71 5.523-4.68 9.982-9.27 6.473l-8.05-6.148a2.227 2.227 0 0 0-2.71 0l-8.05 6.148c-4.59 3.509-10.98-.95-9.27-6.473l3.28-10.632c.28-.894-.03-1.87-.78-2.44l-8.98-6.86c-4.51-3.446-2.08-10.65 3.6-10.65h10.67c.98 0 1.84-.639 2.13-1.577l3.07-9.938c1.73-5.579 9.62-5.579 11.34 0h.03ZM39.195 4.571l3.349 10.859a2.436 2.436 0 0 0 2.326 1.722h11.638c6.193 0 8.854 7.872 3.929 11.637l-9.796 7.496a2.451 2.451 0 0 0-.853 2.665l3.582 11.617c1.862 6.033-5.11 10.906-10.117 7.072l-8.779-6.717a2.433 2.433 0 0 0-2.96 0l-8.78 6.717c-5.006 3.834-11.978-1.039-10.115-7.072l3.58-11.617a2.444 2.444 0 0 0-.852-2.665l-9.796-7.496c-4.918-3.765-2.264-11.637 3.93-11.637h11.637a2.43 2.43 0 0 0 2.326-1.722l3.35-10.859c1.882-6.095 10.49-6.095 12.373 0h.028ZM1744.51 288.557l1.9 6.073c.17.573.71.963 1.32.963h6.59c3.51 0 5.02 4.403 2.23 6.509l-5.55 4.193c-.46.348-.66.94-.49 1.491l2.03 6.497c1.06 3.375-2.89 6.1-5.73 3.956l-4.98-3.757a1.38 1.38 0 0 0-1.67 0l-4.98 3.757c-2.84 2.144-6.79-.581-5.73-3.956l2.03-6.497a1.362 1.362 0 0 0-.48-1.491l-5.56-4.193c-2.78-2.106-1.28-6.509 2.23-6.509h6.6c.6 0 1.14-.39 1.31-.963l1.9-6.073c1.07-3.409 5.95-3.409 7.01 0h.02ZM1177.51 409.557l1.9 6.073c.17.573.71.963 1.32.963h6.59c3.51 0 5.02 4.403 2.23 6.509l-5.55 4.193c-.46.348-.66.94-.49 1.491l2.03 6.497c1.06 3.375-2.89 6.1-5.73 3.956l-4.98-3.757a1.38 1.38 0 0 0-1.67 0l-4.98 3.757c-2.84 2.144-6.79-.581-5.73-3.956l2.03-6.497a1.362 1.362 0 0 0-.48-1.491l-5.56-4.193c-2.78-2.106-1.28-6.509 2.23-6.509h6.6c.6 0 1.14-.39 1.31-.963l1.9-6.073c1.07-3.409 5.95-3.409 7.01 0h.02ZM253.508 374.557l1.898 6.073c.178.573.715.963 1.318.963h6.595c3.51 0 5.017 4.403 2.226 6.509l-5.551 4.193c-.46.348-.653.94-.483 1.491l2.03 6.497c1.055 3.375-2.896 6.1-5.733 3.956l-4.975-3.757a1.39 1.39 0 0 0-1.677 0l-4.975 3.757c-2.837 2.144-6.788-.581-5.733-3.956l2.03-6.497a1.358 1.358 0 0 0-.483-1.491l-5.551-4.193c-2.787-2.106-1.284-6.509 2.226-6.509h6.595c.607 0 1.14-.39 1.318-.963l1.898-6.073c1.067-3.409 5.945-3.409 7.012 0h.015Z"/><path fill="#FFF4C9" fill-opacity=".61" d="m1611.18 479.107 3.07 9.754c.29.92 1.16 1.546 2.13 1.546h10.67c5.68 0 8.12 7.072 3.6 10.454l-8.98 6.734a2.175 2.175 0 0 0-.78 2.394l3.28 10.435c1.71 5.42-4.68 9.797-9.27 6.353l-8.05-6.034a2.262 2.262 0 0 0-2.71 0l-8.05 6.034c-4.59 3.444-10.98-.933-9.27-6.353l3.28-10.435a2.162 2.162 0 0 0-.78-2.394l-8.98-6.734c-4.51-3.382-2.08-10.454 3.6-10.454h10.67c.98 0 1.84-.626 2.13-1.546l3.07-9.754c1.73-5.476 9.62-5.476 11.34 0h.03Z"/><defs><radialGradient id="a" cx="0" cy="0" r="1" gradientTransform="rotate(-9.52 5949.143 -5117.59) scale(1102.03 1101.79)" gradientUnits="userSpaceOnUse"><stop stop-color="#E1C8F5"/><stop offset="1" stop-color="#FFF2E6"/></radialGradient></defs></svg>
