<svg xmlns="http://www.w3.org/2000/svg" width="34" height="32" fill="none"><path fill="#000" d="M31.72 8.169c-1.52-2.513-3.582-4.502-6.186-5.97C22.929.734 20.084 0 17 0c-3.084 0-5.929.733-8.533 2.2C5.863 3.665 3.801 5.655 2.28 8.168.76 10.68 0 13.426 0 16.4c0 3.574 1.08 6.788 3.243 9.642 2.162 2.855 4.954 4.83 8.377 5.925.398.071.693.021.886-.149a.822.822 0 0 0 .288-.64c0-.042-.003-.426-.011-1.153-.008-.727-.011-1.36-.011-1.9l-.51.084a6.698 6.698 0 0 1-1.228.075 9.652 9.652 0 0 1-1.538-.15 3.503 3.503 0 0 1-1.484-.64 2.725 2.725 0 0 1-.974-1.313l-.221-.492c-.148-.327-.38-.69-.698-1.088-.317-.399-.638-.669-.963-.811l-.155-.108a1.598 1.598 0 0 1-.288-.256c-.089-.1-.156-.199-.2-.298-.044-.1-.008-.182.111-.247.118-.064.333-.095.642-.095l.443.064c.295.057.66.227 1.095.512.436.284.793.654 1.073 1.11.34.585.749 1.03 1.229 1.336.48.306.963.458 1.45.458.486 0 .907-.036 1.26-.106.354-.071.687-.178.996-.32.133-.955.495-1.688 1.085-2.2a15.693 15.693 0 0 1-2.269-.384 9.231 9.231 0 0 1-2.08-.833 5.913 5.913 0 0 1-1.782-1.43c-.472-.57-.86-1.318-1.161-2.242-.303-.926-.454-1.993-.454-3.203 0-1.724.583-3.19 1.749-4.4-.546-1.295-.495-2.747.155-4.356.428-.128 1.063-.031 1.904.288.841.32 1.457.595 1.848.822.392.227.705.42.94.577 1.373-.37 2.79-.555 4.25-.555 1.462 0 2.878.185 4.25.555l.842-.513a12.12 12.12 0 0 1 2.036-.94c.783-.284 1.38-.363 1.794-.234.663 1.609.722 3.061.177 4.357 1.166 1.21 1.748 2.676 1.748 4.399 0 1.21-.152 2.281-.453 3.213-.303.933-.693 1.68-1.173 2.243a6.145 6.145 0 0 1-1.793 1.42 9.237 9.237 0 0 1-2.082.833c-.671.17-1.428.3-2.268.385.767.64 1.151 1.651 1.151 3.032v4.505c0 .256.092.47.277.64.185.171.475.222.874.15 3.425-1.097 6.217-3.072 8.38-5.926 2.16-2.854 3.242-6.068 3.242-9.642 0-2.974-.761-5.719-2.281-8.231l.002-.002Z"/></svg>
