<svg width="401" height="344" viewBox="0 0 401 344" fill="none" xmlns="http://www.w3.org/2000/svg">
<g clip-path="url(#clip0_804_81)">
<mask id="mask0_804_81" style="mask-type:luminance" maskUnits="userSpaceOnUse" x="0" y="0" width="1127" height="344">
<path d="M1127 0H0V344H1127V0Z" fill="white"/>
</mask>
<g mask="url(#mask0_804_81)">
<mask id="mask1_804_81" style="mask-type:luminance" maskUnits="userSpaceOnUse" x="26" y="26" width="1123" height="335">
<path d="M1148.64 26H26V360.298H1148.64V26Z" fill="white"/>
</mask>
<g mask="url(#mask1_804_81)">
<path d="M166.014 51.63C154.996 50.4619 143.858 51.9829 133.557 56.0626C123.255 60.1422 114.096 66.6588 106.865 75.054C93.0651 91.385 87.1451 123.09 73.2951 131.04C66.4001 135 61.2771 139.217 59.5251 147.009C57.0441 158.039 62.4901 164.735 69.0331 169.472C69.4411 172.204 71.3671 176.81 73.1451 176.155C75.4211 175.316 80.5221 183.312 83.8911 181.755C107.306 170.917 104.906 157.5 119.46 145.681C126.393 140.051 134.498 137.245 146.473 138.443C151.45 138.943 156.883 140.772 157.545 145.568C158.307 150.846 157.42 156.231 155.007 160.987C147.036 175.744 142.307 181.307 134.854 197.701C129.189 210.167 115.154 217.879 101.633 220.062C98.2281 220.612 88.8601 220.449 89.8631 223.749C107.499 281.763 226.754 316.738 253.417 279.538C276.947 246.71 239.417 259.155 247.184 258.897L287.684 257.555C292.775 257.387 298.648 256.81 301.509 252.596C305.58 246.602 300.117 238.434 293.741 234.996C287.365 231.558 279.641 230.096 274.759 224.744C270.014 219.544 269.159 211.808 270.142 204.837C271.125 197.866 273.695 191.208 274.918 184.275C277.688 168.565 273.399 152.375 266.849 137.835C247.492 94.852 208.164 56.508 166.017 51.635" fill="#DBFCFF"/>
<path d="M87.8431 126.253C81.6316 126.764 75.6247 128.715 70.2991 131.953C64.9586 135.24 61.0011 140.363 59.1691 146.36C57.5131 152.341 58.6921 159.199 62.8101 163.841C65.0171 166.33 68.0331 168.241 69.3441 171.295C69.9071 172.606 70.1521 174.119 71.1551 175.136C71.7346 175.645 72.4339 175.998 73.1874 176.162C73.9408 176.326 74.7235 176.296 75.4621 176.074C76.933 175.615 78.3134 174.904 79.5421 173.974" stroke="black" stroke-miterlimit="10"/>
<path d="M77.1431 177.983C77.2431 179.929 81.3731 181.983 83.3131 182.183C84.3349 182.177 85.3345 181.884 86.1981 181.338C91.9851 177.709 95.8171 174.868 100.157 169.594C105.434 163.18 109.429 155.764 114.978 149.584C120.527 143.404 128.284 138.379 135.212 138.956C138.466 138.463 141.765 138.35 145.045 138.617C148.309 139.011 153.398 138.88 155.645 141.275C158.459 144.27 157.491 150.101 156.812 154.154C156.133 158.207 154.441 163.522 152.097 166.897" stroke="black" stroke-miterlimit="10"/>
<path d="M110.826 131.116C115.567 127.823 121.776 127.516 127.503 128.235C133.23 128.954 138.858 130.564 144.629 130.678C152.537 130.834 160.24 128.156 166.345 123.128C172.45 118.1 176.555 111.053 177.918 103.262C178.593 100.064 178.441 96.7464 177.474 93.624C176.977 92.0709 176.125 90.6548 174.986 89.4878C173.847 88.3208 172.452 87.4348 170.911 86.9" stroke="black" stroke-miterlimit="10"/>
<path d="M153.108 130.124C158.235 134.146 160.351 141.16 159.768 147.65C159.185 154.14 156.261 160.195 152.83 165.735C149.399 171.275 145.411 176.476 142.346 182.227C137.484 191.626 135.173 202.136 135.643 212.707C136.113 223.279 139.349 233.542 145.026 242.472" stroke="black" stroke-miterlimit="10"/>
<path d="M149.5 51.58C145.234 46.68 140.8 41.649 134.938 38.845C125.663 34.41 114.246 36.5 105.588 42.038C107.41 40.7917 109.568 40.1273 111.775 40.1323C113.983 40.1373 116.137 40.8115 117.954 42.066C121.2 44.4 122.84 48.3 124.968 51.679C127.096 55.058 130.468 58.333 134.447 57.979" stroke="white" stroke-miterlimit="10"/>
<path d="M145.25 54.387C144.259 54.528 143.249 54.4635 142.283 54.1976C141.318 53.9316 140.417 53.4698 139.638 52.841C138.089 51.5781 136.636 50.202 135.291 48.724C129.5 43.1018 121.762 39.9318 113.691 39.875" stroke="white" stroke-miterlimit="10"/>
<path d="M232.924 33.057C232.522 32.9878 232.115 32.95 231.707 32.944C232.115 32.964 232.519 33.01 232.924 33.057Z" fill="#FF38B9"/>
<path d="M360.925 120.1C362.541 130.282 360.842 140.663 354.584 148.857C348.326 157.051 340.345 161.986 330.084 160.922C319.823 159.858 310.552 154.422 308.164 144.389C316.905 146.131 326.932 142.34 331.144 135.678C335.258 129.169 336.328 119.051 327.023 108.907C328.823 111.353 330.445 112.827 331.308 115.738C332.171 118.649 330.297 121.038 328.227 123.264C325.175 126.538 320.782 126.484 317.444 124.445C313.623 122.111 310.044 116.663 306.629 113.762C303.609 111.209 300.025 109.413 296.172 108.523C292.32 107.633 288.31 107.675 284.477 108.644C285.721 107.935 286.795 106.964 287.625 105.798C288.456 104.632 289.022 103.3 289.286 101.893C290.276 97.6804 290.927 93.3954 291.233 89.079C291.418 82.758 291.757 77.116 295.774 72.229C297.792 69.8465 300.354 67.9848 303.243 66.8012C306.133 65.6176 309.264 65.147 312.374 65.429C315.427 65.6875 318.316 66.9167 320.62 68.9364C322.923 70.9562 324.519 73.6604 325.174 76.653C326.616 82.81 323.464 90.714 317.315 92.193C326.894 93.211 336.896 86.366 341.915 78.143C344.436 74.0006 345.959 69.3283 346.363 64.4958C346.766 59.6633 346.039 54.8031 344.24 50.3C340.308 41.1372 333.093 33.7754 324.011 29.66C308.616 23.09 288.766 27.719 276.78 39.4C270 46.012 265.527 54.763 258.426 61.03C251.325 67.297 240.357 70.543 233.356 63.664C241.676 66.242 248.556 56.746 248.556 49.164C248.556 40.864 241.15 34.018 232.922 33.058C238.433 33.989 242.122 40.797 241.522 46.526C240.855 52.953 234.791 55.474 228.687 56.418C222.583 57.362 216.941 54.286 211.587 51.211C206.233 48.136 201.151 45.446 195.794 42.372C187.905 37.843 177.113 31.172 166.602 30.397C156.091 29.622 146.663 33.582 141.68 41.32C144.392 42.03 145.615 46.483 147.568 48.496C149.131 50.107 149.246 51.445 150.201 53.996C159.438 47.677 173.809 51.352 183.285 57.306C192.761 63.26 199.015 71.192 198.007 80.043C197.284 86.388 193.882 90 189.242 91.892C192.807 95.457 203.825 94.171 210.112 91.21C212.612 90.034 218.522 85.645 215.922 78.584C238.155 96.784 256.822 113.255 268.6 139.46C275.168 154.069 278.211 169.979 274.244 185.194C272.014 193.746 269.479 202.194 270.6 210.957C271.716 219.69 278.985 226.543 286.994 230.194C306.494 239.085 332.156 226.875 343.183 208.5C324.154 219.861 306.091 204.871 306.091 182.9C315.956 199.056 342.66 187.034 350.844 179.4C357.987 172.732 361.937 168 364.782 158.654C368.516 145.787 367.134 131.976 360.925 120.104" fill="#FF38B9"/>
<path d="M80.555 123.764C79.675 121.778 75.862 120.919 73.702 121.146C71.542 121.373 69.539 121.284 67.502 122.03C65.4613 122.767 63.6703 124.066 62.335 125.776C58.956 130.018 61.126 130.076 61.37 132.1C56.798 130.473 56.809 124.172 58.114 120.643C59.419 117.114 63.901 115.017 67.658 114.774C64.8662 116.015 61.7305 116.251 58.7846 115.44C55.8387 114.63 53.2645 112.824 51.5 110.33C47.785 104.786 47.915 95.788 51.8 90.36C53.2609 88.08 55.5434 86.45 58.174 85.808C60.809 85.334 63.667 86.245 64.483 88.795C62.6611 89.6825 61.2335 91.2149 60.477 93.095C60.019 94.1776 59.7824 95.3409 59.7814 96.5164C59.7804 97.6919 60.0149 98.8556 60.471 99.939C62.403 103.768 65.901 106.497 70.119 105.716C74.337 104.935 78.413 102.04 78.732 94.481C78.972 88.737 75.026 83.699 74.095 78.026C73.401 73.787 74.695 68.326 78.119 65.735C81.543 63.144 92.566 65.705 95.43 67.019C106.286 58.59 93.415 59.728 122.545 49.019C127.993 47.019 135.282 41.481 141.062 42.013C146.842 42.545 150.962 48.675 150.416 54.453C118.4 58.956 106.736 69.683 96.454 90.816C90.932 102.166 88.337 115.29 80.555 123.764Z" fill="#FF38B9"/>
<path d="M93.8831 133.659C87.9602 137.945 82.5943 142.952 77.9091 148.564C79.3901 147 82.0001 147.193 83.9171 148.17C85.8341 149.147 87.3791 150.734 89.2441 151.812C91.1091 152.89 93.6151 153.369 95.3281 152.063C93.8182 151.754 92.4137 151.061 91.251 150.049C90.0883 149.038 89.2068 147.743 88.6921 146.29C87.7001 143.383 88.3811 139.967 93.8831 133.659Z" fill="white"/>
<path d="M93.8831 133.659C87.9602 137.945 82.5943 142.952 77.9091 148.564C79.3901 147 82.0001 147.193 83.9171 148.17C85.8341 149.147 87.3791 150.734 89.2441 151.812C91.1091 152.89 93.6151 153.369 95.3281 152.063C93.8182 151.754 92.4137 151.061 91.251 150.049C90.0883 149.038 89.2068 147.743 88.6921 146.29C87.7001 143.383 88.3811 139.967 93.8831 133.659Z" stroke="black" stroke-miterlimit="10"/>
<path d="M120.908 62.474C107.057 69.368 99.308 84.216 92.908 98.305C86.508 112.394 86.026 121.92 73.145 130.491" stroke="black" stroke-miterlimit="10"/>
<path d="M148.72 56.867C149.988 56.651 130.194 46.833 124.033 44.296C117.872 41.759 114.367 40.163 107.166 41.629C108.666 42.247 117.535 43.1 120.495 47.768C122.233 50.508 124.065 55.223 125.736 58.004C127.085 60.247 127.836 61.155 130.341 61.895C132.846 62.635 143.395 57.773 148.72 56.867Z" fill="#FF38B9"/>
<path d="M138.341 192.335C130.041 210.043 110.315 221.702 90.802 220.426" stroke="black" stroke-miterlimit="10"/>
<path d="M151.13 56C147.336 47.458 141.586 39.095 133.01 35.906C127.368 33.806 121.078 34.206 115.304 35.886C109.53 37.566 104.168 40.446 98.8521 43.31C110.227 39.283 123.843 44.284 131.193 54.092C133.872 57.668 136.584 61.564 151.13 56Z" fill="#DBFCFF"/>
<path d="M137.82 89.6C133.179 90.0864 128.604 91.0758 124.176 92.551C119.809 94.185 115.697 96.891 116.494 103.229C120.607 103.928 124.832 103.045 128.321 100.758C131.761 98.48 134.28 94.858 137.82 89.6Z" fill="white"/>
<path d="M137.82 89.6C133.179 90.0864 128.604 91.0758 124.176 92.551C119.809 94.185 115.697 96.891 116.494 103.229C120.607 103.928 124.832 103.045 128.321 100.758C131.761 98.484 134.281 94.857 137.82 89.6Z" stroke="black" stroke-miterlimit="10"/>
<path d="M80.555 123.764C76.861 120.695 73.387 120.771 68.679 121.723C66.1097 122.179 63.8267 123.637 62.332 125.776C60.853 127.961 59.563 130.176 61.367 132.1C57.858 132.32 56.567 126.777 57.326 122.959C57.7348 121.049 58.6766 119.294 60.0423 117.898C61.408 116.502 63.1416 115.521 65.042 115.07C57.809 117 52.933 113.415 50.429 108.541C49.1924 106.086 48.5322 103.382 48.4988 100.633C48.4653 97.8849 49.0595 95.1651 50.236 92.681C51.4731 89.8484 53.7573 87.6036 56.611 86.416C59.486 85.38 63.088 86.099 64.874 88.579C59.939 91.079 58.425 98.493 61.984 102.727C65.543 106.961 73.106 106.747 76.418 102.317C78.934 98.953 78.864 94.291 77.833 90.217C76.802 86.143 74.939 82.3 74.177 78.174C73.415 74.048 74 69.3 77.117 66.485C77.7658 65.8579 78.5448 65.3816 79.3987 65.0898C80.2525 64.7981 81.1601 64.6981 82.057 64.797C83.834 65.084 94.348 65.281 94.374 67.081C96.974 66.769 96.243 67.417 100.762 70.635C96.083 70.782 85.142 71.644 82.396 75.435C80.21 78.451 80.496 82.608 81.535 86.183C82.574 89.758 84.296 93.168 84.722 96.868C85.0342 99.5707 84.6401 102.308 83.5781 104.813C82.5162 107.318 80.8228 109.505 78.6633 111.159C76.5038 112.814 73.952 113.881 71.2571 114.255C68.5623 114.629 65.8165 114.297 63.288 113.293" stroke="black" stroke-miterlimit="10"/>
<path d="M105.381 54.5C110.79 54.1072 116.012 52.3528 120.561 49.4" stroke="black" stroke-miterlimit="10"/>
<path d="M141.983 41.629C130.745 31.145 111.1 34.073 98.4871 43.513C103.8 40.791 110.3 41 115.886 43.107C121.472 45.214 126.265 49.04 130.437 53.314C131.95 55.0696 133.7 56.6055 135.637 57.877C137.649 59.023 140.237 59.456 142.265 58.33" stroke="black" stroke-miterlimit="10"/>
<path d="M129.8 61.9C127.648 60.7409 125.949 58.8913 124.976 56.649C123.883 54.485 123.125 52.157 121.904 50.063C120.377 47.5117 118.218 45.3963 115.637 43.9203C113.055 42.4442 110.138 41.6573 107.164 41.635" stroke="black" stroke-miterlimit="10"/>
<path d="M141.35 40.987C146.507 33.358 156.326 29.854 165.523 30.321C174.72 30.788 183.402 34.668 191.392 39.248C199.382 43.828 206.949 49.18 215.307 53.048C219.314 54.9 223.587 56.419 228.001 56.434C232.415 56.449 237.014 54.753 239.639 51.204C240.78 49.6226 241.494 47.7738 241.712 45.8361C241.929 43.8984 241.644 41.9373 240.883 40.142C240.081 38.3646 238.833 36.8243 237.262 35.6697C235.69 34.5152 233.847 33.7854 231.911 33.551C240.264 33.06 248.275 40.362 248.555 48.725C248.835 57.088 241.333 64.91 234.285 64.125C240.057 70.11 250.485 68.181 256.938 62.934C263.391 57.687 267.338 50.042 272.725 43.707C280.667 34.363 292.105 27.847 304.315 26.684C316.525 25.521 329.333 29.993 337.536 39.11C345.739 48.227 348.792 61.933 344.445 73.4C340.098 84.867 328.169 93.251 315.921 92.657C322.887 90.913 327.098 82.51 324.921 75.668C322.744 68.826 315.087 64.441 307.964 65.342C300.841 66.243 294.742 71.894 292.6 78.748C290.9 84.167 291.45 89.999 290.906 95.648C290.362 101.297 288.252 107.416 282.315 108.979C286.653 107.625 291.27 107.432 295.705 108.42C300.141 109.407 304.239 111.541 307.593 114.607C312.193 118.916 316.093 125.379 322.393 125.507C324.511 125.469 326.55 124.7 328.165 123.329C329.78 121.958 330.87 120.071 331.251 117.987C331.524 115.885 331.111 113.752 330.074 111.904C329.037 110.056 327.43 108.592 325.494 107.731C333.53 113.252 336.594 124.939 332.294 133.689C327.994 142.439 316.877 147.162 308.171 144.389C311.036 153.847 320.611 160.576 330.488 160.945C340.365 161.314 350.028 155.779 355.507 147.553C360.986 139.327 362.442 128.758 360.341 119.1C364.172 125.414 366.474 132.535 367.065 139.897C367.656 147.258 366.518 154.655 363.743 161.499C360.968 168.343 356.632 174.444 351.081 179.315C345.53 184.186 338.918 187.692 331.772 189.555C322.652 191.933 311.609 190.919 305.736 183.585C306.344 190.175 308.193 196.778 312.023 202.176C315.853 207.574 321.833 211.646 328.423 212.235C335.013 212.824 342.041 209.49 345.386 206.695C338.986 215.268 331.286 223.09 321.827 228.09C312.368 233.09 300.996 235.041 290.795 231.817C280.594 228.593 271.995 219.671 270.685 209.056C269.692 201.032 272.696 193.132 274.244 185.196C278.349 164.152 271.974 142.041 260.489 123.935C249.004 105.829 232.756 91.254 215.924 78.585C217.985 82.075 216.25 86.824 213.1 89.376C209.95 91.928 205.791 92.792 201.787 93.432C197.05 94.189 191.67 94.58 188.643 92.038C195.017 90.712 198.776 83.376 197.97 76.916C197.514 73.662 196.406 70.5334 194.713 67.7172C193.02 64.9011 190.777 62.4553 188.117 60.526C163.298 42.577 150.417 54.446 150.417 54.446C150.417 54.446 149.4 49.037 141.35 40.987Z" stroke="black" stroke-miterlimit="10"/>
<path d="M118.483 58.572C119.44 62.725 113.903 66.485 110.889 69.499C107.784 72.599 105.262 73.113 105.262 73.113C105.262 73.113 91.0381 65.321 87.4161 63.074C69.3591 51.869 48.4581 38.219 26.7411 27.754C57.5411 36.566 78.6411 44.654 118.483 58.572Z" fill="#DB32A0"/>
<path d="M27.0431 28.358C34.6651 32.218 43.0061 35.941 50.6281 39.8C51.9731 40.6327 53.5122 41.0998 55.0931 41.155C56.6661 41.069 58.2931 39.833 58.2051 38.255" stroke="black" stroke-miterlimit="10"/>
<path d="M49.427 39.35C52.343 40.656 54.91 43.021 57.392 44.542C59.874 46.063 62.551 47.476 65.456 47.648C68.361 47.82 71.543 46.435 72.638 43.737" stroke="black" stroke-miterlimit="10"/>
<path d="M57.8 44.876C61.166 45.951 64.0441 48.13 67.0321 50.017C70.0201 51.904 73.3651 53.574 76.8951 53.417C80.4251 53.26 84.0631 50.696 84.2761 47.169" stroke="black" stroke-miterlimit="10"/>
<path d="M71.0541 52.506C74.0541 55.076 77.1341 57.695 80.8331 59.074C84.5321 60.453 89.0401 60.361 92.0631 57.821C94.1571 56.063 95.2631 53.421 96.2261 50.862" stroke="black" stroke-miterlimit="10"/>
<path d="M79.77 58.716C82.347 59.444 84.512 61.148 86.735 62.64C88.958 64.132 91.473 65.484 94.147 65.346C95.4772 65.2069 96.7638 64.7927 97.9253 64.1298C99.0869 63.4668 100.098 62.5695 100.894 61.495C102.706 59.38 104.216 57.0243 105.381 54.495" stroke="black" stroke-miterlimit="10"/>
<path d="M90.363 65.59C95.363 66.309 98.648 72.09 103.691 72.313C105.846 72.2776 107.931 71.5446 109.634 70.224C113.513 67.5177 116.36 63.5756 117.708 59.042L117.281 59.012" stroke="black" stroke-miterlimit="10"/>
<path d="M26.1281 28.115C35.5611 30.623 45.2461 33.381 54.6781 35.889C55.5809 35.9852 56.4417 36.3212 57.1711 36.862C57.9171 37.545 58.5641 38.522 57.9831 39.35" stroke="black" stroke-miterlimit="10"/>
<path d="M56.9561 36.9C61.0101 38.046 65.0641 39.693 69.1181 40.839C70.1826 41.0777 71.181 41.5497 72.0411 42.221C72.9641 43.05 72.5461 44.268 71.8531 45.069" stroke="black" stroke-miterlimit="10"/>
<path d="M72.041 42.509L81.315 45.367C82.2026 45.556 83.0224 45.9821 83.687 46.6C84.0035 46.9214 84.1821 47.3536 84.1847 47.8047C84.1874 48.2557 84.0138 48.69 83.701 49.015" stroke="black" stroke-miterlimit="10"/>
<path d="M84.0171 47.273L94.8541 50.055C95.2783 50.116 95.6698 50.3174 95.9661 50.627C96.2221 50.967 96.1251 51.581 95.7081 51.664" stroke="black" stroke-miterlimit="10"/>
<path d="M96.125 50.757L103.58 52.857C104.244 52.9609 104.846 53.309 105.267 53.833C105.612 54.403 105.238 55.369 104.578 55.276" stroke="black" stroke-miterlimit="10"/>
<path d="M120.561 63.518C108.012 76.047 98.7481 93.724 94.9431 111.043C94.1361 114.715 93.4831 118.593 91.1891 121.572C88.0231 125.684 82.5251 126.588 77.4651 127.741C83.9951 121.767 87.2271 113.441 90.5321 105.228C93.6899 97.0414 97.5608 89.1481 102.1 81.639C106.776 74.125 114.143 66.033 120.558 63.518" fill="#DB32A0"/>
<path d="M82.1301 128.592C75.2203 131.7 69.7952 137.381 67.0081 144.426C64.2881 151.401 63.4381 159.948 66.4171 166.817C62.8843 164.157 60.3947 160.344 59.3808 156.04C58.367 151.735 58.8928 147.212 60.8671 143.255C64.8381 134.677 75.3991 128.109 82.1301 128.592Z" fill="#DB32A0"/>
<path d="M270.638 202.711C265.16 221.92 251.238 241.671 232.685 249.556C214.132 257.441 191.485 255.792 174.89 244.414C158.295 233.036 148.743 212 152.195 192.334C143.542 216.674 149.908 245.59 168.014 264.175C159.25 256.153 144.2 256.624 135.407 264.615C126.614 272.606 124.668 286.7 130.237 297.144C129.202 285.472 139.344 275.028 150.777 271.924C162.21 268.82 174.406 271.424 185.7 274.993C196.994 278.562 208.161 283.116 219.985 283.979C231.809 284.842 242.824 280.162 251.493 271.492C241.423 279.643 235.2 283.877 236.038 293.803C236.876 303.729 242.907 312.424 249.232 320.178C242.28 312.386 247.132 299.502 255.332 293.001C263.532 286.5 274.143 283.765 282.97 278.124C298.19 268.398 306.939 249.629 304.53 231.878" fill="#FF38B9"/>
<path d="M270.638 202.711C265.16 221.92 251.238 241.671 232.685 249.556C214.132 257.441 191.485 255.792 174.89 244.414C158.295 233.036 148.743 212 152.195 192.334C143.542 216.674 149.908 245.59 168.014 264.175C159.25 256.153 144.2 256.624 135.407 264.615C126.614 272.606 124.668 286.7 130.237 297.144C129.202 285.472 139.344 275.028 150.777 271.924C162.21 268.82 174.406 271.424 185.7 274.993C196.994 278.562 208.161 283.116 219.985 283.979C231.809 284.842 242.824 280.162 251.493 271.492C241.423 279.643 235.2 283.877 236.038 293.803C236.876 303.729 242.907 312.424 249.232 320.178C242.28 312.386 247.132 299.502 255.332 293.001C263.532 286.5 274.143 283.765 282.97 278.124C298.19 268.398 306.939 249.629 304.53 231.878" stroke="black" stroke-miterlimit="10"/>
<path d="M148.667 49.527C157.286 44.6399 167.443 43.2185 177.072 45.5518C186.702 47.885 195.082 53.7977 200.508 62.088C204.093 67.565 206.287 74.297 204.918 80.698C203.549 87.099 197.912 92.79 191.367 92.767C198.832 87.422 201.077 76.499 197.582 68.008C194.087 59.517 185.776 53.589 176.837 51.49C167.898 49.391 158.437 50.748 148.667 49.527Z" fill="#DB32A0"/>
<path d="M95.389 69.993C90.656 69.708 85.126 69.759 82.202 73.493C80.151 76.11 80.102 79.804 80.871 83.039C81.64 86.274 82.934 91.565 83.641 94.814C84.967 100.914 83.008 105.163 78.765 109.74C76.6318 112.033 73.9216 113.71 70.9179 114.597C67.9141 115.483 64.7274 115.546 61.691 114.779C58.7531 113.949 56.1429 112.233 54.2171 109.864C52.2913 107.495 51.1437 104.589 50.931 101.544C50.5 95.317 54.7 88.97 60.7 87.256C55.764 92.465 55.785 101.774 61.135 106.556C66.485 111.338 76.25 109.942 79.59 103.59C81.99 99.021 80.98 93.443 79.435 88.518C77.89 83.593 75.841 78.6 76.352 73.465C76.863 68.33 81.119 63.088 95.389 69.993Z" fill="#DB32A0"/>
<path d="M238.915 69.642C244.153 73.842 251.993 73.428 257.907 70.256C263.821 67.084 268.165 61.656 271.982 56.133C275.799 50.61 279.325 44.786 284.258 40.233C292.25 32.863 303.906 29.493 314.49 31.981C325.074 34.469 334.16 42.945 336.879 53.472C339.598 63.999 335.544 76.083 326.728 82.445C329.706 78.4254 331.247 73.5224 331.106 68.5221C330.964 63.5219 329.148 58.7139 325.948 54.869C322.554 51.1951 318.024 48.7674 313.085 47.9751C308.147 47.1829 303.085 48.072 298.712 50.5C291.156 54.95 287.081 63.393 281.378 70.054C275.832 76.53 268.138 81.59 259.635 82.224C251.132 82.858 242.008 78.247 238.915 69.645" fill="#DB32A0"/>
<path d="M281.89 113.264C286.204 110.026 292.39 110.212 297.269 112.511C302.148 114.81 305.946 118.89 309.29 123.123C311.479 125.894 313.557 128.802 316.259 131.076C318.961 133.35 322.44 134.962 325.952 134.586C329.464 134.21 332.311 123.791 332.506 120.264C334.863 129.809 330.625 137.551 324.253 140.964C320.109 143.186 312.661 145.207 308.253 143.564C303.67 141.854 299.127 140.355 296.97 135.964C294.813 131.573 293.409 126.82 290.936 122.6C288.463 118.38 284.577 114.589 281.887 113.26" fill="#DB32A0"/>
<path d="M302.877 160.7C309.088 166.637 316.034 172.06 324.127 174.945C332.22 177.83 341.64 177.899 349.048 173.545C355.612 169.689 359.948 162.797 362.257 155.545C364.566 148.293 365.077 140.607 365.569 133.011C366.994 140.226 366.744 147.671 364.841 154.774C362.937 161.877 359.429 168.449 354.587 173.984C344.845 184.941 332.234 191.496 316.68 188.684C312.772 187.977 306.98 183.314 304.48 180.229C302.087 177.278 301.853 178.184 301.726 174.388C301.526 168.288 301.316 162.188 302.875 160.7" fill="#DB32A0"/>
<path d="M213.5 75.72C234.386 78.053 253.3 91.141 264.906 108.662C276.512 126.183 281.206 147.716 280.453 168.718C280.108 178.34 278.698 188.188 281.345 197.445C283.088 203.266 286.339 208.522 290.767 212.683C295.195 216.844 300.643 219.762 306.561 221.14C318.388 223.74 331.502 219.088 340.303 210.287C334.191 219.251 323.721 227.07 314.783 230.221C307.876 232.655 304.497 233.276 297.174 233.167C293.518 233.092 289.919 232.252 286.608 230.7C283.298 229.149 280.349 226.92 277.953 224.158C273.126 218.558 271.729 210.711 272.125 203.332C272.521 195.953 274.499 188.76 275.613 181.455C278.795 160.124 274.606 138.345 263.737 119.716C252.9 101.294 235.592 86.77 213.5 75.72Z" fill="#DB32A0"/>
<path d="M257 137.67C261.821 157.798 259.976 178.947 251.743 197.937C243.511 216.926 229.335 232.729 211.349 242.97C216.587 248.275 225.617 245.464 231.936 241.507C256.307 226.243 271.89 197.87 271.696 169.113C271.605 155.552 266.95 140.398 256.996 137.671" fill="#CCEDF0"/>
<path d="M169.658 88.866C172.778 92.729 173.517 98.112 172.627 102.997C171.737 107.882 163.14 120.622 160.6 124.892C161.457 125.492 169.583 117.235 170.05 116.378C172.193 112.442 175.319 106.019 175.873 101.572C176.427 97.125 175.515 92.339 169.653 88.866" fill="#CCEDF0"/>
<path d="M81.4911 175.177C83.9841 176.477 87.1381 175.791 89.4701 174.216C91.8021 172.641 93.4971 170.316 95.2021 168.075C101.682 159.569 109.368 149.435 117.345 142.314C123.024 137.244 131.998 133.214 139.345 137.67C127.993 136.816 124.327 138.303 116.389 146.462C108.451 154.621 100.648 168.623 92.2971 176.362C90.4621 178.062 88.2971 179.749 85.7911 179.716C83.2851 179.683 80.8341 176.928 81.4861 175.18" fill="#CCEDF0"/>
<path d="M134.884 200.234C133.273 210.159 134.027 220.325 137.085 229.903C140.143 239.482 145.419 248.204 152.484 255.359C147.872 254.485 143.109 254.872 138.699 256.48C134.289 258.088 130.394 260.857 127.427 264.495C128.494 243.348 129.817 223.637 134.88 200.234" fill="#CCEDF0"/>
<path d="M161.916 153.635C157.149 165.604 148.039 175.408 142.923 187.235C139.672 194.905 138.159 203.199 138.495 211.523C138.831 219.846 141.006 227.992 144.865 235.375C139.165 222.256 141.473 206.975 146.347 193.526C151.221 180.077 158.511 167.577 161.916 153.638" fill="#CCEDF0"/>
<path d="M273.3 208.505C276.69 216.944 280.109 225.487 281.364 234.495C282.619 243.503 281.509 253.166 276.432 260.711C272.102 267.144 265.362 271.461 259.574 276.621C253.786 281.781 248.574 288.736 249.096 296.473C249.955 290.435 254.907 285.729 260.296 282.873C265.685 280.017 271.696 278.516 277.182 275.859C294.063 267.688 304.422 247.819 301.458 229.301" fill="#DB32A0"/>
<path d="M256.356 236.276C246.669 247.668 233.386 255.415 218.702 258.237C204.017 261.06 188.809 258.789 175.589 251.8C167.883 247.726 160.789 241.828 157.208 233.882C158.015 239.228 161.048 243.997 164.608 248.065C170.494 254.672 177.848 259.805 186.079 263.052C194.31 266.299 203.189 267.569 212 266.76C229.552 264.995 245.975 254.323 256.359 236.276" fill="#DB32A0"/>
<path d="M236.05 164.235C236.05 160.962 232.012 157.861 225.822 155.935C227.251 149.53 226.616 144.435 223.822 142.804C223.146 142.418 222.378 142.223 221.6 142.24V144.486C221.993 144.474 222.383 144.564 222.731 144.747C224.08 145.533 224.665 148.523 224.209 152.37C224.1 153.317 223.921 154.313 223.703 155.33C221.63 154.822 219.525 154.455 217.403 154.23C216.141 152.462 214.762 150.78 213.276 149.195C216.51 146.144 219.546 144.473 221.61 144.473V142.227C218.881 142.227 215.31 144.201 211.699 147.627C208.088 144.227 204.516 142.27 201.788 142.27V144.516C203.842 144.516 206.888 146.177 210.122 149.208C208.642 150.788 207.273 152.466 206.022 154.233C203.896 154.454 201.788 154.824 199.713 155.341C199.485 154.334 199.313 153.357 199.197 152.42C198.731 148.574 199.306 145.583 200.645 144.788C200.994 144.598 201.389 144.507 201.786 144.526V142.28C201.002 142.264 200.227 142.459 199.544 142.844C196.756 144.476 196.132 149.561 197.57 155.944C191.399 157.877 187.381 160.968 187.381 164.231C187.381 167.494 191.419 170.605 197.61 172.531C196.181 178.931 196.816 184.031 199.61 185.662C200.289 186.048 201.061 186.243 201.842 186.225C204.57 186.225 208.142 184.252 211.752 180.825C215.364 184.225 218.935 186.182 221.663 186.182C222.448 186.199 223.222 186.004 223.905 185.618C226.693 183.987 227.318 178.902 225.879 172.518C232.03 170.595 236.048 167.493 236.048 164.231M223.131 157.515C222.764 158.815 222.308 160.153 221.792 161.492C221.385 160.686 220.959 159.881 220.492 159.075C220.025 158.269 219.549 157.484 219.063 156.719C220.472 156.93 221.831 157.192 223.13 157.519M218.587 168.242C217.813 169.602 217.019 170.891 216.196 172.089C214.718 172.22 213.22 172.289 211.712 172.289C210.204 172.289 208.712 172.219 207.248 172.098C206.424 170.898 205.62 169.621 204.848 168.272C204.094 166.953 203.409 165.613 202.784 164.264C203.399 162.915 204.094 161.564 204.838 160.246C205.612 158.887 206.405 157.598 207.229 156.4C208.707 156.269 210.205 156.2 211.713 156.2C213.221 156.2 214.713 156.271 216.177 156.392C217 157.592 217.804 158.869 218.577 160.218C219.331 161.537 220.015 162.876 220.64 164.226C220.015 165.575 219.331 166.925 218.587 168.242ZM221.787 166.935C222.308 168.247 222.764 169.583 223.156 170.942C221.856 171.264 220.488 171.536 219.069 171.748C219.555 170.972 220.041 170.177 220.498 169.361C220.955 168.545 221.38 167.74 221.787 166.935ZM211.728 177.679C210.754 176.653 209.833 175.577 208.97 174.456C209.863 174.497 210.77 174.527 211.698 174.527C212.626 174.527 213.553 174.507 214.456 174.456C213.605 175.578 212.694 176.654 211.728 177.679ZM204.347 171.748C202.938 171.536 201.579 171.274 200.279 170.948C200.646 169.648 201.103 168.31 201.619 166.971C202.025 167.776 202.452 168.582 202.919 169.387C203.386 170.192 203.862 170.978 204.348 171.744M211.679 150.789C212.653 151.815 213.573 152.891 214.437 154.011C213.544 153.971 212.631 153.941 211.709 153.941C210.787 153.941 209.854 153.961 208.951 154.011C209.802 152.889 210.713 151.813 211.679 150.789ZM204.338 156.72C203.852 157.495 203.366 158.291 202.909 159.106C202.452 159.921 202.026 160.718 201.62 161.523C201.099 160.211 200.642 158.875 200.251 157.516C201.551 157.203 202.919 156.931 204.338 156.716M195.36 169.323C191.848 167.802 189.576 165.809 189.576 164.223C189.576 162.637 191.848 160.638 195.36 159.123C196.213 158.75 197.145 158.418 198.108 158.106C198.714 160.198 199.46 162.246 200.34 164.238C199.471 166.22 198.736 168.258 198.14 170.338C197.158 170.026 196.226 169.684 195.363 169.311M200.7 183.7C199.351 182.915 198.765 179.924 199.222 176.078C199.331 175.131 199.509 174.134 199.728 173.117C201.801 173.625 203.906 173.993 206.028 174.217C207.29 175.985 208.669 177.667 210.155 179.251C206.921 182.303 203.885 183.974 201.822 183.974C201.432 183.978 201.046 183.885 200.701 183.702M224.233 176.029C224.699 179.876 224.124 182.866 222.784 183.662C222.435 183.852 222.04 183.942 221.643 183.924C219.59 183.924 216.543 182.262 213.31 179.231C214.79 177.652 216.16 175.973 217.41 174.207C219.537 173.985 221.645 173.615 223.72 173.099C223.943 174.066 224.115 175.044 224.236 176.029M228.055 169.313C227.202 169.686 226.269 170.018 225.307 170.33C224.7 168.239 223.955 166.19 223.075 164.198C223.945 162.216 224.68 160.179 225.275 158.098C226.257 158.41 227.19 158.752 228.063 159.125C231.575 160.645 233.847 162.639 233.847 164.225C233.847 165.811 231.565 167.81 228.053 169.325" fill="#61DAFB"/>
<path d="M211.7 168.837C212.612 168.85 213.508 168.591 214.273 168.094C215.038 167.597 215.638 166.883 215.997 166.044C216.355 165.204 216.455 164.277 216.286 163.381C216.116 162.484 215.683 161.658 215.042 161.008C214.402 160.358 213.582 159.914 212.688 159.731C211.794 159.548 210.866 159.635 210.021 159.981C209.177 160.327 208.454 160.917 207.946 161.675C207.438 162.432 207.166 163.324 207.166 164.237C207.157 165.448 207.63 166.613 208.481 167.476C209.331 168.338 210.489 168.828 211.7 168.837Z" fill="#61DAFB"/>
</g>
</g>
</g>
<defs>
<clipPath id="clip0_804_81">
<rect width="401" height="344" fill="white"/>
</clipPath>
</defs>
</svg>
