<svg xmlns="http://www.w3.org/2000/svg" id="Layer_2" data-name="Layer 2" viewBox="0 0 524 545.87"><defs><radialGradient id="radial-gradient" cx="2074.48" cy="4697.12" r="47.81" fx="2074.48" fy="4697.12" gradientTransform="matrix(3.38 0 0 3.38 -6671.28 -15696.41)" gradientUnits="userSpaceOnUse"><stop offset="0" stop-color="#fffed6"/><stop offset=".07" stop-color="#fffbdb" stop-opacity=".83"/><stop offset=".16" stop-color="#fff9e1" stop-opacity=".64"/><stop offset=".26" stop-color="#fff7e7" stop-opacity=".47"/><stop offset=".36" stop-color="#fff5eb" stop-opacity=".32"/><stop offset=".47" stop-color="#fff4ef" stop-opacity=".21"/><stop offset=".58" stop-color="#fff3f2" stop-opacity=".11"/><stop offset=".7" stop-color="#fff2f4" stop-opacity=".05"/><stop offset=".83" stop-color="#fff2f5" stop-opacity=".01"/><stop offset="1" stop-color="#fff2f6" stop-opacity="0"/></radialGradient><style>.cls-3,.cls-8{stroke-width:0}.cls-3{fill:#fff;opacity:.4}.cls-8{fill:#e6dacf}</style></defs><g id="Layer_1-2" data-name="Layer 1"><path d="M184.74 542.04c105.12 17.3 167.24-29.88 158.35-26.77-56.39 19.76-103.16 15.43-135.43 1.3-32.28-14.13-60.41-41.2-71.32-74.7-10.9-33.5-4.08-73.02 19.98-98.76 2.12 14 14.74 30.42 31.63 37.1 12.15 4.8 26.77 5.27 35.88 14.65 4.02 4.13 6.48 9.62 10.73 13.52 8.16 7.48 21.22 7.22 31.16 2.33 9.94-4.88 17.46-13.48 24.68-21.87-18.89-34.46-37.79-68.92-62.17-102.46-6.24-23.2-28.46-40.06-52.18-43.85-23.72-3.79-48.24 3.99-68.24 17.3-20 13.31-35.99 31.79-50.37 51.04-28.67 38.41-51.68 46.32-41.8 94.42 26.68 66.4 98.12 125.07 169.09 136.75Z" style="fill:#fff2e6;stroke-width:0"/><path d="M215.2 244.67a88.56 88.56 0 0 0 15.76-26.8c-20.27 8.3-37.96 22.77-50.13 40.98" class="cls-8"/><path d="M178.93 259.7c56.32-25.77 112.65-51.53 168.97-77.3-42.55 29.35-85.1 58.69-127.64 88.04-5.42 3.74-10.99 7.55-17.34 9.28-6.36 1.74-13.78 1.04-18.62-3.43-4.84-4.47-5.72-13.19-5.36-16.6Z" style="fill:#fffbbf;stroke-width:0"/><path d="M136.82 276.24c27.52-10.32 58.64-10.73 86.42-1.14-21.61 12.08-46.82 17.62-71.51 15.73-3.59-.28-7.52-.88-9.86-3.61-2.35-2.73-1.38-8.13-5.05-10.98Z" class="cls-8"/><circle cx="341.59" cy="182.4" r="182.4" style="stroke-width:0;fill:url(#radial-gradient)"/><path d="M198.58 331.82c4.2 13.18 18.33 10.86 21.88 6.16 1.06-1.4-9.27 3.56-21.88-6.16Z" style="fill:#a3a3a3;stroke-width:0"/><path d="M193.29 254.06c-17.12-16.29-36.41-37.37-60.04-37.87-23.63-.49-47.5 2.43-70.76-1.78-23.25-4.21-30.66-13.56-31.09-12.88-59.16 93.62-16.56 199.44-16.56 199.44s34.7-63.81 36.11-66.34c7.17-3.11 15.41-3.77 22.27-.26 9.08 4.65 13.67 16.55 10.05 26.1-3.62 9.54-14.94 15.42-24.82 12.88 10.13 6.41 24.12.57 31.67-8.74 7.55-9.31 4.28-60.61 9.57-71.36 14.46-29.37 39.83-37.16 64.84-36.66 4.43.54 7.99-1.56 14.33 4.77 2.92-4.38 10.05-5.84 14.43-7.3Z" style="fill:#67a2fa;stroke-width:0"/><path d="M28.56 206.18s20.36 12.64 53.25 15.81c18.85 1.82 38.09-1.75 56.77 1.33 14.99 2.47 40.48 13.27 46.16 30.57-18.15-13.19-36.16-20.37-58.56-21.61-22.4-1.24-44.94-.82-67.07-4.48-13.59-2.25-34.36-14.93-34.36-14.93l3.8-6.68Z" class="cls-3"/><path d="M160.78 245.53c-19.61-7.64-41.29-7.43-62.32-6.72s-41 1.59-61.17-4.43c-7.49-2.24-12.72-4.42-18.9-8.69-3.69 10.91-7.21 10.21 8.32 18.65 19.25 10.47 42 13.55 63.62 10 23.15-3.81 46.76-13.53 70.45-8.81Z" class="cls-3"/><path d="M50.78 283.01c-50.43-9.38-48.06-4.8-49.64 8.18-3.28 27.03-2.05-2.64 49.64-8.18Z" style="fill:#fff;opacity:.2;stroke-width:0"/></g></svg>
